<svg width="202" height="202" viewBox="0 0 202 202" fill="none" xmlns="http://www.w3.org/2000/svg">
<rect x="0.5" y="0.5" width="200.49" height="200.49" fill="#1F1F1F"/>
<rect x="0.5" y="0.5" width="200.49" height="200.49" fill="#0F081F"/>
<rect x="0.5" y="0.5" width="200.49" height="200.49" stroke="#9564FF"/>
<path d="M16.2031 16.4863H184.406V184.689H16.2031V16.4863Z" fill="#1F1F1F"/>
<path d="M16.2031 16.4863H184.406V184.689H16.2031V16.4863Z" fill="#0F081F"/>
<path d="M16.2031 16.4863H184.406M16.2031 16.4863V184.689M16.2031 16.4863L184.406 184.689M184.406 16.4863V184.689M184.406 16.4863L16.2031 184.689M184.406 184.689H16.2031" stroke="#9564FF"/>
<g clip-path="url(#clip0_4213_20575)">
<rect x="36.5" y="36.5" width="128" height="128" fill="#32205A"/>
<path d="M59.962 117.271L69.1962 84.8137H76.2362L85.4705 117.271H79.6648L72.7162 91.2137L65.7677 117.271H59.962ZM65.6305 109.591L67.1848 104.517H78.2477L79.802 109.591H65.6305ZM90.1612 117.271V84.8137H100.447C102.672 84.8137 104.637 85.2404 106.344 86.0937C108.051 86.947 109.376 88.1356 110.321 89.6594C111.266 91.1832 111.738 92.9966 111.738 95.0994C111.738 97.1718 111.266 98.9699 110.321 100.494C109.376 102.018 108.051 103.206 106.344 104.059C104.637 104.882 102.672 105.294 100.447 105.294H95.8298V117.271H90.1612ZM95.8298 100.128H99.8527C101.895 100.128 103.403 99.7013 104.378 98.848C105.384 97.9642 105.887 96.7147 105.887 95.0994C105.887 93.4232 105.384 92.1585 104.378 91.3051C103.403 90.4518 101.895 90.0251 99.8527 90.0251H95.8298V100.128ZM117.572 117.271V84.8137H127.858C130.082 84.8137 132.048 85.2404 133.755 86.0937C135.461 86.947 136.787 88.1356 137.732 89.6594C138.677 91.1832 139.149 92.9966 139.149 95.0994C139.149 97.1718 138.677 98.9699 137.732 100.494C136.787 102.018 135.461 103.206 133.755 104.059C132.048 104.882 130.082 105.294 127.858 105.294H123.241V117.271H117.572ZM123.241 100.128H127.263C129.305 100.128 130.814 99.7013 131.789 98.848C132.795 97.9642 133.298 96.7147 133.298 95.0994C133.298 93.4232 132.795 92.1585 131.789 91.3051C130.814 90.4518 129.305 90.0251 127.263 90.0251H123.241V100.128Z" fill="#9564FF"/>
<g filter="url(#filter0_f_4213_20575)" style="mix-blend-mode:plus-lighter">
<circle cx="79.9915" cy="58.0962" r="72.2571" fill="#9564FF"/>
</g>
</g>
<rect x="35.7" y="35.7" width="129.6" height="129.6" stroke="#9564FF" stroke-width="1.6"/>
<defs>
<filter id="filter0_f_4213_20575" x="-207.266" y="-229.161" width="574.514" height="574.514" filterUnits="userSpaceOnUse" color-interpolation-filters="sRGB">
<feFlood flood-opacity="0" result="BackgroundImageFix"/>
<feBlend mode="normal" in="SourceGraphic" in2="BackgroundImageFix" result="shape"/>
<feGaussianBlur stdDeviation="107.5" result="effect1_foregroundBlur_4213_20575"/>
</filter>
<clipPath id="clip0_4213_20575">
<rect x="36.5" y="36.5" width="128" height="128" fill="white"/>
</clipPath>
</defs>
</svg>
