<svg width="12" height="12" viewBox="0 0 12 12" fill="none" xmlns="http://www.w3.org/2000/svg">
<path d="M0 0H2.40008V2.40008H0V0Z" fill="white"/>
<path d="M0 9.59992H2.40008V12H0V9.59992Z" fill="white"/>
<path d="M2.39949 2.40047H4.79957V4.80055H2.39949V2.40047Z" fill="white"/>
<path d="M7.20043 2.40047H9.60051V4.80055H7.20043V2.40047Z" fill="white"/>
<path d="M4.79996 0H7.20004V2.40008H4.79996V0Z" fill="white"/>
<path d="M9.59992 0H12V2.40008H9.59992V0Z" fill="white"/>
<path d="M0 4.79996H2.40008V7.20004H0V4.79996Z" fill="white"/>
<path d="M2.39949 7.20043H4.79957V9.60051H2.39949V7.20043Z" fill="white"/>
<path d="M7.20043 7.20043H9.60051V9.60051H7.20043V7.20043Z" fill="white"/>
<path d="M4.79996 9.59992H7.20004V12H4.79996V9.59992Z" fill="white"/>
<path d="M9.59992 4.79996H12V7.20004H9.59992V4.79996Z" fill="white"/>
<path d="M9.59992 9.59992H12V12H9.59992V9.59992Z" fill="white"/>
</svg>
