<svg width="9" height="58" viewBox="0 0 9 58" fill="none" xmlns="http://www.w3.org/2000/svg">
<path d="M4.26754 -4.29154e-06C1.91112 -4.39454e-06 0.000872715 1.91025 0.000872612 4.26666C0.000872509 6.62308 1.91112 8.53333 4.26754 8.53333C6.62395 8.53333 8.53421 6.62308 8.53421 4.26666C8.53421 1.91025 6.62395 -4.18853e-06 4.26754 -4.29154e-06ZM4.26758 49C1.91116 49 0.000911581 50.9102 0.000911478 53.2667C0.000911375 55.6231 1.91116 57.5333 4.26758 57.5333C6.62399 57.5333 8.53424 55.6231 8.53424 53.2667C8.53424 50.9102 6.62399 49 4.26758 49ZM4.26754 4.26666L3.46754 4.26666L3.46754 6.30833L4.26754 6.30833L5.06754 6.30833L5.06754 4.26666L4.26754 4.26666ZM4.26754 10.3917L3.46754 10.3917L3.46755 14.475L4.26755 14.475L5.06755 14.475L5.06754 10.3917L4.26754 10.3917ZM4.26755 18.5583L3.46755 18.5583L3.46755 22.6417L4.26755 22.6417L5.06755 22.6417L5.06755 18.5583L4.26755 18.5583ZM4.26756 26.725L3.46756 26.725L3.46756 30.8083L4.26756 30.8083L5.06756 30.8083L5.06756 26.725L4.26756 26.725ZM4.26756 34.8917L3.46756 34.8917L3.46757 38.975L4.26757 38.975L5.06757 38.975L5.06756 34.8917L4.26756 34.8917ZM4.26757 43.0583L3.46757 43.0583L3.46757 47.1417L4.26757 47.1417L5.06757 47.1417L5.06757 43.0583L4.26757 43.0583ZM4.26758 51.225L3.46758 51.225L3.46758 53.2667L4.26758 53.2667L5.06758 53.2667L5.06758 51.225L4.26758 51.225ZM4.26754 -4.29154e-06C1.91112 -4.39454e-06 0.000872715 1.91025 0.000872612 4.26666C0.000872509 6.62308 1.91112 8.53333 4.26754 8.53333C6.62395 8.53333 8.53421 6.62308 8.53421 4.26666C8.53421 1.91025 6.62395 -4.18853e-06 4.26754 -4.29154e-06ZM4.26758 49C1.91116 49 0.000911581 50.9102 0.000911478 53.2667C0.000911375 55.6231 1.91116 57.5333 4.26758 57.5333C6.62399 57.5333 8.53424 55.6231 8.53424 53.2667C8.53424 50.9102 6.62399 49 4.26758 49ZM4.26754 4.26666L3.46754 4.26666L3.46754 6.30833L4.26754 6.30833L5.06754 6.30833L5.06754 4.26666L4.26754 4.26666ZM4.26754 10.3917L3.46754 10.3917L3.46755 14.475L4.26755 14.475L5.06755 14.475L5.06754 10.3917L4.26754 10.3917ZM4.26755 18.5583L3.46755 18.5583L3.46755 22.6417L4.26755 22.6417L5.06755 22.6417L5.06755 18.5583L4.26755 18.5583ZM4.26756 26.725L3.46756 26.725L3.46756 30.8083L4.26756 30.8083L5.06756 30.8083L5.06756 26.725L4.26756 26.725ZM4.26756 34.8917L3.46756 34.8917L3.46757 38.975L4.26757 38.975L5.06757 38.975L5.06756 34.8917L4.26756 34.8917ZM4.26757 43.0583L3.46757 43.0583L3.46757 47.1417L4.26757 47.1417L5.06757 47.1417L5.06757 43.0583L4.26757 43.0583ZM4.26758 51.225L3.46758 51.225L3.46758 53.2667L4.26758 53.2667L5.06758 53.2667L5.06758 51.225L4.26758 51.225Z" fill="#9564FF"/>
</svg>
