<svg width="12" height="12" viewBox="0 0 12 12" fill="none" xmlns="http://www.w3.org/2000/svg">
<path d="M0 2.40047H2.40008V4.80055H0V2.40047Z" fill="white"/>
<path d="M0 7.20043H2.40008V9.60051H0V7.20043Z" fill="white"/>
<path d="M2.39949 0H4.79957V2.40008H2.39949V0Z" fill="white"/>
<path d="M2.39949 4.79996H4.79957V7.20004H2.39949V4.79996Z" fill="white"/>
<path d="M2.39949 9.59992H4.79957V12H2.39949V9.59992Z" fill="white"/>
<path d="M4.79996 2.40047H7.20004V4.80055H4.79996V2.40047Z" fill="white"/>
<path d="M4.79996 7.20043H7.20004V9.60051H4.79996V7.20043Z" fill="white"/>
<path d="M7.20043 0H9.60051V2.40008H7.20043V0Z" fill="white"/>
<path d="M9.59992 2.40047H12V4.80055H9.59992V2.40047Z" fill="white"/>
<path d="M7.20043 4.79996H9.60051V7.20004H7.20043V4.79996Z" fill="white"/>
<path d="M7.20043 9.59992H9.60051V12H7.20043V9.59992Z" fill="white"/>
<path d="M9.59992 7.20043H12V9.60051H9.59992V7.20043Z" fill="white"/>
</svg>
