<svg width="152" height="78" viewBox="0 0 152 78" fill="none" xmlns="http://www.w3.org/2000/svg">
<path d="M151.534 4.26667C151.534 6.62308 149.624 8.53333 147.268 8.53333C144.911 8.53333 143.001 6.62308 143.001 4.26667C143.001 1.91025 144.911 1.15968e-06 147.268 9.53674e-07C149.624 7.4767e-07 151.534 1.91025 151.534 4.26667ZM93.2676 4.26665L93.2676 3.46665V3.46665L93.2676 4.26665ZM82.7676 14.7667L83.5676 14.7667V14.7667L82.7676 14.7667ZM82.7676 62.7666L81.9676 62.7666V62.7666L82.7676 62.7666ZM72.2676 73.2667L72.2676 74.0667V74.0667L72.2676 73.2667ZM8.53425 73.2666C8.53425 75.6231 6.624 77.5333 4.26758 77.5333C1.91117 77.5333 0.000921766 75.6231 0.00092156 73.2666C0.000921354 70.9102 1.91117 69 4.26758 69C6.624 69 8.53425 70.9102 8.53425 73.2666ZM147.268 4.26667L147.268 5.06667L145.339 5.06667L145.339 4.26667L145.339 3.46667L147.268 3.46667L147.268 4.26667ZM141.482 4.26667L141.482 5.06667L137.625 5.06666L137.625 4.26666L137.625 3.46666L141.482 3.46667L141.482 4.26667ZM133.768 4.26666L133.768 5.06666L129.91 5.06666L129.91 4.26666L129.91 3.46666L133.768 3.46666L133.768 4.26666ZM126.053 4.26666L126.053 5.06666L122.196 5.06666L122.196 4.26666L122.196 3.46666L126.053 3.46666L126.053 4.26666ZM118.339 4.26666L118.339 5.06666L114.482 5.06666L114.482 4.26666L114.482 3.46666L118.339 3.46666L118.339 4.26666ZM110.625 4.26666L110.625 5.06666L106.768 5.06666L106.768 4.26666L106.768 3.46666L110.625 3.46666L110.625 4.26666ZM102.91 4.26665L102.91 5.06665L99.0533 5.06665L99.0533 4.26665L99.0533 3.46665L102.91 3.46665L102.91 4.26665ZM95.1961 4.26665L95.1961 5.06665L93.2676 5.06665L93.2676 4.26665L93.2676 3.46665L95.1961 3.46665L95.1961 4.26665ZM93.2676 4.26665L93.2676 5.06665C92.6187 5.06665 91.9855 5.13025 91.3736 5.2513L91.2184 4.46651L91.0631 3.68172C91.7767 3.54054 92.5139 3.46665 93.2676 3.46665L93.2676 4.26665ZM87.4336 6.03522L87.8787 6.69999C86.8205 7.4084 85.9093 8.3196 85.2009 9.37774L84.5361 8.93269L83.8714 8.48763C84.6961 7.2557 85.7566 6.1952 86.9886 5.37044L87.4336 6.03522ZM82.9674 12.7175L83.7522 12.8727C83.6312 13.4846 83.5676 14.1178 83.5676 14.7667L82.7676 14.7667L81.9676 14.7667C81.9676 14.013 82.0415 13.2758 82.1826 12.5622L82.9674 12.7175ZM82.7676 14.7667L83.5676 14.7667L83.5676 16.7667L82.7676 16.7667L81.9676 16.7667L81.9676 14.7667L82.7676 14.7667ZM82.7676 20.7667L83.5676 20.7667L83.5676 24.7667L82.7676 24.7667L81.9676 24.7667L81.9676 20.7667L82.7676 20.7667ZM82.7676 28.7667L83.5676 28.7667L83.5676 32.7667L82.7676 32.7667L81.9676 32.7667L81.9676 28.7667L82.7676 28.7667ZM82.7676 36.7667L83.5676 36.7667L83.5676 40.7667L82.7676 40.7667L81.9676 40.7667L81.9676 36.7667L82.7676 36.7667ZM82.7676 44.7666L83.5676 44.7666L83.5676 48.7666L82.7676 48.7666L81.9676 48.7666L81.9676 44.7666L82.7676 44.7666ZM82.7676 52.7666L83.5676 52.7666L83.5676 56.7666L82.7676 56.7666L81.9676 56.7666L81.9676 52.7666L82.7676 52.7666ZM82.7676 60.7666L83.5676 60.7666L83.5676 62.7666L82.7676 62.7666L81.9676 62.7666L81.9676 60.7666L82.7676 60.7666ZM82.7676 62.7666L83.5676 62.7666C83.5676 63.5203 83.4937 64.2575 83.3525 64.9711L82.5677 64.8159L81.7829 64.6606C81.904 64.0487 81.9676 63.4155 81.9676 62.7666L82.7676 62.7666ZM80.999 68.6006L81.6638 69.0457C80.839 70.2776 79.7785 71.3381 78.5466 72.1629L78.1015 71.4981L77.6565 70.8333C78.7146 70.1249 79.6258 69.2137 80.3342 68.1556L80.999 68.6006ZM74.3168 73.0668L74.472 73.8516C73.7584 73.9928 73.0212 74.0667 72.2676 74.0667L72.2676 73.2667L72.2676 72.4667C72.9164 72.4667 73.5496 72.4031 74.1615 72.282L74.3168 73.0668ZM72.2676 73.2667L72.2676 74.0667L70.1426 74.0667L70.1426 73.2667L70.1426 72.4667L72.2676 72.4667L72.2676 73.2667ZM65.8926 73.2667L65.8926 74.0666L61.6426 74.0667L61.6426 73.2667L61.6426 72.4667L65.8926 72.4667L65.8926 73.2667ZM57.3926 73.2667L57.3926 74.0667L53.1426 74.0667L53.1426 73.2666L53.1426 72.4667L57.3926 72.4667L57.3926 73.2667ZM48.8926 73.2666L48.8926 74.0667L44.6426 74.0667L44.6426 73.2666L44.6426 72.4667L48.8926 72.4667L48.8926 73.2666ZM40.3926 73.2666L40.3926 74.0667L36.1426 74.0667L36.1426 73.2666L36.1426 72.4666L40.3926 72.4666L40.3926 73.2666ZM31.8926 73.2666L31.8926 74.0666L27.6426 74.0666L27.6426 73.2667L27.6426 72.4666L31.8926 72.4666L31.8926 73.2666ZM23.3926 73.2667L23.3926 74.0666L19.1426 74.0666L19.1426 73.2666L19.1426 72.4666L23.3926 72.4666L23.3926 73.2667ZM14.8926 73.2666L14.8926 74.0666L10.6426 74.0666L10.6426 73.2666L10.6426 72.4666L14.8926 72.4666L14.8926 73.2666ZM6.39258 73.2666L6.39258 74.0666L4.26758 74.0666L4.26758 73.2666L4.26758 72.4666L6.39258 72.4666L6.39258 73.2666ZM151.534 4.26667C151.534 6.62308 149.624 8.53333 147.268 8.53333C144.911 8.53333 143.001 6.62308 143.001 4.26667C143.001 1.91025 144.911 1.15968e-06 147.268 9.53674e-07C149.624 7.4767e-07 151.534 1.91025 151.534 4.26667ZM93.2676 4.26665L93.2676 3.46665V3.46665L93.2676 4.26665ZM82.7676 14.7667L83.5676 14.7667V14.7667L82.7676 14.7667ZM82.7676 62.7666L81.9676 62.7666V62.7666L82.7676 62.7666ZM72.2676 73.2667L72.2676 74.0667V74.0667L72.2676 73.2667ZM8.53425 73.2666C8.53425 75.6231 6.624 77.5333 4.26758 77.5333C1.91117 77.5333 0.000921766 75.6231 0.00092156 73.2666C0.000921354 70.9102 1.91117 69 4.26758 69C6.624 69 8.53425 70.9102 8.53425 73.2666ZM147.268 4.26667L147.268 5.06667L145.339 5.06667L145.339 4.26667L145.339 3.46667L147.268 3.46667L147.268 4.26667ZM141.482 4.26667L141.482 5.06667L137.625 5.06666L137.625 4.26666L137.625 3.46666L141.482 3.46667L141.482 4.26667ZM133.768 4.26666L133.768 5.06666L129.91 5.06666L129.91 4.26666L129.91 3.46666L133.768 3.46666L133.768 4.26666ZM126.053 4.26666L126.053 5.06666L122.196 5.06666L122.196 4.26666L122.196 3.46666L126.053 3.46666L126.053 4.26666ZM118.339 4.26666L118.339 5.06666L114.482 5.06666L114.482 4.26666L114.482 3.46666L118.339 3.46666L118.339 4.26666ZM110.625 4.26666L110.625 5.06666L106.768 5.06666L106.768 4.26666L106.768 3.46666L110.625 3.46666L110.625 4.26666ZM102.91 4.26665L102.91 5.06665L99.0533 5.06665L99.0533 4.26665L99.0533 3.46665L102.91 3.46665L102.91 4.26665ZM95.1961 4.26665L95.1961 5.06665L93.2676 5.06665L93.2676 4.26665L93.2676 3.46665L95.1961 3.46665L95.1961 4.26665ZM93.2676 4.26665L93.2676 5.06665C92.6187 5.06665 91.9855 5.13025 91.3736 5.2513L91.2184 4.46651L91.0631 3.68172C91.7767 3.54054 92.5139 3.46665 93.2676 3.46665L93.2676 4.26665ZM87.4336 6.03522L87.8787 6.69999C86.8205 7.4084 85.9093 8.3196 85.2009 9.37774L84.5361 8.93269L83.8714 8.48763C84.6961 7.2557 85.7566 6.1952 86.9886 5.37044L87.4336 6.03522ZM82.9674 12.7175L83.7522 12.8727C83.6312 13.4846 83.5676 14.1178 83.5676 14.7667L82.7676 14.7667L81.9676 14.7667C81.9676 14.013 82.0415 13.2758 82.1826 12.5622L82.9674 12.7175ZM82.7676 14.7667L83.5676 14.7667L83.5676 16.7667L82.7676 16.7667L81.9676 16.7667L81.9676 14.7667L82.7676 14.7667ZM82.7676 20.7667L83.5676 20.7667L83.5676 24.7667L82.7676 24.7667L81.9676 24.7667L81.9676 20.7667L82.7676 20.7667ZM82.7676 28.7667L83.5676 28.7667L83.5676 32.7667L82.7676 32.7667L81.9676 32.7667L81.9676 28.7667L82.7676 28.7667ZM82.7676 36.7667L83.5676 36.7667L83.5676 40.7667L82.7676 40.7667L81.9676 40.7667L81.9676 36.7667L82.7676 36.7667ZM82.7676 44.7666L83.5676 44.7666L83.5676 48.7666L82.7676 48.7666L81.9676 48.7666L81.9676 44.7666L82.7676 44.7666ZM82.7676 52.7666L83.5676 52.7666L83.5676 56.7666L82.7676 56.7666L81.9676 56.7666L81.9676 52.7666L82.7676 52.7666ZM82.7676 60.7666L83.5676 60.7666L83.5676 62.7666L82.7676 62.7666L81.9676 62.7666L81.9676 60.7666L82.7676 60.7666ZM82.7676 62.7666L83.5676 62.7666C83.5676 63.5203 83.4937 64.2575 83.3525 64.9711L82.5677 64.8159L81.7829 64.6606C81.904 64.0487 81.9676 63.4155 81.9676 62.7666L82.7676 62.7666ZM80.999 68.6006L81.6638 69.0457C80.839 70.2776 79.7785 71.3381 78.5466 72.1629L78.1015 71.4981L77.6565 70.8333C78.7146 70.1249 79.6258 69.2137 80.3342 68.1556L80.999 68.6006ZM74.3168 73.0668L74.472 73.8516C73.7584 73.9928 73.0212 74.0667 72.2676 74.0667L72.2676 73.2667L72.2676 72.4667C72.9164 72.4667 73.5496 72.4031 74.1615 72.282L74.3168 73.0668ZM72.2676 73.2667L72.2676 74.0667L70.1426 74.0667L70.1426 73.2667L70.1426 72.4667L72.2676 72.4667L72.2676 73.2667ZM65.8926 73.2667L65.8926 74.0666L61.6426 74.0667L61.6426 73.2667L61.6426 72.4667L65.8926 72.4667L65.8926 73.2667ZM57.3926 73.2667L57.3926 74.0667L53.1426 74.0667L53.1426 73.2666L53.1426 72.4667L57.3926 72.4667L57.3926 73.2667ZM48.8926 73.2666L48.8926 74.0667L44.6426 74.0667L44.6426 73.2666L44.6426 72.4667L48.8926 72.4667L48.8926 73.2666ZM40.3926 73.2666L40.3926 74.0667L36.1426 74.0667L36.1426 73.2666L36.1426 72.4666L40.3926 72.4666L40.3926 73.2666ZM31.8926 73.2666L31.8926 74.0666L27.6426 74.0666L27.6426 73.2667L27.6426 72.4666L31.8926 72.4666L31.8926 73.2666ZM23.3926 73.2667L23.3926 74.0666L19.1426 74.0666L19.1426 73.2666L19.1426 72.4666L23.3926 72.4666L23.3926 73.2667ZM14.8926 73.2666L14.8926 74.0666L10.6426 74.0666L10.6426 73.2666L10.6426 72.4666L14.8926 72.4666L14.8926 73.2666ZM6.39258 73.2666L6.39258 74.0666L4.26758 74.0666L4.26758 73.2666L4.26758 72.4666L6.39258 72.4666L6.39258 73.2666Z" fill="#9564FF"/>
</svg>
