<svg width="152" height="78" viewBox="0 0 152 78" fill="none" xmlns="http://www.w3.org/2000/svg">
<path d="M151.534 73.2667C151.534 70.9102 149.624 69 147.268 69C144.911 69 143.001 70.9102 143.001 73.2666C143.001 75.6231 144.911 77.5333 147.268 77.5333C149.624 77.5333 151.534 75.6231 151.534 73.2667ZM93.2676 73.2667L93.2676 74.0667V74.0667L93.2676 73.2667ZM82.7676 62.7667L83.5676 62.7667V62.7667L82.7676 62.7667ZM82.7676 14.7667L81.9676 14.7667V14.7667L82.7676 14.7667ZM72.2676 4.26666L72.2676 3.46666V3.46666L72.2676 4.26666ZM8.53425 4.26667C8.53425 1.91026 6.624 2.96334e-06 4.26758 2.75733e-06C1.91117 2.55133e-06 0.000921766 1.91026 0.00092156 4.26667C0.000921354 6.62309 1.91117 8.53334 4.26758 8.53334C6.624 8.53334 8.53425 6.62309 8.53425 4.26667ZM147.268 73.2666L147.268 72.4666L145.339 72.4667L145.339 73.2667L145.339 74.0667L147.268 74.0666L147.268 73.2666ZM141.482 73.2667L141.482 72.4667L137.625 72.4667L137.625 73.2667L137.625 74.0667L141.482 74.0667L141.482 73.2667ZM133.768 73.2667L133.768 72.4667L129.91 72.4667L129.91 73.2667L129.91 74.0667L133.768 74.0667L133.768 73.2667ZM126.053 73.2667L126.053 72.4667L122.196 72.4667L122.196 73.2667L122.196 74.0667L126.053 74.0667L126.053 73.2667ZM118.339 73.2667L118.339 72.4667L114.482 72.4667L114.482 73.2667L114.482 74.0667L118.339 74.0667L118.339 73.2667ZM110.625 73.2667L110.625 72.4667L106.768 72.4667L106.768 73.2667L106.768 74.0667L110.625 74.0667L110.625 73.2667ZM102.91 73.2667L102.91 72.4667L99.0533 72.4667L99.0533 73.2667L99.0533 74.0667L102.91 74.0667L102.91 73.2667ZM95.1961 73.2667L95.1961 72.4667L93.2676 72.4667L93.2676 73.2667L93.2676 74.0667L95.1961 74.0667L95.1961 73.2667ZM93.2676 73.2667L93.2676 72.4667C92.6187 72.4667 91.9855 72.4031 91.3736 72.282L91.2184 73.0668L91.0631 73.8516C91.7767 73.9928 92.5139 74.0667 93.2676 74.0667L93.2676 73.2667ZM87.4336 71.4981L87.8787 70.8333C86.8205 70.1249 85.9093 69.2137 85.2009 68.1556L84.5361 68.6006L83.8714 69.0457C84.6961 70.2776 85.7566 71.3381 86.9886 72.1629L87.4336 71.4981ZM82.9674 64.8159L83.7522 64.6606C83.6312 64.0487 83.5676 63.4155 83.5676 62.7667L82.7676 62.7667L81.9676 62.7667C81.9676 63.5203 82.0415 64.2575 82.1826 64.9711L82.9674 64.8159ZM82.7676 62.7667L83.5676 62.7667L83.5676 60.7667L82.7676 60.7667L81.9676 60.7667L81.9676 62.7667L82.7676 62.7667ZM82.7676 56.7667L83.5676 56.7667L83.5676 52.7667L82.7676 52.7667L81.9676 52.7667L81.9676 56.7667L82.7676 56.7667ZM82.7676 48.7667L83.5676 48.7667L83.5676 44.7667L82.7676 44.7667L81.9676 44.7667L81.9676 48.7667L82.7676 48.7667ZM82.7676 40.7667L83.5676 40.7667L83.5676 36.7667L82.7676 36.7667L81.9676 36.7667L81.9676 40.7667L82.7676 40.7667ZM82.7676 32.7667L83.5676 32.7667L83.5676 28.7667L82.7676 28.7667L81.9676 28.7667L81.9676 32.7667L82.7676 32.7667ZM82.7676 24.7667L83.5676 24.7667L83.5676 20.7667L82.7676 20.7667L81.9676 20.7667L81.9676 24.7667L82.7676 24.7667ZM82.7676 16.7667L83.5676 16.7667L83.5676 14.7667L82.7676 14.7667L81.9676 14.7667L81.9676 16.7667L82.7676 16.7667ZM82.7676 14.7667L83.5676 14.7667C83.5676 14.013 83.4937 13.2758 83.3525 12.5622L82.5677 12.7175L81.7829 12.8727C81.904 13.4846 81.9676 14.1178 81.9676 14.7667L82.7676 14.7667ZM80.999 8.9327L81.6638 8.48765C80.839 7.25571 79.7785 6.19522 78.5466 5.37045L78.1015 6.03523L77.6565 6.7C78.7146 7.40841 79.6258 8.31961 80.3342 9.37776L80.999 8.9327ZM74.3168 4.46652L74.472 3.68173C73.7584 3.54056 73.0212 3.46666 72.2676 3.46666L72.2676 4.26666L72.2676 5.06667C72.9164 5.06667 73.5496 5.13026 74.1615 5.25131L74.3168 4.46652ZM72.2676 4.26666L72.2676 3.46666L70.1426 3.46666L70.1426 4.26666L70.1426 5.06667L72.2676 5.06667L72.2676 4.26666ZM65.8926 4.26666L65.8926 3.46667L61.6426 3.46667L61.6426 4.26666L61.6426 5.06667L65.8926 5.06667L65.8926 4.26666ZM57.3926 4.26666L57.3926 3.46667L53.1426 3.46667L53.1426 4.26667L53.1426 5.06667L57.3926 5.06667L57.3926 4.26666ZM48.8926 4.26667L48.8926 3.46667L44.6426 3.46667L44.6426 4.26667L44.6426 5.06666L48.8926 5.06666L48.8926 4.26667ZM40.3926 4.26667L40.3926 3.46667L36.1426 3.46667L36.1426 4.26667L36.1426 5.06667L40.3926 5.06667L40.3926 4.26667ZM31.8926 4.26667L31.8926 3.46667L27.6426 3.46667L27.6426 4.26667L27.6426 5.06667L31.8926 5.06667L31.8926 4.26667ZM23.3926 4.26667L23.3926 3.46667L19.1426 3.46667L19.1426 4.26667L19.1426 5.06667L23.3926 5.06667L23.3926 4.26667ZM14.8926 4.26667L14.8926 3.46667L10.6426 3.46667L10.6426 4.26667L10.6426 5.06667L14.8926 5.06667L14.8926 4.26667ZM6.39258 4.26667L6.39258 3.46667L4.26758 3.46667L4.26758 4.26667L4.26758 5.06668L6.39258 5.06668L6.39258 4.26667ZM151.534 73.2667C151.534 70.9102 149.624 69 147.268 69C144.911 69 143.001 70.9102 143.001 73.2666C143.001 75.6231 144.911 77.5333 147.268 77.5333C149.624 77.5333 151.534 75.6231 151.534 73.2667ZM93.2676 73.2667L93.2676 74.0667V74.0667L93.2676 73.2667ZM82.7676 62.7667L83.5676 62.7667V62.7667L82.7676 62.7667ZM82.7676 14.7667L81.9676 14.7667V14.7667L82.7676 14.7667ZM72.2676 4.26666L72.2676 3.46666V3.46666L72.2676 4.26666ZM8.53425 4.26667C8.53425 1.91026 6.624 2.96334e-06 4.26758 2.75733e-06C1.91117 2.55133e-06 0.000921766 1.91026 0.00092156 4.26667C0.000921354 6.62309 1.91117 8.53334 4.26758 8.53334C6.624 8.53334 8.53425 6.62309 8.53425 4.26667ZM147.268 73.2666L147.268 72.4666L145.339 72.4667L145.339 73.2667L145.339 74.0667L147.268 74.0666L147.268 73.2666ZM141.482 73.2667L141.482 72.4667L137.625 72.4667L137.625 73.2667L137.625 74.0667L141.482 74.0667L141.482 73.2667ZM133.768 73.2667L133.768 72.4667L129.91 72.4667L129.91 73.2667L129.91 74.0667L133.768 74.0667L133.768 73.2667ZM126.053 73.2667L126.053 72.4667L122.196 72.4667L122.196 73.2667L122.196 74.0667L126.053 74.0667L126.053 73.2667ZM118.339 73.2667L118.339 72.4667L114.482 72.4667L114.482 73.2667L114.482 74.0667L118.339 74.0667L118.339 73.2667ZM110.625 73.2667L110.625 72.4667L106.768 72.4667L106.768 73.2667L106.768 74.0667L110.625 74.0667L110.625 73.2667ZM102.91 73.2667L102.91 72.4667L99.0533 72.4667L99.0533 73.2667L99.0533 74.0667L102.91 74.0667L102.91 73.2667ZM95.1961 73.2667L95.1961 72.4667L93.2676 72.4667L93.2676 73.2667L93.2676 74.0667L95.1961 74.0667L95.1961 73.2667ZM93.2676 73.2667L93.2676 72.4667C92.6187 72.4667 91.9855 72.4031 91.3736 72.282L91.2184 73.0668L91.0631 73.8516C91.7767 73.9928 92.5139 74.0667 93.2676 74.0667L93.2676 73.2667ZM87.4336 71.4981L87.8787 70.8333C86.8205 70.1249 85.9093 69.2137 85.2009 68.1556L84.5361 68.6006L83.8714 69.0457C84.6961 70.2776 85.7566 71.3381 86.9886 72.1629L87.4336 71.4981ZM82.9674 64.8159L83.7522 64.6606C83.6312 64.0487 83.5676 63.4155 83.5676 62.7667L82.7676 62.7667L81.9676 62.7667C81.9676 63.5203 82.0415 64.2575 82.1826 64.9711L82.9674 64.8159ZM82.7676 62.7667L83.5676 62.7667L83.5676 60.7667L82.7676 60.7667L81.9676 60.7667L81.9676 62.7667L82.7676 62.7667ZM82.7676 56.7667L83.5676 56.7667L83.5676 52.7667L82.7676 52.7667L81.9676 52.7667L81.9676 56.7667L82.7676 56.7667ZM82.7676 48.7667L83.5676 48.7667L83.5676 44.7667L82.7676 44.7667L81.9676 44.7667L81.9676 48.7667L82.7676 48.7667ZM82.7676 40.7667L83.5676 40.7667L83.5676 36.7667L82.7676 36.7667L81.9676 36.7667L81.9676 40.7667L82.7676 40.7667ZM82.7676 32.7667L83.5676 32.7667L83.5676 28.7667L82.7676 28.7667L81.9676 28.7667L81.9676 32.7667L82.7676 32.7667ZM82.7676 24.7667L83.5676 24.7667L83.5676 20.7667L82.7676 20.7667L81.9676 20.7667L81.9676 24.7667L82.7676 24.7667ZM82.7676 16.7667L83.5676 16.7667L83.5676 14.7667L82.7676 14.7667L81.9676 14.7667L81.9676 16.7667L82.7676 16.7667ZM82.7676 14.7667L83.5676 14.7667C83.5676 14.013 83.4937 13.2758 83.3525 12.5622L82.5677 12.7175L81.7829 12.8727C81.904 13.4846 81.9676 14.1178 81.9676 14.7667L82.7676 14.7667ZM80.999 8.9327L81.6638 8.48765C80.839 7.25571 79.7785 6.19522 78.5466 5.37045L78.1015 6.03523L77.6565 6.7C78.7146 7.40841 79.6258 8.31961 80.3342 9.37776L80.999 8.9327ZM74.3168 4.46652L74.472 3.68173C73.7584 3.54056 73.0212 3.46666 72.2676 3.46666L72.2676 4.26666L72.2676 5.06667C72.9164 5.06667 73.5496 5.13026 74.1615 5.25131L74.3168 4.46652ZM72.2676 4.26666L72.2676 3.46666L70.1426 3.46666L70.1426 4.26666L70.1426 5.06667L72.2676 5.06667L72.2676 4.26666ZM65.8926 4.26666L65.8926 3.46667L61.6426 3.46667L61.6426 4.26666L61.6426 5.06667L65.8926 5.06667L65.8926 4.26666ZM57.3926 4.26666L57.3926 3.46667L53.1426 3.46667L53.1426 4.26667L53.1426 5.06667L57.3926 5.06667L57.3926 4.26666ZM48.8926 4.26667L48.8926 3.46667L44.6426 3.46667L44.6426 4.26667L44.6426 5.06666L48.8926 5.06666L48.8926 4.26667ZM40.3926 4.26667L40.3926 3.46667L36.1426 3.46667L36.1426 4.26667L36.1426 5.06667L40.3926 5.06667L40.3926 4.26667ZM31.8926 4.26667L31.8926 3.46667L27.6426 3.46667L27.6426 4.26667L27.6426 5.06667L31.8926 5.06667L31.8926 4.26667ZM23.3926 4.26667L23.3926 3.46667L19.1426 3.46667L19.1426 4.26667L19.1426 5.06667L23.3926 5.06667L23.3926 4.26667ZM14.8926 4.26667L14.8926 3.46667L10.6426 3.46667L10.6426 4.26667L10.6426 5.06667L14.8926 5.06667L14.8926 4.26667ZM6.39258 4.26667L6.39258 3.46667L4.26758 3.46667L4.26758 4.26667L4.26758 5.06668L6.39258 5.06668L6.39258 4.26667Z" fill="#9564FF"/>
</svg>
