<svg width="12" height="12" viewBox="0 0 12 12" fill="none" xmlns="http://www.w3.org/2000/svg">
<path d="M2.00014 0L4.00028 2.00014L2.00014 4.00028L0 2.00014L2.00014 0Z" fill="white"/>
<path d="M6 0L8.00014 2.00014L6 4.00028L4.00028 2.00014L6 0Z" fill="white"/>
<path d="M2.00014 4.00028L4.00028 6L2.00014 8.00014L0 6L2.00014 4.00028Z" fill="white"/>
<path d="M9.99986 0L12 2.00014L9.99986 4.00028L8.00014 2.00014L9.99986 0Z" fill="white"/>
<path d="M6 4.00028L8.00014 6L6 8.00014L4.00028 6L6 4.00028Z" fill="white"/>
<path d="M2.00014 8.00014L4.00028 9.99986L2.00014 12L0 9.99986L2.00014 8.00014Z" fill="white"/>
<path d="M9.99986 4.00028L12 6L9.99986 8.00014L8.00014 6L9.99986 4.00028Z" fill="white"/>
<path d="M9.99986 8.00014L12 9.99986L9.99986 12L7.99971 9.99986L9.99986 8.00014Z" fill="white"/>
<path d="M6 8.00014L7.99971 9.99986L6 12L4.00028 9.99986L6 8.00014Z" fill="white"/>
</svg>
