<svg width="202" height="202" viewBox="0 0 202 202" fill="none" xmlns="http://www.w3.org/2000/svg">
<rect x="0.5" y="0.5" width="200.49" height="200.49" fill="#1F1F1F"/>
<rect x="0.5" y="0.5" width="200.49" height="200.49" fill="#0F081F"/>
<rect x="0.5" y="0.5" width="200.49" height="200.49" stroke="#9564FF"/>
<path d="M16.2031 16.4863H184.406V184.689H16.2031V16.4863Z" fill="#0F081F"/>
<path d="M16.2031 16.4863H184.406M16.2031 16.4863V184.689M16.2031 16.4863L184.406 184.689M184.406 16.4863V184.689M184.406 16.4863L16.2031 184.689M184.406 184.689H16.2031" stroke="#9564FF"/>
<g clip-path="url(#clip0_4213_20568)">
<rect x="36.5" y="36.5" width="128" height="128" fill="#32205A"/>
<path fill-rule="evenodd" clip-rule="evenodd" d="M141.498 101.326C141.498 95.6449 138.674 91.1625 133.276 91.1625C127.855 91.1625 124.575 95.6449 124.575 101.281C124.575 107.96 128.447 111.333 134.005 111.333C136.715 111.333 138.765 110.734 140.314 109.891V105.453C138.765 106.207 136.988 106.673 134.734 106.673C132.524 106.673 130.566 105.919 130.315 103.301H141.453C141.453 103.012 141.498 101.858 141.498 101.326ZM130.247 99.2175C130.247 96.71 131.818 95.6671 133.253 95.6671C134.643 95.6671 136.123 96.71 136.123 99.2175H130.247Z" fill="#9564FF"/>
<path fill-rule="evenodd" clip-rule="evenodd" d="M115.784 91.1625C113.552 91.1625 112.117 92.1832 111.32 92.8933L111.024 91.5175H106.013V117.391L111.707 116.215L111.73 109.935C112.55 110.512 113.757 111.333 115.761 111.333C119.838 111.333 123.551 108.138 123.551 101.104C123.528 94.6685 119.77 91.1625 115.784 91.1625ZM114.417 106.452C113.073 106.452 112.276 105.986 111.73 105.409L111.707 97.176C112.299 96.5325 113.119 96.0887 114.417 96.0887C116.49 96.0887 117.925 98.3521 117.925 101.259C117.925 104.233 116.513 106.452 114.417 106.452Z" fill="#9564FF"/>
<path fill-rule="evenodd" clip-rule="evenodd" d="M98.1779 89.8533L103.895 88.655V84.1504L98.1779 85.3265V89.8533Z" fill="#9564FF"/>
<path d="M103.895 91.5397H98.1779V110.956H103.895V91.5397Z" fill="#9564FF"/>
<path fill-rule="evenodd" clip-rule="evenodd" d="M92.0511 93.1818L91.6866 91.5397H86.767V110.956H92.461V97.7974C93.8048 96.0887 96.0825 96.3994 96.7885 96.6435V91.5397C96.0597 91.2734 93.3949 90.7853 92.0511 93.1818Z" fill="#9564FF"/>
<path fill-rule="evenodd" clip-rule="evenodd" d="M80.663 86.7245L75.1056 87.8783L75.0828 105.653C75.0828 108.937 77.611 111.356 80.9818 111.356C82.8495 111.356 84.2161 111.023 84.9677 110.623V106.119C84.2388 106.407 80.6402 107.428 80.6402 104.144V96.2662H84.9677V91.5397H80.6402L80.663 86.7245Z" fill="#9564FF"/>
<path fill-rule="evenodd" clip-rule="evenodd" d="M65.2663 97.176C65.2663 96.3106 65.9951 95.9778 67.2023 95.9778C68.9332 95.9778 71.1198 96.4881 72.8507 97.3979V92.1832C70.9603 91.451 69.0927 91.1625 67.2023 91.1625C62.5787 91.1625 59.5039 93.5147 59.5039 97.4423C59.5039 103.567 68.1589 102.59 68.1589 105.231C68.1589 106.252 67.2478 106.585 65.9723 106.585C64.0819 106.585 61.6676 105.83 59.7544 104.809V110.091C61.8726 110.978 64.0136 111.356 65.9723 111.356C70.7098 111.356 73.9668 109.07 73.9668 105.098C73.944 98.4853 65.2663 99.6613 65.2663 97.176Z" fill="#9564FF"/>
<g filter="url(#filter0_f_4213_20568)" style="mix-blend-mode:plus-lighter">
<circle cx="79.9915" cy="58.0962" r="72.2571" fill="#9564FF"/>
</g>
</g>
<rect x="35.7" y="35.7" width="129.6" height="129.6" stroke="#9564FF" stroke-width="1.6"/>
<defs>
<filter id="filter0_f_4213_20568" x="-207.266" y="-229.161" width="574.514" height="574.514" filterUnits="userSpaceOnUse" color-interpolation-filters="sRGB">
<feFlood flood-opacity="0" result="BackgroundImageFix"/>
<feBlend mode="normal" in="SourceGraphic" in2="BackgroundImageFix" result="shape"/>
<feGaussianBlur stdDeviation="107.5" result="effect1_foregroundBlur_4213_20568"/>
</filter>
<clipPath id="clip0_4213_20568">
<rect x="36.5" y="36.5" width="128" height="128" fill="white"/>
</clipPath>
</defs>
</svg>
