<svg width="24" height="24" viewBox="0 0 24 24" fill="none" xmlns="http://www.w3.org/2000/svg">
<rect width="24" height="24" fill="white"/>
<g clip-path="url(#clip0_4003_1213)">
<path d="M15.7758 16.5301H17.2863V7.46715H15.7758V16.5301Z" fill="#0A0A0A"/>
<path d="M6.71289 16.5301H8.22338V7.46715H6.71289V16.5301Z" fill="#0A0A0A"/>
<path d="M6.71289 7.46715H8.22338V8.97764H6.71289V7.46715Z" fill="#0A0A0A"/>
<path d="M8.22338 5.95667H9.73387V7.46715H8.22338V5.95667Z" fill="#0A0A0A"/>
<path d="M8.22338 18.0406H9.73387V16.5301H8.22338V18.0406Z" fill="#0A0A0A"/>
<path d="M9.73387 5.95667H11.2444V7.46715H9.73387V5.95667Z" fill="#0A0A0A"/>
<path d="M9.73387 18.0406H11.2444V16.5301H9.73387V18.0406Z" fill="#0A0A0A"/>
<path d="M11.2444 5.95667H12.7548V7.46715H11.2444V5.95667Z" fill="#0A0A0A"/>
<path d="M12.7548 5.95667H15.7758V7.46715H12.7548V5.95667Z" fill="#0A0A0A"/>
<path d="M11.2444 18.0406H12.7548V16.5301H11.2444V18.0406Z" fill="#0A0A0A"/>
<path d="M9.73387 8.97764H11.2444V10.4881H9.73387V8.97764Z" fill="#0A0A0A"/>
<path d="M9.73387 11.9986H11.2444V13.5091H9.73387V11.9986Z" fill="#0A0A0A"/>
<path d="M11.2444 8.97764H12.7548V10.4881H11.2444V8.97764Z" fill="#0A0A0A"/>
<path d="M11.2444 11.9986H12.7548V13.5091H11.2444V11.9986Z" fill="#0A0A0A"/>
<path d="M12.7548 8.97764H14.2653V10.4881H12.7548V8.97764Z" fill="#0A0A0A"/>
<path d="M12.7548 11.9986H14.2653V13.5091H12.7548V11.9986Z" fill="#0A0A0A"/>
<path d="M12.7548 18.0406H15.7758V16.5301H12.7548V18.0406Z" fill="#0A0A0A"/>
<rect x="3.69141" y="3.69226" width="1.51049" height="1.51049" fill="#0A0A0A"/>
<rect x="3.69141" y="18.7969" width="1.51049" height="1.51049" fill="#0A0A0A"/>
<rect x="18.793" y="3.69226" width="1.51049" height="1.51049" fill="#0A0A0A"/>
<rect x="18.793" y="18.7969" width="1.51049" height="1.51049" fill="#0A0A0A"/>
</g>
<defs>
<clipPath id="clip0_4003_1213">
<rect width="16.6154" height="16.6154" fill="white" transform="translate(3.69141 3.69226)"/>
</clipPath>
</defs>
</svg>
