<svg width="24" height="24" viewBox="0 0 24 24" fill="none" xmlns="http://www.w3.org/2000/svg">
<rect width="24" height="24" fill="white"/>
<path d="M15.776 11.2439H17.2865V12.7544H15.776V11.2439Z" fill="#9564FF"/>
<path d="M11.2445 11.2439H12.755V12.7544H11.2445V11.2439Z" fill="#9564FF"/>
<path d="M9.73402 11.2439H11.2445V12.7544H9.73402V11.2439Z" fill="#9564FF"/>
<path d="M8.22353 11.2439H9.73402V12.7544H8.22353V11.2439Z" fill="#9564FF"/>
<path d="M6.71304 11.2439H8.22353V12.7544H6.71304V11.2439Z" fill="#9564FF"/>
<path d="M14.2655 9.7334H15.776V11.2439H14.2655V9.7334Z" fill="#9564FF"/>
<path d="M14.2655 14.2649H15.776V12.7544H14.2655V14.2649Z" fill="#9564FF"/>
<path d="M12.755 8.22291H14.2655V9.7334H12.755V8.22291Z" fill="#9564FF"/>
<path d="M12.755 15.7754H14.2655V14.2649H12.755V15.7754Z" fill="#9564FF"/>
<path d="M18.7924 3.69226H20.3029V5.20275H18.7924V3.69226Z" fill="#9564FF"/>
<path d="M3.69141 3.69226H5.2019V5.20275H3.69141V3.69226Z" fill="#9564FF"/>
<path d="M18.7924 18.7968H20.3029V20.3073H18.7924V18.7968Z" fill="#9564FF"/>
<path d="M3.69141 18.7968H5.2019V20.3073H3.69141V18.7968Z" fill="#9564FF"/>
</svg>
