<svg width="1000" height="1001" viewBox="0 0 1000 1000" fill="none" xmlns="http://www.w3.org/2000/svg">
<path d="M585.941 28.6547C672.468 -0.299678 755.454 -7.58569 825.373 10.7402L826.395 11.0121L827 11.1565L827.641 11.3457C847.195 16.6483 865.182 23.835 881.555 32.7484L882.227 33.0905L882.764 33.4117C906.114 46.3093 926.136 62.7489 942.682 82.2677L943.373 83.0233L944.245 84.1306C946.291 86.5977 948.277 89.1138 950.214 91.6764L950.305 91.7659L950.355 91.8263L950.764 92.4079C955.445 98.6651 959.8 105.202 963.827 112.003L964.182 112.472H964.105C965.309 114.512 966.482 116.577 967.623 118.664L967.736 118.877C967.754 118.911 967.773 118.945 967.791 118.978L968.136 119.57C968.418 120.087 968.673 120.606 968.95 121.125L969.173 121.533C970.409 123.869 971.6 126.234 972.764 128.627L973.191 129.486L973.268 129.676C974.382 131.993 975.459 134.336 976.5 136.705L976.668 137.037L976.841 137.479C979.995 144.709 982.832 152.177 985.345 159.871C985.564 160.541 985.782 161.213 985.995 161.886L986.032 161.921L986.064 162.038L986.186 162.491C988.514 169.878 990.55 177.47 992.291 185.254L992.386 185.54L992.404 185.596L993.014 188.491L993.091 188.939C993.645 191.579 994.164 194.242 994.65 196.925L994.745 197.344H994.841V197.963C996.318 206.277 997.473 214.795 998.3 223.504L998.309 223.567C999.132 232.219 999.627 241.105 999.8 250.125L999.818 250.304L999.823 250.36L999.864 250.8L999.823 251.336C999.882 255.305 999.886 259.309 999.823 263.345V264.118L999.818 264.545C999.645 273.671 999.132 282.967 998.314 292.419V292.632C997.127 306.176 995.259 320.044 992.723 334.2L992.414 336.049L992 338.155C986.227 369.001 977.241 401.194 964.936 434.397L964.459 435.787L964.132 436.723L963.7 435.973C963.627 435.91 963.577 435.823 963.555 435.728L954.727 420.468L945.673 405.075L936.286 390.026L936.041 389.641L926.414 374.83L926.35 374.734L916.232 359.633L910.195 351.034L905.823 344.696L905.691 344.517L894.95 329.901L888.609 321.446L883.923 315.101L883.809 314.946L883.841 314.769C883.841 314.765 883.841 314.774 883.841 314.769L885.195 306.786V306.496L886.255 298.912L887.091 292.632L887.168 292.091L887.209 291.877L887.314 291.349L888.064 283.829L888.518 276.447L888.968 269.364L889.118 262.269L889.123 262.206V261.825L889.273 255.496L889.132 250.8L889.123 250.392V248.859L888.818 242.367L888.4 237.361L888.364 236.947V236.183L887.764 230.027L887.014 224.294L886.109 218.569L885.327 213.748L885.205 212.999L884.609 210.908L883.995 207.696L882.795 202.753L882.777 202.692L881.536 198.552H881.423V198.17L881.418 198.1V197.865L879.932 193.259L878.423 188.729L877.227 185.89L876.768 184.523L874.968 180.47L873.186 176.614L873.159 176.556L873.118 176.475L871.205 172.792L869.25 169.189L867.15 165.735L864.891 162.421L862.636 159.264L857.964 153.236L852.845 147.819L849.091 144.368L845.195 140.918L840.977 137.605L837.068 134.909L836.623 134.6L833.164 132.369L831.954 131.589L829.104 130.09L826.977 128.876L821.718 126.172L816.164 123.77L810.286 121.509L805.627 120.157L803.977 119.556L797.332 117.744L790.409 116.088L783.032 114.583L782.509 114.501L775.341 113.376L767.2 112.471L758.623 111.868L749.75 111.568H740.432L730.868 111.717L720.918 112.471L716.018 112.904L710.65 113.379L700.255 114.582L689.391 116.241L678.373 118.356L667.059 120.77L667.009 120.781L655.518 123.466L655.441 123.486L643.673 126.653L631.759 130.119L631.318 130.26L619.541 134.042L607.309 138.422L597.955 142.042L595.055 143.146L594.786 143.25L582.264 148.377L569.604 153.803L556.75 159.7L544.077 165.961L543.936 166.035L543.841 166.085L530.95 172.672L517.964 179.621L504.982 186.866L492.005 194.561L482.95 200.146L478.864 202.566L475.436 204.757L465.891 210.863L463.341 212.663L453.068 219.459L452.82 219.634L444.462 225.501L440.077 228.523L427.248 237.729L415.051 246.876L414.57 247.237L408.533 251.914L401.89 257.049L392.468 264.695L391.527 265.458L391.477 265.499L389.356 267.166L376.99 277.568L364.764 288.284L352.744 299.254L352.687 299.307L340.755 310.33L329.135 321.799L328.985 321.947L317.509 333.425L306.345 345.188L300.758 351.232L295.279 357.005L295.168 357.124L284.456 369.34L273.9 381.554L273.781 381.733L263.471 394.101L261.663 396.36L253.357 406.629L249.588 411.602L244.251 418.58L243.698 419.306L234.189 431.978L224.982 444.81L216.073 457.646L207.474 470.617L199.456 483.153L199.17 483.598L199.092 483.725L191.359 496.515L191.321 496.579L186.791 504.28L183.619 509.569L183.59 509.619L178.039 519.823L176.381 522.531L176.255 522.777L169.739 535.367L169.705 535.43L169.653 535.48L169.559 535.576L163.1 548.488L162.045 550.755L157.062 561.319L151.356 574.081L148.156 581.546L145.894 586.821L141.097 599.261L141.069 599.339L136.413 611.651L136.414 611.87L136.415 612.328H136.28L132.157 624.105L131.256 627.104L128.387 636.173L126.729 642.047L124.915 648.099L122.804 656.237L121.9 659.708L119.614 669.563L119.485 670.122L119.182 671.33L116.92 682.489L114.96 693.489L114.95 693.566L113.452 704.207L113.425 704.448L112.697 711.14L112.254 714.534L112.245 714.602L111.497 724.634L111.495 724.68L111.497 725.134L110.889 734.525L110.887 736.006L110.889 737.515V737.969L110.737 744.021L110.889 750.341V753.072L111.34 761.777L111.445 762.736L111.491 763.136L112.094 770.237L112.848 775.507L113.143 778.17L113.151 778.229L114.502 785.903L116.01 793.286L117.62 800.02L117.673 800.229L119.621 806.68L121.177 811.06L121.266 811.315L121.283 811.36L121.695 812.737L121.736 812.873L123.997 818.598L126.55 824L129.105 829.261L131.817 833.782L131.881 833.891V834.177L132.91 835.722L134.816 838.58L137.984 842.955L141.276 846.995L144.743 850.766L148.349 854.523L148.519 854.678L152.074 857.949L152.109 857.981L156.025 861.293L160.23 864.451L164.031 866.936L164.172 867.027L164.547 867.308L164.749 867.458L169.549 870.312L170.837 870.993L174.671 873.024L179.947 875.587L185.633 877.977L190.177 879.685L191.685 880.248L197.488 882.047L197.996 882.202L204.788 884.015L211.858 885.519L219.39 886.873L222.52 887.323L222.57 887.327L227.251 888.081L234.028 888.699L235.514 888.831L239.674 889.126L244.109 889.435L253.163 889.735L262.511 889.585L272.308 889.135L282.264 888.531L292.659 887.477L303.22 885.969L314.044 884.165L314.28 884.119L314.442 884.242L314.7 884.437L315.045 884.696L316.738 885.964L316.83 886.032L316.867 886.059L317.027 886.196L320.67 888.945L320.951 889.135L321.048 889.199L321.087 889.226L321.566 889.585H321.871V889.817L322.77 890.494H322.721L329.142 895.342L329.238 895.414L329.412 895.542L344.031 906.132L349.681 910.126L357.014 915.188L358.974 916.696L369.541 923.639L374.07 926.81L374.657 927.187L389.322 936.624L389.608 936.801L393.695 939.341L404.562 946.129L404.646 946.179L419.961 955.188L420.311 955.388L421.437 956.034L435.111 963.953C435.239 963.926 435.368 963.962 435.467 964.035H437.75L436.209 964.584L435.292 964.916L431.062 966.424L430.99 966.452L428.649 967.274C425.328 968.474 422.018 969.637 418.719 970.768L415.66 971.863L415.586 971.886L404.47 975.493L400.397 976.847L392.19 979.287H392.625L389.2 980.178L386.558 980.864C382.626 981.977 378.709 983.04 374.812 984.058L374.093 984.253L373.182 984.48C370.499 985.175 367.824 985.843 365.158 986.488L362.552 987.143H363.001L359.02 988.024L358.97 988.038L356.32 988.624L354.894 988.942L344.165 991.209L340.665 991.836C337.84 992.381 335.026 992.904 332.223 993.395L329.354 993.931L327.899 994.135C324.249 994.744 320.618 995.307 317.007 995.825L314.694 996.198L312.883 996.398C310.298 996.743 307.724 997.07 305.16 997.37L300.335 998.011L300.058 998.029L297.084 998.242C294.19 998.529 291.31 998.783 288.444 999.01L286.117 999.224L281.579 999.524L278.829 999.655C276.793 999.769 274.765 999.869 272.744 999.951L272.203 999.978H272.087L272.02 999.983C267.626 1000.15 263.27 1000.25 258.954 1000.27L258.75 1000.28L258.04 1000.28C254.292 1000.29 250.575 1000.25 246.887 1000.15L244.84 1000.13L243.418 1000.04C241.22 999.964 239.032 999.869 236.856 999.751L231.539 999.524L228.682 999.224L227.022 999.074C225.509 998.951 224.001 998.815 222.5 998.67L218.562 998.315L215.504 998.011L205.72 996.657L205.665 996.652L202.683 996.202L202.631 996.193L193.269 994.535L190.239 993.931L181.022 991.963L178.134 991.205L169.224 988.937L168.177 988.624L166.185 988.029L166.135 988.011L163.226 987.143H163.379L157.642 985.33L157.541 985.298L154.952 984.289C153.309 983.721 151.677 983.135 150.055 982.536L146.453 981.25L146.366 981.223L143.648 980.164L135.486 976.838L132.899 975.47L125.047 971.849L122.955 970.623C121.649 969.946 120.352 969.26 119.063 968.56L114.909 966.402L112.321 964.88L105.068 960.5L101.299 957.869C100.11 957.074 98.9291 956.27 97.7582 955.456L95.695 954.148L86.7509 947.333L86.1509 946.878L82.5714 943.843C81.9282 943.303 81.2886 942.758 80.6523 942.212L78.1264 940.072L77.025 939.027C75.4459 937.605 73.8877 936.165 72.3518 934.697L69.9577 932.507L67.7432 930.149C64.7277 927.087 61.8018 923.925 58.9686 920.667L56.0309 917.373L54.8073 915.846L48.0064 907.082L47.9605 907.005L47.8145 906.719L47.2723 905.942C45.885 904.029 44.5254 902.089 43.1946 900.121L41.636 897.891L41.5085 897.709L40.4306 896.023L40.3311 895.864L39.9891 895.328L36.9545 890.43L36.9096 890.344L36.7835 890.089L36.6658 889.853C36.5694 889.694 36.4716 889.531 36.3756 889.372L35.9285 888.813L35.8865 888.763L35.8612 888.699L35.6131 888.077C35.5528 887.977 35.4925 887.872 35.4323 887.768L35.302 887.572L34.866 886.791C34.6739 886.459 34.482 886.123 34.2914 885.791L33.6284 884.687L33.2836 884.001C32.9002 883.315 32.5184 882.625 32.1412 881.929L31.5161 880.916L30.4214 878.863L30.3317 878.694L30.2953 878.626L30.113 878.263L29.9855 878.013L29.0828 876.2L29.0604 876.155L28.7549 875.541L28.4325 874.823C27.8661 873.688 27.3079 872.547 26.7575 871.402L26.6384 871.161L26.5402 870.966L26.5136 870.911L26.1856 870.257L25.1624 868.063L24.8807 867.64L24.8499 867.59L24.414 866.936H24.5807L23.7846 865L22.8006 862.706C22.6616 862.383 22.5208 862.061 22.383 861.738L20.9112 858.499L20.3085 856.84L19.6708 855.305L19.5446 855.009L19.2937 854.4L18.1864 851.234L18.0224 850.775C17.5904 849.612 17.1642 848.439 16.7469 847.263L16.0811 845.668L15.313 843.369L13.9506 838.984L12.4453 834.459L12.4214 834.391V834.073L11.9519 832.315C11.3994 830.402 10.8639 828.471 10.3484 826.526L9.72045 824.323L9.41486 823.1L9.10091 821.633C8.4085 818.82 7.75659 815.981 7.14559 813.123L6.70127 811.642L6.68868 811.587L6.17286 808.393C5.64627 805.717 5.15518 803.023 4.69832 800.31L4.58059 799.842L4.44043 799.284H4.4979L4.28204 797.771C3.93671 795.612 3.61244 793.445 3.3107 791.264L2.76125 787.875L2.60567 786.035L2.49774 784.94C1.94323 780.251 1.48815 775.517 1.12973 770.737L1.09469 770.314L1.07366 769.983C0.922441 767.906 0.7887 765.821 0.674195 763.731L0.641955 763.217L0.640555 763.081C0.421359 758.938 0.275339 754.762 0.199034 750.555L0.187821 750.378V750.028C-0.0836691 733.785 0.703895 717.115 2.51596 700.104L2.75705 697.46L2.9785 695.96C3.42475 692.107 3.92292 688.241 4.47266 684.356L4.47967 684.297C5.10395 679.89 5.79636 675.465 6.55273 671.021L6.68586 669.958L7.57173 665.246C7.9145 663.365 8.27095 661.48 8.63695 659.594L8.65236 659.508C10.7446 648.731 13.2175 637.836 16.0573 626.872C19.8754 612.133 24.366 597.212 29.4991 582.223L29.6253 581.824L29.8159 581.215L29.9098 580.919L30.364 579.715C33.6331 570.297 37.1571 560.833 40.931 551.346L41.2968 550.401L41.3753 550.228C42.0896 548.438 42.8116 546.648 43.5437 544.862C85.0132 443.52 154.799 339.427 246.82 247.415L251.142 243.118C252.682 241.596 254.228 240.08 255.775 238.57H255.679L256.35 238.01C306.627 189.009 360.299 146.591 415.01 111.718H413.892L416.209 110.953C421.134 107.825 426.069 104.76 431.009 101.755L431.209 101.633C436.304 98.5352 441.406 95.5047 446.512 92.5396L446.557 92.5128C479.1 73.6206 511.845 57.4285 544.309 44.1443C558.245 38.4413 572.141 33.2718 585.941 28.6547ZM672.236 174.994C672.377 174.851 672.591 174.817 672.764 174.907L672.841 174.957L677.227 178.523C862.445 329.967 988.982 542.704 999.318 720.763L999.541 724.957C1000.69 748.978 999.668 771.732 996.6 793.091L996.564 793.332C994.818 805.426 992.414 817.071 989.377 828.244L989.523 828.275L989.227 828.871L989.2 828.934L989.168 828.993C983.85 848.33 976.627 866.254 967.609 882.647L967.464 882.974L967.441 883.02L967.414 883.061L967.286 883.224C966.327 884.96 965.345 886.682 964.345 888.381L963.982 889.035L963.877 889.29L963.709 889.49L963.65 889.585H963.9L963.2 890.298C961.932 892.411 960.627 894.492 959.295 896.546L958.673 897.532L955.345 902.525L954.291 903.929C952.882 905.914 951.445 907.873 949.977 909.799L948.691 911.598L946.191 914.642C944.986 916.137 943.759 917.609 942.514 919.068L941.423 920.381L940.818 921.035C938.941 923.18 937.027 925.283 935.068 927.351L933.859 928.7L930.059 932.498L925.832 936.578L923.805 938.373C920.555 941.326 917.209 944.184 913.768 946.942L913.118 947.474L908.582 951.104L904.259 954.13C901.668 955.979 899.027 957.774 896.336 959.518L894.659 960.636L889.668 963.812L884.814 966.547L882.668 967.706C881.709 968.237 880.741 968.764 879.768 969.282L879.518 969.419L879.368 969.496C877.523 970.473 875.659 971.431 873.777 972.367L869.086 974.712L863.932 976.983L858.341 979.405L852.886 981.522L852.341 981.722C850.654 982.367 848.955 982.99 847.245 983.599L847.141 983.64L847.041 983.671C843.75 984.844 840.409 985.952 837.027 987.002L835.805 987.42L833.459 988.079C831.427 988.678 829.382 989.255 827.318 989.81L824 990.75L821.455 991.318C819.295 991.85 817.118 992.363 814.923 992.845L811.75 993.622L809.732 993.967L808.95 994.099C806.268 994.635 803.559 995.135 800.827 995.603L799.345 995.893L799.295 995.903L797.277 996.189C794.173 996.68 791.036 997.129 787.868 997.534L786.636 997.706L786.586 997.711L784.418 997.952C783.345 998.079 782.268 998.197 781.186 998.315L779.827 998.465L773.627 999.069L771.559 999.197C769.023 999.396 766.473 999.565 763.905 999.705L760.327 999.978H760.223L756.286 1000.05C753.618 1000.14 750.936 1000.2 748.236 1000.23L746.718 1000.28L744.927 1000.26C741.364 1000.27 737.768 1000.23 734.141 1000.14L732.955 1000.13L727.859 999.978H727.805L718.945 999.528H718.9L714.877 999.215C713.668 999.128 712.459 999.038 711.245 998.942L704.686 998.465L700.114 997.911C697.732 997.656 695.35 997.388 692.964 997.097L690.323 996.802L686.6 996.284C686.023 996.207 685.445 996.121 684.868 996.043L683.818 995.898L683.523 995.853C681.5 995.566 679.477 995.266 677.445 994.953L675.705 994.694L675.65 994.689L669.005 993.631L660.841 992.118L657.286 991.391C655.359 991.009 653.423 990.618 651.486 990.214L645.882 989.096L641.277 987.97C638.327 987.293 635.368 986.588 632.409 985.857L630.764 985.466L628.25 984.812C626.482 984.358 624.709 983.899 622.936 983.426L615.65 981.541L608.541 979.423L600.236 977.006L593.195 974.762L593.123 974.739L592.886 974.662L590.359 973.853H590.418L584.818 972.017L581.086 970.668C578.791 969.878 576.491 969.073 574.195 968.255L569.255 966.579L562.145 963.853L553.686 960.686L547.341 958.042C546.409 957.665 545.477 957.288 544.545 956.91L538.118 954.339L530.864 951.163L522.405 947.537L517.809 945.338C515.895 944.466 513.986 943.58 512.073 942.689L506.691 940.286L499.423 936.656L490.973 932.58L483.709 928.8L475.255 924.42L468 920.49L459.791 916.015L459.682 915.955L459.623 915.919L458.132 915.11H458.2L452.388 911.785L452.279 911.726L452.179 911.667L450.805 910.88L443.974 906.891L436.83 902.725L436.718 902.661L436.64 902.616L435.278 901.821L428.406 897.673L421.269 893.211L421.154 893.143L420.767 892.897L419.82 892.307L417.078 890.576L417.036 890.548L416.999 890.512L416.89 890.403L416.708 890.294L416.18 889.976L415.08 889.29L414.961 889.217L413.3 888.159L413.066 887.999L412.838 887.85L411.025 886.641L408.465 884.983L408.343 884.905L407.18 884.151L406.405 883.61C405.799 883.215 405.194 882.815 404.588 882.42L401.52 880.457L397.435 877.731L397.242 877.549L395.24 876.195C394.087 875.419 392.935 874.642 391.784 873.856L387.579 871.011L387.461 870.934L387.295 870.821L386.241 870.107L382.175 867.308L381.842 867.086L381.714 867L380.484 866.182H380.583L377.07 863.633C374.182 861.588 371.299 859.521 368.422 857.436L366.927 856.44L362.227 852.951L354.975 847.517L351.813 845.254L347.415 841.77L339.568 835.731L338.225 834.627C336.105 832.964 333.986 831.288 331.874 829.602L331.408 829.234L322.947 822.437L322.192 821.833L321.185 821.029L314.333 815.336L307.535 809.593L305.571 807.934L301.122 804.013C299.326 802.459 297.535 800.896 295.747 799.324L293.189 797.216L288.237 792.664C287.114 791.66 285.992 790.651 284.873 789.642L278.979 784.367L278.206 783.595L275.475 781.042C270.6 776.525 265.757 771.955 260.952 767.329L259.639 766.089L257.935 764.412C252.43 759.069 246.974 753.653 241.569 748.165L237.725 744.321L231.08 737.379L224.721 730.722L224.584 730.582L221.565 727.41L212.055 716.997L211.604 716.542L207.254 711.603C204.962 709.041 202.683 706.465 200.415 703.875L198.901 702.18L193.309 695.683L192.798 695.079C191.123 693.125 189.456 691.158 187.795 689.19L186.509 687.673L185.875 686.928L183.943 684.652L174.863 673.638L174.699 673.438L174.395 672.984L174.281 672.811L174.335 672.616L176.147 665.819L177.205 661.589L177.96 658.867L180.078 651.766L182.303 644.792L182.346 644.655L182.398 644.492L184.268 638.753L184.461 638.158L184.726 637.363L184.763 637.254L187.179 630.003L189.901 622.442L192.917 614.905L193.062 614.332L193.081 614.269L195.95 607.322L198.063 602.042L199.124 599.616L202.447 591.91L203.353 589.802L206.078 584.045L206.103 583.991L208.807 578.048L209.102 577.389L209.506 576.585L209.706 576.185L209.833 575.935L215.327 564.945L217.56 560.478L221.794 552.464L222.138 551.814L222.562 552.414L222.599 552.464L231.43 564.89L231.47 564.945L240.525 577.316L245.659 583.964L249.906 589.525L250.04 589.702L259.698 601.924L269.664 614.155L279.772 626.222L285.82 633.06L289.435 637.095L290.2 638.008L300.759 649.776L311.625 661.393L315.7 665.619L322.345 672.416L322.398 672.48L322.675 672.898L333.963 684.034L337.133 687.055L345.437 695.056L345.53 695.142L356.974 705.692L357.06 705.77L368.836 716.338L369.887 717.133H369.745L380.755 726.747L392.711 736.611L392.834 736.711L405.067 746.525L417.319 755.939L417.452 756.039L417.538 756.107L429.809 765.385L437.21 770.519L442.343 774.294L454.877 782.9L467.409 791.355L480.077 799.347L492.759 807.198L495.768 808.852L497.309 809.702H497.195L505.436 814.591L517.068 821.083L518.127 821.692L530.791 828.475L539.4 832.855L543.273 834.941L543.332 834.973L555.85 841.002L568.223 846.74L580.595 852.17L580.732 852.224L592.941 857.136L605.055 861.829L607.464 862.706L617.114 866.2L629.032 870.125L640.655 873.597L652.123 876.763L652.195 876.782L652.727 876.918L663.432 879.63L674.609 882.047L685.423 884.151L696.023 885.814L704.782 887.023L706.455 887.327L716.382 888.381L726.2 889.135L726.582 889.154L735.7 889.59L744.814 889.74H744.882L753.795 889.585H753.855L762.218 889.135L770.505 888.381L778.195 887.327L782.382 886.646L785.573 886.123L792.659 884.619L799.3 882.956L805.764 881.003L810.473 879.43L811.645 879.04L817.35 876.791L822.786 874.374L827.886 871.825L832.705 869.112L837.209 866.263L839.477 864.641L841.436 863.247L842.141 862.679L842.673 862.252H842.605L843.691 861.438L845.477 860.102L849.241 856.786L852.859 853.324L856.323 849.712L859.632 845.95L862.786 841.892L865.795 837.676L868.641 833.182L871.359 828.503L873.905 823.414L876.164 818.143L878.423 812.419L880.536 806.38L882.341 800.065L884.145 793.45L884.391 792.182L885.505 786.357L886.259 781.841L886.859 778.82L887.764 770.991L887.768 770.946L888.518 762.854L889.118 754.417L889.273 745.68L889.123 736.475L888.818 726.983L888.1 718.037L888.064 717.619V717.315L887.75 714.298L887.009 707.224L887 707.164L886.559 704.211L885.659 697.023L885.65 696.964L885.627 696.819L883.841 686.26L881.732 675.396L879.323 664.406L878.868 662.734L876.45 653.065L876.395 652.861L873.305 641.539L873.277 641.443L869.814 629.844L866.491 619.871L865.891 617.922L861.623 606.29L861.505 605.977L856.982 593.768L855.332 590.006L852.023 581.596L852 581.537L846.573 569.175L840.841 556.648L835.073 544.826H835.023L834.923 544.513L834.782 544.09L828.473 531.618L827.114 529.351L821.673 518.924L818.805 513.944L814.577 506.247L814.268 505.729L807.027 493.716L806.882 493.48L800.818 483.666L800.686 483.448L800.259 482.758L799.332 481.04L791.205 468.396L791.086 468.278L791.032 468.209L782.727 455.833L774.127 443.307L770.05 437.723L765.118 430.843L765.064 430.772L758.877 422.473L755.859 418.403L746.2 406.023L736.518 393.962L736.468 393.903L736.386 393.798L726.427 381.723L726.395 381.69L722.941 377.805L722.795 377.644L722.75 377.587L722.136 376.898L716.209 369.858L716.154 369.794L716.105 369.736L705.595 358.026L696.532 348.211L694.859 346.234L683.854 334.777L682.805 333.725L672.686 323.461L661.427 312.5L661.364 312.44L653.814 305.191L649.895 301.426L638.7 291.427L638.555 291.293L638.104 290.846L626.191 280.29L626.127 280.234L614.273 270.181L614.114 270.05L602.073 260.243L602.036 260.214L589.818 250.559L577.432 241.197L577.309 241.103L565.05 231.986L554.345 224.597L552.568 223.264L552.527 223.236L551.927 222.816L552.573 222.465L560.427 218.237L568.441 214.155L572.768 211.991H572.423L574.495 211.127L576.309 210.371L584.159 206.6L591.868 203.122L599.573 199.648L607.25 196.486L614.836 193.3L622.245 190.429L627.259 188.586H626.877L629.623 187.715L637.064 185.137L644.323 182.868L651.423 180.603L658.536 178.635L665.482 176.671L671.986 175.008L672.041 174.994H672.236ZM778.214 552.468L782.445 560.469L786.523 568.479L790.305 576.34L793.895 584.127L793.991 584.218L794.773 584.99H794.377L797.559 591.901L800.886 599.616L804.204 607.317L807.118 614.746H807.164L807.241 615.055L810.104 622.433L812.827 629.994L812.868 630.125L815.395 637.399L817.814 644.651L818.268 646.009L820.027 651.584L820.077 651.748L822.045 658.863L822.65 660.821L824.014 665.819L825.604 672.484C825.745 672.611 825.786 672.802 825.723 672.97L825.705 673.016C825.691 673.043 825.673 673.075 825.655 673.098C825.564 673.207 825.477 673.32 825.386 673.429L823.477 675.878L818.891 681.367C810.073 692.044 801.014 702.557 791.736 712.903L790.541 714.257L790.15 714.661C782.886 722.721 775.491 730.672 767.968 738.505L765.909 740.695L764.318 742.286C748.055 759.056 731.209 775.289 713.868 790.901L713.845 790.955L713.777 791.014L711.6 792.941C708.827 795.422 706.041 797.889 703.241 800.338L702 801.428L701.209 802.15H701.345L700.341 802.936L700.214 803.055L699.445 803.641C696.495 806.203 693.527 808.743 690.545 811.269L688.1 813.368L687.295 814.013C682.491 818.044 677.655 822.033 672.786 825.967L672.705 826.045L672.523 826.208L672.282 826.145L672.082 826.09L665.536 824.35L665.491 824.336L658.541 822.523L651.436 820.556L644.323 818.289L639.486 816.676L637.073 815.872L629.673 813.455L622.255 810.729L614.7 807.857L607.218 804.718L607.136 804.686L603.141 803.055L603.055 803.023L599.605 801.519L591.964 798.225L591.873 798.189L584.014 794.558L583.955 794.531L576.7 791.128L576.582 791.073L576.323 790.901L576.123 790.764L568.3 787.007L560.432 782.922L552.577 778.842L552.336 778.72V778.447V778.293L552.332 778.061L552.523 777.925L567.232 767.42L568.1 766.798L568.382 766.598L583.782 755.157L584.232 754.821L584.273 754.794L599.923 742.604L615.473 729.918L630.723 716.788L645.809 703.362L649.282 700.04L660.459 689.468L662.85 687.078L663.527 686.396L663.623 686.305L663.755 686.174L674.5 675.719L674.95 675.278L683.568 666.387L684.309 665.623L684.436 665.483L689.141 660.639L690.945 658.681L697.436 651.589L702.882 645.841L716.305 630.761L717.059 629.857L723.559 622.301L729.323 615.65L729.886 614.914L730.014 614.746L736.082 607.213L742.123 599.961L742.4 599.543L748.464 591.815L753.927 584.809L754.35 584.263L766.118 568.42L777.445 552.414L777.873 551.814L778.214 552.468ZM183.482 8.60986C239.685 -4.21988 305.612 -1.39783 376.84 17.4494L378.263 17.79H378.123C395.74 22.4949 413.68 28.1758 431.875 34.8438L435.455 36.1669L435.536 36.2078C435.607 36.2518 435.661 36.3154 435.697 36.3868L436.216 36.5749L435.599 36.9238C435.549 36.9692 435.49 37.0024 435.425 37.0219L435.362 37.0597L422.562 44.3365L419.887 45.8599L404.564 55.0218L395.865 60.31L384.335 67.55L378.447 71.3275L372.246 75.3121L365.895 79.5684L359.728 83.7044L348.285 91.6832L348.169 91.8027L348.11 91.8513L339.571 97.885L337.987 99.0332L337.662 99.2672L329.842 104.932L328.334 106.042L325.616 108.095H325.679L324.577 108.894L324.453 109.001L323.979 109.33L321.416 111.266V111.393L321.169 111.518L320.913 111.644L320.228 112.162L319.652 112.625H319.891L318.672 113.438L318.56 113.532L318.308 113.682L317.524 114.205L315.042 116.078L314.47 116.587L314.313 116.726L314.243 116.716L314.07 116.803L313.947 116.866L313.811 116.848L313.11 116.761L312.602 116.698L305.806 115.491L301.949 114.96L298.107 114.433L290.405 113.529L282.89 112.776L275.654 112.174L272.114 111.951L268.38 111.718L261.45 111.567H257.522L254.681 111.417L253.355 111.564L248.04 111.567L241.558 111.867L235.214 112.324L229.192 112.923L223.322 113.675L217.736 114.582L212.326 115.483L207.645 116.551L207.042 116.69L202.065 117.898L197.334 119.226L197.249 119.25L194.871 119.941L192.57 120.61L188.228 122.105L184.017 123.759L179.94 125.573L176.02 127.382L172.268 129.331L168.655 131.288L165.201 133.392L161.889 135.651L158.772 137.875L156.166 139.958L152.713 142.722L147.319 147.815L142.196 153.237L137.37 159.27L135.119 162.421L132.876 165.704L131.828 167.658L130.967 169.085L130.915 169.176L128.809 172.786L126.856 176.542L126.224 178.014L125.966 178.618L125.942 178.67L125.045 180.462L123.391 184.521L121.739 188.729L121.387 189.783L121.288 190.085L120.076 193.263L118.724 197.916L118.654 198.174L117.669 201.694L117.366 202.748L116.01 207.718L115.065 212.444L114.976 212.898L114.958 212.981L113.93 218.404L113.901 218.566L112.998 224.294L112.921 225.062L112.851 225.777L112.81 226.185L112.243 230.027L111.643 236.173L111.644 238.118L111.34 242.366L111.04 248.859L110.889 255.494V262.27L111.04 269.364L111.466 276.022L111.493 276.438L112.014 282.859L112.095 283.829L112.7 289.869L112.841 291.292L112.85 291.379L113.754 298.907L114.96 306.752L116.319 314.757L116.351 314.946L116.237 315.1L114.576 317.365L105.195 329.721L105.064 329.896L94.3409 344.695L83.9377 359.617L83.8314 359.833L75.7718 371.714L73.7 374.672L73.6582 374.737L73.5391 374.918L67.4714 384.392L63.8523 389.819L59.3205 397.219L54.3418 405.065L54.2959 405.146L51.4755 410.044L45.335 420.372L45.2831 420.462L43.9263 422.877L38.7907 431.939L36.6027 435.728C36.583 435.823 36.5345 435.91 36.4625 435.973L36.049 436.691L35.7085 435.805L34.1989 431.877L31.0255 422.814L30.1186 420.397L26.6412 409.962L25.6825 406.798C25.2547 405.463 24.8322 404.129 24.4154 402.797L22.561 397.123L20.4417 389.708L18.9321 384.27L16.2129 374.604L15.4546 371.571L12.5868 359.491L12.434 358.887L9.41068 344.827L9.40086 344.78V344.47L9.30695 343.977C8.65604 340.705 8.041 337.445 7.461 334.2L6.84568 330.949L6.54432 329.741L4.57359 317.167L4.43342 315.118C4.09856 312.692 3.78546 310.273 3.49151 307.864L3.36396 306.887L2.96309 303.808L2.90842 303.402L2.90282 303.349L2.84395 302.902L2.45569 299.022L1.74225 291.877L1.6974 291.469L1.59087 290.369L1.54742 289.938L1.50257 289.462L1.30354 285.092C1.12497 282.527 0.971064 279.973 0.840991 277.431L0.801745 276.824L0 276.022H0.632145L0.490577 269.39L0.3392 263.651V261.32C0.309774 258.581 0.310253 255.857 0.3392 253.147V248.828L0.513005 245.107C0.578991 243.074 0.658759 241.049 0.758291 239.033L0.791932 238.118L0.790532 236.155L1.24607 229.93L1.51378 226.185L1.54462 225.748L1.54882 225.701L1.7002 224.179L2.30431 218.437L2.90702 213.47V212.859L3.61906 208.704C3.73422 207.889 3.8525 207.075 3.97368 206.263L4.36053 203.081L4.4222 202.564L4.57218 201.508L5.33186 197.707L6.23736 193.029L6.84145 189.858L7.14423 188.491L8.05109 184.262L8.836 180.732L8.95795 180.168L9.4135 178.357L10.0218 176.228L10.2937 175.257C10.6636 173.844 11.0415 172.437 11.4319 171.037L11.8411 169.406L11.9855 168.821L12.0668 168.5L12.441 167.312L12.8644 165.933L13.0255 165.407L13.0438 165.347L13.1419 165.027L14.1034 162.019L14.4244 161.053C14.6946 160.212 14.9705 159.374 15.2485 158.538L15.7601 156.749L17.1268 152.798L19.2405 147.363L19.5432 146.46L20.4346 144.374C21.2075 142.444 22.0003 140.527 22.8175 138.628L23.3206 137.39L23.622 136.492L23.6556 136.416L24.313 135.228C24.3801 135.078 24.4489 134.928 24.5163 134.779L25.0433 133.465H24.9774L25.3054 132.81L25.4049 132.559L26.3566 130.708L27.2621 128.746L27.8718 127.424H27.7877L28.1872 126.743L29.1585 125.08C29.375 124.654 29.5915 124.227 29.8103 123.802L30.1383 123.145L30.263 122.894L30.4915 122.496C30.7772 121.95 31.0651 121.405 31.3549 120.862L31.7992 119.974L31.9254 119.724L32.5547 118.614L33.1602 117.406L33.1925 117.341L33.243 117.291L33.355 117.176L33.4167 117.079C33.7922 116.407 34.1716 115.736 34.5535 115.068L34.6684 114.839L34.6965 114.79L34.8072 114.622C34.988 114.307 35.1743 113.996 35.3566 113.682L35.7421 112.995L35.8542 112.776L36.0967 112.408L36.1471 112.325H36.042L36.485 111.657L36.7681 111.231L36.8017 111.182L36.9363 110.911L37.0372 110.709V110.512L37.2278 110.51L38.0772 109.001L38.4599 108.314L38.4963 108.252L38.5846 108.095L38.9154 107.56L43.9473 99.9396H43.8464L44.3454 99.2599L44.459 99.0345L44.5136 99.0332L50.2659 91.2138L50.3095 91.162L50.4536 91.0175L51.0536 90.2606C52.3073 88.6309 53.5836 87.0188 54.8832 85.4268L56.7695 83.0469L58.7177 80.8592C60.0723 79.2917 61.4514 77.7442 62.8527 76.2158L64.1859 74.7219L65.0591 73.8473C66.4145 72.4134 67.7905 70.9954 69.1882 69.5978C69.7005 69.0857 70.2159 68.5764 70.7327 68.0703L71.9005 66.8562L73.7491 65.1774C75.5391 63.4927 77.3568 61.8407 79.2018 60.2214H79.13L80.0355 59.469L80.7545 58.8675C83.0468 56.8951 85.3827 54.9746 87.7573 53.1018L88.7036 52.3239L89.8077 51.5038C97.885 45.2915 106.421 39.6454 115.385 34.5662L116.851 33.707L117.775 33.2309C120.679 31.6316 123.627 30.0904 126.618 28.6083L126.985 28.4121L127.494 28.1767C130.561 26.6728 133.674 25.2312 136.829 23.8504L137.428 23.5714L137.883 23.3877C142.51 21.3891 147.233 19.5251 152.043 17.79H151.897L154.247 17.0051C158.705 15.4431 163.239 13.9938 167.845 12.6561H167.475L170.502 11.8979C174.362 10.8196 178.271 9.81815 182.23 8.89578L182.812 8.74303L183.482 8.60986Z" fill="white"/>
</svg>
