<svg xmlns="http://www.w3.org/2000/svg" viewBox="0 0 23.1 33" fill="none"><path d="M19.2725 10.5837C17.9963 10.9625 17.0343 11.8195 16.3297 12.7504C16.1784 12.9502 15.8631 12.8001 15.9232 12.5552C17.2722 7.00807 15.4901 2.3976 9.93481 0.128169C9.65299 0.0126761 9.35962 0.265605 9.43354 0.561267C11.9606 10.7073 1.33165 9.85151 2.67485 21.3534C2.69795 21.5509 2.4762 21.686 2.3145 21.5705C1.81095 21.209 1.24849 20.4549 0.862744 19.9248C0.749558 19.7688 0.504709 19.8127 0.452738 19.9987C0.145523 21.1097 0 22.1561 0 23.1956C0 27.2378 2.07774 30.7961 5.22265 32.8589C5.40282 32.9767 5.63381 32.808 5.57259 32.6013C5.4109 32.0584 5.31967 31.4856 5.31274 30.8931C5.31274 30.5293 5.33584 30.1575 5.39242 29.811C5.52409 28.9402 5.82669 28.1109 6.33486 27.3556C8.07766 24.7397 11.5714 22.2127 11.0135 18.7814C10.9777 18.5642 11.2341 18.4211 11.3958 18.57C13.857 20.8187 14.3444 23.8434 13.9402 26.5564C13.9055 26.792 14.2011 26.9179 14.3501 26.7331C14.7267 26.2619 15.1864 25.8484 15.6864 25.5377C15.8111 25.4603 15.9774 25.5192 16.0248 25.6578C16.3032 26.4674 16.7166 27.2274 17.107 27.9873C17.5736 28.9009 17.8219 29.9438 17.7826 31.0479C17.763 31.585 17.6741 32.1046 17.5251 32.599C17.4615 32.808 17.6902 32.9824 17.8739 32.8623C21.0211 30.7996 23.1 27.2413 23.1 23.1967C23.1 21.7912 22.854 20.4133 22.3885 19.1221C21.4126 16.4138 18.9365 14.38 19.5624 10.8505C19.5924 10.6819 19.4365 10.5352 19.2725 10.5837Z" fill="#000"/></svg>
