<?xml version="1.0" encoding="UTF-8"?>
<svg xmlns="http://www.w3.org/2000/svg" version="1.2" baseProfile="tiny-ps" width="980" height="980" viewBox="0 0 980 980">
  <title>Mintlify</title>
  <path d="M817.701 404.994V202.123C817.701 180.353 800.039 163 778.595 163H575.818C543.966 163 512.43 169.31 483.102 181.299C453.773 193.604 426.968 211.273 404.577 233.989L403 235.567C373.356 265.54 352.227 302.769 341.505 343.785C360.742 338.737 380.609 336.213 400.477 335.898C453.457 335.266 505.493 352.304 547.751 384.17C585.91 412.566 614.922 451.689 630.69 496.806C647.089 542.555 648.981 592.405 636.682 639.415C677.364 628.688 714.893 607.549 744.852 577.892L746.429 576.314C768.819 553.913 786.794 527.095 799.093 497.753C811.392 468.411 817.385 436.86 817.385 404.994H817.701Z" fill="#18E299"/>
  <path d="M335.451 401.567C335.765 339.332 360.584 279.612 404.255 234.979L235.543 403.767C234.915 404.396 234.286 404.71 233.658 405.339C192.501 446.2 167.682 500.892 163.598 558.726C159.827 612.789 173.965 666.223 204.126 710.856C207.002 715.113 214.808 716.514 219.207 712.427L322.57 609.331C354.929 576.957 364.983 528.866 349.589 485.804C339.849 459.087 335.137 430.484 335.451 401.567Z" fill="#0C8C5E"/>
  <path d="M745.449 576.328C713.089 608.075 672.56 630.077 628.575 639.82C584.277 649.564 538.408 646.736 495.681 631.648C495.681 631.648 495.366 631.648 495.052 631.648C452.01 616.247 403.942 626.305 371.582 658.365L268.218 761.462C263.82 765.862 264.448 773.091 269.789 776.549C314.401 806.409 367.812 820.868 421.85 817.096C479.658 813.01 534.009 788.179 575.166 747.003L576.737 745.431L745.449 576.643V576.328Z" fill="#0C8C5E"/>
</svg>
