<svg width="434" height="98" viewBox="0 0 434 98" fill="none" xmlns="http://www.w3.org/2000/svg">
<mask id="path-1-inside-1_4775_1154" fill="white">
<path d="M0 0H118.205V30H0V0Z"/>
</mask>
<path d="M0 0H118.205V30H0V0Z" fill="black"/>
<path d="M0 0V-0.5466H-0.5466V0H0ZM118.205 0H118.751V-0.5466H118.205V0ZM0 0V0.5466H118.205V0V-0.5466H0V0ZM118.205 0H117.658V30H118.205H118.751V0H118.205ZM0 30H0.5466V0H0H-0.5466V30H0Z" fill="#404045" mask="url(#path-1-inside-1_4775_1154)"/>
<path fill-rule="evenodd" clip-rule="evenodd" d="M15.422 8.74561C11.7304 8.74561 8.74609 11.7519 8.74609 15.4711C8.74609 18.444 10.6582 20.9606 13.3109 21.8512C13.6425 21.9182 13.764 21.7065 13.764 21.5285C13.764 21.3725 13.7531 20.8381 13.7531 20.2813C11.896 20.6822 11.5093 19.4795 11.5093 19.4795C11.2108 18.7001 10.7686 18.4998 10.7686 18.4998C10.1608 18.0878 10.8129 18.0878 10.8129 18.0878C11.4871 18.1323 11.8409 18.7781 11.8409 18.7781C12.4377 19.8024 13.3993 19.513 13.7861 19.3348C13.8413 18.9006 14.0183 18.5999 14.2062 18.4329C12.725 18.277 11.1667 17.698 11.1667 15.1147C11.1667 14.3798 11.4318 13.7785 11.8519 13.3109C11.7856 13.1439 11.5534 12.4534 11.9183 11.5293C11.9183 11.5293 12.4819 11.3511 13.7529 12.2196C14.2971 12.0724 14.8582 11.9975 15.422 11.9969C15.9856 11.9969 16.5602 12.0749 17.0909 12.2196C18.362 11.3511 18.9256 11.5293 18.9256 11.5293C19.2905 12.4534 19.0582 13.1439 18.9919 13.3109C19.423 13.7785 19.6772 14.3798 19.6772 15.1147C19.6772 17.698 18.1189 18.2658 16.6267 18.4329C16.8699 18.6445 17.0798 19.0453 17.0798 19.68C17.0798 20.5819 17.0689 21.3057 17.0689 21.5283C17.0689 21.7065 17.1905 21.9182 17.522 21.8514C20.1746 20.9604 22.0868 18.444 22.0868 15.4711C22.0977 11.7519 19.1025 8.74561 15.422 8.74561Z" fill="white"/>
<path d="M31.2078 19.9555C30.3333 19.9555 29.5855 19.7456 28.9646 19.3258C28.3437 18.906 27.867 18.3332 27.5347 17.6073C27.2111 16.8727 27.0493 16.0375 27.0493 15.1017C27.0493 14.1659 27.2155 13.3307 27.5478 12.5961C27.8801 11.8615 28.3568 11.2842 28.9777 10.8645C29.6074 10.4359 30.3595 10.2217 31.2341 10.2217C31.9775 10.2217 32.6028 10.3572 33.11 10.6283C33.626 10.8994 34.0327 11.2668 34.33 11.7303C34.6361 12.1938 34.846 12.7141 34.9597 13.2914L33.779 13.3701C33.6654 12.7666 33.4117 12.2769 33.0182 11.9008C32.6246 11.516 32.0299 11.3236 31.2341 11.3236C30.5257 11.3236 29.9485 11.4985 29.5025 11.8483C29.0652 12.1982 28.7416 12.6617 28.5317 13.2389C28.3305 13.8073 28.23 14.4283 28.23 15.1017C28.23 15.8101 28.3349 16.4485 28.5448 17.017C28.7547 17.5767 29.0827 18.0227 29.5287 18.3551C29.9747 18.6874 30.5432 18.8536 31.2341 18.8536C31.7851 18.8536 32.2617 18.7311 32.664 18.4862C33.0663 18.2326 33.3767 17.8959 33.5954 17.4761C33.814 17.0563 33.9277 16.6016 33.9365 16.1118H31.2603V15.0361H34.9859V19.7456H34.1464L34.0677 17.5942L34.2251 17.7778C34.1201 18.1976 33.919 18.5737 33.6216 18.906C33.3243 19.2296 32.9657 19.4876 32.5459 19.68C32.1349 19.8637 31.6888 19.9555 31.2078 19.9555ZM36.6939 19.7456V12.7929H37.7958V19.7456H36.6939ZM36.6677 11.704V10.4184H37.8221V11.704H36.6677ZM41.9163 19.7456C41.2867 19.7456 40.8188 19.6013 40.5127 19.3127C40.2153 19.0241 40.0666 18.5737 40.0666 17.9615V11.1662H41.1686V17.9353C41.1686 18.2501 41.2386 18.4687 41.3785 18.5912C41.5184 18.7136 41.7327 18.7748 42.0213 18.7748H43.0183V19.7456H41.9163ZM39.0434 13.7636V12.7929H43.0183V13.7636H39.0434ZM44.5891 19.7456V10.4315H45.7173V14.9574L45.1401 14.5114H50.9778L50.4006 14.9574V10.4315H51.5287V19.7456H50.4006V15.1673L50.9778 15.6133H45.1401L45.7173 15.1673V19.7456H44.5891ZM55.81 19.903C55.1191 19.903 54.5638 19.6713 54.144 19.2078C53.733 18.7355 53.5274 18.0883 53.5274 17.2662V12.7929H54.6294V16.9645C54.6294 17.6379 54.7475 18.1364 54.9836 18.46C55.2285 18.7748 55.6002 18.9323 56.0987 18.9323C56.6496 18.9323 57.0825 18.7574 57.3974 18.4075C57.7122 18.049 57.8696 17.5592 57.8696 16.9383V12.7929H58.9716V19.7456H57.9221V18.0271L58.0926 18.1189C57.9527 18.6874 57.686 19.129 57.2924 19.4439C56.8989 19.75 56.4047 19.903 55.81 19.903ZM64.0687 19.903C63.5877 19.903 63.1591 19.7981 62.7831 19.5882C62.407 19.3695 62.1184 19.0722 61.9173 18.6961L61.8779 19.7456H60.8809V10.4315H61.9829V13.7636C62.1578 13.475 62.4289 13.217 62.7962 12.9896C63.1635 12.7535 63.5877 12.6354 64.0687 12.6354C64.6809 12.6354 65.21 12.7841 65.656 13.0815C66.102 13.3788 66.4475 13.7986 66.6924 14.3408C66.9372 14.8831 67.0597 15.5259 67.0597 16.2692C67.0597 17.0126 66.9372 17.6554 66.6924 18.1976C66.4475 18.7399 66.102 19.1597 65.656 19.457C65.21 19.7544 64.6809 19.903 64.0687 19.903ZM64.0031 18.8536C64.589 18.8536 65.0526 18.6218 65.3936 18.1583C65.7347 17.6948 65.9053 17.0651 65.9053 16.2692C65.9053 15.4646 65.7347 14.835 65.3936 14.3802C65.0526 13.9167 64.5978 13.6849 64.0293 13.6849C63.6008 13.6849 63.2335 13.7899 62.9274 13.9998C62.6213 14.2009 62.3852 14.4939 62.219 14.8787C62.0616 15.2635 61.9829 15.727 61.9829 16.2692C61.9829 16.794 62.0616 17.2531 62.219 17.6467C62.3852 18.0315 62.6169 18.3288 62.9143 18.5387C63.2204 18.7486 63.5833 18.8536 64.0031 18.8536ZM72.1198 19.7456V10.4315H73.248V19.7456H72.1198ZM77.9019 19.903C77.281 19.903 76.7519 19.8025 76.3146 19.6013C75.8861 19.4002 75.5494 19.1247 75.3045 18.7748C75.0684 18.4163 74.9328 18.0096 74.8978 17.5548L76.0522 17.4761C76.1222 17.8959 76.3015 18.2326 76.5901 18.4862C76.8787 18.7311 77.316 18.8536 77.9019 18.8536C78.3742 18.8536 78.7502 18.7792 79.0301 18.6305C79.3187 18.4731 79.463 18.2239 79.463 17.8828C79.463 17.6991 79.4193 17.5461 79.3318 17.4237C79.2444 17.3012 79.0738 17.1963 78.8202 17.1088C78.5666 17.0126 78.1905 16.9208 77.692 16.8333C77.0274 16.7109 76.5026 16.5622 76.1178 16.3873C75.7418 16.2036 75.4706 15.9806 75.3045 15.7183C75.1471 15.4471 75.0684 15.1279 75.0684 14.7606C75.0684 14.1397 75.2957 13.6324 75.7505 13.2389C76.2053 12.8366 76.8525 12.6354 77.692 12.6354C78.2605 12.6354 78.7371 12.7404 79.1219 12.9503C79.5155 13.1514 79.8216 13.4225 80.0402 13.7636C80.2676 14.096 80.4163 14.4633 80.4862 14.8656L79.3318 14.9443C79.2794 14.6994 79.1832 14.4851 79.0432 14.3015C78.9033 14.1091 78.7196 13.9604 78.4923 13.8554C78.2649 13.7418 77.9938 13.6849 77.6789 13.6849C77.1804 13.6849 76.8131 13.7811 76.577 13.9735C76.3408 14.1659 76.2228 14.4108 76.2228 14.7081C76.2228 14.9355 76.2752 15.1236 76.3802 15.2722C76.4939 15.4122 76.6732 15.5302 76.918 15.6264C77.1629 15.7139 77.4909 15.7926 77.9019 15.8626C78.6103 15.985 79.1613 16.1337 79.5548 16.3086C79.9484 16.4835 80.2239 16.6978 80.3813 16.9514C80.5387 17.205 80.6174 17.5155 80.6174 17.8828C80.6174 18.3113 80.495 18.6786 80.2501 18.9847C80.014 19.2821 79.6904 19.5095 79.2794 19.6669C78.8771 19.8243 78.4179 19.903 77.9019 19.903ZM84.6533 19.903C84.0323 19.903 83.5032 19.8025 83.066 19.6013C82.6374 19.4002 82.3007 19.1247 82.0558 18.7748C81.8197 18.4163 81.6842 18.0096 81.6492 17.5548L82.8036 17.4761C82.8736 17.8959 83.0528 18.2326 83.3414 18.4862C83.63 18.7311 84.0673 18.8536 84.6533 18.8536C85.1255 18.8536 85.5016 18.7792 85.7815 18.6305C86.0701 18.4731 86.2144 18.2239 86.2144 17.8828C86.2144 17.6991 86.1706 17.5461 86.0832 17.4237C85.9957 17.3012 85.8252 17.1963 85.5716 17.1088C85.3179 17.0126 84.9419 16.9208 84.4434 16.8333C83.7787 16.7109 83.254 16.5622 82.8692 16.3873C82.4931 16.2036 82.222 15.9806 82.0558 15.7183C81.8984 15.4471 81.8197 15.1279 81.8197 14.7606C81.8197 14.1397 82.0471 13.6324 82.5019 13.2389C82.9566 12.8366 83.6038 12.6354 84.4434 12.6354C85.0118 12.6354 85.4885 12.7404 85.8733 12.9503C86.2668 13.1514 86.5729 13.4225 86.7916 13.7636C87.019 14.096 87.1676 14.4633 87.2376 14.8656L86.0832 14.9443C86.0307 14.6994 85.9345 14.4851 85.7946 14.3015C85.6547 14.1091 85.471 13.9604 85.2436 13.8554C85.0162 13.7418 84.7451 13.6849 84.4303 13.6849C83.9318 13.6849 83.5645 13.7811 83.3283 13.9735C83.0922 14.1659 82.9741 14.4108 82.9741 14.7081C82.9741 14.9355 83.0266 15.1236 83.1315 15.2722C83.2452 15.4122 83.4245 15.5302 83.6694 15.6264C83.9143 15.7139 84.2422 15.7926 84.6533 15.8626C85.3617 15.985 85.9126 16.1337 86.3062 16.3086C86.6997 16.4835 86.9752 16.6978 87.1327 16.9514C87.2901 17.205 87.3688 17.5155 87.3688 17.8828C87.3688 18.3113 87.2463 18.6786 87.0015 18.9847C86.7653 19.2821 86.4418 19.5095 86.0307 19.6669C85.6284 19.8243 85.1693 19.903 84.6533 19.903ZM91.1554 19.903C90.4645 19.903 89.9091 19.6713 89.4894 19.2078C89.0783 18.7355 88.8728 18.0883 88.8728 17.2662V12.7929H89.9747V16.9645C89.9747 17.6379 90.0928 18.1364 90.3289 18.46C90.5738 18.7748 90.9455 18.9323 91.444 18.9323C91.995 18.9323 92.4279 18.7574 92.7427 18.4075C93.0576 18.049 93.215 17.5592 93.215 16.9383V12.7929H94.3169V19.7456H93.2674V18.0271L93.438 18.1189C93.2981 18.6874 93.0313 19.129 92.6378 19.4439C92.2442 19.75 91.7501 19.903 91.1554 19.903ZM99.0058 19.903C98.3499 19.903 97.7814 19.7544 97.3004 19.457C96.8282 19.1597 96.4609 18.7399 96.1985 18.1976C95.9449 17.6467 95.8181 17.0039 95.8181 16.2692C95.8181 15.5346 95.9449 14.8962 96.1985 14.3539C96.4609 13.8117 96.8238 13.3919 97.2873 13.0946C97.7596 12.7885 98.3149 12.6354 98.9533 12.6354C99.5568 12.6354 100.09 12.7797 100.554 13.0683C101.017 13.3482 101.376 13.7592 101.63 14.3015C101.892 14.8437 102.023 15.504 102.023 16.2824V16.6103H96.9725C97.0162 17.3537 97.213 17.9134 97.5628 18.2895C97.9214 18.6655 98.4024 18.8536 99.0058 18.8536C99.4606 18.8536 99.8323 18.7486 100.121 18.5387C100.418 18.3201 100.624 18.0358 100.737 17.686L101.918 17.7778C101.734 18.3988 101.385 18.9104 100.869 19.3127C100.361 19.7063 99.7405 19.903 99.0058 19.903ZM96.9725 15.6395H100.816C100.764 14.9661 100.567 14.472 100.226 14.1572C99.8935 13.8423 99.4693 13.6849 98.9533 13.6849C98.4199 13.6849 97.9782 13.8511 97.6284 14.1834C97.2873 14.507 97.0687 14.9924 96.9725 15.6395ZM106.048 19.903C105.427 19.903 104.897 19.8025 104.46 19.6013C104.032 19.4002 103.695 19.1247 103.45 18.7748C103.214 18.4163 103.078 18.0096 103.043 17.5548L104.198 17.4761C104.268 17.8959 104.447 18.2326 104.736 18.4862C105.024 18.7311 105.462 18.8536 106.048 18.8536C106.52 18.8536 106.896 18.7792 107.176 18.6305C107.464 18.4731 107.609 18.2239 107.609 17.8828C107.609 17.6991 107.565 17.5461 107.477 17.4237C107.39 17.3012 107.219 17.1963 106.966 17.1088C106.712 17.0126 106.336 16.9208 105.838 16.8333C105.173 16.7109 104.648 16.5622 104.263 16.3873C103.887 16.2036 103.616 15.9806 103.45 15.7183C103.293 15.4471 103.214 15.1279 103.214 14.7606C103.214 14.1397 103.441 13.6324 103.896 13.2389C104.351 12.8366 104.998 12.6354 105.838 12.6354C106.406 12.6354 106.883 12.7404 107.268 12.9503C107.661 13.1514 107.967 13.4225 108.186 13.7636C108.413 14.096 108.562 14.4633 108.632 14.8656L107.477 14.9443C107.425 14.6994 107.329 14.4851 107.189 14.3015C107.049 14.1091 106.865 13.9604 106.638 13.8554C106.41 13.7418 106.139 13.6849 105.825 13.6849C105.326 13.6849 104.959 13.7811 104.723 13.9735C104.486 14.1659 104.368 14.4108 104.368 14.7081C104.368 14.9355 104.421 15.1236 104.526 15.2722C104.639 15.4122 104.819 15.5302 105.064 15.6264C105.309 15.7139 105.636 15.7926 106.048 15.8626C106.756 15.985 107.307 16.1337 107.7 16.3086C108.094 16.4835 108.369 16.6978 108.527 16.9514C108.684 17.205 108.763 17.5155 108.763 17.8828C108.763 18.3113 108.641 18.6786 108.396 18.9847C108.16 19.2821 107.836 19.5095 107.425 19.6669C107.023 19.8243 106.564 19.903 106.048 19.903Z" fill="white"/>
<foreignObject x="-8.30831" y="21.6917" width="450.617" height="84.6166"><div xmlns="http://www.w3.org/1999/xhtml" style="backdrop-filter:blur(4.15px);clip-path:url(#bgblur_0_4775_1154_clip_path);height:100%;width:100%"></div></foreignObject><g data-figma-bg-blur-radius="8.30831">
<path d="M433.727 30.2734V97.7266H0.273438V30.2734H433.727Z" fill="black" fill-opacity="0.8"/>
<path d="M433.727 30.2734V97.7266H0.273438V30.2734H433.727Z" stroke="#404045" stroke-width="0.5466"/>
<path d="M18.8914 50.6519V51.7389H14.3913V50.6519H18.8914ZM15.7392 59V49.4997C15.7392 49.0215 15.8515 48.6229 16.0761 48.304C16.3008 47.9852 16.5925 47.7461 16.9512 47.5866C17.3099 47.4272 17.6885 47.3475 18.0871 47.3475C18.4023 47.3475 18.6596 47.3729 18.8588 47.4236C19.0581 47.4743 19.2067 47.5214 19.3045 47.5649L18.9349 48.6736C18.8697 48.6519 18.7791 48.6247 18.6632 48.5921C18.5509 48.5595 18.4023 48.5432 18.2175 48.5432C17.7936 48.5432 17.4874 48.6501 17.299 48.8638C17.1142 49.0776 17.0218 49.391 17.0218 49.8041V59H15.7392ZM20.6891 59V50.6519H21.9717V59H20.6891ZM21.3412 49.2606C21.0912 49.2606 20.8757 49.1754 20.6945 49.0051C20.5169 48.8349 20.4282 48.6301 20.4282 48.391C20.4282 48.1519 20.5169 47.9471 20.6945 47.7769C20.8757 47.6066 21.0912 47.5214 21.3412 47.5214C21.5913 47.5214 21.805 47.6066 21.9826 47.7769C22.1637 47.9471 22.2543 48.1519 22.2543 48.391C22.2543 48.6301 22.1637 48.8349 21.9826 49.0051C21.805 49.1754 21.5913 49.2606 21.3412 49.2606ZM25.2775 50.6519L27.2776 54.0651L29.2776 50.6519H30.7559L28.0602 54.826L30.7559 59H29.2776L27.2776 55.7608L25.2775 59H23.7992L26.4514 54.826L23.7992 50.6519H25.2775ZM33.5209 59.087C33.2528 59.087 33.0227 58.9909 32.8307 58.7989C32.6387 58.6069 32.5427 58.3768 32.5427 58.1087C32.5427 57.8405 32.6387 57.6105 32.8307 57.4184C33.0227 57.2264 33.2528 57.1304 33.5209 57.1304C33.7891 57.1304 34.0191 57.2264 34.2112 57.4184C34.4032 57.6105 34.4992 57.8405 34.4992 58.1087C34.4992 58.2862 34.4539 58.4493 34.3634 58.5978C34.2764 58.7464 34.1586 58.8659 34.0101 58.9565C33.8652 59.0435 33.7021 59.087 33.5209 59.087ZM33.5209 52.8911C33.2528 52.8911 33.0227 52.7951 32.8307 52.6031C32.6387 52.411 32.5427 52.181 32.5427 51.9128C32.5427 51.6447 32.6387 51.4146 32.8307 51.2226C33.0227 51.0306 33.2528 50.9346 33.5209 50.9346C33.7891 50.9346 34.0191 51.0306 34.2112 51.2226C34.4032 51.4146 34.4992 51.6447 34.4992 51.9128C34.4992 52.0904 34.4539 52.2534 34.3634 52.402C34.2764 52.5505 34.1586 52.6701 34.0101 52.7607C33.8652 52.8476 33.7021 52.8911 33.5209 52.8911ZM41.1054 59V50.6519H42.3446V51.9128H42.4315C42.5837 51.4998 42.8591 51.1646 43.2576 50.9074C43.6562 50.6501 44.1055 50.5215 44.6055 50.5215C44.6997 50.5215 44.8175 50.5233 44.9588 50.5269C45.1001 50.5306 45.207 50.536 45.2794 50.5432V51.8476C45.236 51.8368 45.1363 51.8204 44.9805 51.7987C44.8283 51.7733 44.6671 51.7607 44.4968 51.7607C44.091 51.7607 43.7287 51.8458 43.4098 52.0161C43.0946 52.1828 42.8446 52.4147 42.6598 52.7118C42.4786 53.0053 42.388 53.3404 42.388 53.7172V59H41.1054ZM49.2564 59.1957C48.7274 59.1957 48.2474 59.096 47.8162 58.8967C47.385 58.6938 47.0426 58.4022 46.789 58.0217C46.5354 57.6376 46.4085 57.1739 46.4085 56.6304C46.4085 56.1521 46.5027 55.7644 46.6912 55.4673C46.8796 55.1666 47.1314 54.931 47.4466 54.7607C47.7618 54.5905 48.1097 54.4636 48.4901 54.3803C48.8742 54.2933 49.2601 54.2245 49.6478 54.1738C50.155 54.1086 50.5663 54.0596 50.8815 54.027C51.2003 53.9908 51.4322 53.931 51.5772 53.8477C51.7257 53.7643 51.8 53.6194 51.8 53.4129V53.3694C51.8 52.8332 51.6533 52.4165 51.3598 52.1194C51.0699 51.8223 50.6297 51.6737 50.0391 51.6737C49.4267 51.6737 48.9467 51.8078 48.5988 52.0759C48.251 52.344 48.0064 52.6303 47.8651 52.9346L46.6477 52.4998C46.8651 51.9926 47.1549 51.5976 47.5173 51.315C47.8832 51.0288 48.2818 50.8295 48.713 50.7172C49.1477 50.6012 49.5753 50.5432 49.9956 50.5432C50.2637 50.5432 50.5717 50.5758 50.9195 50.6411C51.271 50.7027 51.6098 50.8313 51.9359 51.0269C52.2656 51.2226 52.5391 51.5179 52.7565 51.9128C52.9739 52.3078 53.0826 52.8368 53.0826 53.4998V59H51.8V57.8695H51.7348C51.6478 58.0507 51.5029 58.2445 51.3 58.4511C51.0971 58.6576 50.8271 58.8333 50.4902 58.9783C50.1532 59.1232 49.742 59.1957 49.2564 59.1957ZM49.4521 58.0435C49.9594 58.0435 50.3869 57.9438 50.7347 57.7445C51.0862 57.5452 51.3507 57.288 51.5282 56.9728C51.7094 56.6575 51.8 56.326 51.8 55.9782V54.8042C51.7456 54.8694 51.6261 54.9292 51.4413 54.9836C51.2601 55.0343 51.05 55.0796 50.8108 55.1195C50.5753 55.1557 50.3452 55.1883 50.1206 55.2173C49.8996 55.2426 49.7202 55.2644 49.5825 55.2825C49.2492 55.326 48.9376 55.3966 48.6477 55.4945C48.3615 55.5887 48.1296 55.7318 47.9521 55.9238C47.7781 56.1122 47.6912 56.3695 47.6912 56.6956C47.6912 57.1413 47.856 57.4782 48.1858 57.7065C48.5191 57.9311 48.9412 58.0435 49.4521 58.0435ZM58.8151 59.1739C58.0325 59.1739 57.3586 58.9891 56.7933 58.6196C56.2281 58.25 55.7933 57.7409 55.489 57.0923C55.1846 56.4438 55.0324 55.7028 55.0324 54.8694C55.0324 54.0216 55.1882 53.2734 55.4998 52.6248C55.8151 51.9726 56.2535 51.4636 56.8151 51.0976C57.3803 50.728 58.0398 50.5432 58.7934 50.5432C59.3804 50.5432 59.9094 50.6519 60.3804 50.8693C60.8514 51.0867 61.2373 51.3911 61.538 51.7824C61.8388 52.1737 62.0254 52.6303 62.0978 53.152H60.8152C60.7174 52.7716 60.5 52.4346 60.163 52.1411C59.8297 51.844 59.3804 51.6954 58.8151 51.6954C58.3151 51.6954 57.8767 51.8259 57.4999 52.0868C57.1267 52.344 56.835 52.7082 56.6249 53.1792C56.4183 53.6466 56.3151 54.1955 56.3151 54.826C56.3151 55.4709 56.4165 56.0325 56.6194 56.5108C56.826 56.9891 57.1158 57.3605 57.489 57.625C57.8658 57.8895 58.3079 58.0217 58.8151 58.0217C59.1485 58.0217 59.451 57.9637 59.7228 57.8478C59.9945 57.7318 60.2246 57.5652 60.413 57.3478C60.6014 57.1304 60.7355 56.8695 60.8152 56.5651H62.0978C62.0254 57.0579 61.846 57.5018 61.5598 57.8967C61.2772 58.288 60.9022 58.5996 60.4348 58.8315C59.971 59.0598 59.4311 59.1739 58.8151 59.1739ZM67.473 59.1739C66.6686 59.1739 65.9748 58.9964 65.3914 58.6413C64.8117 58.2826 64.3642 57.7826 64.049 57.1413C63.7374 56.4963 63.5816 55.7463 63.5816 54.8912C63.5816 54.0361 63.7374 53.2824 64.049 52.6303C64.3642 51.9744 64.8026 51.4636 65.3642 51.0976C65.9295 50.728 66.5889 50.5432 67.3426 50.5432C67.7774 50.5432 68.2067 50.6157 68.6306 50.7606C69.0546 50.9056 69.4404 51.1411 69.7883 51.4672C70.1361 51.7896 70.4133 52.2172 70.6198 52.7498C70.8264 53.2824 70.9296 53.9383 70.9296 54.7173V55.2608H64.4947V54.152H69.6252C69.6252 53.681 69.531 53.2607 69.3426 52.8911C69.1578 52.5216 68.8933 52.2299 68.5491 52.0161C68.2085 51.8023 67.8063 51.6954 67.3426 51.6954C66.8317 51.6954 66.3896 51.8223 66.0164 52.0759C65.6469 52.3259 65.3624 52.652 65.1632 53.0542C64.9639 53.4564 64.8642 53.8875 64.8642 54.3477V55.0868C64.8642 55.7173 64.9729 56.2517 65.1903 56.6902C65.4113 57.1249 65.7175 57.4565 66.1088 57.6847C66.5001 57.9094 66.9549 58.0217 67.473 58.0217C67.81 58.0217 68.1143 57.9746 68.3861 57.8804C68.6614 57.7826 68.8988 57.6376 69.098 57.4456C69.2973 57.2499 69.4513 57.0072 69.56 56.7173L70.7992 57.0652C70.6687 57.4855 70.4495 57.855 70.1416 58.1739C69.8336 58.4891 69.4531 58.7355 69.0002 58.913C68.5473 59.087 68.0382 59.1739 67.473 59.1739ZM80.5766 59.1739C79.794 59.1739 79.1201 58.9891 78.5548 58.6196C77.9896 58.25 77.5548 57.7409 77.2505 57.0923C76.9461 56.4438 76.7939 55.7028 76.7939 54.8694C76.7939 54.0216 76.9497 53.2734 77.2613 52.6248C77.5765 51.9726 78.015 51.4636 78.5766 51.0976C79.1418 50.728 79.8013 50.5432 80.5549 50.5432C81.1419 50.5432 81.6709 50.6519 82.1419 50.8693C82.6129 51.0867 82.9988 51.3911 83.2995 51.7824C83.6003 52.1737 83.7869 52.6303 83.8593 53.152H82.5767C82.4789 52.7716 82.2615 52.4346 81.9245 52.1411C81.5912 51.844 81.1419 51.6954 80.5766 51.6954C80.0766 51.6954 79.6382 51.8259 79.2614 52.0868C78.8882 52.344 78.5965 52.7082 78.3864 53.1792C78.1798 53.6466 78.0766 54.1955 78.0766 54.826C78.0766 55.4709 78.178 56.0325 78.3809 56.5108C78.5874 56.9891 78.8773 57.3605 79.2505 57.625C79.6273 57.8895 80.0694 58.0217 80.5766 58.0217C80.91 58.0217 81.2125 57.9637 81.4843 57.8478C81.756 57.7318 81.9861 57.5652 82.1745 57.3478C82.3629 57.1304 82.497 56.8695 82.5767 56.5651H83.8593C83.7869 57.0579 83.6075 57.5018 83.3213 57.8967C83.0387 58.288 82.6637 58.5996 82.1962 58.8315C81.7325 59.0598 81.1926 59.1739 80.5766 59.1739ZM89.1258 59.1739C88.3722 59.1739 87.7109 58.9946 87.142 58.6359C86.5768 58.2772 86.1348 57.7753 85.8159 57.1304C85.5007 56.4854 85.3431 55.7318 85.3431 54.8694C85.3431 53.9999 85.5007 53.2408 85.8159 52.5922C86.1348 51.9436 86.5768 51.44 87.142 51.0813C87.7109 50.7226 88.3722 50.5432 89.1258 50.5432C89.8794 50.5432 90.5389 50.7226 91.1041 51.0813C91.673 51.44 92.115 51.9436 92.4302 52.5922C92.7491 53.2408 92.9085 53.9999 92.9085 54.8694C92.9085 55.7318 92.7491 56.4854 92.4302 57.1304C92.115 57.7753 91.673 58.2772 91.1041 58.6359C90.5389 58.9946 89.8794 59.1739 89.1258 59.1739ZM89.1258 58.0217C89.6983 58.0217 90.1693 57.875 90.5389 57.5815C90.9085 57.288 91.182 56.9021 91.3596 56.4238C91.5371 55.9456 91.6259 55.4274 91.6259 54.8694C91.6259 54.3115 91.5371 53.7915 91.3596 53.3096C91.182 52.8277 90.9085 52.4382 90.5389 52.1411C90.1693 51.844 89.6983 51.6954 89.1258 51.6954C88.5533 51.6954 88.0823 51.844 87.7127 52.1411C87.3431 52.4382 87.0696 52.8277 86.892 53.3096C86.7145 53.7915 86.6257 54.3115 86.6257 54.8694C86.6257 55.4274 86.7145 55.9456 86.892 56.4238C87.0696 56.9021 87.3431 57.288 87.7127 57.5815C88.0823 57.875 88.5533 58.0217 89.1258 58.0217ZM96.1491 53.9781V59H94.8665V50.6519H96.1056V51.9563H96.2143C96.41 51.5324 96.7071 51.1918 97.1056 50.9346C97.5042 50.6737 98.0187 50.5432 98.6492 50.5432C99.2144 50.5432 99.709 50.6592 100.133 50.8911C100.557 51.1193 100.887 51.4672 101.122 51.9346C101.358 52.3984 101.475 52.9853 101.475 53.6955V59H100.193V53.7825C100.193 53.1266 100.022 52.6158 99.6818 52.2498C99.3412 51.8802 98.8738 51.6954 98.2796 51.6954C97.8702 51.6954 97.5042 51.7842 97.1817 51.9618C96.8629 52.1393 96.6111 52.3984 96.4263 52.739C96.2415 53.0795 96.1491 53.4926 96.1491 53.9781ZM106.971 59.1739C106.276 59.1739 105.662 58.9982 105.129 58.6467C104.596 58.2916 104.18 57.7916 103.879 57.1467C103.578 56.4981 103.428 55.7318 103.428 54.8477C103.428 53.9709 103.578 53.21 103.879 52.565C104.18 51.9201 104.598 51.4219 105.134 51.0704C105.671 50.719 106.29 50.5432 106.993 50.5432C107.537 50.5432 107.966 50.6338 108.281 50.815C108.6 50.9925 108.843 51.1954 109.01 51.4237C109.18 51.6483 109.312 51.8331 109.406 51.9781H109.515V47.8692H110.798V59H109.558V57.7174H109.406C109.312 57.8695 109.178 58.0616 109.004 58.2935C108.83 58.5217 108.582 58.7264 108.259 58.9076C107.937 59.0851 107.508 59.1739 106.971 59.1739ZM107.145 58.0217C107.66 58.0217 108.095 57.8876 108.45 57.6195C108.805 57.3478 109.075 56.9728 109.26 56.4945C109.444 56.0126 109.537 55.4564 109.537 54.826C109.537 54.2028 109.446 53.6575 109.265 53.1901C109.084 52.719 108.816 52.3531 108.461 52.0922C108.106 51.8277 107.667 51.6954 107.145 51.6954C106.602 51.6954 106.149 51.8349 105.787 52.1139C105.428 52.3893 105.158 52.7643 104.977 53.239C104.799 53.71 104.71 54.239 104.71 54.826C104.71 55.4202 104.801 55.9601 104.982 56.4456C105.167 56.9275 105.439 57.3115 105.797 57.5978C106.16 57.8804 106.609 58.0217 107.145 58.0217ZM113.325 59V50.6519H114.608V59H113.325ZM113.977 49.2606C113.727 49.2606 113.511 49.1754 113.33 49.0051C113.153 48.8349 113.064 48.6301 113.064 48.391C113.064 48.1519 113.153 47.9471 113.33 47.7769C113.511 47.6066 113.727 47.5214 113.977 47.5214C114.227 47.5214 114.441 47.6066 114.618 47.7769C114.8 47.9471 114.89 48.1519 114.89 48.391C114.89 48.6301 114.8 48.8349 114.618 49.0051C114.441 49.1754 114.227 49.2606 113.977 49.2606ZM120.587 50.6519V51.7389H116.261V50.6519H120.587ZM117.522 48.6519H118.805V56.6086C118.805 56.971 118.857 57.2427 118.962 57.4239C119.071 57.6014 119.209 57.721 119.375 57.7826C119.546 57.8405 119.725 57.8695 119.913 57.8695C120.055 57.8695 120.171 57.8623 120.261 57.8478C120.352 57.8297 120.424 57.8152 120.479 57.8043L120.739 58.9565C120.653 58.9891 120.531 59.0217 120.375 59.0543C120.22 59.0906 120.022 59.1087 119.783 59.1087C119.421 59.1087 119.066 59.0308 118.718 58.875C118.373 58.7192 118.087 58.4819 117.859 58.163C117.634 57.8442 117.522 57.442 117.522 56.9565V48.6519ZM122.517 59V50.6519H123.799V59H122.517ZM123.169 49.2606C122.919 49.2606 122.703 49.1754 122.522 49.0051C122.345 48.8349 122.256 48.6301 122.256 48.391C122.256 48.1519 122.345 47.9471 122.522 47.7769C122.703 47.6066 122.919 47.5214 123.169 47.5214C123.419 47.5214 123.633 47.6066 123.81 47.7769C123.991 47.9471 124.082 48.1519 124.082 48.391C124.082 48.6301 123.991 48.8349 123.81 49.0051C123.633 49.1754 123.419 49.2606 123.169 49.2606ZM129.54 59.1739C128.786 59.1739 128.125 58.9946 127.556 58.6359C126.991 58.2772 126.549 57.7753 126.23 57.1304C125.915 56.4854 125.757 55.7318 125.757 54.8694C125.757 53.9999 125.915 53.2408 126.23 52.5922C126.549 51.9436 126.991 51.44 127.556 51.0813C128.125 50.7226 128.786 50.5432 129.54 50.5432C130.294 50.5432 130.953 50.7226 131.518 51.0813C132.087 51.44 132.529 51.9436 132.844 52.5922C133.163 53.2408 133.323 53.9999 133.323 54.8694C133.323 55.7318 133.163 56.4854 132.844 57.1304C132.529 57.7753 132.087 58.2772 131.518 58.6359C130.953 58.9946 130.294 59.1739 129.54 59.1739ZM129.54 58.0217C130.112 58.0217 130.584 57.875 130.953 57.5815C131.323 57.288 131.596 56.9021 131.774 56.4238C131.951 55.9456 132.04 55.4274 132.04 54.8694C132.04 54.3115 131.951 53.7915 131.774 53.3096C131.596 52.8277 131.323 52.4382 130.953 52.1411C130.584 51.844 130.112 51.6954 129.54 51.6954C128.968 51.6954 128.496 51.844 128.127 52.1411C127.757 52.4382 127.484 52.8277 127.306 53.3096C127.129 53.7915 127.04 54.3115 127.04 54.8694C127.04 55.4274 127.129 55.9456 127.306 56.4238C127.484 56.9021 127.757 57.288 128.127 57.5815C128.496 57.875 128.968 58.0217 129.54 58.0217ZM136.563 53.9781V59H135.281V50.6519H136.52V51.9563H136.629C136.824 51.5324 137.121 51.1918 137.52 50.9346C137.918 50.6737 138.433 50.5432 139.063 50.5432C139.629 50.5432 140.123 50.6592 140.547 50.8911C140.971 51.1193 141.301 51.4672 141.536 51.9346C141.772 52.3984 141.89 52.9853 141.89 53.6955V59H140.607V53.7825C140.607 53.1266 140.437 52.6158 140.096 52.2498C139.755 51.8802 139.288 51.6954 138.694 51.6954C138.284 51.6954 137.918 51.7842 137.596 51.9618C137.277 52.1393 137.025 52.3984 136.84 52.739C136.656 53.0795 136.563 53.4926 136.563 53.9781ZM148.538 59V50.6519H149.82V59H148.538ZM149.19 49.2606C148.94 49.2606 148.724 49.1754 148.543 49.0051C148.366 48.8349 148.277 48.6301 148.277 48.391C148.277 48.1519 148.366 47.9471 148.543 47.7769C148.724 47.6066 148.94 47.5214 149.19 47.5214C149.44 47.5214 149.654 47.6066 149.831 47.7769C150.013 47.9471 150.103 48.1519 150.103 48.391C150.103 48.6301 150.013 48.8349 149.831 49.0051C149.654 49.1754 149.44 49.2606 149.19 49.2606ZM153.452 53.9781V59H152.17V50.6519H153.409V51.9563H153.518C153.713 51.5324 154.01 51.1918 154.409 50.9346C154.807 50.6737 155.322 50.5432 155.952 50.5432C156.518 50.5432 157.012 50.6592 157.436 50.8911C157.86 51.1193 158.19 51.4672 158.425 51.9346C158.661 52.3984 158.779 52.9853 158.779 53.6955V59H157.496V53.7825C157.496 53.1266 157.326 52.6158 156.985 52.2498C156.644 51.8802 156.177 51.6954 155.583 51.6954C155.173 51.6954 154.807 51.7842 154.485 51.9618C154.166 52.1393 153.914 52.3984 153.73 52.739C153.545 53.0795 153.452 53.4926 153.452 53.9781ZM167.318 59L164.775 50.6519H166.123L167.927 57.0434H168.014L169.797 50.6519H171.166L172.927 57.0217H173.014L174.818 50.6519H176.166L173.623 59H172.362L170.536 52.5868H170.405L168.579 59H167.318ZM181.078 59.1739C180.274 59.1739 179.58 58.9964 178.997 58.6413C178.417 58.2826 177.969 57.7826 177.654 57.1413C177.343 56.4963 177.187 55.7463 177.187 54.8912C177.187 54.0361 177.343 53.2824 177.654 52.6303C177.969 51.9744 178.408 51.4636 178.969 51.0976C179.535 50.728 180.194 50.5432 180.948 50.5432C181.383 50.5432 181.812 50.6157 182.236 50.7606C182.66 50.9056 183.046 51.1411 183.393 51.4672C183.741 51.7896 184.018 52.2172 184.225 52.7498C184.432 53.2824 184.535 53.9383 184.535 54.7173V55.2608H178.1V54.152H183.23C183.23 53.681 183.136 53.2607 182.948 52.8911C182.763 52.5216 182.498 52.2299 182.154 52.0161C181.814 51.8023 181.412 51.6954 180.948 51.6954C180.437 51.6954 179.995 51.8223 179.622 52.0759C179.252 52.3259 178.968 52.652 178.768 53.0542C178.569 53.4564 178.469 53.8875 178.469 54.3477V55.0868C178.469 55.7173 178.578 56.2517 178.795 56.6902C179.017 57.1249 179.323 57.4565 179.714 57.6847C180.105 57.9094 180.56 58.0217 181.078 58.0217C181.415 58.0217 181.719 57.9746 181.991 57.8804C182.267 57.7826 182.504 57.6376 182.703 57.4456C182.902 57.2499 183.056 57.0072 183.165 56.7173L184.404 57.0652C184.274 57.4855 184.055 57.855 183.747 58.1739C183.439 58.4891 183.058 58.7355 182.605 58.913C182.152 59.087 181.643 59.1739 181.078 59.1739ZM186.66 59V47.8692H187.942V51.9781H188.051C188.145 51.8331 188.276 51.6483 188.443 51.4237C188.613 51.1954 188.856 50.9925 189.171 50.815C189.49 50.6338 189.921 50.5432 190.464 50.5432C191.167 50.5432 191.787 50.719 192.323 51.0704C192.859 51.4219 193.278 51.9201 193.579 52.565C193.879 53.21 194.03 53.9709 194.03 54.8477C194.03 55.7318 193.879 56.4981 193.579 57.1467C193.278 57.7916 192.861 58.2916 192.328 58.6467C191.796 58.9982 191.182 59.1739 190.486 59.1739C189.95 59.1739 189.52 59.0851 189.198 58.9076C188.875 58.7264 188.627 58.5217 188.453 58.2935C188.279 58.0616 188.145 57.8695 188.051 57.7174H187.899V59H186.66ZM187.921 54.826C187.921 55.4564 188.013 56.0126 188.198 56.4945C188.383 56.9728 188.653 57.3478 189.008 57.6195C189.363 57.8876 189.798 58.0217 190.312 58.0217C190.848 58.0217 191.296 57.8804 191.655 57.5978C192.017 57.3115 192.289 56.9275 192.47 56.4456C192.655 55.9601 192.747 55.4202 192.747 54.826C192.747 54.239 192.656 53.71 192.475 53.239C192.298 52.7643 192.028 52.3893 191.665 52.1139C191.307 51.8349 190.856 51.6954 190.312 51.6954C189.79 51.6954 189.352 51.8277 188.997 52.0922C188.642 52.3531 188.374 52.719 188.192 53.1901C188.011 53.6575 187.921 54.2028 187.921 54.826ZM197.274 53.9781V59H195.992V47.8692H197.274V51.9563H197.383C197.579 51.5251 197.872 51.1827 198.263 50.9291C198.658 50.6719 199.184 50.5432 199.84 50.5432C200.408 50.5432 200.907 50.6574 201.334 50.8856C201.762 51.1103 202.093 51.4563 202.329 51.9237C202.568 52.3875 202.687 52.9781 202.687 53.6955V59H201.405V53.7825C201.405 53.1194 201.233 52.6067 200.889 52.2444C200.548 51.8784 200.075 51.6954 199.47 51.6954C199.05 51.6954 198.673 51.7842 198.34 51.9618C198.01 52.1393 197.749 52.3984 197.557 52.739C197.368 53.0795 197.274 53.4926 197.274 53.9781ZM208.425 59.1739C207.672 59.1739 207.011 58.9946 206.442 58.6359C205.876 58.2772 205.434 57.7753 205.116 57.1304C204.8 56.4854 204.643 55.7318 204.643 54.8694C204.643 53.9999 204.8 53.2408 205.116 52.5922C205.434 51.9436 205.876 51.44 206.442 51.0813C207.011 50.7226 207.672 50.5432 208.425 50.5432C209.179 50.5432 209.838 50.7226 210.404 51.0813C210.973 51.44 211.415 51.9436 211.73 52.5922C212.049 53.2408 212.208 53.9999 212.208 54.8694C212.208 55.7318 212.049 56.4854 211.73 57.1304C211.415 57.7753 210.973 58.2772 210.404 58.6359C209.838 58.9946 209.179 59.1739 208.425 59.1739ZM208.425 58.0217C208.998 58.0217 209.469 57.875 209.838 57.5815C210.208 57.288 210.482 56.9021 210.659 56.4238C210.837 55.9456 210.925 55.4274 210.925 54.8694C210.925 54.3115 210.837 53.7915 210.659 53.3096C210.482 52.8277 210.208 52.4382 209.838 52.1411C209.469 51.844 208.998 51.6954 208.425 51.6954C207.853 51.6954 207.382 51.844 207.012 52.1411C206.643 52.4382 206.369 52.8277 206.192 53.3096C206.014 53.7915 205.925 54.3115 205.925 54.8694C205.925 55.4274 206.014 55.9456 206.192 56.4238C206.369 56.9021 206.643 57.288 207.012 57.5815C207.382 57.875 207.853 58.0217 208.425 58.0217ZM217.557 59.1739C216.804 59.1739 216.143 58.9946 215.574 58.6359C215.008 58.2772 214.566 57.7753 214.248 57.1304C213.932 56.4854 213.775 55.7318 213.775 54.8694C213.775 53.9999 213.932 53.2408 214.248 52.5922C214.566 51.9436 215.008 51.44 215.574 51.0813C216.143 50.7226 216.804 50.5432 217.557 50.5432C218.311 50.5432 218.971 50.7226 219.536 51.0813C220.105 51.44 220.547 51.9436 220.862 52.5922C221.181 53.2408 221.34 53.9999 221.34 54.8694C221.34 55.7318 221.181 56.4854 220.862 57.1304C220.547 57.7753 220.105 58.2772 219.536 58.6359C218.971 58.9946 218.311 59.1739 217.557 59.1739ZM217.557 58.0217C218.13 58.0217 218.601 57.875 218.971 57.5815C219.34 57.288 219.614 56.9021 219.791 56.4238C219.969 55.9456 220.058 55.4274 220.058 54.8694C220.058 54.3115 219.969 53.7915 219.791 53.3096C219.614 52.8277 219.34 52.4382 218.971 52.1411C218.601 51.844 218.13 51.6954 217.557 51.6954C216.985 51.6954 216.514 51.844 216.144 52.1411C215.775 52.4382 215.501 52.8277 215.324 53.3096C215.146 53.7915 215.057 54.3115 215.057 54.8694C215.057 55.4274 215.146 55.9456 215.324 56.4238C215.501 56.9021 215.775 57.288 216.144 57.5815C216.514 57.875 216.985 58.0217 217.557 58.0217ZM224.494 55.9564L224.472 54.3694H224.733L228.385 50.6519H229.972L226.081 54.5868H225.972L224.494 55.9564ZM223.298 59V47.8692H224.581V59H223.298ZM228.603 59L225.342 54.8694L226.255 53.9781L230.233 59H228.603ZM237.21 53.9781V59H235.928V47.8692H237.21V51.9563H237.319C237.515 51.5251 237.808 51.1827 238.199 50.9291C238.594 50.6719 239.12 50.5432 239.775 50.5432C240.344 50.5432 240.843 50.6574 241.27 50.8856C241.698 51.1103 242.029 51.4563 242.265 51.9237C242.504 52.3875 242.623 52.9781 242.623 53.6955V59H241.341V53.7825C241.341 53.1194 241.169 52.6067 240.824 52.2444C240.484 51.8784 240.011 51.6954 239.406 51.6954C238.986 51.6954 238.609 51.7842 238.275 51.9618C237.946 52.1393 237.685 52.3984 237.493 52.739C237.304 53.0795 237.21 53.4926 237.21 53.9781ZM247.427 59.1957C246.898 59.1957 246.417 59.096 245.986 58.8967C245.555 58.6938 245.213 58.4022 244.959 58.0217C244.705 57.6376 244.579 57.1739 244.579 56.6304C244.579 56.1521 244.673 55.7644 244.861 55.4673C245.05 55.1666 245.301 54.931 245.617 54.7607C245.932 54.5905 246.28 54.4636 246.66 54.3803C247.044 54.2933 247.43 54.2245 247.818 54.1738C248.325 54.1086 248.736 54.0596 249.052 54.027C249.37 53.9908 249.602 53.931 249.747 53.8477C249.896 53.7643 249.97 53.6194 249.97 53.4129V53.3694C249.97 52.8332 249.823 52.4165 249.53 52.1194C249.24 51.8223 248.8 51.6737 248.209 51.6737C247.597 51.6737 247.117 51.8078 246.769 52.0759C246.421 52.344 246.176 52.6303 246.035 52.9346L244.818 52.4998C245.035 51.9926 245.325 51.5976 245.687 51.315C246.053 51.0288 246.452 50.8295 246.883 50.7172C247.318 50.6012 247.745 50.5432 248.166 50.5432C248.434 50.5432 248.742 50.5758 249.09 50.6411C249.441 50.7027 249.78 50.8313 250.106 51.0269C250.436 51.2226 250.709 51.5179 250.927 51.9128C251.144 52.3078 251.253 52.8368 251.253 53.4998V59H249.97V57.8695H249.905C249.818 58.0507 249.673 58.2445 249.47 58.4511C249.267 58.6576 248.997 58.8333 248.66 58.9783C248.323 59.1232 247.912 59.1957 247.427 59.1957ZM247.622 58.0435C248.129 58.0435 248.557 57.9438 248.905 57.7445C249.256 57.5452 249.521 57.288 249.698 56.9728C249.879 56.6575 249.97 56.326 249.97 55.9782V54.8042C249.916 54.8694 249.796 54.9292 249.611 54.9836C249.43 55.0343 249.22 55.0796 248.981 55.1195C248.745 55.1557 248.515 55.1883 248.291 55.2173C248.07 55.2426 247.89 55.2644 247.753 55.2825C247.419 55.326 247.108 55.3966 246.818 55.4945C246.532 55.5887 246.3 55.7318 246.122 55.9238C245.948 56.1122 245.861 56.3695 245.861 56.6956C245.861 57.1413 246.026 57.4782 246.356 57.7065C246.689 57.9311 247.111 58.0435 247.622 58.0435ZM254.876 53.9781V59H253.594V50.6519H254.833V51.9563H254.942C255.137 51.5324 255.434 51.1918 255.833 50.9346C256.232 50.6737 256.746 50.5432 257.377 50.5432C257.942 50.5432 258.436 50.6592 258.86 50.8911C259.284 51.1193 259.614 51.4672 259.849 51.9346C260.085 52.3984 260.203 52.9853 260.203 53.6955V59H258.92V53.7825C258.92 53.1266 258.75 52.6158 258.409 52.2498C258.069 51.8802 257.601 51.6954 257.007 51.6954C256.598 51.6954 256.232 51.7842 255.909 51.9618C255.59 52.1393 255.338 52.3984 255.154 52.739C254.969 53.0795 254.876 53.4926 254.876 53.9781ZM265.699 59.1739C265.003 59.1739 264.389 58.9982 263.856 58.6467C263.324 58.2916 262.907 57.7916 262.606 57.1467C262.306 56.4981 262.155 55.7318 262.155 54.8477C262.155 53.9709 262.306 53.21 262.606 52.565C262.907 51.9201 263.326 51.4219 263.862 51.0704C264.398 50.719 265.018 50.5432 265.721 50.5432C266.264 50.5432 266.693 50.6338 267.009 50.815C267.327 50.9925 267.57 51.1954 267.737 51.4237C267.907 51.6483 268.039 51.8331 268.134 51.9781H268.242V47.8692H269.525V59H268.286V57.7174H268.134C268.039 57.8695 267.905 58.0616 267.731 58.2935C267.558 58.5217 267.309 58.7264 266.987 58.9076C266.664 59.0851 266.235 59.1739 265.699 59.1739ZM265.873 58.0217C266.387 58.0217 266.822 57.8876 267.177 57.6195C267.532 57.3478 267.802 56.9728 267.987 56.4945C268.172 56.0126 268.264 55.4564 268.264 54.826C268.264 54.2028 268.174 53.6575 267.992 53.1901C267.811 52.719 267.543 52.3531 267.188 52.0922C266.833 51.8277 266.394 51.6954 265.873 51.6954C265.329 51.6954 264.876 51.8349 264.514 52.1139C264.155 52.3893 263.885 52.7643 263.704 53.239C263.527 53.71 263.438 54.239 263.438 54.826C263.438 55.4202 263.528 55.9601 263.71 56.4456C263.894 56.9275 264.166 57.3115 264.525 57.5978C264.887 57.8804 265.336 58.0217 265.873 58.0217ZM273.335 47.8692V59H272.052V47.8692H273.335ZM279.184 59.1739C278.38 59.1739 277.686 58.9964 277.103 58.6413C276.523 58.2826 276.075 57.7826 275.76 57.1413C275.449 56.4963 275.293 55.7463 275.293 54.8912C275.293 54.0361 275.449 53.2824 275.76 52.6303C276.075 51.9744 276.514 51.4636 277.075 51.0976C277.641 50.728 278.3 50.5432 279.054 50.5432C279.489 50.5432 279.918 50.6157 280.342 50.7606C280.766 50.9056 281.152 51.1411 281.5 51.4672C281.847 51.7896 282.125 52.2172 282.331 52.7498C282.538 53.2824 282.641 53.9383 282.641 54.7173V55.2608H276.206V54.152H281.336C281.336 53.681 281.242 53.2607 281.054 52.8911C280.869 52.5216 280.605 52.2299 280.26 52.0161C279.92 51.8023 279.518 51.6954 279.054 51.6954C278.543 51.6954 278.101 51.8223 277.728 52.0759C277.358 52.3259 277.074 52.652 276.874 53.0542C276.675 53.4564 276.575 53.8875 276.575 54.3477V55.0868C276.575 55.7173 276.684 56.2517 276.902 56.6902C277.123 57.1249 277.429 57.4565 277.82 57.6847C278.211 57.9094 278.666 58.0217 279.184 58.0217C279.521 58.0217 279.826 57.9746 280.097 57.8804C280.373 57.7826 280.61 57.6376 280.809 57.4456C281.009 57.2499 281.163 57.0072 281.271 56.7173L282.51 57.0652C282.38 57.4855 282.161 57.855 281.853 58.1739C281.545 58.4891 281.164 58.7355 280.711 58.913C280.259 59.087 279.749 59.1739 279.184 59.1739ZM284.592 59V50.6519H285.831V51.9128H285.918C286.07 51.4998 286.346 51.1646 286.744 50.9074C287.143 50.6501 287.592 50.5215 288.092 50.5215C288.186 50.5215 288.304 50.5233 288.445 50.5269C288.587 50.5306 288.694 50.536 288.766 50.5432V51.8476C288.723 51.8368 288.623 51.8204 288.467 51.7987C288.315 51.7733 288.154 51.7607 287.983 51.7607C287.578 51.7607 287.215 51.8458 286.896 52.0161C286.581 52.1828 286.331 52.4147 286.146 52.7118C285.965 53.0053 285.875 53.3404 285.875 53.7172V59H284.592Z" fill="white"/>
<rect width="27.7456" height="14.7456" transform="translate(391.328 44)" fill="white" fill-opacity="0.24"/>
<path opacity="0.7" d="M396.802 54.3728V48.0124H399.025C399.468 48.0124 399.834 48.089 400.122 48.2422C400.409 48.3933 400.624 48.5973 400.764 48.854C400.905 49.1087 400.976 49.3913 400.976 49.7019C400.976 49.9752 400.927 50.2008 400.83 50.3789C400.734 50.557 400.608 50.6977 400.451 50.8013C400.295 50.9048 400.127 50.9814 399.945 51.0311V51.0932C400.139 51.1056 400.335 51.174 400.532 51.2982C400.728 51.4224 400.893 51.6005 401.025 51.8324C401.158 52.0642 401.224 52.3479 401.224 52.6833C401.224 53.0022 401.152 53.2889 401.007 53.5436C400.862 53.7983 400.633 54.0001 400.32 54.1492C400.008 54.2983 399.601 54.3728 399.1 54.3728H396.802ZM397.572 53.6896H399.1C399.603 53.6896 399.96 53.5922 400.171 53.3976C400.385 53.2009 400.491 52.9628 400.491 52.6833C400.491 52.468 400.436 52.2692 400.327 52.087C400.217 51.9028 400.06 51.7558 399.858 51.646C399.655 51.5342 399.415 51.4783 399.137 51.4783H397.572V53.6896ZM397.572 50.8075H399C399.232 50.8075 399.441 50.7619 399.628 50.6708C399.816 50.5797 399.965 50.4514 400.075 50.2857C400.187 50.1201 400.243 49.9255 400.243 49.7019C400.243 49.4224 400.145 49.1853 399.951 48.9907C399.756 48.794 399.448 48.6956 399.025 48.6956H397.572V50.8075ZM406.664 48.0124H407.434V52.2237C407.434 52.6585 407.331 53.0467 407.126 53.3883C406.924 53.7279 406.637 53.996 406.266 54.1927C405.896 54.3873 405.461 54.4846 404.962 54.4846C404.463 54.4846 404.028 54.3873 403.657 54.1927C403.287 53.996 402.999 53.7279 402.794 53.3883C402.591 53.0467 402.49 52.6585 402.49 52.2237V48.0124H403.26V52.1616C403.26 52.4721 403.328 52.7485 403.465 52.9908C403.601 53.2309 403.796 53.4204 404.049 53.5591C404.303 53.6958 404.608 53.7641 404.962 53.7641C405.316 53.7641 405.62 53.6958 405.875 53.5591C406.129 53.4204 406.324 53.2309 406.459 52.9908C406.595 52.7485 406.664 52.4721 406.664 52.1616V48.0124ZM413.32 50C413.252 49.7909 413.162 49.6035 413.05 49.4379C412.94 49.2702 412.809 49.1273 412.655 49.0093C412.504 48.8913 412.332 48.8012 412.14 48.7391C411.947 48.677 411.736 48.6459 411.506 48.6459C411.129 48.6459 410.787 48.7432 410.478 48.9379C410.17 49.1325 409.924 49.4192 409.742 49.7981C409.56 50.177 409.469 50.6418 409.469 51.1926C409.469 51.7433 409.561 52.2081 409.745 52.587C409.93 52.9659 410.179 53.2527 410.494 53.4473C410.808 53.6419 411.163 53.7392 411.556 53.7392C411.92 53.7392 412.241 53.6616 412.519 53.5063C412.798 53.349 413.016 53.1274 413.171 52.8417C413.328 52.5539 413.407 52.2154 413.407 51.8261L413.643 51.8758H411.73V51.1926H414.152V51.8758C414.152 52.3997 414.04 52.8552 413.817 53.2423C413.595 53.6295 413.289 53.9297 412.898 54.143C412.508 54.3542 412.061 54.4598 411.556 54.4598C410.993 54.4598 410.498 54.3273 410.071 54.0622C409.647 53.7972 409.316 53.4204 409.078 52.9318C408.842 52.4431 408.724 51.8634 408.724 51.1926C408.724 50.6895 408.791 50.2371 408.925 49.8354C409.062 49.4317 409.255 49.088 409.503 48.8043C409.751 48.5207 410.046 48.3033 410.385 48.1521C410.725 48.001 411.098 47.9254 411.506 47.9254C411.842 47.9254 412.154 47.9761 412.444 48.0776C412.736 48.177 412.996 48.3188 413.224 48.5031C413.453 48.6853 413.645 48.9037 413.798 49.1584C413.951 49.411 414.057 49.6915 414.115 50H413.32Z" fill="white"/>
<path opacity="0.6" d="M18.7733 77.2754L20.4099 67.3002H21.384L19.7475 77.2754H18.7733ZM14.2338 74.5088L14.3897 73.5347H21.8321L21.6763 74.5088H14.2338ZM15.2664 77.2754L16.9029 67.3002H17.8771L16.2405 77.2754H15.2664ZM14.8183 71.0409L14.9741 70.0667H22.4166L22.2607 71.0409H14.8183ZM26.8806 77.4118C26.2117 77.4118 25.6207 77.2932 25.1077 77.0562C24.5979 76.8159 24.2001 76.4863 23.9144 76.0675C23.6286 75.6453 23.4874 75.1647 23.4906 74.6257C23.4874 74.2036 23.5702 73.8139 23.739 73.4567C23.9079 73.0963 24.1384 72.796 24.4306 72.5557C24.7261 72.3121 25.0557 72.1579 25.4194 72.0929V72.0345C24.9421 71.9111 24.5622 71.6432 24.2797 71.2308C23.9972 70.8152 23.8575 70.3427 23.8608 69.8134C23.8575 69.3069 23.9858 68.8539 24.2456 68.4545C24.5053 68.0551 24.8625 67.7401 25.3171 67.5096C25.775 67.279 26.2961 67.1638 26.8806 67.1638C27.4586 67.1638 27.9749 67.279 28.4295 67.5096C28.8841 67.7401 29.2413 68.0551 29.5011 68.4545C29.7641 68.8539 29.8972 69.3069 29.9005 69.8134C29.8972 70.3427 29.7527 70.8152 29.467 71.2308C29.1845 71.6432 28.8094 71.9111 28.3418 72.0345V72.0929C28.7023 72.1579 29.027 72.3121 29.316 72.5557C29.605 72.796 29.8355 73.0963 30.0076 73.4567C30.1797 73.8139 30.2674 74.2036 30.2706 74.6257C30.2674 75.1647 30.1213 75.6453 29.8323 76.0675C29.5465 76.4863 29.1488 76.8159 28.639 77.0562C28.1324 77.2932 27.5463 77.4118 26.8806 77.4118ZM26.8806 76.3402C27.332 76.3402 27.7216 76.2672 28.0496 76.121C28.3776 75.9749 28.6308 75.7687 28.8094 75.5024C28.988 75.2362 29.0789 74.9245 29.0822 74.5673C29.0789 74.1906 28.9815 73.8578 28.7899 73.5688C28.5984 73.2798 28.337 73.0525 28.0058 72.8869C27.6778 72.7213 27.3028 72.6385 26.8806 72.6385C26.4552 72.6385 26.0753 72.7213 25.7409 72.8869C25.4097 73.0525 25.1483 73.2798 24.9567 73.5688C24.7684 73.8578 24.6758 74.1906 24.6791 74.5673C24.6758 74.9245 24.7619 75.2362 24.9372 75.5024C25.1158 75.7687 25.3707 75.9749 25.7019 76.121C26.0331 76.2672 26.426 76.3402 26.8806 76.3402ZM26.8806 71.6059C27.2378 71.6059 27.5544 71.5344 27.8304 71.3916C28.1097 71.2487 28.3288 71.049 28.488 70.7925C28.6471 70.5359 28.7282 70.2356 28.7315 69.8914C28.7282 69.5537 28.6487 69.2598 28.4928 69.0098C28.337 68.7565 28.121 68.5617 27.845 68.4253C27.569 68.2857 27.2475 68.2158 26.8806 68.2158C26.5072 68.2158 26.1809 68.2857 25.9016 68.4253C25.6224 68.5617 25.4064 68.7565 25.2538 69.0098C25.1012 69.2598 25.0265 69.5537 25.0297 69.8914C25.0265 70.2356 25.1028 70.5359 25.2587 70.7925C25.4178 71.049 25.637 71.2487 25.9162 71.3916C26.1955 71.5344 26.5169 71.6059 26.8806 71.6059ZM35.3131 67.1638C35.7222 67.167 36.1313 67.245 36.5405 67.3976C36.9496 67.5502 37.323 67.8035 37.6607 68.1574C37.9984 68.5081 38.2696 68.987 38.4742 69.5943C38.6787 70.2015 38.781 70.9629 38.781 71.8786C38.781 72.7651 38.6966 73.5525 38.5277 74.2409C38.3621 74.9261 38.1218 75.5041 37.8069 75.9749C37.4951 76.4457 37.1152 76.8029 36.6671 77.0465C36.2223 77.29 35.719 77.4118 35.1572 77.4118C34.5987 77.4118 34.1002 77.3014 33.6619 77.0806C33.2268 76.8565 32.8696 76.5464 32.5903 76.1503C32.3143 75.7509 32.1373 75.2881 32.0594 74.7621H33.2479C33.355 75.2199 33.5677 75.5982 33.8859 75.897C34.2074 76.1925 34.6312 76.3402 35.1572 76.3402C35.9268 76.3402 36.534 76.0041 36.9788 75.332C37.427 74.6598 37.651 73.71 37.651 72.4826H37.5731C37.3912 72.7554 37.1753 72.9908 36.9253 73.1889C36.6752 73.3869 36.3976 73.5395 36.0924 73.6467C35.7871 73.7539 35.4624 73.8074 35.1182 73.8074C34.5467 73.8074 34.0223 73.6662 33.545 73.3837C33.0709 73.0979 32.691 72.7067 32.4052 72.2098C32.1227 71.7098 31.9815 71.1383 31.9815 70.4953C31.9815 69.8849 32.1179 69.3264 32.3906 68.8198C32.6666 68.31 33.053 67.9041 33.5499 67.6021C34.0499 67.3002 34.6377 67.154 35.3131 67.1638ZM35.3131 68.2353C34.9039 68.2353 34.5354 68.3376 34.2074 68.5422C33.8827 68.7435 33.6245 69.0163 33.433 69.3605C33.2446 69.7014 33.1505 70.0797 33.1505 70.4953C33.1505 70.911 33.2414 71.2893 33.4232 71.6302C33.6083 71.9679 33.86 72.2374 34.1782 72.4388C34.4996 72.6368 34.865 72.7359 35.2741 72.7359C35.5826 72.7359 35.8699 72.6758 36.1362 72.5557C36.4025 72.4323 36.6346 72.265 36.8327 72.054C37.034 71.8397 37.1915 71.5978 37.3052 71.3282C37.4188 71.0555 37.4757 70.7714 37.4757 70.4759C37.4757 70.0862 37.3815 69.7209 37.1932 69.38C37.0081 69.039 36.7515 68.763 36.4236 68.5519C36.0989 68.3409 35.7287 68.2353 35.3131 68.2353ZM40.6964 77.2754V76.3987L43.989 72.7943C44.3754 72.3722 44.6937 72.0053 44.9437 71.6935C45.1937 71.3786 45.3788 71.0831 45.499 70.8071C45.6223 70.5278 45.684 70.2356 45.684 69.9303C45.684 69.5797 45.5996 69.276 45.4308 69.0195C45.2652 68.763 45.0379 68.5649 44.7489 68.4253C44.4599 68.2857 44.1352 68.2158 43.7747 68.2158C43.3916 68.2158 43.0571 68.2954 42.7713 68.4545C42.4888 68.6104 42.2697 68.8296 42.1138 69.1121C41.9612 69.3946 41.8849 69.7258 41.8849 70.1057H40.7354C40.7354 69.5212 40.8701 69.0082 41.1397 68.5665C41.4092 68.1249 41.7761 67.7807 42.2404 67.5339C42.708 67.2872 43.2324 67.1638 43.8137 67.1638C44.3982 67.1638 44.9161 67.2872 45.3674 67.5339C45.8188 67.7807 46.1727 68.1136 46.4293 68.5324C46.6858 68.9513 46.814 69.4173 46.814 69.9303C46.814 70.2973 46.7475 70.6561 46.6143 71.0068C46.4845 71.3542 46.2572 71.7423 45.9324 72.1709C45.611 72.5963 45.1645 73.1158 44.593 73.7295L42.3525 76.1259V76.2038H46.9894V77.2754H40.6964ZM55.9174 77.4313C55.242 77.4313 54.6494 77.2705 54.1396 76.9491C53.6331 76.6276 53.2369 76.1779 52.9512 75.5999C52.6687 75.0219 52.5274 74.3465 52.5274 73.5736C52.5274 72.7943 52.6687 72.114 52.9512 71.5328C53.2369 70.9516 53.6331 70.5002 54.1396 70.1787C54.6494 69.8573 55.242 69.6965 55.9174 69.6965C56.5928 69.6965 57.1838 69.8573 57.6904 70.1787C58.2002 70.5002 58.5963 70.9516 58.8788 71.5328C59.1646 72.114 59.3074 72.7943 59.3074 73.5736C59.3074 74.3465 59.1646 75.0219 58.8788 75.5999C58.5963 76.1779 58.2002 76.6276 57.6904 76.9491C57.1838 77.2705 56.5928 77.4313 55.9174 77.4313ZM55.9174 76.3987C56.4305 76.3987 56.8526 76.2672 57.1838 76.0041C57.515 75.7411 57.7602 75.3953 57.9193 74.9667C58.0784 74.538 58.158 74.0737 58.158 73.5736C58.158 73.0736 58.0784 72.6076 57.9193 72.1757C57.7602 71.7439 57.515 71.3948 57.1838 71.1285C56.8526 70.8623 56.4305 70.7291 55.9174 70.7291C55.4044 70.7291 54.9822 70.8623 54.651 71.1285C54.3198 71.3948 54.0747 71.7439 53.9156 72.1757C53.7564 72.6076 53.6769 73.0736 53.6769 73.5736C53.6769 74.0737 53.7564 74.538 53.9156 74.9667C54.0747 75.3953 54.3198 75.7411 54.651 76.0041C54.9822 76.2672 55.4044 76.3987 55.9174 76.3987ZM61.0621 80.0809V69.794H62.1726V70.9824H62.309C62.3935 70.8525 62.5104 70.6869 62.6597 70.4856C62.8123 70.281 63.0299 70.0992 63.3124 69.9401C63.5981 69.7777 63.9846 69.6965 64.4716 69.6965C65.1016 69.6965 65.6568 69.854 66.1374 70.169C66.618 70.484 66.993 70.9305 67.2626 71.5085C67.5321 72.0864 67.6668 72.7683 67.6668 73.5542C67.6668 74.3465 67.5321 75.0332 67.2626 75.6145C66.993 76.1925 66.6196 76.6406 66.1423 76.9588C65.665 77.2738 65.1146 77.4313 64.4911 77.4313C64.0105 77.4313 63.6257 77.3517 63.3368 77.1926C63.0478 77.0302 62.8253 76.8468 62.6695 76.6422C62.5136 76.4344 62.3935 76.2623 62.309 76.1259H62.2116V80.0809H61.0621ZM62.1921 73.5347C62.1921 74.0997 62.2749 74.5981 62.4405 75.03C62.6061 75.4586 62.8481 75.7947 63.1663 76.0382C63.4845 76.2785 63.8742 76.3987 64.3352 76.3987C64.8158 76.3987 65.2168 76.272 65.5383 76.0187C65.863 75.7622 66.1066 75.418 66.2689 74.9862C66.4345 74.551 66.5173 74.0672 66.5173 73.5347C66.5173 73.0086 66.4362 72.5346 66.2738 72.1124C66.1147 71.687 65.8728 71.351 65.5481 71.1042C65.2266 70.8542 64.8223 70.7291 64.3352 70.7291C63.8677 70.7291 63.4748 70.8477 63.1565 71.0847C62.8383 71.3185 62.598 71.6465 62.4357 72.0686C62.2733 72.4875 62.1921 72.9762 62.1921 73.5347ZM72.557 77.4313C71.8362 77.4313 71.2143 77.2721 70.6915 76.9539C70.172 76.6325 69.771 76.1843 69.4885 75.6096C69.2092 75.0316 69.0696 74.3595 69.0696 73.5931C69.0696 72.8268 69.2092 72.1514 69.4885 71.5669C69.771 70.9792 70.1639 70.5213 70.6672 70.1934C71.1737 69.8622 71.7647 69.6965 72.4401 69.6965C72.8298 69.6965 73.2146 69.7615 73.5945 69.8914C73.9744 70.0213 74.3202 70.2323 74.632 70.5246C74.9437 70.8136 75.1921 71.1967 75.3772 71.6741C75.5623 72.1514 75.6548 72.7391 75.6548 73.4373V73.9243H69.8879V72.9307H74.4858C74.4858 72.5086 74.4014 72.1319 74.2326 71.8007C74.067 71.4695 73.8299 71.2081 73.5214 71.0165C73.2162 70.8249 72.8558 70.7291 72.4401 70.7291C71.9823 70.7291 71.5861 70.8428 71.2517 71.0701C70.9205 71.2941 70.6656 71.5864 70.487 71.9468C70.3084 72.3073 70.2191 72.6937 70.2191 73.1061V73.7685C70.2191 74.3335 70.3165 74.8124 70.5113 75.2053C70.7094 75.595 70.9838 75.8921 71.3345 76.0967C71.6852 76.298 72.0927 76.3987 72.557 76.3987C72.859 76.3987 73.1318 76.3564 73.3753 76.272C73.6221 76.1843 73.8348 76.0545 74.0134 75.8824C74.192 75.707 74.33 75.4895 74.4274 75.2297L75.5379 75.5414C75.421 75.9181 75.2246 76.2493 74.9486 76.535C74.6725 76.8175 74.3316 77.0383 73.9257 77.1975C73.5198 77.3533 73.0636 77.4313 72.557 77.4313ZM78.5529 72.7748V77.2754H77.4034V69.794H78.5139V70.9629H78.6113C78.7867 70.583 79.0529 70.2778 79.4101 70.0472C79.7673 69.8134 80.2284 69.6965 80.7934 69.6965C81.3 69.6965 81.7432 69.8005 82.1231 70.0083C82.503 70.2128 82.7985 70.5246 83.0096 70.9435C83.2207 71.3591 83.3262 71.8851 83.3262 72.5216V77.2754H82.1767V72.5995C82.1767 72.0118 82.0241 71.5539 81.7189 71.226C81.4136 70.8947 80.9947 70.7291 80.4622 70.7291C80.0953 70.7291 79.7673 70.8087 79.4783 70.9678C79.1926 71.1269 78.9669 71.3591 78.8013 71.6643C78.6357 71.9696 78.5529 72.3397 78.5529 72.7748ZM88.5634 77.4313C87.8426 77.4313 87.2207 77.2721 86.6979 76.9539C86.1784 76.6325 85.7774 76.1843 85.4949 75.6096C85.2156 75.0316 85.076 74.3595 85.076 73.5931C85.076 72.8268 85.2156 72.1514 85.4949 71.5669C85.7774 70.9792 86.1703 70.5213 86.6736 70.1934C87.1801 69.8622 87.7711 69.6965 88.4465 69.6965C88.8362 69.6965 89.221 69.7615 89.6009 69.8914C89.9808 70.0213 90.3266 70.2323 90.6384 70.5246C90.9501 70.8136 91.1985 71.1967 91.3836 71.6741C91.5687 72.1514 91.6612 72.7391 91.6612 73.4373V73.9243H85.8943V72.9307H90.4922C90.4922 72.5086 90.4078 72.1319 90.239 71.8007C90.0734 71.4695 89.8363 71.2081 89.5278 71.0165C89.2226 70.8249 88.8622 70.7291 88.4465 70.7291C87.9887 70.7291 87.5925 70.8428 87.2581 71.0701C86.9269 71.2941 86.672 71.5864 86.4934 71.9468C86.3148 72.3073 86.2255 72.6937 86.2255 73.1061V73.7685C86.2255 74.3335 86.3229 74.8124 86.5177 75.2053C86.7158 75.595 86.9902 75.8921 87.3409 76.0967C87.6916 76.298 88.0991 76.3987 88.5634 76.3987C88.8654 76.3987 89.1382 76.3564 89.3817 76.272C89.6285 76.1843 89.8412 76.0545 90.0198 75.8824C90.1984 75.707 90.3364 75.4895 90.4338 75.2297L91.5443 75.5414C91.4274 75.9181 91.231 76.2493 90.955 76.535C90.6789 76.8175 90.338 77.0383 89.9321 77.1975C89.5262 77.3533 89.07 77.4313 88.5634 77.4313ZM96.2348 77.4313C95.6114 77.4313 95.061 77.2738 94.5836 76.9588C94.1063 76.6406 93.7329 76.1925 93.4634 75.6145C93.1939 75.0332 93.0591 74.3465 93.0591 73.5542C93.0591 72.7683 93.1939 72.0864 93.4634 71.5085C93.7329 70.9305 94.1079 70.484 94.5885 70.169C95.0691 69.854 95.6244 69.6965 96.2543 69.6965C96.7414 69.6965 97.1262 69.7777 97.4087 69.9401C97.6944 70.0992 97.912 70.281 98.0613 70.4856C98.214 70.6869 98.3325 70.8525 98.4169 70.9824H98.5143V67.3002H99.6638V77.2754H98.5533V76.1259H98.4169C98.3325 76.2623 98.2123 76.4344 98.0565 76.6422C97.9006 76.8468 97.6782 77.0302 97.3892 77.1926C97.1002 77.3517 96.7154 77.4313 96.2348 77.4313ZM96.3907 76.3987C96.8518 76.3987 97.2414 76.2785 97.5597 76.0382C97.8779 75.7947 98.1198 75.4586 98.2854 75.03C98.451 74.5981 98.5338 74.0997 98.5338 73.5347C98.5338 72.9762 98.4526 72.4875 98.2903 72.0686C98.1279 71.6465 97.8876 71.3185 97.5694 71.0847C97.2512 70.8477 96.8583 70.7291 96.3907 70.7291C95.9036 70.7291 95.4977 70.8542 95.173 71.1042C94.8515 71.351 94.6096 71.687 94.4473 72.1124C94.2882 72.5346 94.2086 73.0086 94.2086 73.5347C94.2086 74.0672 94.2898 74.551 94.4521 74.9862C94.6177 75.418 94.8613 75.7622 95.1827 76.0187C95.5075 76.272 95.9101 76.3987 96.3907 76.3987ZM105.533 75.2297V74.2361L109.917 67.3002H110.638V68.8393H110.15L106.838 74.0802V74.1581H112.742V75.2297H105.533ZM110.228 77.2754V74.9277V74.465V67.3002H111.378V77.2754H110.228ZM121.269 77.4313C120.646 77.4313 120.095 77.2738 119.618 76.9588C119.141 76.6406 118.767 76.1925 118.498 75.6145C118.228 75.0332 118.093 74.3465 118.093 73.5542C118.093 72.7683 118.228 72.0864 118.498 71.5085C118.767 70.9305 119.142 70.484 119.623 70.169C120.103 69.854 120.659 69.6965 121.289 69.6965C121.776 69.6965 122.16 69.7777 122.443 69.9401C122.729 70.0992 122.946 70.281 123.096 70.4856C123.248 70.6869 123.367 70.8525 123.451 70.9824H123.549V67.3002H124.698V77.2754H123.588V76.1259H123.451C123.367 76.2623 123.247 76.4344 123.091 76.6422C122.935 76.8468 122.712 77.0302 122.423 77.1926C122.134 77.3517 121.75 77.4313 121.269 77.4313ZM121.425 76.3987C121.886 76.3987 122.276 76.2785 122.594 76.0382C122.912 75.7947 123.154 75.4586 123.32 75.03C123.485 74.5981 123.568 74.0997 123.568 73.5347C123.568 72.9762 123.487 72.4875 123.325 72.0686C123.162 71.6465 122.922 71.3185 122.604 71.0847C122.285 70.8477 121.893 70.7291 121.425 70.7291C120.938 70.7291 120.532 70.8542 120.207 71.1042C119.886 71.351 119.644 71.687 119.482 72.1124C119.322 72.5346 119.243 73.0086 119.243 73.5347C119.243 74.0672 119.324 74.551 119.486 74.9862C119.652 75.418 119.896 75.7622 120.217 76.0187C120.542 76.272 120.944 76.3987 121.425 76.3987ZM129.165 77.4507C128.69 77.4507 128.26 77.3614 127.874 77.1828C127.487 77.001 127.181 76.7396 126.953 76.3987C126.726 76.0545 126.612 75.6388 126.612 75.1518C126.612 74.7231 126.697 74.3757 126.866 74.1094C127.034 73.8399 127.26 73.6288 127.543 73.4762C127.825 73.3236 128.137 73.21 128.478 73.1353C128.822 73.0573 129.168 72.9957 129.515 72.9502C129.97 72.8917 130.338 72.8479 130.621 72.8187C130.907 72.7862 131.114 72.7326 131.244 72.6579C131.377 72.5833 131.444 72.4534 131.444 72.2683V72.2293C131.444 71.7487 131.313 71.3753 131.05 71.1091C130.79 70.8428 130.395 70.7097 129.866 70.7097C129.317 70.7097 128.887 70.8298 128.575 71.0701C128.263 71.3104 128.044 71.5669 127.918 71.8397L126.827 71.45C127.021 70.9954 127.281 70.6415 127.606 70.3882C127.934 70.1317 128.291 69.9531 128.677 69.8524C129.067 69.7485 129.45 69.6965 129.827 69.6965C130.067 69.6965 130.343 69.7258 130.655 69.7842C130.97 69.8394 131.274 69.9547 131.566 70.13C131.861 70.3054 132.106 70.57 132.301 70.924C132.496 71.2779 132.594 71.752 132.594 72.3462V77.2754H131.444V76.2623H131.386C131.308 76.4246 131.178 76.5984 130.996 76.7834C130.814 76.9685 130.572 77.126 130.27 77.2559C129.968 77.3858 129.6 77.4507 129.165 77.4507ZM129.34 76.4181C129.794 76.4181 130.178 76.3288 130.489 76.1503C130.804 75.9717 131.041 75.7411 131.201 75.4586C131.363 75.1761 131.444 74.879 131.444 74.5673V73.5152C131.395 73.5736 131.288 73.6272 131.123 73.6759C130.96 73.7214 130.772 73.762 130.558 73.7977C130.347 73.8302 130.14 73.8594 129.939 73.8854C129.741 73.9081 129.58 73.9276 129.457 73.9438C129.158 73.9828 128.879 74.0461 128.619 74.1338C128.363 74.2182 128.155 74.3465 127.996 74.5186C127.84 74.6874 127.762 74.918 127.762 75.2102C127.762 75.6096 127.91 75.9116 128.205 76.1162C128.504 76.3175 128.882 76.4181 129.34 76.4181ZM135.164 80.0809C134.969 80.0809 134.796 80.0647 134.643 80.0322C134.49 80.003 134.385 79.9738 134.326 79.9445L134.619 78.9314C134.898 79.0029 135.145 79.0289 135.359 79.0094C135.573 78.9899 135.763 78.8941 135.929 78.722C136.098 78.5531 136.252 78.2788 136.391 77.8988L136.606 77.3144L133.839 69.794H135.086L137.151 75.7557H137.229L139.294 69.794H140.541L137.366 78.3664C137.223 78.7528 137.046 79.0727 136.835 79.326C136.624 79.5825 136.378 79.7724 136.099 79.8958C135.823 80.0192 135.512 80.0809 135.164 80.0809ZM147.358 71.4695L146.325 71.7617C146.26 71.5896 146.165 71.4224 146.038 71.26C145.915 71.0944 145.746 70.9581 145.531 70.8509C145.317 70.7438 145.043 70.6902 144.708 70.6902C144.25 70.6902 143.869 70.7957 143.564 71.0068C143.262 71.2146 143.111 71.4792 143.111 71.8007C143.111 72.0864 143.215 72.3121 143.422 72.4777C143.63 72.6433 143.955 72.7813 144.397 72.8917L145.507 73.1645C146.176 73.3269 146.674 73.5753 147.002 73.9097C147.33 74.2409 147.494 74.6679 147.494 75.1907C147.494 75.6193 147.371 76.0025 147.124 76.3402C146.881 76.6779 146.54 76.9442 146.101 77.139C145.663 77.3338 145.153 77.4313 144.572 77.4313C143.809 77.4313 143.177 77.2656 142.677 76.9344C142.177 76.6032 141.86 76.1194 141.727 75.483L142.818 75.2102C142.922 75.6129 143.119 75.9148 143.408 76.1162C143.7 76.3175 144.082 76.4181 144.552 76.4181C145.088 76.4181 145.514 76.3045 145.829 76.0772C146.147 75.8466 146.306 75.5706 146.306 75.2492C146.306 74.9894 146.215 74.7718 146.033 74.5965C145.851 74.4179 145.572 74.2848 145.195 74.1971L143.948 73.9049C143.263 73.7425 142.76 73.4908 142.438 73.1499C142.12 72.8057 141.961 72.3754 141.961 71.8591C141.961 71.437 142.08 71.0636 142.317 70.7389C142.557 70.4142 142.883 70.1593 143.296 69.9742C143.711 69.7891 144.182 69.6965 144.708 69.6965C145.449 69.6965 146.03 69.8589 146.452 70.1836C146.877 70.5083 147.179 70.937 147.358 71.4695ZM155.284 77.4507C154.81 77.4507 154.379 77.3614 153.993 77.1828C153.607 77.001 153.3 76.7396 153.072 76.3987C152.845 76.0545 152.732 75.6388 152.732 75.1518C152.732 74.7231 152.816 74.3757 152.985 74.1094C153.154 73.8399 153.379 73.6288 153.662 73.4762C153.944 73.3236 154.256 73.21 154.597 73.1353C154.941 73.0573 155.287 72.9957 155.634 72.9502C156.089 72.8917 156.458 72.8479 156.74 72.8187C157.026 72.7862 157.234 72.7326 157.364 72.6579C157.497 72.5833 157.563 72.4534 157.563 72.2683V72.2293C157.563 71.7487 157.432 71.3753 157.169 71.1091C156.909 70.8428 156.514 70.7097 155.985 70.7097C155.436 70.7097 155.006 70.8298 154.694 71.0701C154.383 71.3104 154.164 71.5669 154.037 71.8397L152.946 71.45C153.141 70.9954 153.4 70.6415 153.725 70.3882C154.053 70.1317 154.41 69.9531 154.797 69.8524C155.186 69.7485 155.57 69.6965 155.946 69.6965C156.187 69.6965 156.463 69.7258 156.774 69.7842C157.089 69.8394 157.393 69.9547 157.685 70.13C157.981 70.3054 158.226 70.57 158.421 70.924C158.615 71.2779 158.713 71.752 158.713 72.3462V77.2754H157.563V76.2623H157.505C157.427 76.4246 157.297 76.5984 157.115 76.7834C156.933 76.9685 156.691 77.126 156.389 77.2559C156.087 77.3858 155.719 77.4507 155.284 77.4507ZM155.459 76.4181C155.914 76.4181 156.297 76.3288 156.609 76.1503C156.924 75.9717 157.161 75.7411 157.32 75.4586C157.482 75.1761 157.563 74.879 157.563 74.5673V73.5152C157.515 73.5736 157.407 73.6272 157.242 73.6759C157.079 73.7214 156.891 73.762 156.677 73.7977C156.466 73.8302 156.26 73.8594 156.058 73.8854C155.86 73.9081 155.699 73.9276 155.576 73.9438C155.277 73.9828 154.998 74.0461 154.738 74.1338C154.482 74.2182 154.274 74.3465 154.115 74.5186C153.959 74.6874 153.881 74.918 153.881 75.2102C153.881 75.6096 154.029 75.9116 154.324 76.1162C154.623 76.3175 155.001 76.4181 155.459 76.4181ZM163.831 80.2368C163.275 80.2368 162.798 80.1654 162.399 80.0225C161.999 79.8829 161.666 79.6978 161.4 79.4672C161.137 79.2399 160.928 78.9964 160.772 78.7366L161.688 78.0937C161.791 78.2301 161.923 78.3859 162.082 78.5613C162.241 78.7399 162.459 78.8941 162.735 79.024C163.014 79.1571 163.379 79.2237 163.831 79.2237C164.435 79.2237 164.933 79.0776 165.326 78.7853C165.719 78.4931 165.915 78.0352 165.915 77.4118V75.8921H165.818C165.734 76.0285 165.613 76.1973 165.458 76.3987C165.305 76.5967 165.084 76.7737 164.795 76.9296C164.509 77.0822 164.123 77.1585 163.636 77.1585C163.032 77.1585 162.49 77.0156 162.009 76.7299C161.532 76.4441 161.153 76.0285 160.874 75.483C160.598 74.9374 160.46 74.275 160.46 73.4957C160.46 72.7294 160.595 72.0621 160.864 71.4938C161.134 70.9223 161.509 70.4807 161.99 70.169C162.47 69.854 163.025 69.6965 163.655 69.6965C164.142 69.6965 164.529 69.7777 164.815 69.9401C165.104 70.0992 165.324 70.281 165.477 70.4856C165.633 70.6869 165.753 70.8525 165.837 70.9824H165.954V69.794H167.065V77.4897C167.065 78.1326 166.919 78.6554 166.626 79.0581C166.337 79.464 165.948 79.7611 165.458 79.9494C164.97 80.141 164.428 80.2368 163.831 80.2368ZM163.792 76.1259C164.253 76.1259 164.642 76.0204 164.961 75.8093C165.279 75.5982 165.521 75.2946 165.686 74.8985C165.852 74.5023 165.935 74.0282 165.935 73.4762C165.935 72.9372 165.854 72.4615 165.691 72.0491C165.529 71.6367 165.289 71.3136 164.97 71.0798C164.652 70.846 164.259 70.7291 163.792 70.7291C163.305 70.7291 162.899 70.8525 162.574 71.0993C162.253 71.3461 162.011 71.6773 161.848 72.0929C161.689 72.5086 161.61 72.9697 161.61 73.4762C161.61 73.9958 161.691 74.4552 161.853 74.8546C162.019 75.2508 162.262 75.5625 162.584 75.7898C162.908 76.0139 163.311 76.1259 163.792 76.1259ZM172.208 77.4313C171.533 77.4313 170.94 77.2705 170.431 76.9491C169.924 76.6276 169.528 76.1779 169.242 75.5999C168.96 75.0219 168.818 74.3465 168.818 73.5736C168.818 72.7943 168.96 72.114 169.242 71.5328C169.528 70.9516 169.924 70.5002 170.431 70.1787C170.94 69.8573 171.533 69.6965 172.208 69.6965C172.884 69.6965 173.475 69.8573 173.981 70.1787C174.491 70.5002 174.887 70.9516 175.17 71.5328C175.455 72.114 175.598 72.7943 175.598 73.5736C175.598 74.3465 175.455 75.0219 175.17 75.5999C174.887 76.1779 174.491 76.6276 173.981 76.9491C173.475 77.2705 172.884 77.4313 172.208 77.4313ZM172.208 76.3987C172.721 76.3987 173.144 76.2672 173.475 76.0041C173.806 75.7411 174.051 75.3953 174.21 74.9667C174.369 74.538 174.449 74.0737 174.449 73.5736C174.449 73.0736 174.369 72.6076 174.21 72.1757C174.051 71.7439 173.806 71.3948 173.475 71.1285C173.144 70.8623 172.721 70.7291 172.208 70.7291C171.695 70.7291 171.273 70.8623 170.942 71.1285C170.611 71.3948 170.366 71.7439 170.206 72.1757C170.047 72.6076 169.968 73.0736 169.968 73.5736C169.968 74.0737 170.047 74.538 170.206 74.9667C170.366 75.3953 170.611 75.7411 170.942 76.0041C171.273 76.2672 171.695 76.3987 172.208 76.3987ZM181.367 77.2754V67.3002H182.516V70.9824H182.613C182.698 70.8525 182.815 70.6869 182.964 70.4856C183.117 70.281 183.334 70.0992 183.617 69.9401C183.903 69.7777 184.289 69.6965 184.776 69.6965C185.406 69.6965 185.961 69.854 186.442 70.169C186.922 70.484 187.297 70.9305 187.567 71.5085C187.836 72.0864 187.971 72.7683 187.971 73.5542C187.971 74.3465 187.836 75.0332 187.567 75.6145C187.297 76.1925 186.924 76.6406 186.447 76.9588C185.969 77.2738 185.419 77.4313 184.795 77.4313C184.315 77.4313 183.93 77.3517 183.641 77.1926C183.352 77.0302 183.13 76.8468 182.974 76.6422C182.818 76.4344 182.698 76.2623 182.613 76.1259H182.477V77.2754H181.367ZM182.497 73.5347C182.497 74.0997 182.579 74.5981 182.745 75.03C182.911 75.4586 183.152 75.7947 183.471 76.0382C183.789 76.2785 184.179 76.3987 184.64 76.3987C185.12 76.3987 185.521 76.272 185.843 76.0187C186.167 75.7622 186.411 75.418 186.573 74.9862C186.739 74.551 186.822 74.0672 186.822 73.5347C186.822 73.0086 186.741 72.5346 186.578 72.1124C186.419 71.687 186.177 71.351 185.852 71.1042C185.531 70.8542 185.127 70.7291 184.64 70.7291C184.172 70.7291 183.779 70.8477 183.461 71.0847C183.143 71.3185 182.902 71.6465 182.74 72.0686C182.578 72.4875 182.497 72.9762 182.497 73.5347ZM189.73 77.2754V69.794H190.879V77.2754H189.73ZM190.314 68.5471C190.09 68.5471 189.897 68.4708 189.734 68.3181C189.575 68.1655 189.496 67.9821 189.496 67.7677C189.496 67.5534 189.575 67.37 189.734 67.2174C189.897 67.0647 190.09 66.9884 190.314 66.9884C190.538 66.9884 190.73 67.0647 190.889 67.2174C191.051 67.37 191.132 67.5534 191.132 67.7677C191.132 67.9821 191.051 68.1655 190.889 68.3181C190.73 68.4708 190.538 68.5471 190.314 68.5471ZM194.134 67.3002V77.2754H192.984V67.3002H194.134ZM197.389 67.3002V77.2754H196.239V67.3002H197.389ZM199.494 77.2754V69.794H200.644V77.2754H199.494ZM200.079 68.5471C199.855 68.5471 199.661 68.4708 199.499 68.3181C199.34 68.1655 199.26 67.9821 199.26 67.7677C199.26 67.5534 199.34 67.37 199.499 67.2174C199.661 67.0647 199.855 66.9884 200.079 66.9884C200.303 66.9884 200.494 67.0647 200.653 67.2174C200.816 67.37 200.897 67.5534 200.897 67.7677C200.897 67.9821 200.816 68.1655 200.653 68.3181C200.494 68.4708 200.303 68.5471 200.079 68.5471ZM203.898 72.7748V77.2754H202.749V69.794H203.859V70.9629H203.957C204.132 70.583 204.399 70.2778 204.756 70.0472C205.113 69.8134 205.574 69.6965 206.139 69.6965C206.646 69.6965 207.089 69.8005 207.469 70.0083C207.849 70.2128 208.144 70.5246 208.355 70.9435C208.566 71.3591 208.672 71.8851 208.672 72.5216V77.2754H207.522V72.5995C207.522 72.0118 207.37 71.5539 207.064 71.226C206.759 70.8947 206.34 70.7291 205.808 70.7291C205.441 70.7291 205.113 70.8087 204.824 70.9678C204.538 71.1269 204.312 71.3591 204.147 71.6643C203.981 71.9696 203.898 72.3397 203.898 72.7748ZM213.792 80.2368C213.237 80.2368 212.76 80.1654 212.36 80.0225C211.961 79.8829 211.628 79.6978 211.362 79.4672C211.099 79.2399 210.889 78.9964 210.733 78.7366L211.649 78.0937C211.753 78.2301 211.884 78.3859 212.044 78.5613C212.203 78.7399 212.42 78.8941 212.696 79.024C212.975 79.1571 213.341 79.2237 213.792 79.2237C214.396 79.2237 214.895 79.0776 215.287 78.7853C215.68 78.4931 215.877 78.0352 215.877 77.4118V75.8921H215.779C215.695 76.0285 215.575 76.1973 215.419 76.3987C215.266 76.5967 215.046 76.7737 214.757 76.9296C214.471 77.0822 214.084 77.1585 213.597 77.1585C212.993 77.1585 212.451 77.0156 211.97 76.7299C211.493 76.4441 211.115 76.0285 210.836 75.483C210.56 74.9374 210.422 74.275 210.422 73.4957C210.422 72.7294 210.556 72.0621 210.826 71.4938C211.095 70.9223 211.47 70.4807 211.951 70.169C212.432 69.854 212.987 69.6965 213.617 69.6965C214.104 69.6965 214.49 69.7777 214.776 69.9401C215.065 70.0992 215.286 70.281 215.438 70.4856C215.594 70.6869 215.714 70.8525 215.799 70.9824H215.916V69.794H217.026V77.4897C217.026 78.1326 216.88 78.6554 216.588 79.0581C216.299 79.464 215.909 79.7611 215.419 79.9494C214.932 80.141 214.39 80.2368 213.792 80.2368ZM213.753 76.1259C214.214 76.1259 214.604 76.0204 214.922 75.8093C215.24 75.5982 215.482 75.2946 215.648 74.8985C215.813 74.5023 215.896 74.0282 215.896 73.4762C215.896 72.9372 215.815 72.4615 215.653 72.0491C215.49 71.6367 215.25 71.3136 214.932 71.0798C214.614 70.846 214.221 70.7291 213.753 70.7291C213.266 70.7291 212.86 70.8525 212.535 71.0993C212.214 71.3461 211.972 71.6773 211.81 72.0929C211.651 72.5086 211.571 72.9697 211.571 73.4762C211.571 73.9958 211.652 74.4552 211.815 74.8546C211.98 75.2508 212.224 75.5625 212.545 75.7898C212.87 76.0139 213.273 76.1259 213.753 76.1259Z" fill="white"/>
</g>
<defs>
<clipPath id="bgblur_0_4775_1154_clip_path" transform="translate(8.30831 -21.6917)"><path d="M433.727 30.2734V97.7266H0.273438V30.2734H433.727Z"/>
</clipPath></defs>
</svg>
