<svg width="295" height="76" viewBox="0 0 295 76" fill="none" xmlns="http://www.w3.org/2000/svg">
<path d="M0 0H295V76H0V0Z" fill="#110808"/>
<path d="M293.007 0V0.25H294.75V1.90039H295V5.7002H294.75V9.5H295V13.2998H294.75V17.0996H295V20.9004H294.75V24.7002H295V28.5H294.75V32.2998H295V36.0996H294.75V39.9004H295V43.7002H294.75V47.5H295V51.2998H294.75V55.0996H295V58.9004H294.75V62.7002H295V66.5H294.75V70.2998H295V74.0996H294.75V75.75H293.007V76H289.021V75.75H285.033V76H281.047V75.75H277.061V76H273.074V75.75H269.088V76H265.102V75.75H261.114V76H257.128V75.75H253.142V76H249.155V75.75H245.169V76H241.183V75.75H237.196V76H233.209V75.75H229.223V76H225.236V75.75H221.25V76H217.264V75.75H213.277V76H209.29V75.75H205.304V76H201.317V75.75H197.331V76H193.345V75.75H189.358V76H185.372V75.75H181.385V76H177.398V75.75H173.412V76H169.426V75.75H165.439V76H161.453V75.75H157.466V76H153.479V75.75H149.493V76H145.507V75.75H141.521V76H137.534V75.75H133.547V76H129.561V75.75H125.574V76H121.588V75.75H117.602V76H113.615V75.75H109.628V76H105.642V75.75H101.655V76H97.6689V75.75H93.6826V76H89.6963V75.75H85.71V76H81.7227V75.75H77.7363V76H73.75V75.75H69.7637V76H65.7773V75.75H61.791V76H57.8037V75.75H53.8174V76H49.8311V75.75H45.8447V76H41.8584V75.75H37.8721V76H33.8848V75.75H29.8984V76H25.9121V75.75H21.9258V76H17.9395V75.75H13.9531V76H9.96582V75.75H5.97949V76H1.99316V75.75H0.25V74.0996H0V70.2998H0.25V66.5H0V62.7002H0.25V58.9004H0V55.0996H0.25V51.2998H0V47.5H0.25V43.7002H0V39.9004H0.25V36.0996H0V32.2998H0.25V28.5H0V24.7002H0.25V20.9004H0V17.0996H0.25V13.2998H0V9.5H0.25V5.7002H0V1.90039H0.25V0.25H1.99316V0H5.97949V0.25H9.9668V0H13.9531V0.25H17.9395V0H21.9258V0.25H25.9121V0H29.8984V0.25H33.8857V0H37.8721V0.25H41.8584V0H45.8447V0.25H49.8311V0H53.8174V0.25H57.8037V0H61.791V0.25H65.7773V0H69.7637V0.25H73.75V0H77.7363V0.25H81.7227V0H85.71V0.25H89.6963V0H93.6826V0.25H97.6689V0H101.655V0.25H105.642V0H109.628V0.25H113.615V0H117.602V0.25H121.588V0H125.574V0.25H129.561V0H133.547V0.25H137.534V0H141.521V0.25H145.507V0H149.493V0.25H153.479V0H157.466V0.25H161.453V0H165.439V0.25H169.426V0H173.412V0.25H177.398V0H181.385V0.25H185.372V0H189.358V0.25H193.345V0H197.331V0.25H201.317V0H205.304V0.25H209.29V0H213.277V0.25H217.264V0H221.25V0.25H225.236V0H229.223V0.25H233.209V0H237.196V0.25H241.183V0H245.169V0.25H249.155V0H253.142V0.25H257.128V0H261.115V0.25H265.102V0H269.088V0.25H273.074V0H277.061V0.25H281.047V0H285.034V0.25H289.021V0H293.007Z" stroke="#FF1D1D" stroke-opacity="0.6" stroke-width="0.5" stroke-dasharray="4 4"/>
<path d="M14 26.7273H15.2005V28H14V26.7273Z" fill="#FF1D1D"/>
<path d="M15.2004 25.4545H16.4009V26.7272H15.2004V25.4545Z" fill="#FF1D1D"/>
<path d="M15.2004 26.7272H16.4009V28H15.2004V26.7272Z" fill="#FF1D1D"/>
<path d="M16.4012 22.909H17.6017V24.1817H16.4012V22.909Z" fill="#FF1D1D"/>
<path d="M16.4012 26.7273H17.6017V28H16.4012V26.7273Z" fill="#FF1D1D"/>
<path d="M17.6016 26.7273H18.8021V28H17.6016V26.7273Z" fill="#FF1D1D"/>
<path d="M18.802 19.0912H20.0025V20.3639H18.802V19.0912Z" fill="#FF1D1D"/>
<path d="M20.0027 16.5456H21.2032V17.8183H20.0027V16.5456Z" fill="#FF1D1D"/>
<path d="M22.4039 15.2729H23.6044V16.5456H22.4039V15.2729Z" fill="#FF1D1D"/>
<path d="M22.4039 16.5456H23.6044V17.8183H22.4039V16.5456Z" fill="#FF1D1D"/>
<path d="M23.6037 19.0912H24.8043V20.3639H23.6037V19.0912Z" fill="#FF1D1D"/>
<path d="M26.0049 22.909H27.2054V24.1817H26.0049V22.909Z" fill="#FF1D1D"/>
<path d="M26.0049 26.7273H27.2054V28H26.0049V26.7273Z" fill="#FF1D1D"/>
<path d="M27.2053 25.4545H28.4058V26.7272H27.2053V25.4545Z" fill="#FF1D1D"/>
<path d="M27.2053 26.7272H28.4058V28H27.2053V26.7272Z" fill="#FF1D1D"/>
<path d="M28.406 26.7273H29.6066V28H28.406V26.7273Z" fill="#FF1D1D"/>
<path d="M24.8047 26.7273H26.0052V28H24.8047V26.7273Z" fill="#FF1D1D"/>
<path d="M17.6016 20.3639H18.8021V21.6366H17.6016V20.3639Z" fill="#FF1D1D"/>
<path d="M17.6016 21.6361H18.8021V22.9088H17.6016V21.6361Z" fill="#FF1D1D"/>
<path d="M18.8025 17.8184H20.003V19.0911H18.8025V17.8184Z" fill="#FF1D1D"/>
<path d="M20.0027 15.2728H21.2032V16.5455H20.0027V15.2728Z" fill="#FF1D1D"/>
<path d="M21.2036 19.0912H22.4042V20.3639H21.2036V19.0912Z" fill="#FF1D1D"/>
<path d="M21.2036 20.3639H22.4042V21.6366H21.2036V20.3639Z" fill="#FF1D1D"/>
<path d="M21.2036 21.6364H22.4042V22.9091H21.2036V21.6364Z" fill="#FF1D1D"/>
<path d="M21.2036 24.1818H22.4042V25.4545H21.2036V24.1818Z" fill="#FF1D1D"/>
<path d="M23.6043 17.8184H24.8048V19.0911H23.6043V17.8184Z" fill="#FF1D1D"/>
<path d="M24.8052 20.3639H26.0057V21.6366H24.8052V20.3639Z" fill="#FF1D1D"/>
<path d="M24.8052 21.6364H26.0057V22.9091H24.8052V21.6364Z" fill="#FF1D1D"/>
<path d="M20.0027 26.7273H21.2032V28H20.0027V26.7273Z" fill="#FF1D1D"/>
<path d="M21.2036 14H22.4042V15.2727H21.2036V14Z" fill="#FF1D1D"/>
<path d="M21.2036 26.7273H22.4042V28H21.2036V26.7273Z" fill="#FF1D1D"/>
<path d="M22.4039 26.7273H23.6044V28H22.4039V26.7273Z" fill="#FF1D1D"/>
<path d="M23.6043 26.7273H24.8048V28H23.6043V26.7273Z" fill="#FF1D1D"/>
<path d="M26.0054 24.1818H27.2059V25.4545H26.0054V24.1818Z" fill="#FF1D1D"/>
<path d="M20.0027 26.7273H18.8022V28H20.0027V26.7273Z" fill="#FF1D1D"/>
<path d="M17.6016 24.1818H16.401V25.4545H17.6016V24.1818Z" fill="#FF1D1D"/>
<path d="M34.9834 27V15.64H38.6314C40.4128 15.64 41.7834 16.136 42.7434 17.128C43.7034 18.1093 44.1834 19.512 44.1834 21.336C44.1834 23.1493 43.7088 24.5467 42.7594 25.528C41.8208 26.5093 40.4768 27 38.7274 27H34.9834ZM36.7114 25.416H38.6314C39.8901 25.416 40.8288 25.08 41.4474 24.408C42.0768 23.7253 42.3914 22.7013 42.3914 21.336C42.3914 19.9493 42.0768 18.92 41.4474 18.248C40.8288 17.5653 39.8901 17.224 38.6314 17.224H36.7114V25.416ZM46.0303 27V15.64H50.1103C51.4756 15.64 52.505 15.8853 53.1983 16.376C53.8916 16.8667 54.2383 17.6453 54.2383 18.712C54.2383 19.192 54.137 19.6133 53.9343 19.976C53.7316 20.3387 53.433 20.6267 53.0383 20.84C52.6543 21.0427 52.1956 21.1493 51.6623 21.16L51.6463 21.096C52.617 21.1173 53.369 21.384 53.9023 21.896C54.4463 22.3973 54.7183 23.0587 54.7183 23.88C54.7183 24.9147 54.3716 25.6933 53.6783 26.216C52.985 26.7387 51.9983 27 50.7183 27H46.0303ZM47.7583 25.448H50.6703C51.385 25.448 51.9396 25.304 52.3343 25.016C52.7396 24.7173 52.9423 24.2853 52.9423 23.72C52.9423 23.1653 52.7396 22.7333 52.3343 22.424C51.9396 22.1147 51.385 21.96 50.6703 21.96H47.7583V25.448ZM47.7583 20.488H50.0783C50.8356 20.488 51.4223 20.344 51.8383 20.056C52.2543 19.768 52.4623 19.3627 52.4623 18.84C52.4623 18.2853 52.2596 17.8747 51.8543 17.608C51.4596 17.3307 50.8676 17.192 50.0783 17.192H47.7583V20.488ZM60.9365 27V15.64H63.3045L66.6805 24.968L70.0565 15.64H72.4245V27H70.6965V18.68L67.6405 26.984H65.7205L62.6645 18.68V27H60.9365ZM74.7137 27V18.488H76.4097V27H74.7137ZM74.6817 17.256V15.56H76.4417V17.256H74.6817ZM82.0752 29.592C81.4032 29.592 80.8112 29.4907 80.2992 29.288C79.7872 29.0853 79.3658 28.7973 79.0352 28.424C78.7045 28.0613 78.4805 27.6347 78.3632 27.144L80.1232 27.032C80.2405 27.384 80.4432 27.6613 80.7312 27.864C81.0298 28.0773 81.4778 28.184 82.0752 28.184C82.7792 28.184 83.3178 28.0347 83.6912 27.736C84.0752 27.4373 84.2672 26.984 84.2672 26.376V25.144C84.0645 25.5813 83.7392 25.928 83.2912 26.184C82.8432 26.44 82.3418 26.568 81.7872 26.568C81.0725 26.568 80.4378 26.392 79.8832 26.04C79.3285 25.688 78.8965 25.2027 78.5872 24.584C78.2778 23.9653 78.1232 23.2507 78.1232 22.44C78.1232 21.6187 78.2725 20.8987 78.5712 20.28C78.8805 19.6613 79.3072 19.176 79.8512 18.824C80.4058 18.472 81.0298 18.296 81.7232 18.296C82.3312 18.296 82.8645 18.4347 83.3232 18.712C83.7925 18.9893 84.1285 19.3627 84.3312 19.832V18.488H85.9632V26.328C85.9632 27.032 85.8032 27.624 85.4832 28.104C85.1738 28.5947 84.7258 28.9627 84.1392 29.208C83.5632 29.464 82.8752 29.592 82.0752 29.592ZM82.0592 25.128C82.7205 25.128 83.2485 24.888 83.6432 24.408C84.0485 23.928 84.2565 23.2667 84.2672 22.424C84.2778 21.8693 84.1925 21.3947 84.0112 21C83.8298 20.5947 83.5685 20.2853 83.2272 20.072C82.8965 19.848 82.5072 19.736 82.0592 19.736C81.3658 19.736 80.8272 19.9813 80.4432 20.472C80.0698 20.952 79.8832 21.6027 79.8832 22.424C79.8832 23.256 80.0752 23.9173 80.4592 24.408C80.8538 24.888 81.3872 25.128 82.0592 25.128ZM88.3699 27V18.488H89.9219L89.9859 20.744L89.8419 20.696C89.9593 19.928 90.1939 19.368 90.5459 19.016C90.9086 18.664 91.3939 18.488 92.0019 18.488H92.8179V20.008H92.0019C91.5753 20.008 91.2179 20.0773 90.9299 20.216C90.6419 20.3547 90.4233 20.568 90.2739 20.856C90.1353 21.144 90.0659 21.5173 90.0659 21.976V27H88.3699ZM96.4414 27.192C95.5561 27.192 94.8468 26.9893 94.3134 26.584C93.7908 26.1787 93.5294 25.608 93.5294 24.872C93.5294 24.136 93.7481 23.5653 94.1854 23.16C94.6334 22.744 95.3214 22.4453 96.2494 22.264L99.1774 21.704C99.1774 21.0427 99.0228 20.552 98.7134 20.232C98.4041 19.9013 97.9454 19.736 97.3374 19.736C96.7934 19.736 96.3668 19.8587 96.0574 20.104C95.7481 20.3387 95.5348 20.6907 95.4174 21.16L93.6734 21.048C93.8334 20.1947 94.2281 19.5227 94.8574 19.032C95.4974 18.5413 96.3241 18.296 97.3374 18.296C98.4894 18.296 99.3641 18.6053 99.9614 19.224C100.569 19.832 100.873 20.6907 100.873 21.8V25.112C100.873 25.3147 100.905 25.4587 100.969 25.544C101.044 25.6187 101.161 25.656 101.321 25.656H101.625V27C101.572 27.0107 101.487 27.0213 101.369 27.032C101.252 27.0427 101.129 27.048 101.001 27.048C100.639 27.048 100.324 26.9893 100.057 26.872C99.8014 26.7547 99.6094 26.5627 99.4814 26.296C99.3534 26.0187 99.2894 25.6507 99.2894 25.192L99.4654 25.272C99.3801 25.6453 99.1934 25.976 98.9054 26.264C98.6281 26.552 98.2708 26.7813 97.8334 26.952C97.4068 27.112 96.9428 27.192 96.4414 27.192ZM96.7134 25.848C97.2254 25.848 97.6628 25.752 98.0254 25.56C98.3881 25.3573 98.6708 25.08 98.8734 24.728C99.0761 24.376 99.1774 23.976 99.1774 23.528V22.984L96.6814 23.464C96.1694 23.56 95.8068 23.7147 95.5934 23.928C95.3908 24.1307 95.2894 24.392 95.2894 24.712C95.2894 25.0747 95.4121 25.3573 95.6574 25.56C95.9134 25.752 96.2654 25.848 96.7134 25.848ZM105.884 27C105.073 27 104.476 26.8133 104.092 26.44C103.708 26.0667 103.516 25.4853 103.516 24.696V16.488H105.212V24.568C105.212 24.9627 105.297 25.2347 105.468 25.384C105.639 25.5333 105.9 25.608 106.252 25.608H107.468V27H105.884ZM102.22 19.88V18.488H107.468V19.88H102.22ZM109.089 27V18.488H110.785V27H109.089ZM109.057 17.256V15.56H110.817V17.256H109.057ZM116.53 27.192C115.72 27.192 115.01 27.0107 114.402 26.648C113.794 26.2853 113.325 25.768 112.994 25.096C112.664 24.424 112.498 23.64 112.498 22.744C112.498 21.8373 112.664 21.0533 112.994 20.392C113.325 19.7307 113.794 19.2187 114.402 18.856C115.01 18.4827 115.72 18.296 116.53 18.296C117.341 18.296 118.05 18.4827 118.658 18.856C119.266 19.2187 119.736 19.7307 120.066 20.392C120.397 21.0533 120.562 21.8373 120.562 22.744C120.562 23.64 120.397 24.424 120.066 25.096C119.736 25.768 119.266 26.2853 118.658 26.648C118.05 27.0107 117.341 27.192 116.53 27.192ZM116.53 25.72C117.256 25.72 117.816 25.4587 118.21 24.936C118.605 24.4027 118.802 23.672 118.802 22.744C118.802 21.816 118.605 21.0907 118.21 20.568C117.816 20.0347 117.256 19.768 116.53 19.768C115.816 19.768 115.256 20.0347 114.85 20.568C114.456 21.0907 114.258 21.816 114.258 22.744C114.258 23.672 114.456 24.4027 114.85 24.936C115.256 25.4587 115.816 25.72 116.53 25.72ZM122.276 27V18.488H123.828L123.892 20.76L123.684 20.648C123.78 20.0933 123.962 19.6453 124.228 19.304C124.495 18.9627 124.82 18.712 125.204 18.552C125.588 18.3813 126.004 18.296 126.452 18.296C127.092 18.296 127.62 18.44 128.036 18.728C128.463 19.0053 128.783 19.3893 128.996 19.88C129.22 20.36 129.332 20.9093 129.332 21.528V27H127.636V22.04C127.636 21.5387 127.583 21.1173 127.476 20.776C127.37 20.4347 127.194 20.1733 126.948 19.992C126.703 19.8107 126.383 19.72 125.988 19.72C125.391 19.72 124.906 19.9173 124.532 20.312C124.159 20.7067 123.972 21.2827 123.972 22.04V27H122.276Z" fill="#FF1D1D"/>
<rect width="9" height="9" transform="translate(14 36)" fill="#FF4C4C" fill-opacity="0.2"/>
<rect x="16" y="38" width="5" height="5" fill="#FF1D1D"/>
<path d="M27.294 46L30.92 36.06H32.18L35.792 46H34.756L33.692 43.018H29.394L28.33 46H27.294ZM29.716 42.094H33.37L31.55 36.914L29.716 42.094ZM39.639 46.168C38.995 46.168 38.4397 46.0093 37.973 45.692C37.5064 45.3747 37.147 44.9267 36.895 44.348C36.643 43.7693 36.517 43.0833 36.517 42.29C36.517 41.4967 36.643 40.8107 36.895 40.232C37.147 39.6533 37.5064 39.2053 37.973 38.888C38.4397 38.5707 38.995 38.412 39.639 38.412C40.1804 38.412 40.661 38.5473 41.081 38.818C41.5104 39.0793 41.823 39.434 42.019 39.882V36.06H42.943V46H42.131L42.089 44.614C41.8837 45.0993 41.557 45.482 41.109 45.762C40.6704 46.0327 40.1804 46.168 39.639 46.168ZM39.793 45.286C40.2597 45.286 40.6564 45.1647 40.983 44.922C41.319 44.67 41.5757 44.32 41.753 43.872C41.9304 43.4147 42.019 42.8873 42.019 42.29C42.019 41.6927 41.9304 41.17 41.753 40.722C41.5757 40.274 41.319 39.924 40.983 39.672C40.6564 39.42 40.2597 39.294 39.793 39.294C39.093 39.294 38.533 39.5647 38.113 40.106C37.693 40.638 37.483 41.366 37.483 42.29C37.483 43.2047 37.693 43.9327 38.113 44.474C38.533 45.0153 39.093 45.286 39.793 45.286ZM47.7191 46.168C47.0751 46.168 46.5198 46.0093 46.0531 45.692C45.5865 45.3747 45.2271 44.9267 44.9751 44.348C44.7231 43.7693 44.5971 43.0833 44.5971 42.29C44.5971 41.4967 44.7231 40.8107 44.9751 40.232C45.2271 39.6533 45.5865 39.2053 46.0531 38.888C46.5198 38.5707 47.0751 38.412 47.7191 38.412C48.2605 38.412 48.7411 38.5473 49.1611 38.818C49.5905 39.0793 49.9031 39.434 50.0991 39.882V36.06H51.0231V46H50.2111L50.1691 44.614C49.9638 45.0993 49.6371 45.482 49.1891 45.762C48.7505 46.0327 48.2605 46.168 47.7191 46.168ZM47.8731 45.286C48.3398 45.286 48.7365 45.1647 49.0631 44.922C49.3991 44.67 49.6558 44.32 49.8331 43.872C50.0105 43.4147 50.0991 42.8873 50.0991 42.29C50.0991 41.6927 50.0105 41.17 49.8331 40.722C49.6558 40.274 49.3991 39.924 49.0631 39.672C48.7365 39.42 48.3398 39.294 47.8731 39.294C47.1731 39.294 46.6131 39.5647 46.1931 40.106C45.7731 40.638 45.5631 41.366 45.5631 42.29C45.5631 43.2047 45.7731 43.9327 46.1931 44.474C46.6131 45.0153 47.1731 45.286 47.8731 45.286ZM59.5619 48.268C59.0393 48.268 58.5633 48.1747 58.1339 47.988C57.7139 47.8107 57.3686 47.5587 57.0979 47.232C56.8273 46.9053 56.6546 46.5273 56.5799 46.098L57.5459 46.042C57.6299 46.4433 57.8353 46.7653 58.1619 47.008C58.4886 47.26 58.9553 47.386 59.5619 47.386C60.2806 47.386 60.8313 47.218 61.2139 46.882C61.6059 46.546 61.8019 46.056 61.8019 45.412V44.138C61.6153 44.586 61.3166 44.9453 60.9059 45.216C60.4953 45.4867 60.0239 45.622 59.4919 45.622C58.8666 45.622 58.3113 45.4727 57.8259 45.174C57.3499 44.866 56.9766 44.4413 56.7059 43.9C56.4446 43.3587 56.3139 42.7287 56.3139 42.01C56.3139 41.2913 56.4446 40.666 56.7059 40.134C56.9766 39.5927 57.3453 39.1727 57.8119 38.874C58.2879 38.566 58.8339 38.412 59.4499 38.412C60.0193 38.412 60.5139 38.5567 60.9339 38.846C61.3633 39.126 61.6666 39.4993 61.8439 39.966V38.58H62.7259V45.412C62.7259 46 62.5999 46.5087 62.3479 46.938C62.0959 47.3673 61.7319 47.694 61.2559 47.918C60.7893 48.1513 60.2246 48.268 59.5619 48.268ZM59.5339 44.74C60.2153 44.74 60.7613 44.4973 61.1719 44.012C61.5919 43.5173 61.8019 42.85 61.8019 42.01C61.8113 41.4687 61.7226 40.9973 61.5359 40.596C61.3493 40.1853 61.0833 39.868 60.7379 39.644C60.3926 39.4107 59.9913 39.294 59.5339 39.294C58.8339 39.294 58.2833 39.5413 57.8819 40.036C57.4806 40.5213 57.2799 41.1793 57.2799 42.01C57.2799 42.85 57.4806 43.5173 57.8819 44.012C58.2926 44.4973 58.8433 44.74 59.5339 44.74ZM65.021 46V38.58H65.819L65.875 40.61L65.749 40.54C65.8704 39.8773 66.0897 39.3873 66.407 39.07C66.7244 38.7433 67.163 38.58 67.723 38.58H68.367V39.476H67.695C67.3217 39.476 67.0044 39.56 66.743 39.728C66.4817 39.8867 66.281 40.1153 66.141 40.414C66.0104 40.7127 65.945 41.0673 65.945 41.478V46H65.021ZM71.5201 46.168C70.7734 46.168 70.1761 45.9907 69.7281 45.636C69.2801 45.272 69.0561 44.782 69.0561 44.166C69.0561 43.55 69.2521 43.0647 69.6441 42.71C70.0361 42.3553 70.6101 42.108 71.3661 41.968L74.1101 41.45C74.1101 40.7127 73.9514 40.1713 73.6341 39.826C73.3168 39.4713 72.8361 39.294 72.1921 39.294C71.6228 39.294 71.1701 39.4293 70.8341 39.7C70.4981 39.9707 70.2741 40.3533 70.1621 40.848L69.1821 40.764C69.3221 40.0453 69.6488 39.476 70.1621 39.056C70.6848 38.6267 71.3614 38.412 72.1921 38.412C73.1161 38.412 73.8208 38.6733 74.3061 39.196C74.7914 39.7187 75.0341 40.4653 75.0341 41.436V44.53C75.0341 44.782 75.0714 44.9547 75.1461 45.048C75.2301 45.132 75.3608 45.174 75.5381 45.174H75.7621V46C75.7248 46.0093 75.6688 46.014 75.5941 46.014C75.5288 46.0233 75.4588 46.028 75.3841 46.028C75.0948 46.028 74.8521 45.9767 74.6561 45.874C74.4694 45.7713 74.3294 45.6033 74.2361 45.37C74.1521 45.1367 74.1101 44.8147 74.1101 44.404L74.2221 44.418C74.1381 44.7447 73.9654 45.0433 73.7041 45.314C73.4521 45.5753 73.1348 45.7853 72.7521 45.944C72.3694 46.0933 71.9588 46.168 71.5201 46.168ZM71.6041 45.342C72.1174 45.342 72.5608 45.2393 72.9341 45.034C73.3074 44.8287 73.5968 44.5533 73.8021 44.208C74.0074 43.8533 74.1101 43.4567 74.1101 43.018V42.276L71.5621 42.752C71.0301 42.8547 70.6381 43.0133 70.3861 43.228C70.1434 43.4427 70.0221 43.7273 70.0221 44.082C70.0221 44.4833 70.1621 44.796 70.4421 45.02C70.7221 45.2347 71.1094 45.342 71.6041 45.342ZM77.1617 46V38.58H78.0017L78.0437 40.526L77.9317 40.442C78.0063 39.9847 78.1603 39.6067 78.3937 39.308C78.6363 39.0093 78.9303 38.7853 79.2757 38.636C79.621 38.4867 79.9943 38.412 80.3957 38.412C80.965 38.412 81.4317 38.538 81.7957 38.79C82.169 39.042 82.4443 39.3827 82.6217 39.812C82.799 40.232 82.8877 40.7033 82.8877 41.226V46H81.9637V41.562C81.9637 41.0767 81.903 40.6613 81.7817 40.316C81.6697 39.9707 81.483 39.7047 81.2217 39.518C80.9603 39.3313 80.6197 39.238 80.1997 39.238C79.565 39.238 79.0517 39.4433 78.6597 39.854C78.277 40.2647 78.0857 40.834 78.0857 41.562V46H77.1617ZM87.641 46.168C86.997 46.168 86.4417 46.0093 85.975 45.692C85.5083 45.3747 85.149 44.9267 84.897 44.348C84.645 43.7693 84.519 43.0833 84.519 42.29C84.519 41.4967 84.645 40.8107 84.897 40.232C85.149 39.6533 85.5083 39.2053 85.975 38.888C86.4417 38.5707 86.997 38.412 87.641 38.412C88.1823 38.412 88.663 38.5473 89.083 38.818C89.5123 39.0793 89.825 39.434 90.021 39.882V36.06H90.945V46H90.133L90.091 44.614C89.8857 45.0993 89.559 45.482 89.111 45.762C88.6723 46.0327 88.1823 46.168 87.641 46.168ZM87.795 45.286C88.2617 45.286 88.6583 45.1647 88.985 44.922C89.321 44.67 89.5777 44.32 89.755 43.872C89.9323 43.4147 90.021 42.8873 90.021 42.29C90.021 41.6927 89.9323 41.17 89.755 40.722C89.5777 40.274 89.321 39.924 88.985 39.672C88.6583 39.42 88.2617 39.294 87.795 39.294C87.095 39.294 86.535 39.5647 86.115 40.106C85.695 40.638 85.485 41.366 85.485 42.29C85.485 43.2047 85.695 43.9327 86.115 44.474C86.535 45.0153 87.095 45.286 87.795 45.286ZM93.545 46V37.81C93.545 37.278 93.6943 36.8533 93.993 36.536C94.2916 36.2187 94.7536 36.06 95.379 36.06H96.443V36.886H95.449C95.113 36.886 94.8656 36.9747 94.707 37.152C94.5483 37.32 94.469 37.5627 94.469 37.88V46H93.545ZM92.495 39.406V38.58H96.373V39.406H92.495ZM99.6978 46.168C98.9512 46.168 98.3538 45.9907 97.9058 45.636C97.4578 45.272 97.2338 44.782 97.2338 44.166C97.2338 43.55 97.4298 43.0647 97.8218 42.71C98.2138 42.3553 98.7878 42.108 99.5438 41.968L102.288 41.45C102.288 40.7127 102.129 40.1713 101.812 39.826C101.495 39.4713 101.014 39.294 100.37 39.294C99.8005 39.294 99.3478 39.4293 99.0118 39.7C98.6758 39.9707 98.4518 40.3533 98.3398 40.848L97.3598 40.764C97.4998 40.0453 97.8265 39.476 98.3398 39.056C98.8625 38.6267 99.5392 38.412 100.37 38.412C101.294 38.412 101.999 38.6733 102.484 39.196C102.969 39.7187 103.212 40.4653 103.212 41.436V44.53C103.212 44.782 103.249 44.9547 103.324 45.048C103.408 45.132 103.539 45.174 103.716 45.174H103.94V46C103.903 46.0093 103.847 46.014 103.772 46.014C103.707 46.0233 103.637 46.028 103.562 46.028C103.273 46.028 103.03 45.9767 102.834 45.874C102.647 45.7713 102.507 45.6033 102.414 45.37C102.33 45.1367 102.288 44.8147 102.288 44.404L102.4 44.418C102.316 44.7447 102.143 45.0433 101.882 45.314C101.63 45.5753 101.313 45.7853 100.93 45.944C100.547 46.0933 100.137 46.168 99.6978 46.168ZM99.7818 45.342C100.295 45.342 100.739 45.2393 101.112 45.034C101.485 44.8287 101.775 44.5533 101.98 44.208C102.185 43.8533 102.288 43.4567 102.288 43.018V42.276L99.7398 42.752C99.2078 42.8547 98.8158 43.0133 98.5638 43.228C98.3212 43.4427 98.1998 43.7273 98.1998 44.082C98.1998 44.4833 98.3398 44.796 98.6198 45.02C98.8998 45.2347 99.2872 45.342 99.7818 45.342ZM107.506 46C106.899 46 106.451 45.86 106.162 45.58C105.872 45.2907 105.728 44.852 105.728 44.264V36.844H106.652V44.236C106.652 44.5813 106.726 44.824 106.876 44.964C107.034 45.104 107.272 45.174 107.59 45.174H108.57V46H107.506ZM104.566 39.406V38.58H108.57V39.406H104.566ZM110.138 46V36.06H111.062V40.344L110.95 40.33C111.025 39.8913 111.174 39.532 111.398 39.252C111.632 38.972 111.921 38.762 112.266 38.622C112.612 38.482 112.99 38.412 113.4 38.412C113.942 38.412 114.394 38.5333 114.758 38.776C115.122 39.0187 115.398 39.3547 115.584 39.784C115.771 40.204 115.864 40.6847 115.864 41.226V46H114.94V41.562C114.94 40.8153 114.8 40.2413 114.52 39.84C114.24 39.4387 113.797 39.238 113.19 39.238C112.537 39.238 112.019 39.448 111.636 39.868C111.254 40.2787 111.062 40.848 111.062 41.576V46H110.138ZM120.842 46.168C120.132 46.168 119.53 46.0047 119.036 45.678C118.541 45.342 118.158 44.8847 117.888 44.306C117.626 43.718 117.496 43.046 117.496 42.29C117.496 41.534 117.626 40.8667 117.888 40.288C118.149 39.7 118.522 39.2427 119.008 38.916C119.502 38.58 120.095 38.412 120.786 38.412C121.448 38.412 122.022 38.5707 122.508 38.888C122.993 39.2053 123.362 39.6533 123.614 40.232C123.875 40.8107 124.006 41.4873 124.006 42.262V42.556H118.462C118.499 43.4333 118.728 44.11 119.148 44.586C119.568 45.0527 120.132 45.286 120.842 45.286C121.383 45.286 121.826 45.1553 122.172 44.894C122.517 44.6327 122.755 44.2873 122.886 43.858L123.88 43.928C123.693 44.5813 123.334 45.118 122.802 45.538C122.27 45.958 121.616 46.168 120.842 46.168ZM118.462 41.73H122.998C122.951 40.9367 122.732 40.3347 122.34 39.924C121.948 39.504 121.43 39.294 120.786 39.294C120.142 39.294 119.614 39.504 119.204 39.924C118.793 40.344 118.546 40.946 118.462 41.73ZM125.656 46V38.58H126.454L126.51 40.61L126.384 40.54C126.505 39.8773 126.724 39.3873 127.042 39.07C127.359 38.7433 127.798 38.58 128.358 38.58H129.002V39.476H128.33C127.956 39.476 127.639 39.56 127.378 39.728C127.116 39.8867 126.916 40.1153 126.776 40.414C126.645 40.7127 126.58 41.0673 126.58 41.478V46H125.656ZM137.11 46.168C136.42 46.168 135.827 46.0047 135.332 45.678C134.838 45.342 134.455 44.8847 134.184 44.306C133.923 43.718 133.792 43.046 133.792 42.29C133.792 41.534 133.923 40.8667 134.184 40.288C134.455 39.7 134.838 39.2427 135.332 38.916C135.827 38.58 136.42 38.412 137.11 38.412C137.68 38.412 138.179 38.5147 138.608 38.72C139.038 38.9253 139.388 39.2193 139.658 39.602C139.929 39.9847 140.111 40.4373 140.204 40.96L139.238 41.016C139.126 40.4653 138.884 40.0407 138.51 39.742C138.146 39.4433 137.68 39.294 137.11 39.294C136.382 39.294 135.808 39.5647 135.388 40.106C134.968 40.638 134.758 41.366 134.758 42.29C134.758 43.214 134.968 43.9467 135.388 44.488C135.808 45.02 136.382 45.286 137.11 45.286C137.68 45.286 138.151 45.1273 138.524 44.81C138.907 44.4833 139.15 44.0167 139.252 43.41L140.218 43.48C140.125 44.0213 139.938 44.4927 139.658 44.894C139.388 45.2953 139.038 45.608 138.608 45.832C138.179 46.056 137.68 46.168 137.11 46.168ZM143.188 46C142.768 46 142.436 45.8973 142.194 45.692C141.951 45.4773 141.83 45.146 141.83 44.698V36.06H142.754V44.628C142.754 44.8053 142.8 44.9407 142.894 45.034C142.987 45.1273 143.127 45.174 143.314 45.174H143.902V46H143.188ZM147.385 46.168C146.639 46.168 146.041 45.9907 145.593 45.636C145.145 45.272 144.921 44.782 144.921 44.166C144.921 43.55 145.117 43.0647 145.509 42.71C145.901 42.3553 146.475 42.108 147.231 41.968L149.975 41.45C149.975 40.7127 149.817 40.1713 149.499 39.826C149.182 39.4713 148.701 39.294 148.057 39.294C147.488 39.294 147.035 39.4293 146.699 39.7C146.363 39.9707 146.139 40.3533 146.027 40.848L145.047 40.764C145.187 40.0453 145.514 39.476 146.027 39.056C146.55 38.6267 147.227 38.412 148.057 38.412C148.981 38.412 149.686 38.6733 150.171 39.196C150.657 39.7187 150.899 40.4653 150.899 41.436V44.53C150.899 44.782 150.937 44.9547 151.011 45.048C151.095 45.132 151.226 45.174 151.403 45.174H151.627V46C151.59 46.0093 151.534 46.014 151.459 46.014C151.394 46.0233 151.324 46.028 151.249 46.028C150.96 46.028 150.717 45.9767 150.521 45.874C150.335 45.7713 150.195 45.6033 150.101 45.37C150.017 45.1367 149.975 44.8147 149.975 44.404L150.087 44.418C150.003 44.7447 149.831 45.0433 149.569 45.314C149.317 45.5753 149 45.7853 148.617 45.944C148.235 46.0933 147.824 46.168 147.385 46.168ZM147.469 45.342C147.983 45.342 148.426 45.2393 148.799 45.034C149.173 44.8287 149.462 44.5533 149.667 44.208C149.873 43.8533 149.975 43.4567 149.975 43.018V42.276L147.427 42.752C146.895 42.8547 146.503 43.0133 146.251 43.228C146.009 43.4427 145.887 43.7273 145.887 44.082C145.887 44.4833 146.027 44.796 146.307 45.02C146.587 45.2347 146.975 45.342 147.469 45.342ZM155.381 46.168C154.644 46.168 154.051 45.9207 153.603 45.426C153.164 44.922 152.945 44.2313 152.945 43.354V38.58H153.869V43.074C153.869 43.8393 154.014 44.4087 154.303 44.782C154.602 45.1553 155.04 45.342 155.619 45.342C156.263 45.342 156.767 45.132 157.131 44.712C157.504 44.292 157.691 43.7227 157.691 43.004V38.58H158.615V46H157.747L157.733 44.096L157.873 44.166C157.752 44.8007 157.472 45.2953 157.033 45.65C156.604 45.9953 156.053 46.168 155.381 46.168ZM163.411 46.168C162.767 46.168 162.216 46.0653 161.759 45.86C161.311 45.6453 160.961 45.3513 160.709 44.978C160.457 44.6047 160.312 44.1847 160.275 43.718L161.241 43.648C161.297 44.1427 161.502 44.5393 161.857 44.838C162.221 45.1367 162.739 45.286 163.411 45.286C163.999 45.286 164.456 45.188 164.783 44.992C165.11 44.796 165.273 44.4927 165.273 44.082C165.273 43.858 165.222 43.6713 165.119 43.522C165.026 43.3633 164.83 43.228 164.531 43.116C164.232 42.9947 163.784 42.8827 163.187 42.78C162.487 42.6493 161.941 42.4953 161.549 42.318C161.157 42.1313 160.882 41.9027 160.723 41.632C160.564 41.352 160.485 41.0207 160.485 40.638C160.485 39.9753 160.723 39.4387 161.199 39.028C161.675 38.6173 162.338 38.412 163.187 38.412C163.766 38.412 164.256 38.5193 164.657 38.734C165.068 38.9487 165.39 39.2333 165.623 39.588C165.856 39.9333 166.01 40.316 166.085 40.736L165.119 40.82C165.063 40.5307 164.956 40.274 164.797 40.05C164.638 39.8167 164.424 39.6347 164.153 39.504C163.882 39.364 163.556 39.294 163.173 39.294C162.613 39.294 162.184 39.4153 161.885 39.658C161.596 39.8913 161.451 40.204 161.451 40.596C161.451 40.8667 161.512 41.0907 161.633 41.268C161.754 41.436 161.955 41.576 162.235 41.688C162.515 41.7907 162.902 41.884 163.397 41.968C164.134 42.0893 164.708 42.2433 165.119 42.43C165.539 42.6073 165.833 42.8313 166.001 43.102C166.169 43.3633 166.253 43.6853 166.253 44.068C166.253 44.516 166.132 44.8987 165.889 45.216C165.646 45.524 165.31 45.762 164.881 45.93C164.461 46.0887 163.971 46.168 163.411 46.168ZM170.744 46.168C170.035 46.168 169.433 46.0047 168.938 45.678C168.443 45.342 168.061 44.8847 167.79 44.306C167.529 43.718 167.398 43.046 167.398 42.29C167.398 41.534 167.529 40.8667 167.79 40.288C168.051 39.7 168.425 39.2427 168.91 38.916C169.405 38.58 169.997 38.412 170.688 38.412C171.351 38.412 171.925 38.5707 172.41 38.888C172.895 39.2053 173.264 39.6533 173.516 40.232C173.777 40.8107 173.908 41.4873 173.908 42.262V42.556H168.364C168.401 43.4333 168.63 44.11 169.05 44.586C169.47 45.0527 170.035 45.286 170.744 45.286C171.285 45.286 171.729 45.1553 172.074 44.894C172.419 44.6327 172.657 44.2873 172.788 43.858L173.782 43.928C173.595 44.5813 173.236 45.118 172.704 45.538C172.172 45.958 171.519 46.168 170.744 46.168ZM168.364 41.73H172.9C172.853 40.9367 172.634 40.3347 172.242 39.924C171.85 39.504 171.332 39.294 170.688 39.294C170.044 39.294 169.517 39.504 169.106 39.924C168.695 40.344 168.448 40.946 168.364 41.73ZM175.849 46V44.642H177.179V46H175.849ZM175.849 40.4V39.042H177.179V40.4H175.849ZM185.96 46.168C185.288 46.168 184.7 46.0093 184.196 45.692C183.701 45.3747 183.319 44.9267 183.048 44.348C182.777 43.76 182.642 43.074 182.642 42.29C182.642 41.4967 182.777 40.8107 183.048 40.232C183.319 39.6533 183.701 39.2053 184.196 38.888C184.7 38.5707 185.288 38.412 185.96 38.412C186.632 38.412 187.215 38.5707 187.71 38.888C188.205 39.2053 188.587 39.6533 188.858 40.232C189.129 40.8107 189.264 41.4967 189.264 42.29C189.264 43.074 189.129 43.76 188.858 44.348C188.587 44.9267 188.205 45.3747 187.71 45.692C187.215 46.0093 186.632 46.168 185.96 46.168ZM185.96 45.286C186.688 45.286 187.257 45.02 187.668 44.488C188.088 43.9467 188.298 43.214 188.298 42.29C188.298 41.366 188.088 40.638 187.668 40.106C187.257 39.5647 186.688 39.294 185.96 39.294C185.232 39.294 184.658 39.5647 184.238 40.106C183.818 40.638 183.608 41.366 183.608 42.29C183.608 43.214 183.818 43.9467 184.238 44.488C184.658 45.02 185.232 45.286 185.96 45.286ZM192.379 46C191.959 46 191.628 45.8973 191.385 45.692C191.142 45.4773 191.021 45.146 191.021 44.698V36.06H191.945V44.628C191.945 44.8053 191.992 44.9407 192.085 45.034C192.178 45.1273 192.318 45.174 192.505 45.174H193.093V46H192.379ZM197.166 46.168C196.522 46.168 195.967 46.0093 195.5 45.692C195.034 45.3747 194.674 44.9267 194.422 44.348C194.17 43.7693 194.044 43.0833 194.044 42.29C194.044 41.4967 194.17 40.8107 194.422 40.232C194.674 39.6533 195.034 39.2053 195.5 38.888C195.967 38.5707 196.522 38.412 197.166 38.412C197.708 38.412 198.188 38.5473 198.608 38.818C199.038 39.0793 199.35 39.434 199.546 39.882V36.06H200.47V46H199.658L199.616 44.614C199.411 45.0993 199.084 45.482 198.636 45.762C198.198 46.0327 197.708 46.168 197.166 46.168ZM197.32 45.286C197.787 45.286 198.184 45.1647 198.51 44.922C198.846 44.67 199.103 44.32 199.28 43.872C199.458 43.4147 199.546 42.8873 199.546 42.29C199.546 41.6927 199.458 41.17 199.28 40.722C199.103 40.274 198.846 39.924 198.51 39.672C198.184 39.42 197.787 39.294 197.32 39.294C196.62 39.294 196.06 39.5647 195.64 40.106C195.22 40.638 195.01 41.366 195.01 42.29C195.01 43.2047 195.22 43.9327 195.64 44.474C196.06 45.0153 196.62 45.286 197.32 45.286ZM206.419 46V36.06H209.905C210.997 36.06 211.847 36.326 212.453 36.858C213.069 37.3807 213.377 38.104 213.377 39.028C213.377 39.6347 213.237 40.162 212.957 40.61C212.687 41.058 212.29 41.4033 211.767 41.646C211.254 41.8793 210.633 41.996 209.905 41.996H207.371V46H206.419ZM207.371 41.072H209.905C210.717 41.072 211.329 40.8993 211.739 40.554C212.159 40.2087 212.369 39.7 212.369 39.028C212.369 38.356 212.159 37.8473 211.739 37.502C211.329 37.1567 210.717 36.984 209.905 36.984H207.371V41.072ZM215.111 46V38.58H215.909L215.965 40.61L215.839 40.54C215.96 39.8773 216.18 39.3873 216.497 39.07C216.814 38.7433 217.253 38.58 217.813 38.58H218.457V39.476H217.785C217.412 39.476 217.094 39.56 216.833 39.728C216.572 39.8867 216.371 40.1153 216.231 40.414C216.1 40.7127 216.035 41.0673 216.035 41.478V46H215.111ZM222.505 46.168C221.833 46.168 221.245 46.0093 220.741 45.692C220.246 45.3747 219.864 44.9267 219.593 44.348C219.322 43.76 219.187 43.074 219.187 42.29C219.187 41.4967 219.322 40.8107 219.593 40.232C219.864 39.6533 220.246 39.2053 220.741 38.888C221.245 38.5707 221.833 38.412 222.505 38.412C223.177 38.412 223.76 38.5707 224.255 38.888C224.75 39.2053 225.132 39.6533 225.403 40.232C225.674 40.8107 225.809 41.4967 225.809 42.29C225.809 43.074 225.674 43.76 225.403 44.348C225.132 44.9267 224.75 45.3747 224.255 45.692C223.76 46.0093 223.177 46.168 222.505 46.168ZM222.505 45.286C223.233 45.286 223.802 45.02 224.213 44.488C224.633 43.9467 224.843 43.214 224.843 42.29C224.843 41.366 224.633 40.638 224.213 40.106C223.802 39.5647 223.233 39.294 222.505 39.294C221.777 39.294 221.203 39.5647 220.783 40.106C220.363 40.638 220.153 41.366 220.153 42.29C220.153 43.214 220.363 43.9467 220.783 44.488C221.203 45.02 221.777 45.286 222.505 45.286ZM230.519 40.848V39.98H236.861V40.848H230.519ZM230.519 43.732V42.864H236.861V43.732H230.519ZM244.984 46.224C244.209 46.224 243.565 46.0327 243.052 45.65C242.548 45.258 242.202 44.7587 242.016 44.152L243.024 44.068C243.145 44.4507 243.369 44.7493 243.696 44.964C244.032 45.1787 244.461 45.286 244.984 45.286C245.87 45.286 246.552 44.908 247.028 44.152C247.504 43.3867 247.742 42.206 247.742 40.61L248.008 40.708C247.774 41.3613 247.401 41.87 246.888 42.234C246.374 42.598 245.777 42.78 245.096 42.78C244.452 42.78 243.882 42.64 243.388 42.36C242.902 42.0707 242.515 41.6693 242.226 41.156C241.946 40.6427 241.806 40.0453 241.806 39.364C241.806 38.6453 241.95 38.0247 242.24 37.502C242.538 36.97 242.94 36.5593 243.444 36.27C243.948 35.9807 244.531 35.836 245.194 35.836C245.996 35.836 246.659 36.0227 247.182 36.396C247.704 36.7693 248.092 37.292 248.344 37.964C248.605 38.636 248.736 39.434 248.736 40.358C248.736 41.1887 248.67 41.9633 248.54 42.682C248.418 43.3913 248.208 44.012 247.91 44.544C247.62 45.0667 247.238 45.4773 246.762 45.776C246.286 46.0747 245.693 46.224 244.984 46.224ZM245.152 41.842C245.637 41.842 246.066 41.744 246.44 41.548C246.822 41.3427 247.126 41.058 247.35 40.694C247.574 40.33 247.686 39.9007 247.686 39.406C247.686 38.902 247.583 38.454 247.378 38.062C247.172 37.6607 246.883 37.348 246.51 37.124C246.146 36.8907 245.707 36.774 245.194 36.774C244.708 36.774 244.288 36.886 243.934 37.11C243.579 37.3247 243.304 37.628 243.108 38.02C242.912 38.412 242.814 38.86 242.814 39.364C242.814 39.8587 242.912 40.2927 243.108 40.666C243.304 41.0393 243.574 41.3287 243.92 41.534C244.274 41.7393 244.685 41.842 245.152 41.842ZM254.211 46.224C253.427 46.224 252.745 46.014 252.167 45.594C251.588 45.174 251.14 44.5767 250.823 43.802C250.515 43.0273 250.361 42.108 250.361 41.044C250.361 39.98 250.515 39.0607 250.823 38.286C251.14 37.502 251.588 36.9 252.167 36.48C252.745 36.0507 253.427 35.836 254.211 35.836C255.004 35.836 255.69 36.0507 256.269 36.48C256.847 36.9 257.291 37.4973 257.599 38.272C257.916 39.0467 258.075 39.9707 258.075 41.044C258.075 42.108 257.916 43.0273 257.599 43.802C257.291 44.5767 256.847 45.174 256.269 45.594C255.69 46.014 255.004 46.224 254.211 46.224ZM254.211 45.286C255.116 45.286 255.821 44.9173 256.325 44.18C256.829 43.4333 257.081 42.388 257.081 41.044C257.081 40.1387 256.964 39.3687 256.731 38.734C256.507 38.0993 256.18 37.614 255.751 37.278C255.331 36.942 254.817 36.774 254.211 36.774C253.613 36.774 253.1 36.942 252.671 37.278C252.251 37.614 251.924 38.0993 251.691 38.734C251.467 39.3687 251.355 40.1387 251.355 41.044C251.355 42.388 251.607 43.4333 252.111 44.18C252.615 44.9173 253.315 45.286 254.211 45.286ZM263.385 46.224C262.601 46.224 261.919 46.014 261.341 45.594C260.762 45.174 260.314 44.5767 259.997 43.802C259.689 43.0273 259.535 42.108 259.535 41.044C259.535 39.98 259.689 39.0607 259.997 38.286C260.314 37.502 260.762 36.9 261.341 36.48C261.919 36.0507 262.601 35.836 263.385 35.836C264.178 35.836 264.864 36.0507 265.443 36.48C266.021 36.9 266.465 37.4973 266.773 38.272C267.09 39.0467 267.249 39.9707 267.249 41.044C267.249 42.108 267.09 43.0273 266.773 43.802C266.465 44.5767 266.021 45.174 265.443 45.594C264.864 46.014 264.178 46.224 263.385 46.224ZM263.385 45.286C264.29 45.286 264.995 44.9173 265.499 44.18C266.003 43.4333 266.255 42.388 266.255 41.044C266.255 40.1387 266.138 39.3687 265.905 38.734C265.681 38.0993 265.354 37.614 264.925 37.278C264.505 36.942 263.991 36.774 263.385 36.774C262.787 36.774 262.274 36.942 261.845 37.278C261.425 37.614 261.098 38.0993 260.865 38.734C260.641 39.3687 260.529 40.1387 260.529 41.044C260.529 42.388 260.781 43.4333 261.285 44.18C261.789 44.9173 262.489 45.286 263.385 45.286ZM272.558 46.224C271.774 46.224 271.093 46.014 270.514 45.594C269.936 45.174 269.488 44.5767 269.17 43.802C268.862 43.0273 268.708 42.108 268.708 41.044C268.708 39.98 268.862 39.0607 269.17 38.286C269.488 37.502 269.936 36.9 270.514 36.48C271.093 36.0507 271.774 35.836 272.558 35.836C273.352 35.836 274.038 36.0507 274.616 36.48C275.195 36.9 275.638 37.4973 275.946 38.272C276.264 39.0467 276.422 39.9707 276.422 41.044C276.422 42.108 276.264 43.0273 275.946 43.802C275.638 44.5767 275.195 45.174 274.616 45.594C274.038 46.014 273.352 46.224 272.558 46.224ZM272.558 45.286C273.464 45.286 274.168 44.9173 274.672 44.18C275.176 43.4333 275.428 42.388 275.428 41.044C275.428 40.1387 275.312 39.3687 275.078 38.734C274.854 38.0993 274.528 37.614 274.098 37.278C273.678 36.942 273.165 36.774 272.558 36.774C271.961 36.774 271.448 36.942 271.018 37.278C270.598 37.614 270.272 38.0993 270.038 38.734C269.814 39.3687 269.702 40.1387 269.702 41.044C269.702 42.388 269.954 43.4333 270.458 44.18C270.962 44.9173 271.662 45.286 272.558 45.286ZM30.962 60.168C30.2713 60.168 29.6787 60.0047 29.184 59.678C28.6893 59.342 28.3067 58.8847 28.036 58.306C27.7747 57.718 27.644 57.046 27.644 56.29C27.644 55.534 27.7747 54.8667 28.036 54.288C28.3067 53.7 28.6893 53.2427 29.184 52.916C29.6787 52.58 30.2713 52.412 30.962 52.412C31.5313 52.412 32.0307 52.5147 32.46 52.72C32.8893 52.9253 33.2393 53.2193 33.51 53.602C33.7807 53.9847 33.9627 54.4373 34.056 54.96L33.09 55.016C32.978 54.4653 32.7353 54.0407 32.362 53.742C31.998 53.4433 31.5313 53.294 30.962 53.294C30.234 53.294 29.66 53.5647 29.24 54.106C28.82 54.638 28.61 55.366 28.61 56.29C28.61 57.214 28.82 57.9467 29.24 58.488C29.66 59.02 30.234 59.286 30.962 59.286C31.5313 59.286 32.0027 59.1273 32.376 58.81C32.7587 58.4833 33.0013 58.0167 33.104 57.41L34.07 57.48C33.9767 58.0213 33.79 58.4927 33.51 58.894C33.2393 59.2953 32.8893 59.608 32.46 59.832C32.0307 60.056 31.5313 60.168 30.962 60.168ZM35.5855 60V52.58H36.3835L36.4395 54.61L36.3135 54.54C36.4348 53.8773 36.6542 53.3873 36.9715 53.07C37.2888 52.7433 37.7275 52.58 38.2875 52.58H38.9315V53.476H38.2595C37.8862 53.476 37.5688 53.56 37.3075 53.728C37.0462 53.8867 36.8455 54.1153 36.7055 54.414C36.5748 54.7127 36.5095 55.0673 36.5095 55.478V60H35.5855ZM43.0076 60.168C42.2982 60.168 41.6962 60.0047 41.2016 59.678C40.7069 59.342 40.3242 58.8847 40.0536 58.306C39.7922 57.718 39.6616 57.046 39.6616 56.29C39.6616 55.534 39.7922 54.8667 40.0536 54.288C40.3149 53.7 40.6882 53.2427 41.1736 52.916C41.6682 52.58 42.2609 52.412 42.9516 52.412C43.6142 52.412 44.1882 52.5707 44.6736 52.888C45.1589 53.2053 45.5276 53.6533 45.7796 54.232C46.0409 54.8107 46.1716 55.4873 46.1716 56.262V56.556H40.6276C40.6649 57.4333 40.8936 58.11 41.3136 58.586C41.7336 59.0527 42.2982 59.286 43.0076 59.286C43.5489 59.286 43.9922 59.1553 44.3376 58.894C44.6829 58.6327 44.9209 58.2873 45.0516 57.858L46.0456 57.928C45.8589 58.5813 45.4996 59.118 44.9676 59.538C44.4356 59.958 43.7822 60.168 43.0076 60.168ZM40.6276 55.73H45.1636C45.1169 54.9367 44.8976 54.3347 44.5056 53.924C44.1136 53.504 43.5956 53.294 42.9516 53.294C42.3076 53.294 41.7802 53.504 41.3696 53.924C40.9589 54.344 40.7116 54.946 40.6276 55.73ZM50.4398 60.168C49.7958 60.168 49.2405 60.0093 48.7738 59.692C48.3072 59.3747 47.9478 58.9267 47.6958 58.348C47.4438 57.7693 47.3178 57.0833 47.3178 56.29C47.3178 55.4967 47.4438 54.8107 47.6958 54.232C47.9478 53.6533 48.3072 53.2053 48.7738 52.888C49.2405 52.5707 49.7958 52.412 50.4398 52.412C50.9812 52.412 51.4618 52.5473 51.8818 52.818C52.3112 53.0793 52.6238 53.434 52.8198 53.882V50.06H53.7438V60H52.9318L52.8898 58.614C52.6845 59.0993 52.3578 59.482 51.9098 59.762C51.4712 60.0327 50.9812 60.168 50.4398 60.168ZM50.5938 59.286C51.0605 59.286 51.4572 59.1647 51.7838 58.922C52.1198 58.67 52.3765 58.32 52.5538 57.872C52.7312 57.4147 52.8198 56.8873 52.8198 56.29C52.8198 55.6927 52.7312 55.17 52.5538 54.722C52.3765 54.274 52.1198 53.924 51.7838 53.672C51.4572 53.42 51.0605 53.294 50.5938 53.294C49.8938 53.294 49.3338 53.5647 48.9138 54.106C48.4938 54.638 48.2838 55.366 48.2838 56.29C48.2838 57.2047 48.4938 57.9327 48.9138 58.474C49.3338 59.0153 49.8938 59.286 50.5938 59.286ZM55.8062 60V52.58H56.7302V60H55.8062ZM55.7782 51.348V50.102H56.7582V51.348H55.7782ZM61.0759 60C60.4692 60 60.0212 59.86 59.7319 59.58C59.4426 59.2907 59.2979 58.852 59.2979 58.264V50.844H60.2219V58.236C60.2219 58.5813 60.2966 58.824 60.4459 58.964C60.6046 59.104 60.8426 59.174 61.1599 59.174H62.1399V60H61.0759ZM58.1359 53.406V52.58H62.1399V53.406H58.1359ZM66.2312 60.168C65.5872 60.168 65.0365 60.0653 64.5792 59.86C64.1312 59.6453 63.7812 59.3513 63.5292 58.978C63.2772 58.6047 63.1325 58.1847 63.0952 57.718L64.0612 57.648C64.1172 58.1427 64.3225 58.5393 64.6772 58.838C65.0412 59.1367 65.5592 59.286 66.2312 59.286C66.8192 59.286 67.2765 59.188 67.6032 58.992C67.9298 58.796 68.0932 58.4927 68.0932 58.082C68.0932 57.858 68.0418 57.6713 67.9392 57.522C67.8458 57.3633 67.6498 57.228 67.3512 57.116C67.0525 56.9947 66.6045 56.8827 66.0072 56.78C65.3072 56.6493 64.7612 56.4953 64.3692 56.318C63.9772 56.1313 63.7018 55.9027 63.5432 55.632C63.3845 55.352 63.3052 55.0207 63.3052 54.638C63.3052 53.9753 63.5432 53.4387 64.0192 53.028C64.4952 52.6173 65.1578 52.412 66.0072 52.412C66.5858 52.412 67.0758 52.5193 67.4772 52.734C67.8878 52.9487 68.2098 53.2333 68.4432 53.588C68.6765 53.9333 68.8305 54.316 68.9052 54.736L67.9392 54.82C67.8832 54.5307 67.7758 54.274 67.6172 54.05C67.4585 53.8167 67.2438 53.6347 66.9732 53.504C66.7025 53.364 66.3758 53.294 65.9932 53.294C65.4332 53.294 65.0038 53.4153 64.7052 53.658C64.4158 53.8913 64.2712 54.204 64.2712 54.596C64.2712 54.8667 64.3318 55.0907 64.4532 55.268C64.5745 55.436 64.7752 55.576 65.0552 55.688C65.3352 55.7907 65.7225 55.884 66.2172 55.968C66.9545 56.0893 67.5285 56.2433 67.9392 56.43C68.3592 56.6073 68.6532 56.8313 68.8212 57.102C68.9892 57.3633 69.0732 57.6853 69.0732 58.068C69.0732 58.516 68.9518 58.8987 68.7092 59.216C68.4665 59.524 68.1305 59.762 67.7012 59.93C67.2812 60.0887 66.7912 60.168 66.2312 60.168ZM70.3829 62.044L70.9849 60H70.3689V58.642H71.6989V59.832L70.9569 62.044H70.3829ZM76.9976 60V52.58H77.8376L77.8796 54.526L77.7676 54.442C77.8423 53.9847 77.9963 53.6067 78.2296 53.308C78.4723 53.0093 78.7663 52.7853 79.1116 52.636C79.4569 52.4867 79.8303 52.412 80.2316 52.412C80.8009 52.412 81.2676 52.538 81.6316 52.79C82.0049 53.042 82.2803 53.3827 82.4576 53.812C82.6349 54.232 82.7236 54.7033 82.7236 55.226V60H81.7996V55.562C81.7996 55.0767 81.7389 54.6613 81.6176 54.316C81.5056 53.9707 81.3189 53.7047 81.0576 53.518C80.7963 53.3313 80.4556 53.238 80.0356 53.238C79.4009 53.238 78.8876 53.4433 78.4956 53.854C78.1129 54.2647 77.9216 54.834 77.9216 55.562V60H76.9976ZM87.7009 60.168C86.9916 60.168 86.3896 60.0047 85.8949 59.678C85.4003 59.342 85.0176 58.8847 84.7469 58.306C84.4856 57.718 84.3549 57.046 84.3549 56.29C84.3549 55.534 84.4856 54.8667 84.7469 54.288C85.0083 53.7 85.3816 53.2427 85.8669 52.916C86.3616 52.58 86.9543 52.412 87.6449 52.412C88.3076 52.412 88.8816 52.5707 89.3669 52.888C89.8523 53.2053 90.2209 53.6533 90.4729 54.232C90.7343 54.8107 90.8649 55.4873 90.8649 56.262V56.556H85.3209C85.3583 57.4333 85.5869 58.11 86.0069 58.586C86.4269 59.0527 86.9916 59.286 87.7009 59.286C88.2423 59.286 88.6856 59.1553 89.0309 58.894C89.3763 58.6327 89.6143 58.2873 89.7449 57.858L90.7389 57.928C90.5523 58.5813 90.1929 59.118 89.6609 59.538C89.1289 59.958 88.4756 60.168 87.7009 60.168ZM85.3209 55.73H89.8569C89.8103 54.9367 89.5909 54.3347 89.1989 53.924C88.8069 53.504 88.2889 53.294 87.6449 53.294C87.0009 53.294 86.4736 53.504 86.0629 53.924C85.6523 54.344 85.4049 54.946 85.3209 55.73ZM93.8638 60L91.4978 52.58H92.5058L94.4238 59.034L96.3138 52.58H97.2938L99.1838 59.034L101.116 52.58H102.124L99.7578 60H98.6098L96.8038 53.98L95.0118 60H93.8638ZM107.243 60V50.06H110.729C111.821 50.06 112.671 50.326 113.277 50.858C113.893 51.3807 114.201 52.104 114.201 53.028C114.201 53.6347 114.061 54.162 113.781 54.61C113.511 55.058 113.114 55.4033 112.591 55.646C112.078 55.8793 111.457 55.996 110.729 55.996H108.195V60H107.243ZM108.195 55.072H110.729C111.541 55.072 112.153 54.8993 112.563 54.554C112.983 54.2087 113.193 53.7 113.193 53.028C113.193 52.356 112.983 51.8473 112.563 51.502C112.153 51.1567 111.541 50.984 110.729 50.984H108.195V55.072ZM115.935 60V52.58H116.733L116.789 54.61L116.663 54.54C116.784 53.8773 117.004 53.3873 117.321 53.07C117.638 52.7433 118.077 52.58 118.637 52.58H119.281V53.476H118.609C118.236 53.476 117.918 53.56 117.657 53.728C117.396 53.8867 117.195 54.1153 117.055 54.414C116.924 54.7127 116.859 55.0673 116.859 55.478V60H115.935ZM123.329 60.168C122.657 60.168 122.069 60.0093 121.565 59.692C121.071 59.3747 120.688 58.9267 120.417 58.348C120.147 57.76 120.011 57.074 120.011 56.29C120.011 55.4967 120.147 54.8107 120.417 54.232C120.688 53.6533 121.071 53.2053 121.565 52.888C122.069 52.5707 122.657 52.412 123.329 52.412C124.001 52.412 124.585 52.5707 125.079 52.888C125.574 53.2053 125.957 53.6533 126.227 54.232C126.498 54.8107 126.633 55.4967 126.633 56.29C126.633 57.074 126.498 57.76 126.227 58.348C125.957 58.9267 125.574 59.3747 125.079 59.692C124.585 60.0093 124.001 60.168 123.329 60.168ZM123.329 59.286C124.057 59.286 124.627 59.02 125.037 58.488C125.457 57.9467 125.667 57.214 125.667 56.29C125.667 55.366 125.457 54.638 125.037 54.106C124.627 53.5647 124.057 53.294 123.329 53.294C122.601 53.294 122.027 53.5647 121.607 54.106C121.187 54.638 120.977 55.366 120.977 56.29C120.977 57.214 121.187 57.9467 121.607 58.488C122.027 59.02 122.601 59.286 123.329 59.286ZM131.343 54.848V53.98H137.685V54.848H131.343ZM131.343 57.732V56.864H137.685V57.732H131.343ZM146.144 60.224C145.416 60.224 144.791 60.0607 144.268 59.734C143.745 59.4073 143.339 58.9173 143.05 58.264C142.77 57.6013 142.63 56.7847 142.63 55.814C142.63 54.9927 142.7 54.2227 142.84 53.504C142.98 52.776 143.199 52.1413 143.498 51.6C143.797 51.0493 144.189 50.62 144.674 50.312C145.159 49.9947 145.757 49.836 146.466 49.836C147.325 49.836 147.992 50.0507 148.468 50.48C148.944 50.9093 149.285 51.4693 149.49 52.16L148.496 52.258C148.375 51.8193 148.155 51.4647 147.838 51.194C147.53 50.914 147.073 50.774 146.466 50.774C145.607 50.774 144.921 51.1567 144.408 51.922C143.904 52.6873 143.633 53.8587 143.596 55.436L143.386 55.38C143.489 54.9973 143.675 54.652 143.946 54.344C144.217 54.036 144.548 53.7933 144.94 53.616C145.341 53.4293 145.789 53.336 146.284 53.336C146.937 53.336 147.511 53.476 148.006 53.756C148.501 54.036 148.883 54.428 149.154 54.932C149.425 55.436 149.56 56.0287 149.56 56.71C149.56 57.4287 149.415 58.0493 149.126 58.572C148.837 59.0947 148.435 59.5007 147.922 59.79C147.409 60.0793 146.816 60.224 146.144 60.224ZM146.158 59.286C146.867 59.286 147.446 59.062 147.894 58.614C148.342 58.1567 148.566 57.522 148.566 56.71C148.566 56.206 148.468 55.772 148.272 55.408C148.076 55.0347 147.801 54.75 147.446 54.554C147.101 54.3487 146.695 54.246 146.228 54.246C145.752 54.246 145.323 54.344 144.94 54.54C144.557 54.736 144.254 55.016 144.03 55.38C143.806 55.744 143.694 56.1733 143.694 56.668C143.694 57.172 143.792 57.6247 143.988 58.026C144.184 58.418 144.469 58.726 144.842 58.95C145.215 59.174 145.654 59.286 146.158 59.286ZM155.035 60.224C154.251 60.224 153.57 60.014 152.991 59.594C152.412 59.174 151.964 58.5767 151.647 57.802C151.339 57.0273 151.185 56.108 151.185 55.044C151.185 53.98 151.339 53.0607 151.647 52.286C151.964 51.502 152.412 50.9 152.991 50.48C153.57 50.0507 154.251 49.836 155.035 49.836C155.828 49.836 156.514 50.0507 157.093 50.48C157.672 50.9 158.115 51.4973 158.423 52.272C158.74 53.0467 158.899 53.9707 158.899 55.044C158.899 56.108 158.74 57.0273 158.423 57.802C158.115 58.5767 157.672 59.174 157.093 59.594C156.514 60.014 155.828 60.224 155.035 60.224ZM155.035 59.286C155.94 59.286 156.645 58.9173 157.149 58.18C157.653 57.4333 157.905 56.388 157.905 55.044C157.905 54.1387 157.788 53.3687 157.555 52.734C157.331 52.0993 157.004 51.614 156.575 51.278C156.155 50.942 155.642 50.774 155.035 50.774C154.438 50.774 153.924 50.942 153.495 51.278C153.075 51.614 152.748 52.0993 152.515 52.734C152.291 53.3687 152.179 54.1387 152.179 55.044C152.179 56.388 152.431 57.4333 152.935 58.18C153.439 58.9173 154.139 59.286 155.035 59.286ZM164.209 60.224C163.425 60.224 162.744 60.014 162.165 59.594C161.586 59.174 161.138 58.5767 160.821 57.802C160.513 57.0273 160.359 56.108 160.359 55.044C160.359 53.98 160.513 53.0607 160.821 52.286C161.138 51.502 161.586 50.9 162.165 50.48C162.744 50.0507 163.425 49.836 164.209 49.836C165.002 49.836 165.688 50.0507 166.267 50.48C166.846 50.9 167.289 51.4973 167.597 52.272C167.914 53.0467 168.073 53.9707 168.073 55.044C168.073 56.108 167.914 57.0273 167.597 57.802C167.289 58.5767 166.846 59.174 166.267 59.594C165.688 60.014 165.002 60.224 164.209 60.224ZM164.209 59.286C165.114 59.286 165.819 58.9173 166.323 58.18C166.827 57.4333 167.079 56.388 167.079 55.044C167.079 54.1387 166.962 53.3687 166.729 52.734C166.505 52.0993 166.178 51.614 165.749 51.278C165.329 50.942 164.816 50.774 164.209 50.774C163.612 50.774 163.098 50.942 162.669 51.278C162.249 51.614 161.922 52.0993 161.689 52.734C161.465 53.3687 161.353 54.1387 161.353 55.044C161.353 56.388 161.605 57.4333 162.109 58.18C162.613 58.9173 163.313 59.286 164.209 59.286ZM173.383 60.224C172.599 60.224 171.917 60.014 171.339 59.594C170.76 59.174 170.312 58.5767 169.995 57.802C169.687 57.0273 169.533 56.108 169.533 55.044C169.533 53.98 169.687 53.0607 169.995 52.286C170.312 51.502 170.76 50.9 171.339 50.48C171.917 50.0507 172.599 49.836 173.383 49.836C174.176 49.836 174.862 50.0507 175.441 50.48C176.019 50.9 176.463 51.4973 176.771 52.272C177.088 53.0467 177.247 53.9707 177.247 55.044C177.247 56.108 177.088 57.0273 176.771 57.802C176.463 58.5767 176.019 59.174 175.441 59.594C174.862 60.014 174.176 60.224 173.383 60.224ZM173.383 59.286C174.288 59.286 174.993 58.9173 175.497 58.18C176.001 57.4333 176.253 56.388 176.253 55.044C176.253 54.1387 176.136 53.3687 175.903 52.734C175.679 52.0993 175.352 51.614 174.923 51.278C174.503 50.942 173.989 50.774 173.383 50.774C172.785 50.774 172.272 50.942 171.843 51.278C171.423 51.614 171.096 52.0993 170.863 52.734C170.639 53.3687 170.527 54.1387 170.527 55.044C170.527 56.388 170.779 57.4333 171.283 58.18C171.787 58.9173 172.487 59.286 173.383 59.286Z" fill="#FF1D1D"/>
</svg>
