<svg width="26" height="26" viewBox="0 0 26 26" fill="none" xmlns="http://www.w3.org/2000/svg">
<g opacity="0.2">
<path d="M8.90447 12.1809H7.26811V13.8173H8.90447V12.1809Z" fill="white"/>
<path d="M13.8136 12.1809H12.1772V13.8173H13.8136V12.1809Z" fill="white"/>
<path d="M15.4499 12.1809H13.8136V13.8173H15.4499V12.1809Z" fill="white"/>
<path d="M17.0863 12.1809H15.4499V13.8173H17.0863V12.1809Z" fill="white"/>
<path d="M18.7227 12.1809H17.0863V13.8173H18.7227V12.1809Z" fill="white"/>
<path d="M10.5408 10.5446H8.90447V12.1809H10.5408V10.5446Z" fill="white"/>
<path d="M10.5408 15.4537H8.90447V13.8173H10.5408V15.4537Z" fill="white"/>
<path d="M12.1772 8.9082H10.5408V10.5446H12.1772V8.9082Z" fill="white"/>
<path d="M12.1772 17.09H10.5408V15.4537H12.1772V17.09Z" fill="white"/>
<path d="M5.63672 4H4.00035V5.63636H5.63672V4Z" fill="white"/>
<path d="M21.9961 4H20.3597V5.63636H21.9961V4Z" fill="white"/>
<path d="M5.63672 20.3633H4.00035V21.9996H5.63672V20.3633Z" fill="white"/>
<path d="M21.9961 20.3633H20.3597V21.9996H21.9961V20.3633Z" fill="white"/>
</g>
</svg>
