<svg width="26" height="26" viewBox="0 0 26 26" fill="none" xmlns="http://www.w3.org/2000/svg">
<path d="M17.0916 12.1809H18.728V13.8173H17.0916V12.1809Z" fill="white"/>
<path d="M12.1825 12.1809H13.8189V13.8173H12.1825V12.1809Z" fill="white"/>
<path d="M10.5462 12.1809H12.1825V13.8173H10.5462V12.1809Z" fill="white"/>
<path d="M8.9098 12.1809H10.5462V13.8173H8.9098V12.1809Z" fill="white"/>
<path d="M7.27344 12.1809H8.9098V13.8173H7.27344V12.1809Z" fill="white"/>
<path d="M15.4553 10.5446H17.0916V12.1809H15.4553V10.5446Z" fill="white"/>
<path d="M15.4553 15.4537H17.0916V13.8173H15.4553V15.4537Z" fill="white"/>
<path d="M13.8189 8.9082H15.4553V10.5446H13.8189V8.9082Z" fill="white"/>
<path d="M13.8189 17.09H15.4553V15.4537H13.8189V17.09Z" fill="white"/>
<path d="M20.3594 4H21.9957V5.63636H20.3594V4Z" fill="white"/>
<path d="M4 4H5.63636V5.63636H4V4Z" fill="white"/>
<path d="M20.3594 20.3633H21.9957V21.9996H20.3594V20.3633Z" fill="white"/>
<path d="M4 20.3633H5.63636V21.9996H4V20.3633Z" fill="white"/>
</svg>
