<svg width="24" height="24" viewBox="0 0 24 24" fill="none" xmlns="http://www.w3.org/2000/svg">
<path d="M24 0L24 4.7874L19.2 4.7874L19.2 -2.09815e-07L24 0Z" fill="white"/>
<path d="M-1.04632e-06 23.937L-8.37056e-07 19.1496L4.8 19.1496L4.8 23.937L-1.04632e-06 23.937Z" fill="white"/>
<path d="M19.2 4.7874L19.2 9.5748L14.4 9.5748L14.4 4.7874L19.2 4.7874Z" fill="white"/>
<path d="M4.8 19.1496L4.8 14.3622L9.6 14.3622L9.6 19.1496L4.8 19.1496Z" fill="white"/>
<path d="M24 9.5748L24 14.3622L19.2 14.3622L19.2 9.5748L24 9.5748Z" fill="white"/>
<path d="M-6.27792e-07 14.3622L-4.18528e-07 9.5748L4.8 9.5748L4.8 14.3622L-6.27792e-07 14.3622Z" fill="white"/>
<path d="M19.2 14.3622L19.2 19.1496L14.4 19.1496L14.4 14.3622L19.2 14.3622Z" fill="white"/>
<path d="M4.8 9.5748L4.8 4.7874L9.6 4.7874L9.6 9.5748L4.8 9.5748Z" fill="white"/>
<path d="M24 19.1496L24 23.937L19.2 23.937L19.2 19.1496L24 19.1496Z" fill="white"/>
<path d="M-2.09264e-07 4.7874L0 -1.04907e-06L4.8 -4.20741e-07L4.8 4.7874L-2.09264e-07 4.7874Z" fill="white"/>
<path d="M14.4 -4.19629e-07L14.4 4.7874L9.6 4.7874L9.6 -6.29444e-07L14.4 -4.19629e-07Z" fill="white"/>
<path d="M14.4 19.2126L14.4 24L9.6 24L9.6 19.2126L14.4 19.2126Z" fill="white"/>
</svg>
