<svg width="24" height="24" viewBox="0 0 24 24" fill="none" xmlns="http://www.w3.org/2000/svg">
<path d="M0 24L-2.09815e-07 19.2L4.8 19.2L4.8 24L0 24Z" fill="white"/>
<path d="M-4.19629e-07 14.4L-1.04907e-06 1.90735e-06L4.8 1.69753e-06L4.8 14.4L-4.19629e-07 14.4Z" fill="white"/>
<path d="M4.8 19.2L4.8 14.4L9.6 14.4L9.6 19.2L4.8 19.2Z" fill="white"/>
<path d="M9.6 24L9.6 19.2L14.4 19.2L14.4 24L9.6 24Z" fill="white"/>
<path d="M9.6 14.4L9.6 1.48772e-06L14.4 1.2779e-06L14.4 14.4L9.6 14.4Z" fill="white"/>
<path d="M14.4 19.2L14.4 14.4L19.2 14.4L19.2 19.2L14.4 19.2Z" fill="white"/>
<path d="M19.2 24L19.2 19.2L24 19.2L24 24L19.2 24Z" fill="white"/>
<path d="M19.2 14.4L19.2 1.06809e-06L24 8.58275e-07L24 14.4L19.2 14.4Z" fill="white"/>
</svg>
