<svg width="24" height="24" viewBox="0 0 24 24" fill="none" xmlns="http://www.w3.org/2000/svg">
<path d="M0 9.6H4.8V14.4H0V9.6Z" fill="white"/>
<path d="M19.2 9.6H24V14.4H19.2V9.6Z" fill="white"/>
<path d="M4.8 14.4H9.6V19.2H4.8V14.4Z" fill="white"/>
<path d="M0 0H4.8V4.8H0V0Z" fill="white"/>
<path d="M0 19.2H4.8V24H0V19.2Z" fill="white"/>
<path d="M9.6 9.6H14.4V14.4H9.6V9.6Z" fill="white"/>
<path d="M9.6 4.8H14.4V9.6H9.6V4.8Z" fill="white"/>
<path d="M14.4 14.4H19.2V19.2H14.4V14.4Z" fill="white"/>
<path d="M9.6 14.4H14.4V19.2H9.6V14.4Z" fill="white"/>
<path d="M9.6 19.2H14.4V24H9.6V19.2Z" fill="white"/>
<path d="M9.6 0H14.4V4.8H9.6V0Z" fill="white"/>
<path d="M19.2 0H24V4.8H19.2V0Z" fill="white"/>
<path d="M14.4 4.8H19.2V9.6H14.4V4.8Z" fill="white"/>
<path d="M4.8 4.8H9.6V9.6H4.8V4.8Z" fill="white"/>
<path d="M19.2 19.2H24V24H19.2V19.2Z" fill="white"/>
</svg>
