<svg width="24" height="24" viewBox="0 0 24 24" fill="none" xmlns="http://www.w3.org/2000/svg">
<path d="M0 0H4.8V4.8H0V0Z" fill="white"/>
<path d="M24 24H19.2V19.2H24V24Z" fill="white"/>
<path d="M4.8 4.8H9.6V9.6H4.8V4.8Z" fill="white"/>
<path d="M9.6 9.6H14.4V14.4H9.6V9.6Z" fill="white"/>
<path d="M19.2 19.2H14.4V14.4H19.2V19.2Z" fill="white"/>
<path d="M9.6 0H14.4V4.8H9.6V0Z" fill="white"/>
<path d="M14.4 24H9.6V19.2H14.4V24Z" fill="white"/>
<path d="M14.4 4.8H19.2V9.6H14.4V4.8Z" fill="white"/>
<path d="M9.6 19.2H4.8L4.8 14.4H9.6V19.2Z" fill="white"/>
<path d="M19.2 0H24V4.8H19.2V0Z" fill="white"/>
<path d="M4.8 24H0L4.19619e-07 19.2H4.8V24Z" fill="white"/>
</svg>
