<svg width="114" height="28" viewBox="0 0 114 28" fill="none" xmlns="http://www.w3.org/2000/svg">
<path fill-rule="evenodd" clip-rule="evenodd" d="M28 28H0V0H28V28ZM10.7139 9.06887C9.77726 11.211 8.84052 13.3532 7.90386 15.4953C8.63795 16.4465 9.37205 17.3984 10.1061 18.3496C12.2827 15.537 14.4599 12.7244 16.637 9.91183L9.27077 22.9514C12.9161 20.7518 16.5615 18.5529 20.2069 16.3534V4.85034L10.7139 9.06887Z" fill="white"/>
<path d="M51.9683 16.7168C51.9683 17.7995 52.1779 18.6235 52.5979 19.1885C53.0179 19.7383 53.6245 20.0133 54.4161 20.0133C55.3045 20.0133 55.9995 19.6976 56.5001 19.068C57.0176 18.4376 57.2756 17.5407 57.2756 16.3774V10.1724H60.1841V22.1939H57.2756V20.9211C57.5812 20.5928 58.0631 19.6599 58.0656 19.6552L57.7898 19.4752C57.6379 19.779 57.4945 20.0344 57.2756 20.3763C56.9201 21.039 56.428 21.5557 55.7975 21.9273C55.1671 22.299 54.4077 22.4849 53.5193 22.4849C52.1618 22.4848 51.0791 22.025 50.2713 21.1036C49.4797 20.1668 49.0834 18.8007 49.0834 17.0078V10.1724H51.9683V16.7168Z" fill="white"/>
<path d="M72.6539 16.7168C72.6539 17.7995 72.8633 18.6235 73.2833 19.1885C73.7033 19.7384 74.31 20.0133 75.1017 20.0133C75.99 20.0133 76.685 19.6976 77.1856 19.068C77.7032 18.4376 77.961 17.5406 77.961 16.3774V10.1724H80.8697V22.1939H77.961V20.9211C78.2661 20.5933 78.7469 19.663 78.751 19.6552L78.4753 19.4752C78.3234 19.779 78.1799 20.0344 77.961 20.3763C77.6055 21.039 77.1135 21.5557 76.4831 21.9273C75.8527 22.299 75.0932 22.4848 74.2049 22.4849C72.8473 22.4849 71.7646 22.025 70.9569 21.1036C70.1653 20.1668 69.769 18.8007 69.769 17.0078V10.1724H72.6539V16.7168Z" fill="white"/>
<path d="M65.8577 10.1727H69.0082V12.6205H65.8577V18.2188C65.8577 18.6549 65.8985 18.9783 65.9791 19.1887C66.0758 19.3991 66.2379 19.5442 66.4635 19.6248C66.6901 19.6893 67.0211 19.7215 67.4572 19.7215H68.8868V22.194H66.5365C65.761 22.194 65.1068 22.1049 64.5731 21.9276C64.0394 21.7342 63.6355 21.3786 63.3614 20.8611C63.0865 20.3443 62.949 19.5925 62.949 18.6066V12.6205H60.889V10.1727H62.949V7.02223H65.8577V10.1727Z" fill="white"/>
<path fill-rule="evenodd" clip-rule="evenodd" d="M49.0481 22.1939H46.0224L44.6436 18.2629H38.0372L36.6584 22.1939H33.6566L39.7555 5.51515H42.9483L49.0481 22.1939ZM41.1784 9.30709L38.8313 15.999H43.8497L41.5026 9.30709V8.33556H41.1784V9.30709Z" fill="white"/>
<path d="M88.5704 9.88131C89.9458 9.88133 91.042 10.3412 91.8608 11.2626C92.0585 11.4942 92.2315 11.7513 92.38 12.0339C92.8144 11.3687 93.3898 10.8452 94.1059 10.4634C94.8491 10.0757 95.6569 9.88215 96.5299 9.88214C98.0648 9.88214 99.2519 10.3506 100.093 11.2873C100.933 12.2088 101.353 13.5663 101.353 15.36V22.1937H98.4688V15.6502C98.4688 14.5675 98.2584 13.7522 97.8384 13.2023C97.4184 12.6373 96.788 12.3539 95.948 12.3539C95.108 12.3539 94.3969 12.6694 93.8632 13.299C93.3304 13.9294 93.0639 14.8263 93.0639 15.9896V22.1937H90.1409V15.6493C90.1409 14.5667 89.9288 13.7427 89.5037 13.1776C89.0777 12.6278 88.4634 12.3529 87.6616 12.3529C86.7614 12.3529 86.0571 12.6686 85.5506 13.2982C85.0262 13.9286 84.7649 14.8255 84.7649 15.9888V22.1937H81.8182V10.1723H84.7649V11.445C84.4553 11.7732 83.9678 12.7052 83.9648 12.711L84.2439 12.8909C84.3975 12.5872 84.5426 12.3318 84.7649 11.9898C85.1247 11.3272 85.6236 10.8105 86.2617 10.4388C86.9006 10.0672 87.6702 9.88131 88.5704 9.88131Z" fill="white"/>
<path d="M109.109 9.88131C110.529 9.88131 111.662 10.3411 112.506 11.2626C113.334 12.1993 113.748 13.5655 113.748 15.3584V22.1937H110.731V15.6493C110.731 14.5667 110.512 13.7427 110.072 13.1776C109.633 12.6278 108.999 12.3529 108.171 12.3529C107.242 12.3529 106.515 12.6686 105.991 13.2982C105.45 13.9286 105.18 14.8255 105.18 15.9888V22.1937H102.139V10.1723H105.181V11.445C104.861 11.7733 104.357 12.7056 104.354 12.711L104.643 12.8909C104.802 12.5872 104.952 12.3317 105.181 11.9898C105.552 11.3272 106.068 10.8105 106.727 10.4388C107.386 10.0672 108.18 9.88131 109.109 9.88131Z" fill="white"/>
</svg>
