<svg width="14" height="14" viewBox="0 0 14 14" fill="none" xmlns="http://www.w3.org/2000/svg">
<path d="M0 2.80055H2.80009V5.60064H0V2.80055Z" fill="white" fill-opacity="0.6"/>
<path d="M0 8.4005H2.80009V11.2006H0V8.4005Z" fill="white" fill-opacity="0.6"/>
<path d="M2.79941 0H5.5995V2.80009H2.79941V0Z" fill="white" fill-opacity="0.6"/>
<path d="M2.79941 5.59995H5.5995V8.40005H2.79941V5.59995Z" fill="white" fill-opacity="0.6"/>
<path d="M2.79941 11.1999H5.5995V14H2.79941V11.1999Z" fill="white" fill-opacity="0.6"/>
<path d="M5.59995 2.80055H8.40005V5.60064H5.59995V2.80055Z" fill="white" fill-opacity="0.6"/>
<path d="M5.59995 8.4005H8.40005V11.2006H5.59995V8.4005Z" fill="white" fill-opacity="0.6"/>
<path d="M8.4005 0H11.2006V2.80009H8.4005V0Z" fill="white" fill-opacity="0.6"/>
<path d="M11.1999 2.80055H14V5.60064H11.1999V2.80055Z" fill="white" fill-opacity="0.6"/>
<path d="M8.4005 5.59995H11.2006V8.40005H8.4005V5.59995Z" fill="white" fill-opacity="0.6"/>
<path d="M8.4005 11.1999H11.2006V14H8.4005V11.1999Z" fill="white" fill-opacity="0.6"/>
<path d="M11.1999 8.4005H14V11.2006H11.1999V8.4005Z" fill="white" fill-opacity="0.6"/>
</svg>
