<svg width="14" height="14" viewBox="0 0 14 14" fill="none" xmlns="http://www.w3.org/2000/svg">
<path d="M0 0H2.80009V2.80009H0V0Z" fill="white" fill-opacity="0.6"/>
<path d="M0 11.1999H2.80009V14H0V11.1999Z" fill="white" fill-opacity="0.6"/>
<path d="M2.79941 2.80055H5.5995V5.60064H2.79941V2.80055Z" fill="white" fill-opacity="0.6"/>
<path d="M8.4005 2.80055H11.2006V5.60064H8.4005V2.80055Z" fill="white" fill-opacity="0.6"/>
<path d="M5.59995 0H8.40005V2.80009H5.59995V0Z" fill="white" fill-opacity="0.6"/>
<path d="M11.1999 0H14V2.80009H11.1999V0Z" fill="white" fill-opacity="0.6"/>
<path d="M0 5.59995H2.80009V8.40005H0V5.59995Z" fill="white" fill-opacity="0.6"/>
<path d="M2.79941 8.4005H5.5995V11.2006H2.79941V8.4005Z" fill="white" fill-opacity="0.6"/>
<path d="M8.4005 8.4005H11.2006V11.2006H8.4005V8.4005Z" fill="white" fill-opacity="0.6"/>
<path d="M5.59995 11.1999H8.40005V14H5.59995V11.1999Z" fill="white" fill-opacity="0.6"/>
<path d="M11.1999 5.59995H14V8.40005H11.1999V5.59995Z" fill="white" fill-opacity="0.6"/>
<path d="M11.1999 11.1999H14V14H11.1999V11.1999Z" fill="white" fill-opacity="0.6"/>
</svg>
