<svg width="14" height="14" viewBox="0 0 14 14" fill="none" xmlns="http://www.w3.org/2000/svg">
<path d="M2.3335 0L4.667 2.3335L2.3335 4.667L0 2.3335L2.3335 0Z" fill="white" fill-opacity="0.6"/>
<path d="M7 0L9.3335 2.3335L7 4.667L4.667 2.3335L7 0Z" fill="white" fill-opacity="0.6"/>
<path d="M2.3335 4.667L4.667 7L2.3335 9.3335L0 7L2.3335 4.667Z" fill="white" fill-opacity="0.6"/>
<path d="M11.6665 0L14 2.3335L11.6665 4.667L9.3335 2.3335L11.6665 0Z" fill="white" fill-opacity="0.6"/>
<path d="M7 4.667L9.3335 7L7 9.3335L4.667 7L7 4.667Z" fill="white" fill-opacity="0.6"/>
<path d="M2.3335 9.3335L4.667 11.6665L2.3335 14L0 11.6665L2.3335 9.3335Z" fill="white" fill-opacity="0.6"/>
<path d="M11.6665 4.667L14 7L11.6665 9.3335L9.3335 7L11.6665 4.667Z" fill="white" fill-opacity="0.6"/>
<path d="M11.6665 9.3335L14 11.6665L11.6665 14L9.333 11.6665L11.6665 9.3335Z" fill="white" fill-opacity="0.6"/>
<path d="M7 9.3335L9.333 11.6665L7 14L4.667 11.6665L7 9.3335Z" fill="white" fill-opacity="0.6"/>
</svg>
