<svg width="14" height="14" viewBox="0 0 14 14" fill="none" xmlns="http://www.w3.org/2000/svg">
<path d="M0 0H2.8V2.8H0V0Z" fill="white" fill-opacity="0.6"/>
<path d="M14 14H11.2V11.2L14 11.2V14Z" fill="white" fill-opacity="0.6"/>
<path d="M14 8.40023H11.2V5.60023H14V8.40023Z" fill="white" fill-opacity="0.6"/>
<path d="M0 11.1995H2.8V13.9995H0V11.1995Z" fill="white" fill-opacity="0.6"/>
<path d="M2.80046 2.80046H5.60046V5.60046H2.80046V2.80046Z" fill="white" fill-opacity="0.6"/>
<path d="M11.2007 11.1995H8.40068V8.39954H11.2007V11.1995Z" fill="white" fill-opacity="0.6"/>
<path d="M8.40023 8.40023H5.60023L5.60046 5.60046L8.40023 5.60023V8.40023Z" fill="white" fill-opacity="0.6"/>
<path d="M11.2007 0H14.0007V2.8H11.2007V0Z" fill="white" fill-opacity="0.6"/>
<path d="M5.59977 0H8.39977V2.8H5.59977V0Z" fill="white" fill-opacity="0.6"/>
<path d="M8.40023 14H5.60023V11.2L8.40023 11.2V14Z" fill="white" fill-opacity="0.6"/>
<path d="M0 5.59977H2.8V8.39977H0V5.59977Z" fill="white" fill-opacity="0.6"/>
</svg>
