<svg width="16" height="16" viewBox="0 0 16 16" fill="none" xmlns="http://www.w3.org/2000/svg">
<path d="M0 3.2L3.2 3.2L3.2 6.4L0 6.4L0 3.2Z" fill="#04000D"/>
<path d="M16 12.8H12.8L12.8 9.6H16V12.8Z" fill="#04000D"/>
<path d="M3.2 3.2L6.4 3.2L6.4 6.4L3.2 6.4L3.2 3.2Z" fill="#04000D"/>
<path d="M12.8 12.8L9.6 12.8L9.6 9.6L12.8 9.6L12.8 12.8Z" fill="#04000D"/>
<path d="M6.4 3.2L9.6 3.2L9.6 6.4H6.4L6.4 3.2Z" fill="#04000D"/>
<path d="M9.6 12.8H6.4L6.4 9.6H9.6L9.6 12.8Z" fill="#04000D"/>
<path d="M9.6 0L12.8 0V3.2L9.6 3.2V0Z" fill="#04000D"/>
<path d="M6.4 16L3.2 16L3.2 12.8L6.4 12.8L6.4 16Z" fill="#04000D"/>
<path d="M9.6 6.4L12.8 6.4V9.6L9.6 9.6V6.4Z" fill="#04000D"/>
<path d="M6.4 9.6L3.2 9.6L3.2 6.4L6.4 6.4V9.6Z" fill="#04000D"/>
<path d="M12.8 3.2L16 3.2V6.4L12.8 6.4L12.8 3.2Z" fill="#04000D"/>
<path d="M3.2 12.8H0L2.79752e-07 9.6H3.2L3.2 12.8Z" fill="#04000D"/>
</svg>
