<svg width="16" height="16" viewBox="0 0 16 16" fill="none" xmlns="http://www.w3.org/2000/svg">
<path d="M-1.35485e-09 3.2L3.2 3.2L3.2 6.4L-2.70971e-09 6.4L-1.35485e-09 3.2Z" fill="#04000D"/>
<path d="M16 12.8L12.8 12.8L12.8 9.6L16 9.6L16 12.8Z" fill="#04000D"/>
<path d="M3.2 3.2L6.4 3.2L6.4 6.4L3.2 6.4L3.2 3.2Z" fill="#04000D"/>
<path d="M12.8 12.8L9.6 12.8L9.6 9.6L12.8 9.6L12.8 12.8Z" fill="#04000D"/>
<path d="M6.4 3.2L9.6 3.2L9.6 6.4L6.4 6.4L6.4 3.2Z" fill="#04000D"/>
<path d="M9.6 12.8L6.4 12.8L6.4 9.6L9.6 9.6L9.6 12.8Z" fill="#04000D"/>
<path d="M9.6 -3.38133e-09L12.8 -4.50843e-09L12.8 3.2L9.6 3.2L9.6 -3.38133e-09Z" fill="#04000D"/>
<path d="M6.4 16L3.2 16L3.2 12.8L6.4 12.8L6.4 16Z" fill="#04000D"/>
<path d="M9.6 6.4L12.8 6.4L12.8 9.6L9.6 9.6L9.6 6.4Z" fill="#04000D"/>
<path d="M6.4 9.6L3.2 9.6L3.2 6.4L6.4 6.4L6.4 9.6Z" fill="#04000D"/>
<path d="M12.8 3.2L16 3.2L16 6.4L12.8 6.4L12.8 3.2Z" fill="#04000D"/>
<path d="M3.2 12.8L-5.41941e-09 12.8L2.75687e-07 9.6L3.2 9.6L3.2 12.8Z" fill="#04000D"/>
</svg>
