<svg width="18" height="18" viewBox="0 0 18 18" fill="none" xmlns="http://www.w3.org/2000/svg">
<path d="M13.0916 8.18093H14.728V9.81729H13.0916V8.18093Z" fill="white"/>
<path d="M8.18253 8.18093H9.81889V9.81729H8.18253V8.18093Z" fill="white"/>
<path d="M6.54616 8.18093H8.18253V9.81729H6.54616V8.18093Z" fill="white"/>
<path d="M4.9098 8.18093H6.54616V9.81729H4.9098V8.18093Z" fill="white"/>
<path d="M3.27344 8.18093H4.9098V9.81729H3.27344V8.18093Z" fill="white"/>
<path d="M11.4553 6.54457H13.0916V8.18093H11.4553V6.54457Z" fill="white"/>
<path d="M11.4553 11.4537H13.0916V9.81729H11.4553V11.4537Z" fill="white"/>
<path d="M9.81889 4.9082H11.4553V6.54457H9.81889V4.9082Z" fill="white"/>
<path d="M9.81889 13.09H11.4553V11.4537H9.81889V13.09Z" fill="white"/>
<path d="M16.3594 0H17.9957V1.63636H16.3594V0Z" fill="white"/>
<path d="M0 0H1.63636V1.63636H0V0Z" fill="white"/>
<path d="M16.3594 16.3633H17.9957V17.9996H16.3594V16.3633Z" fill="white"/>
<path d="M0 16.3633H1.63636V17.9996H0V16.3633Z" fill="white"/>
</svg>
