<svg width="16" height="16" viewBox="0 0 16 16" fill="none" xmlns="http://www.w3.org/2000/svg">
<g opacity="0.4">
<rect x="16" y="16" width="2" height="2" transform="rotate(-180 16 16)" fill="#D9D9D9"/>
<rect x="7" y="9.08008" width="2" height="2" transform="rotate(-180 7 9.08008)" fill="#D9D9D9"/>
<rect x="9" y="7" width="2" height="2" transform="rotate(-180 9 7)" fill="#D9D9D9"/>
<rect x="9" y="13.0469" width="2" height="2" transform="rotate(-180 9 13.0469)" fill="#D9D9D9"/>
<rect x="9" y="5.02832" width="2" height="2" transform="rotate(-180 9 5.02832)" fill="#D9D9D9"/>
<rect x="9" y="11.0752" width="2" height="2" transform="rotate(-180 9 11.0752)" fill="#D9D9D9"/>
<rect width="2" height="2" transform="matrix(1 8.74228e-08 8.74228e-08 -1 9 9.08008)" fill="#D9D9D9"/>
<rect x="5" y="9.08008" width="2" height="2" transform="rotate(-180 5 9.08008)" fill="#D9D9D9"/>
<rect width="2" height="2" transform="matrix(1 8.74228e-08 8.74228e-08 -1 11 9.08008)" fill="#D9D9D9"/>
<rect x="16" y="2" width="2" height="2" transform="rotate(-180 16 2)" fill="#D9D9D9"/>
<rect x="2" y="16" width="2" height="2" transform="rotate(-180 2 16)" fill="#D9D9D9"/>
<rect x="2" y="2" width="2" height="2" transform="rotate(-180 2 2)" fill="#D9D9D9"/>
</g>
</svg>
