<svg width="19" height="19" viewBox="0 0 19 19" fill="none" xmlns="http://www.w3.org/2000/svg">
<g clip-path="url(#clip0_1923_59915)">
<path d="M17.3959 7.82056C17.6038 7.19663 17.676 6.53548 17.6076 5.88139C17.5392 5.2273 17.3318 4.59539 16.9993 4.02798C16.5063 3.16976 15.7535 2.4903 14.8494 2.08759C13.9453 1.68489 12.9366 1.57976 11.9689 1.78737C11.5326 1.29543 10.9962 0.902391 10.3957 0.634573C9.79515 0.366756 9.14433 0.230342 8.4868 0.234466C7.49749 0.232161 6.53299 0.544015 5.7323 1.12509C4.93161 1.70616 4.33608 2.52643 4.03153 3.46771C3.38696 3.59969 2.778 3.86781 2.24542 4.25414C1.71283 4.64048 1.2689 5.1361 0.943338 5.70786C0.446699 6.56382 0.234736 7.5554 0.338012 8.53961C0.441288 9.52382 0.854468 10.4498 1.51797 11.184C1.31031 11.8081 1.23828 12.4693 1.30669 13.1234C1.3751 13.7775 1.58237 14.4095 1.91465 14.9771C2.40763 15.8353 3.16046 16.5148 4.06456 16.9175C4.96866 17.3202 5.97731 17.4253 6.94502 17.2177C7.38166 17.7094 7.91824 18.1023 8.5189 18.37C9.11955 18.6377 9.77044 18.7741 10.428 18.7701C11.4178 18.7726 12.3828 18.4606 13.1838 17.8792C13.9848 17.2977 14.5804 16.4769 14.8847 15.535C15.5292 15.403 16.1381 15.1348 16.6706 14.7485C17.2031 14.3622 17.6469 13.8666 17.9724 13.2949C18.4685 12.439 18.6799 11.4477 18.5764 10.4639C18.4729 9.48004 18.0593 8.55449 17.3959 7.82056ZM10.429 17.5597C9.61626 17.561 8.82899 17.2764 8.20504 16.7557C8.23331 16.7404 8.2829 16.7135 8.31487 16.6936L12.0055 14.5619C12.0981 14.509 12.175 14.4324 12.2283 14.3401C12.2816 14.2478 12.3095 14.143 12.309 14.0363V8.83266L13.8689 9.73354C13.8771 9.73758 13.8842 9.74358 13.8895 9.75102C13.8949 9.75846 13.8983 9.7671 13.8995 9.77617V14.0855C13.8984 15.0059 13.5324 15.8884 12.8818 16.5396C12.2312 17.1907 11.349 17.5574 10.4285 17.5592M2.96522 14.3714C2.55822 13.6681 2.41156 12.8441 2.55092 12.0437C2.57873 12.0603 2.626 12.0895 2.66075 12.109L6.35139 14.2407C6.44341 14.2943 6.54798 14.3225 6.65446 14.3225C6.76094 14.3225 6.86551 14.2943 6.95753 14.2407L11.4638 11.6391V13.4409C11.4643 13.45 11.4625 13.4592 11.4587 13.4675C11.4548 13.4759 11.4489 13.4831 11.4415 13.4886L7.71058 15.643C6.91246 16.1027 5.96457 16.227 5.07492 15.9886C4.18528 15.7502 3.42654 15.1686 2.96522 14.3714ZM1.99436 6.31447C2.39978 5.61015 3.04006 5.07093 3.80307 4.79122C3.80307 4.82273 3.80122 4.87927 3.80122 4.9182V9.18208C3.8009 9.28849 3.82878 9.39309 3.88201 9.48524C3.93525 9.57738 4.01194 9.65378 4.10429 9.70666L8.61007 12.3083L7.05022 13.2091C7.04249 13.2143 7.03361 13.2174 7.02439 13.2182C7.01516 13.219 7.00588 13.2175 6.99739 13.2138L3.26551 11.058C2.46879 10.5966 1.88756 9.83806 1.64927 8.94876C1.41099 8.05945 1.53509 7.11241 1.99436 6.31447ZM14.8115 9.297L10.3052 6.69493L11.8656 5.79451C11.8732 5.78948 11.882 5.78643 11.8912 5.78562C11.9003 5.78481 11.9095 5.78627 11.9179 5.78988L15.6493 7.94383C16.221 8.27406 16.6867 8.7603 16.992 9.34563C17.2973 9.93095 17.4296 10.5911 17.3733 11.2489C17.3169 11.9067 17.0744 12.5348 16.6741 13.0597C16.2737 13.5846 15.7321 13.9846 15.1127 14.2129V9.82159C15.1137 9.71526 15.0863 9.61059 15.0333 9.51838C14.9804 9.42617 14.9038 9.34975 14.8115 9.297ZM16.3639 6.96C16.3366 6.94286 16.2888 6.91412 16.2546 6.89466L12.5635 4.76295C12.4714 4.70939 12.3669 4.68117 12.2604 4.68117C12.1539 4.68117 12.0493 4.70939 11.9573 4.76295L7.45153 7.36456V5.56281C7.45101 5.55363 7.45276 5.54447 7.45665 5.53614C7.46053 5.52781 7.46641 5.52057 7.47378 5.51508L11.2043 3.36251C11.7759 3.03276 12.4296 2.87262 13.0889 2.90085C13.7482 2.92908 14.3859 3.14451 14.9272 3.52192C15.4686 3.89933 15.8912 4.42311 16.1457 5.03198C16.4003 5.64085 16.4756 6.30961 16.3639 6.96ZM6.60348 10.171L5.04317 9.27012C5.03504 9.26602 5.02804 9.25999 5.02279 9.25256C5.01754 9.24513 5.01419 9.23652 5.01304 9.22749V4.9182C5.01359 4.25829 5.20208 3.61218 5.55644 3.05549C5.9108 2.49879 6.41638 2.05454 7.01402 1.7747C7.61166 1.49487 8.27663 1.39103 8.93114 1.47534C9.58564 1.55965 10.2026 1.82862 10.7098 2.25078C10.6729 2.27077 10.6365 2.29148 10.6004 2.31288L6.90934 4.44459C6.81699 4.49747 6.7403 4.57387 6.68706 4.66601C6.63383 4.75816 6.60595 4.86276 6.60626 4.96917L6.60348 10.171ZM7.45107 8.34376L9.45765 7.18476L11.4652 8.34329V10.6604L9.45812 11.8189L7.45107 10.6604V8.34376Z" fill="currentColor"/>
</g>
<defs>
<clipPath id="clip0_1923_59915">
<rect width="19" height="19" fill="white"/>
</clipPath>
</defs>
</svg>
