<svg width="18" height="18" viewBox="0 0 18 18" fill="none" xmlns="http://www.w3.org/2000/svg">
<g clip-path="url(#clip0_1923_59904)">
<path d="M0.0836016 7.69912C0.04073 7.99966 0.0128283 8.30214 0 8.60545H13.6722C13.6245 8.51218 13.5604 8.42809 13.4957 8.34579C11.1583 5.32602 9.90098 5.58785 8.10237 5.51114C7.50271 5.48648 7.09604 5.47656 4.70914 5.47656C3.43162 5.47656 2.04275 5.47981 0.690293 5.48342C0.515215 5.95599 0.346359 6.41404 0.264147 6.78666H7.27028V7.69912H0.0836016ZM13.78 9.51883H0.00701367C0.0214277 9.7623 0.0441387 10.0025 0.0769394 10.2395H12.7928C13.3596 10.2395 13.677 9.91789 13.78 9.51883ZM0.791314 12.7288C0.791314 12.7288 2.89935 17.9049 8.99051 17.9968C12.6311 17.9968 15.7593 15.8346 17.1803 12.7288H0.791314Z" fill="currentColor"/>
<path d="M8.9939 0C5.62767 0 2.69842 1.84852 1.15152 4.58107C2.36039 4.57854 4.71468 4.5771 4.71468 4.5771H4.71522V4.5762C7.498 4.5762 7.60143 4.58863 8.14503 4.61132L8.48164 4.62373C9.6541 4.66283 11.0952 4.78869 12.2291 5.6466C12.8446 6.11191 13.7333 7.13892 14.263 7.87059C14.7528 8.54733 14.8937 9.32528 14.5607 10.0706C14.2542 10.7556 13.5947 11.1643 12.7962 11.1643H0.296875C0.296875 11.1643 0.371283 11.4797 0.482852 11.8278H17.5447C17.8477 10.9171 18.0026 9.96365 18.0035 9.00383C18.0037 4.03163 13.9699 0 8.9939 0Z" fill="currentColor"/>
</g>
<defs>
<clipPath id="clip0_1923_59904">
<rect width="18" height="18" fill="white"/>
</clipPath>
</defs>
</svg>
