<svg width="19" height="15" viewBox="0 0 19 15" fill="none" xmlns="http://www.w3.org/2000/svg">
<g clip-path="url(#clip0_1923_59925)">
<path fill-rule="evenodd" clip-rule="evenodd" d="M12.2022 1.88674L13.9116 0.0703125H0.03125V1.88674H12.2022Z" fill="currentColor"/>
<path d="M12.0742 7.26424L18.7051 0.281325L16.2884 0.28125L10.7218 6.09115L12.0742 7.26424ZM17.2054 9.90952C17.2054 11.6927 15.7931 13.1384 14.0509 13.1384C12.6437 13.1384 11.4506 12.1949 11.0446 10.891L10.796 10.0927L9.375 11.5471L9.50483 11.8631C10.2503 13.6786 12.0044 14.9549 14.0509 14.9549C16.7734 14.9549 18.9803 12.696 18.9803 9.90952C18.9803 8.06421 17.9964 6.46645 16.5646 5.58839L16.2287 5.38238L14.9276 6.73125L15.5212 7.05198C16.5239 7.59379 17.2054 8.67055 17.2054 9.90952Z" fill="currentColor"/>
<path fill-rule="evenodd" clip-rule="evenodd" d="M6.50122 14.5196V3.4375H4.72656V14.5196H6.50122Z" fill="currentColor"/>
</g>
<defs>
<clipPath id="clip0_1923_59925">
<rect width="19" height="15" fill="white"/>
</clipPath>
</defs>
</svg>
