<svg width="19" height="17" viewBox="0 0 19 17" fill="none" xmlns="http://www.w3.org/2000/svg">
<path d="M0 14.8818H1.4074V16.37H0V14.8818Z" fill="#E52EB9"/>
<path d="M1.40725 13.3936H2.81465V14.8818H1.40725V13.3936Z" fill="#E52EB9"/>
<path d="M1.40725 14.8818H2.81465V16.37H1.40725V14.8818Z" fill="#E52EB9"/>
<path d="M2.81492 10.4172H4.22232V11.9053H2.81492V10.4172Z" fill="#E52EB9"/>
<path d="M2.81492 14.8818H4.22232V16.37H2.81492V14.8818Z" fill="#E52EB9"/>
<path d="M4.22217 14.8818H5.62957V16.37H4.22217V14.8818Z" fill="#E52EB9"/>
<path d="M5.62943 5.95302H7.03682V7.44118H5.62943V5.95302Z" fill="#E52EB9"/>
<path d="M7.03709 2.97656H8.44449V4.46472H7.03709V2.97656Z" fill="#E52EB9"/>
<path d="M9.85201 1.48834H11.2594V2.9765H9.85201V1.48834Z" fill="#E52EB9"/>
<path d="M9.85201 2.9765H11.2594V4.46472H9.85201V2.9765Z" fill="#E52EB9"/>
<path d="M11.2586 5.95302H12.666V7.44118H11.2586V5.95302Z" fill="#E52EB9"/>
<path d="M14.0736 10.4172H15.481V11.9053H14.0736V10.4172Z" fill="#E52EB9"/>
<path d="M14.0736 14.8818H15.481V16.37H14.0736V14.8818Z" fill="#E52EB9"/>
<path d="M15.4808 13.3936H16.8882V14.8818H15.4808V13.3936Z" fill="#E52EB9"/>
<path d="M15.4808 14.8818H16.8882V16.37H15.4808V14.8818Z" fill="#E52EB9"/>
<path d="M16.8885 14.8818H18.2959V16.37H16.8885V14.8818Z" fill="#E52EB9"/>
<path d="M12.6665 14.8818H14.0739V16.37H12.6665V14.8818Z" fill="#E52EB9"/>
<path d="M4.22217 7.44125H5.62957V8.92941H4.22217V7.44125Z" fill="#E52EB9"/>
<path d="M4.22217 8.92882H5.62957V10.417H4.22217V8.92882Z" fill="#E52EB9"/>
<path d="M5.63004 4.46479H7.03744V5.95295H5.63004V4.46479Z" fill="#E52EB9"/>
<path d="M7.03709 1.48823H8.44449V2.97639H7.03709V1.48823Z" fill="#E52EB9"/>
<path d="M8.44496 5.95302H9.85236V7.44118H8.44496V5.95302Z" fill="#E52EB9"/>
<path d="M8.44496 7.44118H9.85236V8.92941H8.44496V7.44118Z" fill="#E52EB9"/>
<path d="M8.44496 8.92915H9.85236V10.4173H8.44496V8.92915Z" fill="#E52EB9"/>
<path d="M8.44496 11.9054H9.85236V13.3935H8.44496V11.9054Z" fill="#E52EB9"/>
<path d="M11.2593 4.46479H12.6667V5.95295H11.2593V4.46479Z" fill="#E52EB9"/>
<path d="M12.6671 7.44125H14.0745V8.92941H12.6671V7.44125Z" fill="#E52EB9"/>
<path d="M12.6671 8.92915H14.0745V10.4173H12.6671V8.92915Z" fill="#E52EB9"/>
<path d="M7.03709 14.8818H8.44449V16.37H7.03709V14.8818Z" fill="#E52EB9"/>
<path d="M8.44496 0H9.85236V1.48816H8.44496V0Z" fill="#E52EB9"/>
<path d="M8.44496 14.8818H9.85236V16.37H8.44496V14.8818Z" fill="#E52EB9"/>
<path d="M9.85201 14.8818H11.2594V16.37H9.85201V14.8818Z" fill="#E52EB9"/>
<path d="M11.2593 14.8818H12.6667V16.37H11.2593V14.8818Z" fill="#E52EB9"/>
<path d="M14.0742 11.9054H15.4816V13.3935H14.0742V11.9054Z" fill="#E52EB9"/>
<path d="M7.03709 14.8818H5.62969V16.37H7.03709V14.8818Z" fill="#E52EB9"/>
<path d="M4.22217 11.9054H2.81478V13.3935H4.22217V11.9054Z" fill="#E52EB9"/>
</svg>
