<svg width="30" height="30" viewBox="0 0 30 30" fill="none" xmlns="http://www.w3.org/2000/svg">
<g clip-path="url(#clip0_5622_2617)">
<path d="M17.5607 0.874395C20.1539 0.00663099 22.641 -0.211731 24.7365 0.337496L24.7671 0.345645L24.7852 0.349973L24.8044 0.355643C25.3905 0.514562 25.9295 0.729948 26.4202 0.997083L26.4404 1.00734L26.4565 1.01696C27.1563 1.4035 27.7563 1.8962 28.2522 2.48118L28.2729 2.50382L28.2991 2.53701C28.3604 2.61095 28.4199 2.68636 28.4779 2.76316L28.4807 2.76584L28.4822 2.76765L28.4944 2.78508C28.6347 2.97261 28.7652 3.16852 28.8859 3.37235L28.8966 3.3864H28.8943C28.9303 3.44754 28.9655 3.50943 28.9997 3.57198L29.0031 3.57836C29.0036 3.57938 29.0042 3.5804 29.0047 3.58139L29.0151 3.59913C29.0235 3.61462 29.0312 3.63018 29.0395 3.64573L29.0461 3.65796C29.0832 3.72797 29.1189 3.79885 29.1538 3.87057L29.1666 3.89631L29.1689 3.90201C29.2023 3.97145 29.2345 4.04167 29.2657 4.11266L29.2708 4.12262L29.276 4.13586C29.3705 4.35255 29.4555 4.57636 29.5308 4.80695C29.5374 4.82703 29.5439 4.84717 29.5503 4.86734L29.5514 4.86839L29.5524 4.8719L29.556 4.88547C29.6258 5.10686 29.6868 5.33439 29.739 5.56768L29.7418 5.57625L29.7424 5.57793L29.7607 5.66469L29.763 5.67812C29.7796 5.75724 29.7951 5.83705 29.8097 5.91746L29.8125 5.93002H29.8154V5.94857C29.8597 6.19774 29.8943 6.45302 29.9191 6.71403L29.9194 6.71592C29.944 6.97522 29.9589 7.24154 29.964 7.51187L29.9646 7.51723L29.9647 7.51891L29.966 7.5321L29.9647 7.54816C29.9665 7.66711 29.9666 7.78711 29.9647 7.90807V7.93124L29.9646 7.94403C29.9594 8.21754 29.944 8.49614 29.9195 8.77942V8.7858C29.8839 9.19172 29.8279 9.60734 29.7519 10.0316L29.7427 10.087L29.7303 10.1501C29.5573 11.0746 29.2879 12.0394 28.9192 13.0345L28.9049 13.0762L28.8951 13.1042L28.8821 13.0817C28.8799 13.0798 28.8784 13.0772 28.8778 13.0744L28.6132 12.617L28.3418 12.1557L28.0605 11.7047L28.0532 11.6932L27.7647 11.2493L27.7627 11.2464L27.4595 10.7938L27.2786 10.5361L27.1475 10.3462L27.1436 10.3408L26.8217 9.90275L26.6316 9.64936L26.4912 9.4592L26.4878 9.45455L26.4887 9.44925C26.4887 9.4494 26.4887 9.44913 26.4887 9.44925L26.5293 9.21V9.20131L26.5611 8.97401L26.5861 8.7858L26.5885 8.76959L26.5897 8.76317L26.5928 8.74735L26.6153 8.52198L26.6289 8.30074L26.6424 8.08846L26.6469 7.87582L26.647 7.87393V7.86252L26.6515 7.67283L26.6473 7.5321L26.647 7.51987V7.47392L26.6379 7.27936L26.6254 7.12933L26.6243 7.11692V7.09402L26.6063 6.90953L26.5838 6.73771L26.5567 6.56613L26.5333 6.42165L26.5296 6.3992L26.5118 6.33653L26.4934 6.24027L26.4574 6.09213L26.4569 6.0903L26.4197 5.96622H26.4163V5.95477L26.4161 5.95267V5.94563L26.3716 5.80759L26.3264 5.67183L26.2905 5.58674L26.2768 5.54577L26.2228 5.4243L26.1694 5.30874L26.1686 5.307L26.1674 5.30457L26.11 5.19419L26.0514 5.08621L25.9885 4.98269L25.9208 4.88337L25.8532 4.78876L25.7132 4.6081L25.5598 4.44575L25.4473 4.34233L25.3305 4.23893L25.2041 4.13964L25.087 4.05884L25.0736 4.04958L24.9699 3.98271L24.9337 3.95934L24.8483 3.91441L24.7845 3.87803L24.6269 3.79699L24.4605 3.725L24.2843 3.65724L24.1447 3.61672L24.0952 3.59871L23.8961 3.5444L23.6886 3.49477L23.4675 3.44967L23.4518 3.44721L23.237 3.41349L22.993 3.38637L22.736 3.3683L22.47 3.35931H22.1908L21.9041 3.36377L21.6059 3.38637L21.4591 3.39935L21.2982 3.41358L20.9867 3.44964L20.6611 3.49936L20.3309 3.56274L19.9918 3.63509L19.9903 3.63542L19.6459 3.71589L19.6436 3.71649L19.2909 3.81141L18.9338 3.91528L18.9206 3.91951L18.5677 4.03285L18.2011 4.16412L17.9207 4.27262L17.8338 4.3057L17.8258 4.30882L17.4505 4.46248L17.071 4.62509L16.6858 4.80183L16.306 4.98947L16.3018 4.99169L16.2989 4.99318L15.9126 5.1906L15.5234 5.39886L15.1343 5.61599L14.7454 5.84661L14.474 6.01399L14.3516 6.08652L14.2488 6.15219L13.9628 6.33518L13.8863 6.38913L13.5785 6.5928L13.571 6.59805L13.3205 6.77388L13.1891 6.86445L12.8046 7.14036L12.4391 7.41449L12.4247 7.42531L12.2437 7.56548L12.0447 7.71938L11.7623 7.94853L11.7341 7.9714L11.7326 7.97262L11.669 8.02258L11.2984 8.33433L10.932 8.65549L10.5717 8.98426L10.57 8.98585L10.2124 9.31621L9.86419 9.65994L9.85969 9.66437L9.51575 10.0084L9.18117 10.3609L9.01373 10.542L8.84952 10.7151L8.84619 10.7186L8.52515 11.0847L8.20879 11.4508L8.20522 11.4562L7.89623 11.8268L7.84205 11.8945L7.59312 12.2023L7.48016 12.3513L7.32021 12.5605L7.30364 12.5822L7.01865 12.962L6.74272 13.3466L6.47571 13.7313L6.218 14.12L5.9777 14.4957L5.96913 14.5091L5.96679 14.5129L5.73503 14.8962L5.7339 14.8981L5.59813 15.1289L5.50307 15.2874L5.5022 15.2889L5.33583 15.5947L5.28614 15.6759L5.28237 15.6833L5.08708 16.0606L5.08606 16.0625L5.08451 16.064L5.08169 16.0668L4.88811 16.4538L4.85649 16.5218L4.70715 16.8384L4.53614 17.2208L4.44024 17.4446L4.37245 17.6027L4.22868 17.9755L4.22784 17.9778L4.0883 18.3468L4.08833 18.3534L4.08836 18.3671H4.08432L3.96075 18.7201L3.93375 18.8099L3.84776 19.0817L3.79807 19.2578L3.74371 19.4392L3.68044 19.6831L3.65335 19.7871L3.58484 20.0824L3.58097 20.0992L3.57189 20.1354L3.5041 20.4698L3.44535 20.7995L3.44505 20.8018L3.40016 21.1207L3.39935 21.1279L3.37753 21.3285L3.36426 21.4302L3.36399 21.4323L3.34157 21.7329L3.34151 21.7343L3.34157 21.7479L3.32335 22.0293L3.32329 22.0737L3.32335 22.119V22.1326L3.31879 22.3139L3.32335 22.5034V22.5852L3.33686 22.8461L3.34001 22.8748L3.34139 22.8868L3.35946 23.0996L3.38206 23.2576L3.3909 23.3374L3.39114 23.3392L3.43163 23.5691L3.47682 23.7904L3.52507 23.9922L3.52666 23.9985L3.58504 24.1918L3.63168 24.3231L3.63435 24.3307L3.63485 24.3321L3.6472 24.3734L3.64843 24.3774L3.71619 24.549L3.79271 24.7109L3.86928 24.8686L3.95056 25.0041L3.95248 25.0073V25.0159L3.98332 25.0622L4.04044 25.1479L4.13538 25.279L4.23405 25.4001L4.33795 25.5131L4.44602 25.6257L4.45112 25.6303L4.55766 25.7284L4.55871 25.7293L4.67607 25.8286L4.8021 25.9232L4.91601 25.9977L4.92024 26.0004L4.93148 26.0089L4.93753 26.0134L5.08139 26.0989L5.11999 26.1193L5.2349 26.1802L5.39302 26.257L5.56343 26.3286L5.69961 26.3798L5.74481 26.3967L5.91872 26.4506L5.93395 26.4552L6.1375 26.5096L6.34939 26.5546L6.57512 26.5952L6.66893 26.6087L6.67043 26.6088L6.81072 26.6314L7.01383 26.6499L7.05836 26.6539L7.18304 26.6627L7.31595 26.672L7.5873 26.681L7.86746 26.6765L8.16108 26.663L8.45946 26.6449L8.771 26.6133L9.08751 26.5681L9.41191 26.5141L9.41898 26.5127L9.42384 26.5164L9.43157 26.5222L9.44191 26.53L9.49265 26.568L9.4954 26.57L9.49651 26.5708L9.50131 26.5749L9.61049 26.6573L9.61891 26.663L9.62182 26.6649L9.62299 26.6657L9.63734 26.6765H9.64648V26.6835L9.67343 26.7037H9.67196L9.8644 26.849L9.86727 26.8512L9.87249 26.855L10.3106 27.1724L10.4799 27.2921L10.6997 27.4438L10.7585 27.489L11.0752 27.6971L11.2109 27.7921L11.2285 27.8034L11.668 28.0863L11.6766 28.0916L11.7991 28.1677L12.1247 28.3711L12.1273 28.3726L12.5862 28.6426L12.5967 28.6486L12.6305 28.668L13.0403 28.9053C13.0441 28.9045 13.048 28.9056 13.051 28.9078H13.1194L13.0732 28.9242L13.0457 28.9342L12.9189 28.9794L12.9168 28.9802L12.8466 29.0048C12.7471 29.0408 12.6479 29.0757 12.549 29.1096L12.4573 29.1424L12.4551 29.1431L12.122 29.2512L11.9999 29.2917L11.7539 29.3649H11.767L11.6643 29.3916L11.5852 29.4121C11.4673 29.4455 11.3499 29.4773 11.2331 29.5079L11.2116 29.5137L11.1843 29.5205C11.1039 29.5413 11.0237 29.5614 10.9438 29.5807L10.8657 29.6003H10.8792L10.7598 29.6267L10.7583 29.6271L10.6789 29.6447L10.6362 29.6542L10.3146 29.7222L10.2097 29.741C10.1251 29.7573 10.0407 29.773 9.95673 29.7877L9.87075 29.8038L9.82714 29.8099C9.71775 29.8281 9.60893 29.845 9.50071 29.8605L9.43139 29.8717L9.37711 29.8777C9.29964 29.888 9.2225 29.8978 9.14565 29.9068L9.00105 29.926L8.99275 29.9266L8.90362 29.933C8.81688 29.9416 8.73057 29.9492 8.64468 29.956L8.57494 29.9624L8.43893 29.9714L8.35651 29.9753C8.29549 29.9787 8.23471 29.9817 8.17415 29.9842L8.15793 29.985H8.15446L8.15245 29.9851C8.02076 29.9901 7.89021 29.9931 7.76086 29.9937L7.75475 29.994H7.73347C7.62114 29.9943 7.50974 29.9931 7.39921 29.9901L7.33786 29.9895L7.29524 29.9868C7.22937 29.9846 7.1638 29.9817 7.09858 29.9782L6.93923 29.9714L6.85361 29.9624L6.80386 29.9579C6.75851 29.9542 6.71332 29.9501 6.66833 29.9458L6.55031 29.9351L6.45866 29.926L6.16543 29.8854L6.16379 29.8853L6.07442 29.8718L6.07286 29.8715L5.79228 29.8219L5.70147 29.8038L5.42523 29.7448L5.33868 29.7221L5.07165 29.6541L5.04027 29.6447L4.98057 29.6269L4.97907 29.6263L4.89189 29.6003H4.89647L4.72454 29.546L4.72151 29.545L4.64392 29.5148C4.59468 29.4978 4.54576 29.4802 4.49715 29.4622L4.3892 29.4237L4.38659 29.4229L4.30513 29.3912L4.06052 29.2915L3.98299 29.2505L3.74766 29.142L3.68497 29.1052C3.64582 29.0849 3.60695 29.0644 3.56832 29.0434L3.44383 28.9787L3.36626 28.9331L3.14889 28.8018L3.03593 28.723C3.0003 28.6991 2.96491 28.6751 2.92982 28.6507L2.86798 28.6115L2.59993 28.4072L2.58195 28.3936L2.47467 28.3026C2.45539 28.2864 2.43622 28.2701 2.41715 28.2537L2.34145 28.1896L2.30844 28.1583C2.26112 28.1157 2.21442 28.0725 2.16839 28.0285L2.09663 27.9629L2.03027 27.8922C1.93989 27.8004 1.8522 27.7057 1.76729 27.608L1.67925 27.5093L1.64258 27.4635L1.43875 27.2009L1.43738 27.1986L1.433 27.19L1.41675 27.1667C1.37517 27.1094 1.33443 27.0512 1.29454 26.9923L1.24783 26.9254L1.24401 26.92L1.21171 26.8694L1.20872 26.8647L1.19847 26.8486L1.10753 26.7018L1.10618 26.6992L1.1024 26.6916L1.09888 26.6845C1.09599 26.6798 1.09305 26.6749 1.09018 26.6701L1.07678 26.6534L1.07552 26.6519L1.07476 26.6499L1.06733 26.6313C1.06552 26.6283 1.06371 26.6252 1.06191 26.622L1.058 26.6162L1.04494 26.5928C1.03918 26.5828 1.03343 26.5727 1.02771 26.5628L1.00784 26.5297L0.99751 26.5091C0.98602 26.4886 0.974577 26.4679 0.963273 26.447L0.944538 26.4167L0.91173 26.3552L0.909042 26.3501L0.907951 26.3481L0.902488 26.3372L0.898666 26.3297L0.871612 26.2754L0.870941 26.274L0.861785 26.2556L0.852123 26.2341C0.835148 26.2001 0.818419 26.1659 0.801923 26.1316L0.798354 26.1243L0.795411 26.1185L0.794613 26.1168L0.784783 26.0972L0.754118 26.0315L0.745675 26.0188L0.744752 26.0173L0.731688 25.9977H0.736684L0.712825 25.9397L0.683335 25.8709C0.679169 25.8613 0.674949 25.8516 0.670819 25.8419L0.626709 25.7449L0.608646 25.6951L0.589534 25.6491L0.585752 25.6403L0.578233 25.622L0.545047 25.5271L0.540132 25.5134C0.527185 25.4785 0.514412 25.4434 0.501905 25.4081L0.481951 25.3603L0.458931 25.2914L0.4181 25.16L0.372986 25.0244L0.37227 25.0223V25.0128L0.358199 24.9601C0.34164 24.9028 0.325591 24.8449 0.310142 24.7866L0.291322 24.7206L0.282164 24.6839L0.272755 24.64C0.252003 24.5557 0.232465 24.4706 0.214154 24.3849L0.200837 24.3405L0.20046 24.3389L0.185001 24.2432C0.169219 24.163 0.154501 24.0822 0.140809 24.0009L0.13728 23.9869L0.13308 23.9702H0.134802L0.128333 23.9248C0.117983 23.8601 0.108265 23.7952 0.0992218 23.7298L0.0827547 23.6282L0.078092 23.5731L0.0748573 23.5403C0.0582387 23.3998 0.0445999 23.2579 0.033858 23.1146L0.0328079 23.1019L0.0321776 23.092C0.0276456 23.0298 0.0236374 22.9673 0.0202056 22.9047L0.0192394 22.8892L0.0191975 22.8852C0.0126281 22.761 0.00825192 22.6358 0.00596505 22.5098L0.005629 22.5045V22.494C-0.00250757 22.0072 0.0210958 21.5076 0.0754034 20.9977L0.0826289 20.9185L0.0892657 20.8736C0.10264 20.7581 0.11757 20.6422 0.134046 20.5258L0.134256 20.524C0.152966 20.3919 0.173717 20.2593 0.196386 20.1261L0.200375 20.0943L0.226925 19.9531C0.237198 19.8967 0.247881 19.8402 0.25885 19.7837L0.259311 19.7811C0.322016 19.4581 0.396129 19.1316 0.481238 18.803C0.595666 18.3613 0.73025 17.9141 0.884089 17.4649L0.887871 17.4529L0.893583 17.4346L0.896398 17.4258L0.91001 17.3897C1.00799 17.1074 1.1136 16.8238 1.2267 16.5395L1.23767 16.5111L1.24002 16.506C1.26143 16.4523 1.28306 16.3987 1.30501 16.3451C2.54785 13.3079 4.63933 10.1882 7.3972 7.43065L7.52673 7.30187C7.57289 7.25625 7.61922 7.21082 7.66558 7.16556H7.66271L7.68282 7.14878C9.18962 5.68022 10.7982 4.40895 12.4379 3.3638H12.4044L12.4738 3.34088C12.6214 3.24713 12.7693 3.15527 12.9174 3.06521L12.9233 3.06156C13.076 2.96872 13.229 2.87789 13.382 2.78903L13.3833 2.78822C14.3586 2.22202 15.34 1.73675 16.313 1.33862C16.7306 1.1677 17.1471 1.01277 17.5607 0.874395ZM20.1469 5.26019C20.1512 5.2559 20.1576 5.25488 20.1628 5.25758L20.1651 5.25908L20.2965 5.36595C25.8475 9.90473 29.6398 16.2805 29.9496 21.6169L29.9563 21.7426C29.9907 22.4625 29.9601 23.1444 29.8681 23.7846L29.8671 23.7918C29.8147 24.1543 29.7427 24.5033 29.6517 24.8381L29.656 24.839L29.6472 24.8569L29.6464 24.8588L29.6454 24.8606C29.486 25.4401 29.2695 25.9773 28.9993 26.4686L28.9949 26.4784L28.9942 26.4797L28.9934 26.481L28.9896 26.4859C28.9608 26.5379 28.9314 26.5895 28.9014 26.6404L28.8906 26.66L28.8874 26.6677L28.8824 26.6737L28.8806 26.6765H28.8881L28.8671 26.6979C28.8291 26.7612 28.79 26.8236 28.7501 26.8851L28.7315 26.9147L28.6317 27.0643L28.6001 27.1064C28.5579 27.1659 28.5148 27.2246 28.4708 27.2823L28.4323 27.3362L28.3574 27.4275C28.3213 27.4723 28.2845 27.5164 28.2472 27.5601L28.2145 27.5995L28.1963 27.6191C28.1401 27.6833 28.0827 27.7464 28.024 27.8083L27.9878 27.8488L27.8739 27.9626L27.7472 28.0849L27.6865 28.1387C27.5891 28.2272 27.4888 28.3128 27.3857 28.3955L27.3662 28.4114L27.2302 28.5202L27.1007 28.6109C27.023 28.6663 26.9439 28.7201 26.8632 28.7724L26.813 28.8059L26.6634 28.9011L26.5179 28.9831L26.4536 29.0178C26.4248 29.0337 26.3958 29.0495 26.3667 29.065L26.3592 29.0691L26.3547 29.0714C26.2994 29.1007 26.2435 29.1294 26.1871 29.1575L26.0465 29.2278L25.8921 29.2958L25.7245 29.3684L25.561 29.4319L25.5447 29.4378C25.4941 29.4572 25.4432 29.4758 25.392 29.4941L25.3888 29.4953L25.3858 29.4963C25.2872 29.5314 25.1871 29.5646 25.0857 29.5961L25.0491 29.6086L24.9788 29.6284C24.9179 29.6463 24.8566 29.6636 24.7947 29.6802L24.6953 29.7084L24.619 29.7254C24.5543 29.7414 24.489 29.7568 24.4233 29.7712L24.3282 29.7945L24.2677 29.8048L24.2443 29.8088C24.1639 29.8249 24.0827 29.8398 24.0008 29.8539L23.9564 29.8626L23.9549 29.8629L23.8944 29.8714C23.8014 29.8861 23.7074 29.8996 23.6124 29.9117L23.5755 29.9169L23.574 29.917L23.509 29.9243C23.4769 29.9281 23.4446 29.9316 23.4122 29.9351L23.3714 29.9396L23.1856 29.9577L23.1236 29.9616C23.0476 29.9675 22.9712 29.9726 22.8943 29.9768L22.787 29.985H22.7839L22.6659 29.9871C22.586 29.9898 22.5056 29.9916 22.4247 29.9925L22.3792 29.994L22.3255 29.9934C22.2187 29.9937 22.1109 29.9925 22.0022 29.9898L21.9667 29.9895L21.814 29.985H21.8123L21.5468 29.9715H21.5455L21.4249 29.9621C21.3887 29.9595 21.3524 29.9568 21.316 29.9539L21.1195 29.9396L20.9824 29.923C20.911 29.9154 20.8397 29.9074 20.7682 29.8986L20.689 29.8898L20.5774 29.8743C20.5601 29.872 20.5428 29.8694 20.5255 29.867L20.494 29.8627L20.4852 29.8614C20.4246 29.8528 20.3639 29.8438 20.303 29.8344L20.2509 29.8266L20.2493 29.8265L20.0501 29.7948L19.8054 29.7494L19.6989 29.7276C19.6411 29.7162 19.5831 29.7045 19.5251 29.6924L19.3571 29.6588L19.2191 29.6251C19.1307 29.6048 19.042 29.5837 18.9533 29.5618L18.904 29.5501L18.8287 29.5305C18.7757 29.5168 18.7225 29.5031 18.6694 29.4889L18.451 29.4324L18.238 29.3689L17.9891 29.2965L17.7781 29.2293L17.7759 29.2286L17.7688 29.2263L17.6931 29.202H17.6948L17.527 29.147L17.4152 29.1066C17.3464 29.0829 17.2775 29.0588 17.2086 29.0342L17.0606 28.984L16.8475 28.9023L16.594 28.8074L16.4038 28.7282C16.3759 28.7169 16.348 28.7056 16.32 28.6942L16.1274 28.6172L15.91 28.522L15.6565 28.4133L15.5188 28.3474C15.4614 28.3213 15.4042 28.2947 15.3468 28.268L15.1855 28.196L14.9677 28.0872L14.7145 27.9651L14.4968 27.8518L14.2434 27.7205L14.026 27.6027L13.7799 27.4686L13.7767 27.4668L13.7749 27.4657L13.7302 27.4415H13.7323L13.5581 27.3418L13.5548 27.3401L13.5518 27.3383L13.5106 27.3147L13.3059 27.1952L13.0918 27.0703L13.0885 27.0684L13.0861 27.067L13.0453 27.0432L12.8393 26.9189L12.6254 26.7852L12.622 26.7831L12.6104 26.7758L12.582 26.7581L12.4998 26.7062L12.4986 26.7054L12.4975 26.7043L12.4942 26.701L12.4888 26.6977L12.4729 26.6882L12.44 26.6677L12.4364 26.6655L12.3866 26.6338L12.3796 26.629L12.3728 26.6245L12.3184 26.5883L12.2417 26.5386L12.2381 26.5362L12.2032 26.5136L12.18 26.4974C12.1618 26.4856 12.1437 26.4736 12.1255 26.4618L12.0336 26.4029L11.9111 26.3212L11.9054 26.3158L11.8454 26.2752C11.8108 26.2519 11.7763 26.2287 11.7418 26.2051L11.6158 26.1198L11.6122 26.1175L11.6072 26.1141L11.5757 26.0927L11.4538 26.0089L11.4438 26.0022L11.44 25.9996L11.4031 25.9751H11.4061L11.3008 25.8987C11.2142 25.8374 11.1278 25.7755 11.0416 25.713L10.9968 25.6831L10.856 25.5786L10.6386 25.4157L10.5438 25.3479L10.412 25.2435L10.1769 25.0625L10.1366 25.0294C10.0731 24.9796 10.0096 24.9293 9.94627 24.8788L9.93231 24.8678L9.67873 24.6641L9.6561 24.646L9.62592 24.6219L9.42057 24.4513L9.21683 24.2791L9.15797 24.2294L9.02464 24.1119C8.97081 24.0653 8.91713 24.0185 8.86355 23.9714L8.78688 23.9082L8.63847 23.7718C8.60481 23.7417 8.57119 23.7114 8.53765 23.6812L8.36101 23.5231L8.33784 23.5L8.25599 23.4235C8.10989 23.2881 7.96474 23.1511 7.82074 23.0125L7.78139 22.9753L7.73032 22.9251C7.56533 22.7649 7.40182 22.6026 7.23983 22.4381L7.12463 22.3229L6.92547 22.1149L6.73489 21.9154L6.73079 21.9112L6.64031 21.8161L6.35529 21.504L6.34178 21.4904L6.21141 21.3424C6.14272 21.2656 6.07442 21.1884 6.00644 21.1108L5.96107 21.06L5.79348 20.8653L5.77816 20.8471C5.72796 20.7886 5.678 20.7296 5.62822 20.6707L5.58968 20.6252L5.57068 20.6029L5.51278 20.5347L5.24065 20.2046L5.23573 20.1986L5.22662 20.185L5.22321 20.1798L5.22483 20.1739L5.27913 19.9702L5.31084 19.8435L5.33347 19.7619L5.39694 19.5491L5.46363 19.34L5.46491 19.3359L5.46647 19.3311L5.52252 19.1591L5.5283 19.1412L5.53624 19.1174L5.53735 19.1141L5.60976 18.8968L5.69134 18.6702L5.78173 18.4443L5.78607 18.4272L5.78664 18.4253L5.87263 18.2171L5.93595 18.0588L5.96775 17.9861L6.06734 17.7552L6.0945 17.692L6.17616 17.5195L6.17691 17.5178L6.25795 17.3397L6.26679 17.32L6.2789 17.2959L6.28489 17.2839L6.2887 17.2764L6.45336 16.947L6.52028 16.8132L6.64717 16.573L6.65748 16.5535L6.67019 16.5715L6.6713 16.573L6.93596 16.9454L6.93716 16.947L7.20854 17.3178L7.36241 17.517L7.48969 17.6837L7.49371 17.689L7.78316 18.0553L8.08184 18.4219L8.38478 18.7835L8.56603 18.9884L8.67438 19.1094L8.6973 19.1367L9.01376 19.4894L9.33941 19.8376L9.46154 19.9642L9.66069 20.1679L9.66228 20.1699L9.67058 20.1824L10.0089 20.5161L10.1039 20.6067L10.3528 20.8465L10.3555 20.849L10.6985 21.1652L10.7011 21.1676L11.054 21.4843L11.0855 21.5081H11.0813L11.4112 21.7962L11.7696 22.0919L11.7732 22.0949L12.1399 22.389L12.5071 22.6711L12.511 22.6741L12.5136 22.6762L12.8814 22.9542L13.1032 23.1081L13.257 23.2212L13.6327 23.4791L14.0083 23.7325L14.3879 23.9721L14.768 24.2074L14.8582 24.2569L14.9044 24.2824H14.9009L15.1479 24.4289L15.4965 24.6235L15.5283 24.6417L15.9078 24.845L16.1658 24.9763L16.2819 25.0388L16.2837 25.0398L16.6588 25.2205L17.0297 25.3924L17.4004 25.5552L17.4046 25.5568L17.7705 25.704L18.1335 25.8447L18.2057 25.8709L18.4949 25.9757L18.8521 26.0933L19.2005 26.1973L19.5441 26.2922L19.5463 26.2928L19.5622 26.2969L19.8831 26.3781L20.2181 26.4506L20.5421 26.5136L20.8598 26.5635L21.1223 26.5997L21.1725 26.6088L21.47 26.6404L21.7642 26.663L21.7757 26.6636L22.049 26.6766L22.3221 26.6811H22.3241L22.5913 26.6765H22.5931L22.8437 26.663L23.0921 26.6404L23.3225 26.6088L23.448 26.5884L23.5436 26.5727L23.756 26.5277L23.955 26.4778L24.1488 26.4193L24.2899 26.3722L24.325 26.3605L24.496 26.2931L24.6589 26.2206L24.8118 26.1442L24.9562 26.0629L25.0912 25.9775L25.1592 25.9289L25.2179 25.8871L25.239 25.8701L25.2549 25.8573H25.2529L25.2854 25.8329L25.339 25.7929L25.4518 25.6935L25.5602 25.5898L25.664 25.4815L25.7632 25.3688L25.8577 25.2471L25.9479 25.1208L26.0332 24.9861L26.1147 24.8459L26.191 24.6934L26.2587 24.5354L26.3264 24.3638L26.3897 24.1828L26.4438 23.9936L26.4979 23.7953L26.5052 23.7573L26.5386 23.5828L26.5612 23.4474L26.5792 23.3569L26.6063 23.1222L26.6064 23.1209L26.6289 22.8784L26.6469 22.6255L26.6515 22.3637L26.647 22.0878L26.6379 21.8033L26.6164 21.5352L26.6153 21.5227V21.5136L26.6059 21.4231L26.5837 21.2111L26.5834 21.2093L26.5702 21.1208L26.5432 20.9054L26.543 20.9036L26.5423 20.8993L26.4887 20.5828L26.4255 20.2572L26.3533 19.9279L26.3397 19.8778L26.2672 19.588L26.2656 19.5819L26.173 19.2426L26.1721 19.2397L26.0684 18.8921L25.9688 18.5932L25.9508 18.5348L25.8229 18.1861L25.8193 18.1768L25.6838 17.8109L25.6343 17.6981L25.5352 17.4461L25.5345 17.4443L25.3718 17.0738L25.2 16.6984L25.0272 16.3441H25.0257L25.0227 16.3347L25.0184 16.322L24.8294 15.9482L24.7886 15.8803L24.6256 15.5678L24.5396 15.4185L24.4129 15.1878L24.4036 15.1723L24.1866 14.8123L24.1823 14.8052L24.0005 14.5111L23.9966 14.5046L23.9838 14.4839L23.956 14.4324L23.7124 14.0535L23.7089 14.0499L23.7073 14.0478L23.4584 13.6769L23.2006 13.3015L23.0784 13.1342L22.9306 12.928L22.929 12.9259L22.7436 12.6771L22.6531 12.5552L22.3636 12.1841L22.0735 11.8227L22.072 11.8209L22.0695 11.8177L21.771 11.4559L21.7701 11.4549L21.6666 11.3384L21.6622 11.3336L21.6608 11.3319L21.6424 11.3113L21.4648 11.1003L21.4632 11.0983L21.4617 11.0966L21.1467 10.7457L20.8751 10.4515L20.8249 10.3923L20.4951 10.0489L20.4637 10.0174L20.1604 9.70975L19.823 9.38125L19.8211 9.37945L19.5948 9.1622L19.4774 9.04936L19.1419 8.74969L19.1375 8.74567L19.124 8.73228L18.767 8.41591L18.765 8.41423L18.4098 8.11294L18.405 8.10902L18.0441 7.8151L18.043 7.81423L17.6769 7.52487L17.3057 7.24429L17.302 7.24148L16.9346 6.96824L16.6137 6.74679L16.5605 6.70684L16.5592 6.706L16.5413 6.69341L16.5606 6.68289L16.796 6.55618L17.0362 6.43384L17.1659 6.36899H17.1555L17.2176 6.34309L17.272 6.32044L17.5073 6.20742L17.7383 6.10318L17.9692 5.99907L18.1993 5.9043L18.4267 5.80882L18.6487 5.72277L18.799 5.66754H18.7875L18.8698 5.64144L19.0928 5.56417L19.3104 5.49617L19.5232 5.42829L19.7363 5.36931L19.9445 5.31045L20.1394 5.26061L20.1411 5.26019H20.1469ZM23.3231 16.5731L23.4499 16.8129L23.5721 17.0529L23.6855 17.2885L23.7931 17.5219L23.7959 17.5246L23.8194 17.5478H23.8075L23.9029 17.7549L24.0026 17.9861L24.102 18.2169L24.1893 18.4396H24.1907L24.193 18.4488L24.2788 18.6699L24.3604 18.8966L24.3617 18.9005L24.4374 19.1185L24.5099 19.3358L24.5235 19.3765L24.5762 19.5436L24.5777 19.5485L24.6367 19.7618L24.6548 19.8204L24.6957 19.9702L24.7434 20.17C24.7476 20.1738 24.7488 20.1795 24.7469 20.1845L24.7464 20.1859C24.746 20.1867 24.7454 20.1877 24.7449 20.1884C24.7422 20.1916 24.7396 20.195 24.7368 20.1983L24.6796 20.2717L24.5422 20.4362C24.2779 20.7562 24.0064 21.0713 23.7284 21.3813L23.6925 21.4219L23.6808 21.434C23.4631 21.6756 23.2415 21.9139 23.016 22.1486L22.9543 22.2143L22.9066 22.2619C22.4192 22.7645 21.9144 23.251 21.3946 23.7189L21.394 23.7206L21.3919 23.7223L21.3267 23.7801C21.2436 23.8544 21.1601 23.9284 21.0762 24.0018L21.039 24.0344L21.0153 24.0561H21.0193L20.9892 24.0796L20.9854 24.0832L20.9624 24.1008C20.874 24.1775 20.785 24.2537 20.6957 24.3294L20.6224 24.3923L20.5983 24.4116C20.4543 24.5324 20.3093 24.652 20.1634 24.7699L20.161 24.7722L20.1555 24.7771L20.1483 24.7752L20.1423 24.7736L19.9461 24.7214L19.9448 24.721L19.7365 24.6666L19.5236 24.6077L19.3104 24.5398L19.1654 24.4914L19.0931 24.4673L18.8713 24.3949L18.649 24.3132L18.4226 24.2271L18.1983 24.133L18.1959 24.1321L18.0762 24.0832L18.0736 24.0822L17.9702 24.0372L17.7412 23.9384L17.7385 23.9374L17.5029 23.8285L17.5011 23.8277L17.2837 23.7257L17.2802 23.7241L17.2724 23.7189L17.2664 23.7148L17.032 23.6022L16.7962 23.4798L16.5607 23.3575L16.5535 23.3539V23.3457V23.3411L16.5534 23.3341L16.5591 23.33L17 23.0152L17.026 22.9966L17.0344 22.9906L17.496 22.6477L17.5095 22.6376L17.5107 22.6368L17.9797 22.2715L18.4457 21.8913L18.9028 21.4978L19.3549 21.0954L19.459 20.9958L19.794 20.679L19.8656 20.6074L19.8859 20.5869L19.8888 20.5842L19.8928 20.5803L20.2148 20.2669L20.2283 20.2537L20.4866 19.9872L20.5088 19.9644L20.5126 19.9602L20.6536 19.815L20.7076 19.7563L20.9022 19.5438L21.0654 19.3715L21.4677 18.9195L21.4903 18.8924L21.6851 18.666L21.8578 18.4667L21.8747 18.4446L21.8785 18.4396L22.0604 18.2138L22.2414 17.9965L22.2498 17.9839L22.4315 17.7523L22.5952 17.5424L22.6079 17.526L22.9606 17.0512L23.3 16.5715L23.3129 16.5535L23.3231 16.5731ZM5.49896 0.27365C7.18337 -0.110858 9.1592 -0.0262807 11.2939 0.538571L11.3366 0.548779H11.3324C11.8603 0.689785 12.398 0.860042 12.9433 1.05988L13.0506 1.09954L13.053 1.10076C13.0552 1.10208 13.0568 1.10399 13.0579 1.10613L13.0734 1.11176L13.0549 1.12222C13.0534 1.12358 13.0516 1.12458 13.0497 1.12516L13.0478 1.12629L12.6642 1.34438L12.584 1.39003L12.1248 1.66462L11.8641 1.8231L11.5185 2.04009L11.3421 2.1533L11.1562 2.27272L10.9659 2.40028L10.7811 2.52424L10.4381 2.76336L10.4346 2.76694L10.4329 2.7684L10.177 2.94923L10.1295 2.98364L10.1197 2.99065L9.88537 3.16043L9.84018 3.19369L9.75872 3.25522H9.76061L9.72758 3.27917L9.72387 3.28238L9.70966 3.29224L9.63285 3.35026V3.35406L9.62544 3.35781L9.61777 3.36159L9.59724 3.37711L9.57998 3.39099H9.58714L9.55061 3.41535L9.54725 3.41817L9.5397 3.42266L9.5162 3.43834L9.44182 3.49447L9.42468 3.50973L9.41997 3.51389L9.41787 3.51359L9.41269 3.5162L9.409 3.51809L9.40493 3.51755L9.38392 3.51494L9.36869 3.51305L9.16501 3.47688L9.04942 3.46097L8.93428 3.44517L8.70345 3.41808L8.47822 3.39551L8.26136 3.37747L8.15526 3.37079L8.04336 3.3638L7.83566 3.35928H7.71794L7.6328 3.35478L7.59306 3.35919L7.43377 3.35928L7.2395 3.36827L7.04937 3.38197L6.86889 3.39992L6.69297 3.42246L6.52555 3.44964L6.36342 3.47664L6.22313 3.50865L6.20506 3.51281L6.05589 3.54902L5.91411 3.58882L5.91156 3.58954L5.84029 3.61025L5.77133 3.6303L5.6412 3.6751L5.51499 3.72467L5.39281 3.77904L5.27532 3.83325L5.16288 3.89167L5.0546 3.95032L4.95108 4.01337L4.85182 4.08108L4.7584 4.14773L4.6803 4.21016L4.57681 4.29299L4.41515 4.44563L4.26162 4.60813L4.11698 4.78894L4.04952 4.88337L3.9823 4.98177L3.95089 5.04033L3.92508 5.08309L3.92353 5.08582L3.86041 5.19401L3.80188 5.30658L3.78294 5.3507L3.7752 5.3688L3.77449 5.37036L3.7476 5.42406L3.69803 5.54571L3.64852 5.67183L3.63797 5.70341L3.635 5.71247L3.59868 5.80771L3.55816 5.94716L3.55606 5.95489L3.52654 6.06039L3.51746 6.09198L3.47682 6.24093L3.4485 6.38256L3.44583 6.39617L3.44529 6.39866L3.41449 6.56119L3.41362 6.56604L3.38655 6.73771L3.38425 6.76073L3.38215 6.78216L3.38092 6.79438L3.36393 6.90953L3.34594 7.09372L3.34597 7.15202L3.33686 7.27933L3.32787 7.47392L3.32335 7.67277V7.87585L3.32787 8.08846L3.34064 8.288L3.34145 8.30047L3.35706 8.4929L3.35949 8.52198L3.37762 8.70299L3.38185 8.74564L3.38212 8.74825L3.40921 8.97386L3.44535 9.20898L3.48608 9.44889L3.48704 9.45455L3.48363 9.45917L3.43385 9.52705L3.1527 9.89736L3.14877 9.9026L2.8274 10.3461L2.51562 10.7933L2.51243 10.7998L2.27088 11.1559L2.20879 11.2445L2.20754 11.2465L2.20397 11.2519L2.02212 11.5359L1.91366 11.6985L1.77784 11.9203L1.62863 12.1554L1.62725 12.1578L1.54272 12.3046L1.35869 12.6142L1.35714 12.6169L1.31647 12.6892L1.16256 12.9608L1.09698 13.0744C1.09639 13.0772 1.09494 13.0798 1.09278 13.0817L1.08039 13.1033L1.07018 13.0767L1.02494 12.959L0.929835 12.6874L0.902655 12.6149L0.798438 12.3022L0.769705 12.2074C0.756884 12.1673 0.744222 12.1274 0.73173 12.0874L0.676154 11.9174L0.612638 11.6952L0.567396 11.5322L0.485901 11.2425L0.463175 11.1516L0.377227 10.7896L0.372647 10.7715L0.282038 10.3501L0.281744 10.3487V10.3394L0.27893 10.3246C0.259422 10.2266 0.240989 10.1288 0.223606 10.0316L0.205165 9.93416L0.196133 9.89796L0.137071 9.52112L0.13287 9.45971C0.122834 9.387 0.11345 9.3145 0.104641 9.24231L0.100818 9.21302L0.0888039 9.12075L0.0871654 9.10858L0.0869976 9.10699L0.0852333 9.09359L0.0735971 8.97731L0.0522153 8.76317L0.0508711 8.75095L0.0476784 8.71798L0.0463762 8.70506L0.0450321 8.6908L0.0390671 8.55983C0.0337154 8.48295 0.0291028 8.40641 0.0252045 8.33023L0.0240283 8.31204L0 8.288H0.0189454L0.0147026 8.08924L0.0101658 7.91724V7.84738C0.00928394 7.76529 0.00929829 7.68365 0.0101658 7.60243V7.47299L0.0153748 7.36148C0.0173524 7.30055 0.019743 7.23986 0.022726 7.17944L0.0237342 7.15202L0.0236923 7.09318L0.0373448 6.90662L0.045368 6.79438L0.0462923 6.78129L0.0464182 6.77988L0.050955 6.73426L0.0690602 6.56218L0.0871235 6.41331V6.395L0.108463 6.27048C0.111915 6.24605 0.11546 6.22166 0.119091 6.19732L0.130685 6.10196L0.132533 6.08646L0.137028 6.05481L0.159796 5.9409L0.186934 5.8007L0.205038 5.70566L0.214113 5.66469L0.241291 5.53795L0.264815 5.43216L0.26847 5.41525L0.282123 5.36098L0.300354 5.29717L0.308502 5.26807C0.319588 5.22572 0.330914 5.18355 0.342614 5.1416L0.354878 5.09271L0.359206 5.07518L0.361642 5.06556L0.372857 5.02996L0.385546 4.98863L0.390375 4.97286L0.390923 4.97107L0.393863 4.96148L0.422679 4.87133L0.4323 4.84237C0.440398 4.81717 0.448666 4.79206 0.456998 4.767L0.472331 4.71338L0.513291 4.59497L0.576638 4.43209L0.58571 4.40502L0.612426 4.3425C0.635589 4.28466 0.65935 4.22721 0.683841 4.1703L0.698919 4.13319L0.707952 4.10628L0.708959 4.104L0.728661 4.0684C0.730672 4.0639 0.732734 4.05941 0.734754 4.05494L0.750548 4.01556H0.748573L0.758404 3.99593L0.761386 3.98841L0.789908 3.93293L0.817046 3.87413L0.835319 3.83451H0.832798L0.844771 3.8141L0.873881 3.76426C0.88037 3.7515 0.886858 3.7387 0.893416 3.72596L0.903246 3.70627L0.906983 3.69875L0.913831 3.68682C0.922394 3.67046 0.931022 3.65412 0.939707 3.63785L0.953023 3.61124L0.956805 3.60374L0.975665 3.57048L0.993812 3.53427L0.99478 3.53233L0.996294 3.53083L0.99965 3.52738L1.0015 3.52447C1.01275 3.50433 1.02412 3.48422 1.03557 3.4642L1.03901 3.45734L1.03986 3.45587L1.04317 3.45084C1.04859 3.4414 1.05417 3.43208 1.05964 3.42266L1.07119 3.40208L1.07455 3.39551L1.08182 3.38448L1.08333 3.382H1.08018L1.09346 3.36198L1.10194 3.34921L1.10295 3.34774L1.10698 3.33962L1.11001 3.33356V3.32766L1.11572 3.3276L1.14117 3.28238L1.15264 3.26179L1.15374 3.25993L1.15638 3.25522L1.1663 3.23919L1.3171 3.0108H1.31408L1.32903 2.99043L1.33244 2.98368L1.33407 2.98364L1.50647 2.74929L1.50778 2.74774L1.5121 2.74341L1.53008 2.72072C1.56765 2.67188 1.6059 2.62357 1.64485 2.57586L1.70138 2.50453L1.75977 2.43896C1.80037 2.39199 1.8417 2.34561 1.8837 2.2998L1.92365 2.25503L1.94982 2.22882C1.99044 2.18584 2.03168 2.14335 2.07357 2.10146C2.08893 2.08611 2.10437 2.07085 2.11986 2.05568L2.15486 2.01929L2.21026 1.96898C2.26391 1.91849 2.31839 1.86898 2.37368 1.82045H2.37153L2.39867 1.7979L2.42021 1.77987C2.48892 1.72076 2.55892 1.6632 2.63009 1.60707L2.65845 1.58376L2.69154 1.55918C2.93362 1.373 3.18944 1.20379 3.45809 1.05156L3.50203 1.02581L3.52972 1.01154C3.61675 0.963612 3.7051 0.917422 3.79475 0.873004L3.80574 0.867124L3.821 0.860069C3.91292 0.814997 4.00621 0.771792 4.10077 0.73041L4.11872 0.722048L4.13236 0.716542C4.27103 0.656644 4.41258 0.60078 4.55673 0.548779H4.55236L4.62279 0.525256C4.75639 0.478443 4.89228 0.435007 5.03032 0.394916H5.01923L5.10995 0.372193C5.22563 0.339876 5.34279 0.309863 5.46144 0.282219L5.47888 0.277641L5.49896 0.27365Z" fill="#9D9D9D"/>
</g>
<defs>
<clipPath id="clip0_5622_2617">
<rect width="29.97" height="30" fill="white"/>
</clipPath>
</defs>
</svg>
