<svg width="142" height="33" viewBox="0 0 142 33" fill="none" xmlns="http://www.w3.org/2000/svg">
<g clip-path="url(#clip0_5622_2619)">
<path d="M19.2725 10.5837C17.9963 10.9625 17.0343 11.8195 16.3297 12.7504C16.1784 12.9502 15.8631 12.8001 15.9232 12.5552C17.2722 7.00807 15.4901 2.3976 9.93481 0.128169C9.65299 0.0126761 9.35962 0.265605 9.43354 0.561267C11.9606 10.7073 1.33165 9.85151 2.67485 21.3534C2.69795 21.5509 2.4762 21.686 2.3145 21.5705C1.81095 21.209 1.24849 20.4549 0.862744 19.9248C0.749558 19.7688 0.504709 19.8127 0.452738 19.9987C0.145523 21.1097 0 22.1561 0 23.1956C0 27.2378 2.07774 30.7961 5.22265 32.8589C5.40282 32.9767 5.63381 32.808 5.57259 32.6013C5.4109 32.0584 5.31967 31.4856 5.31274 30.8931C5.31274 30.5293 5.33584 30.1575 5.39242 29.811C5.52409 28.9402 5.82669 28.1109 6.33486 27.3556C8.07766 24.7397 11.5714 22.2127 11.0135 18.7814C10.9777 18.5642 11.2341 18.4211 11.3958 18.57C13.857 20.8187 14.3444 23.8434 13.9402 26.5564C13.9055 26.792 14.2011 26.9179 14.3501 26.7331C14.7267 26.2619 15.1864 25.8484 15.6864 25.5377C15.8111 25.4603 15.9774 25.5192 16.0248 25.6578C16.3032 26.4674 16.7166 27.2274 17.107 27.9873C17.5736 28.9009 17.8219 29.9438 17.7826 31.0479C17.763 31.585 17.6741 32.1046 17.5251 32.599C17.4615 32.808 17.6902 32.9824 17.8739 32.8623C21.0211 30.7996 23.1 27.2413 23.1 23.1967C23.1 21.7912 22.854 20.4133 22.3885 19.1221C21.4126 16.4138 18.9365 14.38 19.5624 10.8505C19.5924 10.6819 19.4365 10.5352 19.2725 10.5837Z" fill="#9D9D9D"/>
<path d="M33.8223 28.0934V9.04395H45.9981V11.8197H36.9547V17.3441H44.4182V20.0382H36.9547V28.0934H33.8223Z" fill="#9D9D9D"/>
<path d="M49.4639 12.2009C48.456 12.2009 47.666 11.4661 47.666 10.432C47.666 9.39783 48.456 8.66309 49.4639 8.66309C50.4717 8.66309 51.2616 9.39783 51.2616 10.432C51.2616 11.4661 50.4717 12.2009 49.4639 12.2009ZM47.9657 28.0936V14.1602H50.9075V28.0936H47.9657Z" fill="#9D9D9D"/>
<path d="M60.7112 14.1592H61.3649V16.9077H60.0573C57.4424 16.9077 56.598 18.9487 56.598 21.0987V28.0925H53.6562V14.1592H56.2712L56.598 16.2546C57.3062 15.0844 58.423 14.1592 60.7112 14.1592Z" fill="#9D9D9D"/>
<path d="M68.994 28.256C64.6086 28.256 61.8574 25.4257 61.8574 21.1532C61.8574 16.8535 64.6086 13.9961 68.7217 13.9961C72.753 13.9961 75.4496 16.5542 75.5314 20.6362C75.5314 20.99 75.5042 21.3709 75.4496 21.7519H64.9354V21.9424C65.0172 24.31 66.5153 25.8612 68.8306 25.8612C70.6283 25.8612 71.9359 24.9631 72.3444 23.412H75.2862C74.7959 26.1606 72.4534 28.256 68.994 28.256ZM65.0444 19.6021H72.4806C72.2354 17.5339 70.7918 16.3637 68.7489 16.3637C66.8694 16.3637 65.2623 17.6155 65.0444 19.6021Z" fill="#9D9D9D"/>
<path d="M84.1767 28.256C79.9544 28.256 77.2578 25.5074 77.2578 21.1532C77.2578 16.8535 80.0362 13.9961 84.2584 13.9961C87.8537 13.9961 90.087 15.9827 90.6595 19.1395H87.5815C87.2003 17.5066 86.0288 16.4997 84.2039 16.4997C81.8339 16.4997 80.2813 18.4046 80.2813 21.1532C80.2813 23.8746 81.8339 25.7523 84.2039 25.7523C86.0016 25.7523 87.2003 24.7182 87.5542 23.1126H90.6595C90.1142 26.2694 87.7448 28.256 84.1767 28.256Z" fill="#9D9D9D"/>
<path d="M99.8319 14.1592H100.486V16.9077H99.1785C96.5633 16.9077 95.7193 18.9487 95.7193 21.0987V28.0925H92.7773V14.1592H95.3926L95.7193 16.2546C96.4271 15.0844 97.5442 14.1592 99.8319 14.1592Z" fill="#9D9D9D"/>
<path d="M107.756 13.9961C111.46 13.9961 113.585 15.765 113.585 19.0578V28.0927H111.025L110.78 26.1061C109.826 27.358 108.491 28.256 106.285 28.256C103.234 28.256 101.191 26.7593 101.191 24.174C101.191 21.3165 103.261 19.711 107.183 19.711H110.671V18.8673C110.671 17.3161 109.554 16.3637 107.62 16.3637C105.877 16.3637 104.705 17.1801 104.487 18.4046H101.6C101.899 15.6833 104.242 13.9961 107.756 13.9961ZM106.775 25.9701C109.227 25.9701 110.643 24.5277 110.671 22.3778V21.888H107.02C105.195 21.888 104.188 22.5683 104.188 23.9835C104.188 25.1536 105.168 25.9701 106.775 25.9701Z" fill="#9D9D9D"/>
<path d="M119.34 28.0925L114.791 14.1592H117.896L121.083 24.8268L124.27 14.1592H126.966L130.017 24.8268L133.313 14.1592H136.309L131.679 28.0925H128.519L125.578 18.6222L122.527 28.0925H119.34Z" fill="#9D9D9D"/>
<path d="M137.719 28.0934V9.04395H140.661V28.0934H137.719Z" fill="#9D9D9D"/>
</g>
<defs>
<clipPath id="clip0_5622_2619">
<rect width="141.9" height="33" fill="white"/>
</clipPath>
</defs>
</svg>
