<svg width="230" height="63" viewBox="0 0 11451 3158" fill="none" xmlns="http://www.w3.org/2000/svg">
<path d="M2308.91 252.918C2339.72 249.107 2367.13 271.788 2370.12 302.488L2378.54 389.029C2381.54 419.824 2358.9 446.953 2328.47 450.803C2060.16 484.743 1873.11 574.338 1748.77 668.457C1732.22 680.991 1730.24 698.945 1737.49 713.815C1744.86 728.907 1761.77 740.66 1783.14 739.26C1964.25 727.413 2185.45 756.534 2436.46 862.81C2465.03 874.913 2477.45 908.281 2464.69 936.361L2428.71 1015.51C2415.91 1043.68 2382.73 1055.84 2354.45 1043.96C2083 929.9 1861.98 921.148 1703.62 948.567C1685.68 951.673 1675.04 964.577 1672.37 979.793C1669.67 995.142 1675.16 1012.68 1689.85 1024.26C1841.05 1143.35 1995.99 1330.6 2109.64 1611.13C2121.29 1639.9 2106.47 1672.28 2077.59 1683.11L1996.15 1713.66C1967.19 1724.51 1935.17 1709.68 1923.57 1681.29C1815.43 1416.43 1670.65 1255.5 1542.04 1161.65C1516.05 1142.7 1480.38 1161.33 1479.16 1194.74C1467.06 1523.18 1426.68 1975.93 1291.83 2431.93C1283.46 2460.25 1304.52 2488.85 1333.87 2488.85H2577.71C2608.59 2488.85 2633.63 2513.9 2633.63 2544.78V2631.74C2633.62 2662.62 2608.58 2687.63 2577.71 2687.63H192.173C161.298 2687.63 136.258 2662.62 136.251 2631.74V2544.78C136.251 2513.9 161.293 2488.85 192.173 2488.85H1034.31C1053.02 2488.85 1069.62 2476.89 1075.36 2459.16C1222.37 2004.36 1266.57 1541.83 1279.84 1203.37C1281.19 1168.99 1244.72 1148.87 1218.1 1168.86C1091.97 1263.66 951.734 1423.09 846.317 1681.29C834.714 1709.68 802.691 1724.51 773.73 1713.66L692.289 1683.11C663.409 1672.28 648.591 1639.9 660.244 1611.13C773.887 1330.6 928.836 1143.35 1080.03 1024.26C1094.73 1012.68 1100.21 995.142 1097.52 979.793C1094.84 964.577 1084.2 951.673 1066.25 948.567C907.904 921.148 686.885 929.9 415.431 1043.96C387.149 1055.84 353.969 1043.68 341.166 1015.51L305.194 936.361C292.43 908.281 304.846 874.913 333.422 862.81C584.435 756.534 805.636 727.413 986.746 739.26C1008.11 740.66 1025.03 728.907 1032.39 713.815C1039.64 698.945 1037.66 680.991 1021.11 668.457C896.772 574.338 709.721 484.743 441.411 450.803C410.977 446.953 388.347 419.824 391.342 389.029L399.764 302.488C402.75 271.788 430.162 249.107 460.967 252.918C933.568 311.384 1209.54 528.311 1338.05 708.962C1348.62 723.824 1366.57 731.517 1384.94 731.517C1403.31 731.517 1421.26 723.824 1431.83 708.962C1560.34 528.311 1836.31 311.384 2308.91 252.918Z" fill="#9D9D9D" stroke="#9D9D9D" stroke-width="12.4248"/>
<path d="M3065.06 1188.06C3047.98 1188.06 3034.54 1182.02 3024.75 1169.94C3014.96 1158.06 3011.42 1144.83 3014.12 1130.25C3017.04 1115.67 3026.62 1104.94 3042.88 1098.06C3068.92 1088.06 3086.94 1078.9 3096.94 1070.56C3106.94 1062.02 3113.71 1048.69 3117.25 1030.56C3120.79 1012.44 3122.98 981.396 3123.81 937.438C3126.1 789.521 3126.1 630.146 3123.81 459.312C3123.4 433.062 3121.1 413.479 3116.94 400.562C3112.98 387.438 3105.38 376.604 3094.12 368.062C3083.08 359.312 3064.54 348.896 3038.5 336.812C3024.54 329.521 3016.1 318.792 3013.19 304.625C3010.48 290.458 3013.92 277.854 3023.5 266.812C3033.08 255.562 3047.46 250.042 3066.62 250.25C3105.79 250.875 3150.06 251.188 3199.44 251.188C3248.81 250.979 3296.21 250.667 3341.62 250.25C3360.38 250.25 3374.54 255.771 3384.12 266.812C3393.71 277.854 3397.04 290.458 3394.12 304.625C3391.21 318.792 3382.67 329.521 3368.5 336.812C3342.67 348.896 3324.23 359.312 3313.19 368.062C3302.15 376.604 3294.54 387.438 3290.38 400.562C3286.42 413.479 3284.23 433.062 3283.81 459.312C3281.52 635.562 3281.42 794.938 3283.5 937.438C3284.33 981.396 3286.52 1012.54 3290.06 1030.88C3293.81 1049.21 3300.58 1062.54 3310.38 1070.88C3320.38 1079.21 3338.29 1088.27 3364.12 1098.06C3380.17 1104.94 3389.65 1115.67 3392.56 1130.25C3395.48 1144.62 3392.15 1157.85 3382.56 1169.94C3372.98 1182.02 3359.96 1188.06 3343.5 1188.06C3313.29 1187.85 3282.25 1187.65 3250.38 1187.44C3218.71 1187.44 3186.73 1187.54 3154.44 1187.75C3113.81 1187.75 3084.02 1187.85 3065.06 1188.06ZM3431.67 1185.56C3414.59 1185.15 3401.47 1179.1 3392.3 1167.44C3383.34 1155.77 3380.53 1143.06 3383.86 1129.31C3387.2 1115.35 3396.57 1105.35 3411.99 1099.31C3434.07 1092.23 3449.7 1084.83 3458.86 1077.12C3468.03 1069.21 3474.28 1056.5 3477.61 1039C3480.95 1021.5 3483.03 992.75 3483.86 952.75C3484.28 929.833 3484.49 906.083 3484.49 881.5C3484.7 856.708 3484.7 832.438 3484.49 808.688C3484.28 793.271 3484.07 777.854 3483.86 762.438C3483.45 735.771 3481.26 715.667 3477.3 702.125C3473.55 688.583 3467.3 677.958 3458.55 670.25C3450.01 662.333 3435.95 653.062 3416.36 642.438C3403.86 635.146 3395.74 626.083 3391.99 615.25C3388.24 604.417 3388.97 593.896 3394.17 583.688C3399.38 573.271 3408.34 564.938 3421.05 558.688C3436.47 551.604 3452.51 544 3469.17 535.875C3486.05 527.75 3502.2 519.938 3517.61 512.438C3528.65 507.021 3539.59 501.708 3550.42 496.5C3568.97 487.542 3583.97 485.146 3595.42 489.312C3606.88 493.271 3614.59 503.375 3618.55 519.625C3621.47 531.708 3626.57 540.667 3633.86 546.5C3641.15 552.333 3650.32 554.833 3661.36 554C3672.4 552.958 3685.01 548.479 3699.17 540.562C3755.84 508.062 3812.4 492.229 3868.86 493.062C3925.32 493.688 3971.36 511.292 4006.99 545.875C4042.82 580.25 4060.32 628.479 4059.49 690.562C4059.07 717.646 4058.86 737.021 4058.86 748.688C4058.45 784.938 4058.24 819.104 4058.24 851.188C4058.24 883.271 4058.55 916.708 4059.17 951.5C4059.8 992.75 4061.47 1021.81 4064.17 1038.69C4067.09 1055.56 4073.13 1068.06 4082.3 1076.19C4091.47 1084.31 4107.61 1092.02 4130.74 1099.31C4146.78 1105.15 4156.47 1114.94 4159.8 1128.69C4163.13 1142.44 4160.11 1155.25 4150.74 1167.12C4141.36 1179 4128.03 1185.15 4110.74 1185.56C4069.7 1185.98 4027.72 1186.19 3984.8 1186.19C3941.88 1186.19 3899.28 1185.98 3856.99 1185.56C3840.32 1185.15 3827.4 1179 3818.24 1167.12C3809.07 1155.25 3806.15 1142.33 3809.49 1128.38C3813.03 1114.21 3822.92 1104.1 3839.17 1098.06C3861.26 1091.19 3876.57 1084 3885.11 1076.5C3893.86 1069 3899.8 1056.6 3902.92 1039.31C3906.05 1022.02 3908.03 992.438 3908.86 950.562C3909.49 915.771 3909.8 879.208 3909.8 840.875C3909.8 802.333 3909.49 764.208 3908.86 726.5C3908.03 688.167 3896.78 657.229 3875.11 633.688C3853.65 610.146 3826.36 597.646 3793.24 596.188C3760.32 594.521 3727.51 605.25 3694.8 628.375C3674.8 642.333 3659.9 661.292 3650.11 685.25C3640.53 709.208 3635.32 737.958 3634.49 771.5C3633.24 836.292 3633.24 896.292 3634.49 951.5C3634.49 954.625 3634.59 956.917 3634.8 958.375C3636.05 997.958 3638.24 1025.88 3641.36 1042.12C3644.49 1058.17 3650.53 1069.94 3659.49 1077.44C3668.45 1084.94 3684.38 1092.44 3707.3 1099.94C3722.72 1105.77 3731.88 1115.56 3734.8 1129.31C3737.92 1143.06 3734.8 1155.77 3725.42 1167.44C3716.26 1179.1 3703.13 1185.15 3686.05 1185.56C3601.26 1186.19 3516.47 1186.19 3431.67 1185.56ZM4371.1 1204.62C4334.22 1204.62 4302.87 1197.02 4277.04 1181.81C4251.2 1166.81 4231.83 1146.71 4218.91 1121.5C4206.2 1096.29 4199.85 1068.58 4199.85 1038.38C4199.85 981.083 4200.06 901.604 4200.47 799.938C4200.89 743.271 4201.1 702.854 4201.1 678.688C4201.1 659.729 4199.64 645.771 4196.72 636.812C4193.81 627.854 4188.6 621.292 4181.1 617.125C4173.6 612.75 4161.41 608.792 4144.54 605.25C4131.83 602.333 4122.77 596.292 4117.35 587.125C4111.93 577.958 4110.37 567.854 4112.66 556.812C4115.16 545.771 4120.79 536.292 4129.54 528.375C4153.7 506.5 4177.14 484.625 4199.85 462.75C4222.77 440.667 4245.89 417.542 4269.22 393.375C4279.64 382.542 4290.79 376.5 4302.66 375.25C4314.54 374 4324.95 376.917 4333.91 384C4342.87 391.083 4348.18 400.771 4349.85 413.062L4352.35 477.438C4352.77 484.312 4354.54 489.938 4357.66 494.312C4360.79 498.688 4364.95 501.917 4370.16 504C4375.58 505.875 4382.04 506.812 4389.54 506.812C4433.29 506.812 4466.31 506.604 4488.6 506.188C4512.77 505.771 4529.64 514.833 4539.22 533.375C4549.02 551.917 4549.02 570.458 4539.22 589C4529.64 607.542 4512.77 616.5 4488.6 615.875C4476.93 615.667 4465.47 615.562 4454.22 615.562C4442.97 615.354 4431.83 615.25 4420.79 615.25C4413.5 615.042 4402.45 614.938 4387.66 614.938C4379.95 614.938 4373.39 616.292 4367.97 619C4362.77 621.5 4358.7 625.354 4355.79 630.562C4353.08 635.771 4351.72 641.917 4351.72 649C4351.72 688.792 4351.52 747.021 4351.1 823.688C4350.68 899.938 4350.47 958.167 4350.47 998.375C4350.47 1025.67 4357.87 1045.88 4372.66 1059C4387.66 1071.92 4407.04 1077.02 4430.79 1074.31C4454.54 1071.4 4478.81 1061.08 4503.6 1043.38C4516.1 1035.46 4527.77 1033.48 4538.6 1037.44C4549.64 1041.4 4556.83 1049.42 4560.16 1061.5C4563.7 1073.58 4561.72 1086.4 4554.22 1099.94C4545.89 1114.73 4533.6 1130.15 4517.35 1146.19C4501.1 1162.02 4480.37 1175.67 4455.16 1187.12C4430.16 1198.79 4402.14 1204.62 4371.1 1204.62ZM4873.65 1204.94C4809.69 1204.94 4752.61 1190.04 4702.4 1160.25C4652.19 1130.46 4612.92 1088.69 4584.59 1034.94C4556.46 981.188 4542.4 919.625 4542.4 850.25C4542.4 779.417 4558.23 716.5 4589.9 661.5C4621.78 606.292 4663.86 563.583 4716.15 533.375C4768.44 503.167 4824.38 488.062 4883.96 488.062C4935 488.062 4981.67 499.312 5023.96 521.812C5066.25 544.104 5099.59 575.562 5123.96 616.188C5148.34 656.604 5160.11 702.646 5159.28 754.312C5159.28 768.271 5156.78 779.729 5151.78 788.688C5146.78 797.646 5139.28 804.312 5129.28 808.688C5119.48 813.062 5107.19 815.25 5092.4 815.25H4758.96C4747.71 815.25 4738.55 817.333 4731.46 821.5C4724.38 825.667 4719.28 831.812 4716.15 839.938C4713.23 848.062 4712.4 858.062 4713.65 869.938C4718.03 917.646 4729.48 957.438 4748.03 989.312C4766.78 1021.19 4790.32 1044.83 4818.65 1060.25C4847.19 1075.46 4878.75 1083.06 4913.34 1083.06C4932.92 1083.06 4952.09 1080.67 4970.84 1075.88C4989.8 1070.88 5008.23 1062.96 5026.15 1052.12C5044.07 1041.08 5061.15 1026.92 5077.4 1009.62C5089.28 997.542 5102.19 992.333 5116.15 994C5130.32 995.458 5140.53 1002.33 5146.78 1014.62C5153.03 1026.71 5152.09 1040.56 5143.96 1056.19C5124.17 1093.06 5099.17 1122.54 5068.96 1144.62C5038.75 1166.71 5006.98 1182.23 4973.65 1191.19C4940.32 1200.35 4906.98 1204.94 4873.65 1204.94ZM4957.09 731.812C4964.8 731.812 4971.25 730.25 4976.46 727.125C4981.88 724 4985.63 719.417 4987.71 713.375C4990 707.333 4990.73 700.042 4989.9 691.5C4986.98 665.042 4979.38 643.062 4967.09 625.562C4955 607.854 4940.21 594.833 4922.71 586.5C4905.21 578.167 4886.78 574 4867.4 574C4847.4 574 4827.61 578.375 4808.03 587.125C4788.44 595.875 4770.84 609.312 4755.21 627.438C4739.8 645.562 4728.65 667.854 4721.78 694.312C4719.69 702.021 4719.59 708.688 4721.46 714.312C4723.34 719.938 4726.67 724.312 4731.46 727.438C4736.25 730.354 4741.98 731.812 4748.65 731.812H4957.09ZM5200.57 1185.56C5184.74 1184.94 5172.24 1178.79 5163.07 1167.12C5154.12 1155.67 5151.2 1143.06 5154.32 1129.31C5157.45 1115.56 5166.93 1105.56 5182.76 1099.31C5204.64 1092.23 5220.05 1084.73 5229.01 1076.81C5238.18 1068.9 5244.43 1056.29 5247.76 1039C5251.1 1021.5 5253.18 992.75 5254.01 952.75C5254.43 922.75 5254.64 894.417 5254.64 867.75C5254.85 841.083 5254.74 814.312 5254.32 787.438C5254.32 776.188 5254.22 767.75 5254.01 762.125C5253.6 736.083 5251.41 716.188 5247.45 702.438C5243.49 688.479 5237.03 677.438 5228.07 669.312C5219.32 661.188 5205.57 652.229 5186.82 642.438C5174.12 635.354 5165.89 626.5 5162.14 615.875C5158.39 605.042 5159.12 594.521 5164.32 584.312C5169.53 573.896 5178.39 565.562 5190.89 559.312C5193.8 557.854 5196.72 556.396 5199.64 554.938C5221.1 544.312 5242.35 533.792 5263.39 523.375C5284.43 512.958 5303.6 504 5320.89 496.5C5334.22 490.458 5345.37 487.646 5354.32 488.062C5363.49 488.271 5370.78 491.083 5376.2 496.5C5381.82 501.917 5385.99 509.625 5388.7 519.625C5392.66 531.5 5397.87 540.458 5404.32 546.5C5410.78 552.333 5418.8 554.938 5428.39 554.312C5437.97 553.479 5449.22 549 5462.14 540.875C5480.68 529.208 5496.72 519.729 5510.26 512.438C5524.01 505.146 5537.97 499.312 5552.14 494.938C5566.3 490.562 5580.78 488.375 5595.57 488.375C5649.95 488.375 5682.76 508.688 5694.01 549.312C5705.47 589.729 5695.68 624.208 5664.64 652.75C5633.8 681.083 5595.26 680.771 5549.01 651.812C5524.01 635.771 5500.57 630.458 5478.7 635.875C5456.82 641.292 5439.12 656.708 5425.57 682.125C5412.24 707.333 5405.26 740.458 5404.64 781.5C5403.39 837.333 5403.39 894.208 5404.64 952.125C5405.47 993.167 5407.76 1021.71 5411.51 1037.75C5415.26 1053.58 5423.39 1065.15 5435.89 1072.44C5448.39 1079.73 5471.2 1087.02 5504.32 1094.31C5523.49 1099.1 5535.68 1108.9 5540.89 1123.69C5546.3 1138.27 5544.32 1152.12 5534.95 1165.25C5525.78 1178.38 5511.82 1185.15 5493.07 1185.56C5440.37 1185.98 5388.39 1186.19 5337.14 1186.19C5286.1 1186.19 5240.57 1185.98 5200.57 1185.56ZM5846.25 1204.62C5810.21 1204.62 5779.17 1198.79 5753.12 1187.12C5727.29 1175.46 5707.5 1158.58 5693.75 1136.5C5680.21 1114.21 5673.44 1087.54 5673.44 1056.5C5673.44 1027.33 5679.79 1002.23 5692.5 981.188C5705.42 960.146 5724.69 941.5 5750.31 925.25C5775.94 909 5809.9 892.646 5852.19 876.188C5867.19 870.354 5878.23 866.083 5885.31 863.375C5892.6 860.458 5903.54 856.188 5918.12 850.562C5933.96 844.312 5948.54 838.583 5961.88 833.375C5975.42 828.167 5988.75 823.167 6001.88 818.375C6013.96 814 6023.33 808.688 6030 802.438C6036.88 796.188 6041.67 788.896 6044.38 780.562C6047.08 772.021 6048.44 761.812 6048.44 749.938V700.562C6048.44 678.479 6044.9 659.208 6037.81 642.75C6030.73 626.292 6019.06 613.375 6002.81 604C5986.56 594.625 5965.1 590.042 5938.44 590.25C5921.35 590.667 5906.04 593.062 5892.5 597.438C5878.96 601.812 5868.12 608.479 5860 617.438C5851.88 626.188 5847.6 637.229 5847.19 650.562C5847.19 657.854 5847.5 666.083 5848.12 675.25C5848.33 681.083 5848.54 687.021 5848.75 693.062C5848.96 732.854 5835.42 761.292 5808.12 778.375C5781.04 795.25 5753.54 797.75 5725.62 785.875C5697.71 774 5683.75 751.5 5683.75 718.375C5683.75 685.042 5699.48 650.354 5730.94 614.312C5762.6 578.271 5802.5 548.271 5850.62 524.312C5898.75 500.354 5945.94 488.375 5992.19 488.375C6028.85 488.375 6063.02 496.188 6094.69 511.812C6126.35 527.438 6151.77 551.188 6170.94 583.062C6190.31 614.729 6199.79 653.583 6199.38 699.625C6198.54 789.625 6198.44 876.083 6199.06 959C6199.06 984.417 6199.17 1004 6199.38 1017.75C6199.38 1033.38 6202.4 1045.46 6208.44 1054C6214.69 1062.54 6223.12 1067.23 6233.75 1068.06C6244.58 1068.69 6256.67 1065.25 6270 1057.75C6280.83 1053.58 6291.25 1053.69 6301.25 1058.06C6311.25 1062.44 6317.92 1070.25 6321.25 1081.5C6324.58 1092.54 6322.6 1105.35 6315.31 1119.94C6308.02 1134.31 6297.92 1147.96 6285 1160.88C6272.08 1173.58 6256.46 1184 6238.12 1192.12C6219.79 1200.46 6199.69 1204.62 6177.81 1204.62C6155.1 1204.62 6134.69 1200.04 6116.56 1190.88C6098.65 1181.71 6082.81 1168.69 6069.06 1151.81C6063.44 1145.15 6057.92 1140.67 6052.5 1138.38C6047.29 1135.88 6041.35 1135.46 6034.69 1137.12C6028.23 1138.58 6020.42 1142.33 6011.25 1148.38C5992.92 1161.08 5976.04 1171.4 5960.62 1179.31C5945.21 1187.44 5928.12 1193.69 5909.38 1198.06C5890.83 1202.44 5869.79 1204.62 5846.25 1204.62ZM5915.62 1091.81C5941.46 1091.81 5964.48 1085.46 5984.69 1072.75C6004.9 1060.04 6020.42 1044.1 6031.25 1024.94C6042.29 1005.77 6047.81 986.917 6047.81 968.375V937.438C6047.81 924.938 6045.83 915.667 6041.88 909.625C6038.12 903.375 6032.29 899.833 6024.38 899C6016.46 898.167 6005.94 899.833 5992.81 904C5953.02 916.708 5922.19 930.042 5900.31 944C5878.44 957.75 5863.54 971.292 5855.62 984.625C5847.92 997.958 5844.06 1011.81 5844.06 1026.19C5844.06 1040.15 5846.77 1052.02 5852.19 1061.81C5857.6 1071.6 5865.62 1079.1 5876.25 1084.31C5886.88 1089.31 5900 1091.81 5915.62 1091.81ZM6633.8 1204.62C6567.13 1204.62 6508.8 1188.79 6458.8 1157.12C6408.8 1125.25 6370.36 1082.65 6343.49 1029.31C6316.82 975.979 6303.49 918.062 6303.49 855.562C6303.49 789.104 6317.86 727.75 6346.61 671.5C6375.57 615.25 6416.93 570.458 6470.68 537.125C6524.63 503.583 6587.55 486.812 6659.43 486.812C6701.93 486.812 6740.26 492.75 6774.43 504.625C6808.59 516.5 6836.82 532.333 6859.11 552.125C6881.61 571.708 6897.34 593.375 6906.3 617.125C6920.88 655.667 6917.45 687.229 6895.99 711.812C6874.53 736.188 6847.34 745.042 6814.43 738.375C6781.72 731.708 6758.07 708.479 6743.49 668.688C6731.61 635.562 6716.4 611.5 6697.86 596.5C6679.53 581.292 6655.99 573.688 6627.24 573.688C6596.82 573.688 6569.84 581.604 6546.3 597.438C6522.76 613.271 6504.11 638.375 6490.36 672.75C6476.61 707.125 6469.74 750.979 6469.74 804.312C6469.74 864.938 6478.49 916.188 6495.99 958.062C6513.49 999.729 6537.55 1031.08 6568.18 1052.12C6599.01 1072.96 6634.43 1083.38 6674.43 1083.38C6708.59 1083.38 6739.11 1076.81 6765.99 1063.69C6793.07 1050.35 6817.03 1032.75 6837.86 1010.88C6850.15 998.375 6863.18 992.854 6876.93 994.312C6890.88 995.562 6901.09 1002.23 6907.55 1014.31C6914.22 1026.4 6914.01 1039.83 6906.93 1054.62C6894.01 1082.12 6874.53 1107.23 6848.49 1129.94C6822.65 1152.65 6791.3 1170.77 6754.43 1184.31C6717.55 1197.85 6677.34 1204.62 6633.8 1204.62ZM7155.1 1204.62C7118.23 1204.62 7086.87 1197.02 7061.04 1181.81C7035.2 1166.81 7015.83 1146.71 7002.91 1121.5C6990.2 1096.29 6983.85 1068.58 6983.85 1038.38C6983.85 981.083 6984.06 901.604 6984.48 799.938C6984.89 743.271 6985.1 702.854 6985.1 678.688C6985.1 659.729 6983.64 645.771 6980.73 636.812C6977.81 627.854 6972.6 621.292 6965.1 617.125C6957.6 612.75 6945.41 608.792 6928.54 605.25C6915.83 602.333 6906.77 596.292 6901.35 587.125C6895.93 577.958 6894.37 567.854 6896.66 556.812C6899.16 545.771 6904.79 536.292 6913.54 528.375C6937.7 506.5 6961.14 484.625 6983.85 462.75C7006.77 440.667 7029.89 417.542 7053.23 393.375C7063.64 382.542 7074.79 376.5 7086.66 375.25C7098.54 374 7108.95 376.917 7117.91 384C7126.87 391.083 7132.18 400.771 7133.85 413.062L7136.35 477.438C7136.77 484.312 7138.54 489.938 7141.66 494.312C7144.79 498.688 7148.95 501.917 7154.16 504C7159.58 505.875 7166.04 506.812 7173.54 506.812C7217.29 506.812 7250.31 506.604 7272.6 506.188C7296.77 505.771 7313.64 514.833 7323.23 533.375C7333.02 551.917 7333.02 570.458 7323.23 589C7313.64 607.542 7296.77 616.5 7272.6 615.875C7260.93 615.667 7249.48 615.562 7238.23 615.562C7226.98 615.354 7215.83 615.25 7204.79 615.25C7197.5 615.042 7186.45 614.938 7171.66 614.938C7163.95 614.938 7157.39 616.292 7151.98 619C7146.77 621.5 7142.7 625.354 7139.79 630.562C7137.08 635.771 7135.73 641.917 7135.73 649C7135.73 688.792 7135.52 747.021 7135.1 823.688C7134.68 899.938 7134.48 958.167 7134.48 998.375C7134.48 1025.67 7141.87 1045.88 7156.66 1059C7171.66 1071.92 7191.04 1077.02 7214.79 1074.31C7238.54 1071.4 7262.81 1061.08 7287.6 1043.38C7300.1 1035.46 7311.77 1033.48 7322.6 1037.44C7333.64 1041.4 7340.83 1049.42 7344.16 1061.5C7347.7 1073.58 7345.73 1086.4 7338.23 1099.94C7329.89 1114.73 7317.6 1130.15 7301.35 1146.19C7285.1 1162.02 7264.37 1175.67 7239.16 1187.12C7214.16 1198.79 7186.14 1204.62 7155.1 1204.62ZM7362.34 1185.56C7345.46 1185.15 7332.55 1179 7323.59 1167.12C7314.84 1155.46 7312.02 1142.75 7315.15 1129C7318.48 1115.04 7327.75 1105.15 7342.96 1099.31C7365.67 1092.02 7381.61 1084.42 7390.77 1076.5C7399.94 1068.58 7406.19 1055.88 7409.52 1038.38C7412.86 1020.67 7414.84 991.188 7415.46 949.938C7416.09 922.229 7416.4 892.438 7416.4 860.562C7416.4 828.479 7416.09 795.667 7415.46 762.125C7415.25 735.875 7413.17 715.979 7409.21 702.438C7405.46 688.896 7399.21 678.167 7390.46 670.25C7381.71 662.125 7367.55 652.75 7347.96 642.125C7335.67 634.833 7327.55 625.979 7323.59 615.562C7319.63 604.938 7320.05 594.625 7324.84 584.625C7329.63 574.417 7338.17 566.188 7350.46 559.938C7367.34 551.604 7384.21 543.375 7401.09 535.25C7417.96 527.125 7435.36 518.792 7453.27 510.25C7462.86 505.667 7472.44 501.083 7482.02 496.5C7499.52 488.583 7514.63 485.562 7527.34 487.438C7540.05 489.104 7549.73 495.042 7556.4 505.25C7563.07 515.458 7566.3 528.896 7566.09 545.562C7565.46 630.771 7565.15 704.312 7565.15 766.188C7565.15 828.062 7565.57 889.417 7566.4 950.25V956.188C7567.23 996.812 7569.11 1025.15 7572.02 1041.19C7574.94 1057.23 7580.77 1069 7589.52 1076.5C7598.27 1084 7614.21 1091.4 7637.34 1098.69C7653.38 1104.52 7663.07 1114.42 7666.4 1128.38C7669.94 1142.33 7667.02 1155.25 7657.65 1167.12C7648.27 1179 7634.84 1185.15 7617.34 1185.56C7576.09 1185.98 7534 1186.08 7491.09 1185.88C7448.38 1185.88 7405.46 1185.77 7362.34 1185.56ZM7479.21 422.438C7459.84 422.438 7441.92 417.854 7425.46 408.688C7409 399.312 7395.98 386.708 7386.4 370.875C7376.82 355.042 7372.02 337.75 7372.02 319C7372.02 299.833 7376.82 282.125 7386.4 265.875C7395.98 249.625 7409 236.812 7425.46 227.438C7441.92 217.854 7459.84 213.062 7479.21 213.062C7498.59 213.062 7516.5 217.646 7532.96 226.812C7549.42 235.771 7562.44 247.958 7572.02 263.375C7581.82 278.583 7586.71 295.354 7586.71 313.688C7586.71 333.271 7581.92 351.396 7572.34 368.062C7562.75 384.729 7549.73 397.958 7533.27 407.75C7516.82 417.542 7498.8 422.438 7479.21 422.438ZM8001.76 1204.62C7935.1 1204.62 7875.3 1189.31 7822.39 1158.69C7769.47 1127.85 7728.12 1085.35 7698.33 1031.19C7668.53 976.812 7653.64 915.667 7653.64 847.75C7653.64 779.625 7668.95 718.271 7699.58 663.688C7730.2 608.896 7772.28 565.979 7825.83 534.938C7879.37 503.896 7939.26 488.375 8005.51 488.375C8071.76 488.375 8131.24 503.896 8183.95 534.938C8236.87 565.771 8278.12 608.479 8307.7 663.062C8337.49 717.438 8352.39 778.583 8352.39 846.5C8352.39 915.042 8337.18 976.604 8306.76 1031.19C8276.35 1085.56 8234.47 1128.06 8181.14 1158.69C8127.8 1189.31 8068.01 1204.62 8001.76 1204.62ZM8016.76 1119.31C8047.6 1119.31 8075.83 1109 8101.45 1088.38C8127.08 1067.54 8147.08 1036.81 8161.45 996.188C8176.03 955.562 8182.18 906.812 8179.89 849.938C8177.6 792.021 8167.18 742.229 8148.64 700.562C8130.3 658.896 8106.97 627.333 8078.64 605.875C8050.3 584.417 8020.51 573.688 7989.26 573.688C7958.64 573.688 7930.51 583.896 7904.89 604.312C7879.26 624.729 7859.16 654.938 7844.58 694.938C7829.99 734.938 7823.85 783.167 7826.14 839.625C7828.64 898.167 7839.05 948.583 7857.39 990.875C7875.93 1033.17 7899.26 1065.15 7927.39 1086.81C7955.72 1108.48 7985.51 1119.31 8016.76 1119.31ZM8402.12 1185.56C8385.04 1185.15 8371.92 1179.1 8362.75 1167.44C8353.79 1155.77 8350.98 1143.06 8354.31 1129.31C8357.65 1115.35 8367.02 1105.35 8382.44 1099.31C8404.52 1092.23 8420.15 1084.83 8429.31 1077.12C8438.48 1069.21 8444.73 1056.5 8448.06 1039C8451.4 1021.5 8453.48 992.75 8454.31 952.75C8454.73 929.833 8454.94 906.083 8454.94 881.5C8455.15 856.708 8455.15 832.438 8454.94 808.688C8454.73 793.271 8454.52 777.854 8454.31 762.438C8453.9 735.771 8451.71 715.667 8447.75 702.125C8444 688.583 8437.75 677.958 8429 670.25C8420.46 662.333 8406.4 653.062 8386.81 642.438C8374.31 635.146 8366.19 626.083 8362.44 615.25C8358.69 604.417 8359.42 593.896 8364.62 583.688C8369.83 573.271 8378.79 564.938 8391.5 558.688C8406.92 551.604 8422.96 544 8439.62 535.875C8456.5 527.75 8472.65 519.938 8488.06 512.438C8499.1 507.021 8510.04 501.708 8520.88 496.5C8539.42 487.542 8554.42 485.146 8565.88 489.312C8577.33 493.271 8585.04 503.375 8589 519.625C8591.92 531.708 8597.02 540.667 8604.31 546.5C8611.6 552.333 8620.77 554.833 8631.81 554C8642.85 552.958 8655.46 548.479 8669.62 540.562C8726.29 508.062 8782.85 492.229 8839.31 493.062C8895.77 493.688 8941.81 511.292 8977.44 545.875C9013.27 580.25 9030.77 628.479 9029.94 690.562C9029.52 717.646 9029.31 737.021 9029.31 748.688C9028.9 784.938 9028.69 819.104 9028.69 851.188C9028.69 883.271 9029 916.708 9029.62 951.5C9030.25 992.75 9031.92 1021.81 9034.62 1038.69C9037.54 1055.56 9043.58 1068.06 9052.75 1076.19C9061.92 1084.31 9078.06 1092.02 9101.19 1099.31C9117.23 1105.15 9126.92 1114.94 9130.25 1128.69C9133.58 1142.44 9130.56 1155.25 9121.19 1167.12C9111.81 1179 9098.48 1185.15 9081.19 1185.56C9040.15 1185.98 8998.17 1186.19 8955.25 1186.19C8912.33 1186.19 8869.73 1185.98 8827.44 1185.56C8810.77 1185.15 8797.85 1179 8788.69 1167.12C8779.52 1155.25 8776.6 1142.33 8779.94 1128.38C8783.48 1114.21 8793.38 1104.1 8809.62 1098.06C8831.71 1091.19 8847.02 1084 8855.56 1076.5C8864.31 1069 8870.25 1056.6 8873.38 1039.31C8876.5 1022.02 8878.48 992.438 8879.31 950.562C8879.94 915.771 8880.25 879.208 8880.25 840.875C8880.25 802.333 8879.94 764.208 8879.31 726.5C8878.48 688.167 8867.23 657.229 8845.56 633.688C8824.1 610.146 8796.81 597.646 8763.69 596.188C8730.77 594.521 8697.96 605.25 8665.25 628.375C8645.25 642.333 8630.35 661.292 8620.56 685.25C8610.98 709.208 8605.77 737.958 8604.94 771.5C8603.69 836.292 8603.69 896.292 8604.94 951.5C8604.94 954.625 8605.04 956.917 8605.25 958.375C8606.5 997.958 8608.69 1025.88 8611.81 1042.12C8614.94 1058.17 8620.98 1069.94 8629.94 1077.44C8638.9 1084.94 8654.83 1092.44 8677.75 1099.94C8693.17 1105.77 8702.33 1115.56 8705.25 1129.31C8708.38 1143.06 8705.25 1155.77 8695.88 1167.44C8686.71 1179.1 8673.58 1185.15 8656.5 1185.56C8571.71 1186.19 8486.92 1186.19 8402.12 1185.56ZM9914.41 1204.62C9812.54 1204.62 9723.68 1184.1 9647.85 1143.06C9572.23 1102.02 9514.1 1044.94 9473.48 971.812C9433.06 898.479 9412.85 814.938 9412.85 721.188C9412.85 628.479 9433.16 545.042 9473.79 470.875C9514.62 396.708 9573.06 338.375 9649.1 295.875C9725.14 253.375 9814.2 232.125 9916.29 232.125C9958.58 232.125 10001.5 235.875 10045 243.375C10088.6 250.875 10129.9 261.083 10169.1 274C10183.9 278.792 10196.1 284.729 10205.7 291.812C10215.2 298.688 10222.7 307.125 10228.2 317.125C10233.6 327.125 10237.1 339.312 10238.8 353.688C10241.1 376.604 10243.8 401.396 10246.9 428.062C10250.2 454.521 10253.7 478.896 10257.2 501.188C10259.7 521.604 10254 537.646 10240 549.312C10226.3 560.771 10210.9 564.521 10193.8 560.562C10176.7 556.396 10165.1 544.625 10159.1 525.25C10146.6 484.417 10128.2 449.417 10103.8 420.25C10079.6 391.083 10049.6 368.688 10013.8 353.062C9978.16 337.229 9937.54 329.312 9891.91 329.312C9836.08 329.312 9786.18 343.062 9742.23 370.562C9698.27 397.854 9663.37 439.312 9637.54 494.938C9611.7 550.562 9598.16 619.208 9596.91 700.875C9596.08 780.25 9607.33 850.771 9630.66 912.438C9654 973.896 9688.89 1022.12 9735.35 1057.12C9781.81 1091.92 9838.27 1109.62 9904.73 1110.25C9949.52 1110.67 9989.41 1103.69 10024.4 1089.31C10059.6 1074.94 10089.3 1052.65 10113.5 1022.44C10137.9 992.229 10156 954 10167.9 907.75C10172.9 888.167 10183.6 876.188 10200 871.812C10216.7 867.438 10232.1 870.354 10246.3 880.562C10260.5 890.771 10266.7 904.729 10265 922.438C10263.6 934.312 10262.2 946.188 10261 958.062C10259.7 969.938 10258.5 981.812 10257.2 993.688C10255.6 1008.69 10253.9 1023.58 10252.2 1038.38C10250.6 1052.96 10248.9 1067.33 10247.2 1081.5C10245.4 1095.88 10241.9 1107.85 10236.9 1117.44C10231.9 1127.02 10224.8 1135.15 10215.7 1141.81C10206.7 1148.27 10194.7 1154.1 10179.7 1159.31C10152.9 1168.48 10124.9 1176.4 10096 1183.06C10067 1189.73 10037.1 1194.94 10006.3 1198.69C9975.45 1202.65 9944.83 1204.62 9914.41 1204.62ZM10657 1204.62C10590.3 1204.62 10530.5 1189.31 10477.6 1158.69C10424.7 1127.85 10383.3 1085.35 10353.5 1031.19C10323.7 976.812 10308.8 915.667 10308.8 847.75C10308.8 779.625 10324.1 718.271 10354.8 663.688C10385.4 608.896 10427.5 565.979 10481 534.938C10534.6 503.896 10594.5 488.375 10660.7 488.375C10727 488.375 10786.4 503.896 10839.1 534.938C10892.1 565.771 10933.3 608.479 10962.9 663.062C10992.7 717.438 11007.6 778.583 11007.6 846.5C11007.6 915.042 10992.4 976.604 10962 1031.19C10931.5 1085.56 10889.7 1128.06 10836.3 1158.69C10783 1189.31 10723.2 1204.62 10657 1204.62ZM10672 1119.31C10702.8 1119.31 10731 1109 10756.6 1088.38C10782.3 1067.54 10802.3 1036.81 10816.6 996.188C10831.2 955.562 10837.4 906.812 10835.1 849.938C10832.8 792.021 10822.4 742.229 10803.8 700.562C10785.5 658.896 10762.2 627.333 10733.8 605.875C10705.5 584.417 10675.7 573.688 10644.5 573.688C10613.8 573.688 10585.7 583.896 10560.1 604.312C10534.5 624.729 10514.4 654.938 10499.8 694.938C10485.2 734.938 10479 783.167 10481.3 839.625C10483.8 898.167 10494.3 948.583 10512.6 990.875C10531.1 1033.17 10554.5 1065.15 10582.6 1086.81C10610.9 1108.48 10640.7 1119.31 10672 1119.31ZM11128 1211.19C11109 1211.19 11091.5 1206.5 11075.5 1197.12C11059.4 1187.75 11046.7 1175.04 11037.3 1159C11028 1142.96 11023.3 1125.35 11023.3 1106.19C11023.3 1087.02 11028 1069.62 11037.3 1054C11046.7 1038.17 11059.3 1025.77 11075.1 1016.81C11091.2 1007.65 11108.8 1003.06 11128 1003.06C11146.9 1003.06 11164.4 1007.65 11180.5 1016.81C11196.5 1025.77 11209.2 1038.17 11218.6 1054C11228 1069.62 11232.6 1087.02 11232.6 1106.19C11232.6 1125.15 11228 1142.75 11218.6 1159C11209.2 1175.04 11196.5 1187.75 11180.5 1197.12C11164.4 1206.5 11146.9 1211.19 11128 1211.19ZM3414.75 2721.56C3155.06 2721.56 3026.94 2516.88 3100.06 2234.06C3165.06 1978.12 3368.81 1787.19 3652.88 1787.19C3732.25 1787.19 3800.06 1802.81 3878.19 1829.69C3908.81 1839.69 3921.62 1856.56 3915.38 1888.44C3906.31 1939.69 3897.25 1992.19 3892.25 2049.69C3889.75 2084.38 3832.25 2093.12 3831.62 2041.88C3830.38 1905.31 3750.69 1846.25 3633.19 1846.25C3441.94 1846.25 3304.75 2006.25 3240.69 2236.56C3172.88 2478.44 3241.94 2663.44 3422.88 2665C3552.88 2666.25 3650.06 2584.38 3738.81 2437.5C3756 2409.06 3799.75 2422.5 3786 2463.12C3769.12 2513.12 3752.88 2563.12 3735.06 2612.19C3722.25 2647.19 3706 2662.19 3663.19 2676.88C3587.88 2703.12 3501.94 2721.56 3414.75 2721.56ZM3950.11 2721.56C3859.17 2721.56 3828.55 2597.5 3869.49 2454.06C3951.36 2171.25 4259.8 2007.5 4446.67 2053.44C4472.3 2060 4477.3 2074.06 4469.8 2097.19C4406.99 2315.94 4369.8 2449.06 4337.92 2560.31C4321.36 2616.88 4359.8 2657.81 4428.86 2543.75C4449.17 2509.38 4492.92 2534.69 4473.55 2568.12C4404.49 2685.94 4348.24 2721.56 4291.67 2721.56C4251.99 2721.56 4218.86 2693.44 4218.86 2642.19C4218.86 2614.06 4225.11 2592.5 4235.42 2560.31C4243.24 2534.69 4213.86 2521.88 4195.74 2543.75C4110.11 2650 4041.05 2721.56 3950.11 2721.56ZM3994.8 2419.69C3962.92 2532.19 3962.92 2629.69 4016.67 2629.69C4093.55 2629.69 4201.05 2496.56 4285.42 2326.25C4308.55 2280 4330.11 2217.5 4340.42 2179.06C4349.49 2145.62 4336.67 2124.06 4306.05 2117.5C4191.99 2094.38 4058.86 2196.88 3994.8 2419.69ZM4605.16 2721.56C4520.47 2721.56 4538.6 2629.69 4558.91 2552.81C4621.72 2322.19 4661.41 2173.75 4737.04 1885.94C4753.6 1820.62 4740.79 1809.06 4666.41 1804.06C4629.22 1801.25 4630.79 1761.56 4661.41 1754.06C4706.1 1743.75 4768.91 1727.19 4831.72 1707.81C4866.1 1697.81 4887.97 1711.88 4877.66 1747.5C4782.97 2099.69 4727.97 2306.88 4665.16 2540C4638.29 2638.44 4692.04 2642.19 4751.1 2543.75C4770.16 2510.62 4814.85 2533.44 4793.29 2569.38C4739.54 2657.81 4662.66 2721.56 4605.16 2721.56ZM4945.53 2721.56C4863.65 2721.56 4875.21 2621.88 4907.09 2530.94C4950.84 2405.62 4974.9 2346.56 5018.65 2223.75C5053.03 2126.56 4991.78 2122.81 4932.71 2221.25C4913.65 2254.38 4868.65 2231.56 4890.53 2195.62C4964.9 2075.31 5035.21 2043.44 5079.9 2043.44C5161.78 2043.44 5150.53 2143.12 5118.34 2234.06C5081.15 2339.06 5048.03 2424.69 5007.09 2541.25C4972.4 2638.44 5033.96 2642.19 5092.71 2543.75C5112.09 2510.62 5156.78 2533.44 5134.9 2569.38C5060.84 2689.69 4990.53 2721.56 4945.53 2721.56ZM5082.4 1853.75C5082.4 1806.88 5119.9 1770.31 5167.09 1770.31C5213.96 1770.31 5251.78 1806.88 5251.78 1853.75C5251.78 1900.94 5213.96 1938.44 5167.09 1938.44C5119.9 1938.44 5082.4 1900.94 5082.4 1853.75ZM4943.7 3046.88C4849.01 3012.19 4929.64 2880.31 5014.32 2952.19C5082.14 3008.44 5130.57 3008.44 5199.95 2720.31C5256.2 2483.75 5293.39 2339.06 5333.07 2154.69C5338.07 2129.06 5331.82 2120 5313.7 2120H5283.07C5235.57 2120 5244.64 2061.25 5286.82 2061.25H5321.51C5344.32 2061.25 5359.95 2047.19 5368.7 2019.06C5446.82 1756.56 5669.64 1665.62 5765.57 1719.38C5837.14 1759.06 5766.82 1874.38 5683.7 1809.06C5601.82 1745 5540.26 1764.38 5493.07 1952.5L5474.95 2022.81C5468.7 2049.69 5477.45 2062.5 5505.89 2062.5C5524.95 2062.5 5554.32 2062.5 5592.76 2061.25C5642.76 2060 5633.7 2121.25 5590.26 2120C5546.82 2118.75 5515.89 2118.75 5484.01 2118.75C5462.14 2118.75 5449.32 2129.06 5441.82 2159.69C5400.89 2339.06 5374.01 2444.06 5326.51 2642.19C5240.89 3004.69 5037.14 3081.25 4943.7 3046.88ZM5749.38 2721.56C5566.25 2721.56 5521.56 2537.5 5572.81 2360.62C5627.81 2170 5778.75 2043.44 5932.5 2043.44C6116.88 2043.44 6160.31 2226.25 6109.06 2401.56C6051.56 2598.75 5899.06 2721.56 5749.38 2721.56ZM5693.12 2360.62C5638.12 2548.75 5665 2675.62 5765.94 2675.62C5858.12 2675.62 5940 2570.62 5990 2395.31C6043.75 2203.44 6014.38 2089.38 5915.94 2089.38C5823.75 2089.38 5743.12 2189.38 5693.12 2360.62ZM6248.18 2719.06C6205.68 2725.62 6190.36 2710.31 6200.68 2673.12C6264.74 2456.88 6305.68 2312.19 6336.3 2199.38C6352.86 2136.88 6305.68 2121.25 6248.18 2216.25C6225.05 2255.62 6178.8 2232.81 6203.18 2193.12C6276.3 2075.31 6325.99 2043.44 6383.8 2043.44C6429.74 2043.44 6455.36 2079.06 6455.36 2125.31C6455.36 2146.88 6451.61 2165 6438.8 2207.19C6432.24 2228.75 6459.11 2243.12 6479.74 2217.5C6556.61 2121.25 6619.11 2043.44 6678.18 2043.44C6726.61 2043.44 6747.24 2088.12 6735.68 2126.56C6722.86 2170 6672.86 2205.94 6617.86 2182.81C6590.99 2171.25 6561.61 2181.56 6523.18 2226.25C6470.68 2287.81 6433.49 2345.31 6392.55 2430C6379.74 2456.88 6369.74 2479.69 6356.93 2511.88C6341.61 2547.5 6333.8 2578.44 6309.43 2661.56C6299.11 2696.25 6290.36 2712.81 6256.93 2717.81L6248.18 2719.06ZM7166.98 2721.56C7085.1 2721.56 7096.66 2621.88 7128.54 2530.94C7156.66 2451.56 7193.85 2353.12 7220.73 2272.5C7245.1 2199.38 7252.6 2135.31 7196.35 2135.31C7110.73 2135.31 6949.48 2331.25 6871.35 2580.94C6859.79 2616.88 6854.79 2637.19 6848.23 2662.81C6839.16 2696.25 6827.91 2712.81 6795.73 2717.81L6786.98 2719.06C6745.73 2725.62 6727.91 2711.56 6739.48 2674.38C6790.73 2505.31 6831.66 2364.69 6875.1 2199.38C6891.66 2136.88 6844.48 2121.25 6786.98 2216.25C6763.85 2255.62 6717.6 2232.81 6741.98 2193.12C6815.1 2075.31 6867.6 2043.44 6918.54 2043.44C6971.04 2043.44 6994.16 2076.56 6994.16 2125.31C6994.16 2144.38 6990.41 2165 6978.85 2201.88C6969.79 2232.81 7000.73 2244.38 7021.04 2216.25C7106.98 2105.94 7183.54 2043.44 7252.6 2043.44C7360.41 2043.44 7369.16 2146.88 7321.98 2284.06C7291.04 2372.19 7261.66 2447.81 7228.54 2541.25C7193.85 2638.44 7255.41 2642.19 7314.16 2543.75C7333.23 2510.62 7378.23 2533.44 7356.35 2569.38C7282.29 2689.69 7211.66 2721.56 7166.98 2721.56ZM7515.77 2721.56C7433.9 2721.56 7445.46 2621.88 7477.34 2530.94C7521.09 2405.62 7545.15 2346.56 7588.9 2223.75C7623.27 2126.56 7562.02 2122.81 7502.96 2221.25C7483.9 2254.38 7438.9 2231.56 7460.77 2195.62C7535.15 2075.31 7605.46 2043.44 7650.15 2043.44C7732.02 2043.44 7720.77 2143.12 7688.59 2234.06C7651.4 2339.06 7618.27 2424.69 7577.34 2541.25C7542.65 2638.44 7604.21 2642.19 7662.96 2543.75C7682.34 2510.62 7727.02 2533.44 7705.15 2569.38C7631.09 2689.69 7560.77 2721.56 7515.77 2721.56ZM7652.65 1853.75C7652.65 1806.88 7690.15 1770.31 7737.34 1770.31C7784.21 1770.31 7822.02 1806.88 7822.02 1853.75C7822.02 1900.94 7784.21 1938.44 7737.34 1938.44C7690.15 1938.44 7652.65 1900.94 7652.65 1853.75ZM7861.76 2721.56C7770.83 2721.56 7740.2 2597.5 7781.14 2454.06C7863.01 2171.25 8171.45 2007.5 8358.33 2053.44C8383.95 2060 8388.95 2074.06 8381.45 2097.19C8318.64 2315.94 8281.45 2449.06 8249.58 2560.31C8233.01 2616.88 8271.45 2657.81 8340.51 2543.75C8360.83 2509.38 8404.58 2534.69 8385.2 2568.12C8316.14 2685.94 8259.89 2721.56 8203.33 2721.56C8163.64 2721.56 8130.51 2693.44 8130.51 2642.19C8130.51 2614.06 8136.76 2592.5 8147.08 2560.31C8154.89 2534.69 8125.51 2521.88 8107.39 2543.75C8021.76 2650 7952.7 2721.56 7861.76 2721.56ZM7906.45 2419.69C7874.58 2532.19 7874.58 2629.69 7928.33 2629.69C8005.2 2629.69 8112.7 2496.56 8197.08 2326.25C8220.2 2280 8241.76 2217.5 8252.08 2179.06C8261.14 2145.62 8248.33 2124.06 8217.7 2117.5C8103.64 2094.38 7970.51 2196.88 7906.45 2419.69Z" fill="#9D9D9D"/>
</svg>
