<svg width="230" height="48" viewBox="0 0 230 48" fill="none" xmlns="http://www.w3.org/2000/svg">
<path d="M24.0352 25.9494C24.9216 25.9494 25.7993 26.124 26.6183 26.4632C27.4372 26.8024 28.1813 27.2996 28.8081 27.9264C29.4349 28.5532 29.9321 29.2974 30.2713 30.1163C30.6106 30.9352 30.7852 31.813 30.7852 32.6994C30.7852 33.5858 30.6106 34.4636 30.2713 35.2825C29.9321 36.1015 29.4349 36.8456 28.8081 37.4724C28.1813 38.0992 27.4372 38.5964 26.6183 38.9356C25.7993 39.2748 24.9216 39.4494 24.0352 39.4494C22.2449 39.4494 20.5281 38.7383 19.2622 37.4724C17.9963 36.2065 17.2852 34.4896 17.2852 32.6994C17.2852 30.9092 17.9963 29.1923 19.2622 27.9264C20.5281 26.6606 22.2449 25.9494 24.0352 25.9494ZM32.8852 8.54941C33.8849 8.55143 34.8718 8.77552 35.7744 9.20548C36.677 9.63544 37.4728 10.2605 38.1044 11.0356C38.7359 11.8107 39.1874 12.7164 39.4262 13.6872C39.665 14.6581 39.6851 15.6698 39.4852 16.6494C39.0352 18.7494 38.5852 21.1494 39.7852 22.9494L41.7352 25.7994L42.1852 26.0994L42.6352 25.7994L44.5852 22.9494C45.7852 21.1494 45.3352 18.8994 44.8852 16.7994C44.6857 15.813 44.7093 14.7945 44.9542 13.8184C45.1992 12.8423 45.6593 11.9333 46.3009 11.158C46.9425 10.3826 47.7494 9.7606 48.6624 9.33736C49.5755 8.91412 50.5716 8.7004 51.5779 8.71183C52.5842 8.72327 53.5752 8.95957 54.4784 9.40345C55.3816 9.84733 56.1741 10.4876 56.798 11.2773C57.4218 12.067 57.8611 12.9862 58.0838 13.9676C58.3066 14.949 58.307 15.9678 58.0852 16.9494C57.6352 18.8994 57.1852 20.9994 58.0852 22.7994L60.0352 25.7994V25.9494C61.4451 25.9295 62.826 26.3516 63.9838 27.1566C65.1416 27.9616 66.0182 29.1089 66.4906 30.4376C66.9629 31.7663 67.0073 33.2095 66.6175 34.5647C66.2277 35.9199 65.4233 37.1189 64.3171 37.9935C63.211 38.8682 61.8587 39.3744 60.4502 39.4412C59.0416 39.5079 57.6476 39.1319 56.4636 38.3659C55.2797 37.5998 54.3655 36.4822 53.8492 35.17C53.3329 33.8578 53.2406 32.4168 53.5852 31.0494C54.0352 29.0994 54.4852 26.9994 53.5852 25.1994L51.7852 22.1994H51.4852L49.5352 24.7494C48.3352 26.5494 48.7852 28.9494 49.2352 31.0494C49.4765 32.025 49.497 33.0421 49.2952 34.0267C49.0933 35.0112 48.6741 35.9382 48.0682 36.74C47.4624 37.5418 46.6851 38.1982 45.7932 38.6613C44.9012 39.1244 43.9171 39.3825 42.9127 39.4168C41.9083 39.451 40.909 39.2605 39.9875 38.8593C39.0661 38.458 38.246 37.856 37.5869 37.0973C36.9278 36.3386 36.4465 35.4423 36.178 34.4738C35.9096 33.5054 35.8608 32.4892 36.0352 31.4994C36.5352 29.4994 36.3352 27.5994 35.4352 25.7994L34.0852 23.8494C33.1852 22.6494 31.9852 21.8494 30.4852 21.4494C29.0157 20.8842 27.79 19.8231 27.0202 18.4497C26.2504 17.0762 25.9849 15.4769 26.2697 13.9285C26.5545 12.38 27.3716 10.9798 28.5797 9.97012C29.7877 8.96044 31.3107 8.40483 32.8852 8.39941M101.435 32.9994V22.6494C101.435 21.6494 101.085 20.7994 100.385 20.0994C99.6852 19.3994 98.8352 19.0494 97.8352 19.0494C96.5352 19.0494 95.4852 19.5494 94.6852 20.5494C93.8852 21.5494 93.3352 22.6994 93.0352 23.9994V32.9994H88.8352V15.8994H93.1852V19.1994C93.7852 18.1994 94.5852 17.2994 95.5852 16.4994C96.5852 15.8994 97.8352 15.5494 99.3352 15.4494C100.535 15.4494 101.685 15.7994 102.785 16.4994C103.885 17.1994 104.635 18.0994 105.035 19.1994C105.635 17.9994 106.485 17.0994 107.585 16.4994C108.721 15.8253 110.015 15.4631 111.335 15.4494C113.335 15.4494 114.885 16.0494 115.985 17.2494C117.285 18.4494 117.935 20.0494 117.935 22.0494V32.9994H113.435V23.0994C113.435 21.6994 113.135 20.6994 112.535 20.0994C111.935 19.4994 111.085 19.1494 109.985 19.0494C108.785 19.0494 107.735 19.4994 106.835 20.3994C105.935 21.2994 105.485 22.4494 105.485 23.8494V32.9994H101.435ZM129.335 33.4494C127.835 33.4494 126.335 33.0994 124.835 32.3994C123.574 31.5685 122.542 30.4337 121.835 29.0994C121.135 27.5994 120.785 26.0994 120.785 24.5994C120.785 22.7994 121.135 21.1994 121.835 19.7994C122.6 18.4735 123.689 17.3645 125.002 16.5771C126.314 15.7897 127.806 15.3499 129.335 15.2994C130.735 15.2994 132.035 15.6494 133.235 16.3494C134.435 17.0494 135.335 17.8494 135.935 18.7494V15.8994H140.435V32.9994H135.935V29.9994C135.335 31.1994 134.435 32.0994 133.235 32.6994C132.035 33.1994 130.735 33.4494 129.335 33.4494ZM130.535 29.9994C132.135 29.9994 133.435 29.4994 134.435 28.4994C135.435 27.4994 135.935 26.1494 135.935 24.4494C135.935 22.7494 135.435 21.3994 134.435 20.3994C133.435 19.3994 132.135 18.8994 130.535 18.8994C128.935 18.8994 127.635 19.3994 126.635 20.3994C125.635 21.3994 125.135 22.7494 125.135 24.4494C125.135 26.1494 125.635 27.4994 126.635 28.4994C127.635 29.4994 128.935 29.9994 130.535 29.9994ZM151.535 33.4494C149.38 33.594 147.232 33.0702 145.385 31.9494C143.885 30.7494 143.085 29.2494 142.985 27.4494L147.035 26.9994C147.035 27.9994 147.435 28.7994 148.235 29.3994C149.035 29.9994 150.135 30.3494 151.535 30.4494C152.441 30.4619 153.33 30.2005 154.085 29.6994C154.785 29.2994 155.135 28.7994 155.135 28.1994C155.161 27.8867 155.088 27.5737 154.926 27.3046C154.765 27.0356 154.523 26.8239 154.235 26.6994L152.135 25.7994L146.435 24.4494C145.635 24.1494 144.935 23.6994 144.335 23.0994C143.735 22.4994 143.435 21.6494 143.435 20.5494C143.435 18.9494 144.135 17.6494 145.535 16.6494C146.935 15.6494 148.835 15.1494 151.235 15.1494C153.635 15.1494 155.435 15.6494 156.635 16.6494C157.326 17.0126 157.911 17.5493 158.331 18.2068C158.752 18.8643 158.995 19.6199 159.035 20.3994L154.835 20.5494C154.835 19.9494 154.535 19.3494 153.935 18.7494C153.335 18.1494 152.435 17.8994 151.235 17.9994C150.235 17.9994 149.385 18.1994 148.685 18.5994C147.985 18.9994 147.685 19.4994 147.785 20.0994C147.885 20.6994 148.185 21.1994 148.685 21.5994L150.935 22.1994L156.485 23.5494C157.285 23.8494 158.035 24.3494 158.735 25.0494C159.235 25.6494 159.485 26.4994 159.485 27.5994C159.485 29.3994 158.785 30.7994 157.385 31.7994C155.885 32.7994 153.885 33.2994 151.385 33.2994M170.285 33.2994C168.385 33.2994 166.885 32.7994 165.785 31.7994C164.655 30.6916 164.008 29.182 163.985 27.5994V19.0494H160.235V15.7494H163.985V10.7994H168.335V15.8994H173.885V19.1994H168.335V26.9994C168.335 27.9994 168.535 28.6994 168.935 29.0994C169.435 29.5994 170.085 29.8494 170.885 29.8494L172.385 29.5494L173.735 28.6494L174.335 32.2494C174.035 32.5494 173.485 32.7994 172.685 32.9994C171.985 33.1994 171.185 33.2994 170.285 33.2994ZM176.735 32.8494V15.8994H181.085V19.4994C181.585 18.2994 182.335 17.2994 183.335 16.4994C184.225 15.8223 185.286 15.4073 186.4 15.3013C187.513 15.1953 188.633 15.4024 189.635 15.8994L189.185 20.0994L187.835 19.4994L186.335 19.1994L184.835 19.4994C184.135 19.6994 183.535 19.9994 183.035 20.3994C182.535 20.7994 182.035 21.3994 181.535 22.1994C181.235 22.8994 181.085 23.8994 181.085 25.1994V32.9994L176.735 32.8494ZM198.785 33.2994C197.185 33.2994 195.685 32.9494 194.285 32.2494C193.024 31.4185 191.992 30.2837 191.285 28.9494C190.485 27.4494 190.085 25.9494 190.085 24.4494C190.085 22.6494 190.435 21.0494 191.135 19.6494C191.9 18.3235 192.989 17.2145 194.302 16.4271C195.614 15.6397 197.106 15.1999 198.635 15.1494C200.135 15.1494 201.435 15.4994 202.535 16.1994C203.635 16.8994 204.585 17.6994 205.385 18.5994V15.7494H209.735V32.9994H205.235V29.9994C204.635 31.1994 203.735 32.0994 202.535 32.6994C201.435 33.1994 200.185 33.4494 198.785 33.4494M199.835 29.9994C201.435 29.9994 202.735 29.4994 203.735 28.4994C204.735 27.4994 205.235 26.1494 205.235 24.4494C205.235 22.7494 204.735 21.3994 203.735 20.3994C202.735 19.3994 201.435 18.8994 199.835 18.8994C198.235 18.8994 196.935 19.3994 195.935 20.3994C194.935 21.3994 194.435 22.7494 194.435 24.4494C194.435 26.1494 194.935 27.4994 195.935 28.4994C196.935 29.4994 198.235 29.9994 199.835 29.9994Z" fill="#9D9D9D"/>
</svg>
