<svg width="143" height="33" viewBox="0 0 143 33" fill="none" xmlns="http://www.w3.org/2000/svg">
<g clip-path="url(#clip0_5622_2605)">
<path d="M25.4002 13.2077V5.38218C25.4002 4.54242 24.7189 3.87305 23.8917 3.87305H16.0697C14.841 3.87305 13.6246 4.11644 12.4932 4.57892C11.3619 5.05357 10.3279 5.73511 9.46422 6.61139L9.40339 6.67224C8.2599 7.82843 7.44485 9.26453 7.03125 10.8467C7.77331 10.652 8.53965 10.5546 9.30604 10.5424C11.3497 10.5181 13.3569 11.1753 14.987 12.4045C16.459 13.4998 17.5781 15.009 18.1864 16.7494C18.8189 18.514 18.8919 20.437 18.4175 22.2503C19.9867 21.8366 21.4344 21.0212 22.5901 19.8772L22.6509 19.8163C23.5145 18.9522 24.2079 17.9177 24.6823 16.7858C25.1568 15.654 25.3879 14.437 25.3879 13.2077H25.4002Z" fill="#9D9D9D"/>
<path d="M6.79278 13.0745C6.80489 10.6738 7.76228 8.37012 9.44682 6.64844L2.9389 13.1593C2.91468 13.1836 2.89042 13.1957 2.86618 13.2199C1.2786 14.7961 0.321219 16.9059 0.163673 19.1367C0.0182454 21.2221 0.563588 23.2833 1.72701 25.005C1.83798 25.1692 2.13909 25.2233 2.30875 25.0657L6.29588 21.0888C7.54415 19.84 7.93197 17.9848 7.33813 16.3238C6.96244 15.2933 6.78067 14.19 6.79278 13.0745Z" fill="#9D9D9D"/>
<path d="M22.6109 19.8164C21.3627 21.041 19.7993 21.8898 18.1027 22.2656C16.3939 22.6415 14.6245 22.5323 12.9764 21.9504C12.9764 21.9504 12.9643 21.9504 12.9521 21.9504C11.2918 21.3563 9.43767 21.7442 8.18942 22.981L4.20222 26.9577C4.03256 27.1276 4.05679 27.4064 4.26282 27.5398C5.98371 28.6916 8.04399 29.2493 10.1284 29.1038C12.3583 28.9463 14.4549 27.9883 16.0424 26.4L16.1031 26.3394L22.6109 19.8285V19.8164Z" fill="#9D9D9D"/>
<path d="M132.324 32.3135H127.441L130.882 24.5465L124 9.07812H128.916L132.926 18.7748C133.066 19.1138 133.547 19.1131 133.686 18.7739L137.665 9.07812H142.614L132.324 32.3135Z" fill="#9D9D9D"/>
<path d="M117.49 25.4631V13.0098H114.18V9.07712H117.49V6.94694C117.49 5.00247 118.08 3.47311 119.259 2.35887C120.439 1.24462 121.936 0.6875 123.749 0.6875C124.863 0.6875 125.814 0.807664 126.6 1.04799V5.0134C126.076 4.81676 125.464 4.71845 124.765 4.71845C123.782 4.71845 123.072 4.93692 122.635 5.37388C122.198 5.789 121.979 6.49906 121.979 7.50406V9.07712H126.6V13.0098H121.979V25.4631H117.49Z" fill="#9D9D9D"/>
<path d="M110.169 6.38982C109.405 6.38982 108.738 6.11671 108.17 5.57052C107.602 5.00247 107.318 4.32519 107.318 3.53866C107.318 2.75213 107.602 2.08576 108.17 1.53957C108.738 0.971524 109.405 0.6875 110.169 0.6875C110.978 0.6875 111.655 0.971524 112.201 1.53957C112.769 2.08576 113.053 2.75213 113.053 3.53866C113.053 4.32519 112.769 5.00247 112.201 5.57052C111.655 6.11671 110.978 6.38982 110.169 6.38982ZM107.941 25.4631V9.07712H112.431V25.4631H107.941Z" fill="#9D9D9D"/>
<path d="M100.117 25.4618V0.882812H104.607V25.4618H100.117Z" fill="#9D9D9D"/>
<path d="M95.0441 25.6594C93.2089 25.6594 91.7013 25.1568 90.5215 24.1519C89.3635 23.125 88.7847 21.6503 88.7847 19.7277V13.0094H85.4746V9.07679H88.7847V4.52148H93.2743V9.07679H97.8953V13.0094H93.2743V18.8429C93.2743 19.8478 93.4928 20.5688 93.9298 21.0057C94.3667 21.4208 95.0768 21.6285 96.0599 21.6285C96.7591 21.6285 97.3708 21.5302 97.8953 21.3335V25.2989C97.1086 25.5392 96.1582 25.6594 95.0441 25.6594Z" fill="#9D9D9D"/>
<path d="M68.6699 25.4633V9.07729H73.1596V10.275C73.1596 10.4775 73.4353 10.5671 73.5693 10.4153C74.5703 9.28298 75.9958 8.7168 77.846 8.7168C79.8124 8.7168 81.3526 9.37225 82.4668 10.6831C83.603 11.9722 84.171 13.6981 84.171 15.8611V25.4633H79.6812V16.6149C79.6812 15.4133 79.43 14.4847 78.9274 13.8293C78.425 13.1519 77.7149 12.8133 76.7973 12.8133C75.705 12.8133 74.82 13.2066 74.1428 13.993C73.4874 14.7797 73.1596 15.9376 73.1596 17.467V25.4633H68.6699Z" fill="#9D9D9D"/>
<path d="M63.0836 6.38982C62.3188 6.38982 61.6525 6.11671 61.0845 5.57052C60.5165 5.00247 60.2324 4.32519 60.2324 3.53866C60.2324 2.75213 60.5165 2.08576 61.0845 1.53957C61.6525 0.971524 62.3188 0.6875 63.0836 0.6875C63.892 0.6875 64.5692 0.971524 65.1155 1.53957C65.6835 2.08576 65.9675 2.75213 65.9675 3.53866C65.9675 4.32519 65.6835 5.00247 65.1155 5.57052C64.5692 6.11671 63.892 6.38982 63.0836 6.38982ZM60.855 25.4631V9.07712H65.3448V25.4631H60.855Z" fill="#9D9D9D"/>
<path d="M53.2303 25.4633V16.7132C53.2303 14.1132 52.3782 12.8133 50.6742 12.8133C49.6909 12.8133 48.9044 13.1847 48.3145 13.9276C47.7465 14.6704 47.4406 15.7737 47.3969 17.2375V25.4633H42.9072V16.7132C42.9072 14.1132 42.0551 12.8133 40.3509 12.8133C39.346 12.8133 38.5485 13.2066 37.9586 13.993C37.3687 14.7797 37.0738 15.9376 37.0738 17.467V25.4633H32.584V9.07729H37.0738V10.2868C37.0738 10.4883 37.3446 10.577 37.4771 10.4251C38.4688 9.28623 39.7873 8.7168 41.4324 8.7168C43.5943 8.7168 45.2226 9.60932 46.3172 11.3944C46.4036 11.5352 46.6161 11.533 46.7019 11.3919C47.1752 10.614 47.8329 9.99542 48.6751 9.5361C49.6363 8.9899 50.6086 8.7168 51.5917 8.7168C53.5362 8.7168 55.0436 9.36131 56.1142 10.6503C57.1848 11.9394 57.7201 13.7091 57.7201 15.9594V25.4633H53.2303Z" fill="#9D9D9D"/>
</g>
<defs>
<clipPath id="clip0_5622_2605">
<rect width="143" height="33" fill="white"/>
</clipPath>
</defs>
</svg>
