<svg width="230" height="44" viewBox="0 0 1118 214" fill="none" xmlns="http://www.w3.org/2000/svg">
<g clip-path="url(#clip0_2048_294)">
<path d="M10.1302 209.614C6.8487 209.614 4.26134 208.394 2.36815 205.953C0.474958 203.513 -0.17714 200.842 0.411851 197.939C1.00084 194.994 2.89403 192.828 6.09143 191.439C11.3503 189.42 15.0104 187.484 17.0719 185.633C19.1755 183.782 20.5428 181.069 21.1738 177.493C21.8469 173.875 22.2465 167.711 22.3728 159.003C22.5412 145.077 22.6042 131.025 22.5622 116.848C22.5622 102.67 22.478 84.7684 22.3098 63.144C22.2255 57.7589 21.7417 53.6991 20.8582 50.9646C20.0169 48.2299 18.4813 45.9581 16.2515 44.1491C14.0218 42.3399 10.3616 40.2153 5.27105 37.7753C2.41022 36.2607 0.706349 34.0731 0.159427 31.2122C-0.345425 28.3513 0.348745 25.8061 2.24194 23.5764C4.1772 21.3466 6.89077 20.2317 10.3827 20.2317C19.4279 20.3159 28.1997 20.3579 36.698 20.3579C45.1963 20.3579 55.3355 20.3159 67.1152 20.2317C83.1023 20.0634 96.9644 22.1249 108.702 26.4161C120.44 30.7073 129.443 36.955 135.712 45.1588C142.022 53.3204 145.178 62.9968 145.178 74.1877C145.178 85.7993 141.875 96.0225 135.27 104.857C128.707 113.65 119.599 120.529 107.945 125.493C96.3334 130.457 83.1233 133.192 68.3142 133.697C64.9486 133.823 62.2982 134.265 60.3628 135.022C58.4276 135.779 57.0182 136.999 56.1347 138.682C55.2513 140.365 54.7674 142.679 54.6832 145.624C54.6412 146.508 54.6202 147.181 54.6202 147.643C54.6202 148.064 54.5992 148.716 54.557 149.6C54.473 151.619 54.4308 153.617 54.4308 155.595C54.4308 157.572 54.452 159.549 54.494 161.527C54.7044 169.604 55.1881 175.242 55.9453 178.439C56.7448 181.595 58.2804 183.972 60.5522 185.57C62.866 187.169 67.2205 189.146 73.6151 191.502C76.7704 192.764 78.7058 194.889 79.4209 197.876C80.1362 200.821 79.5051 203.513 77.5277 205.953C75.5505 208.394 72.6476 209.614 68.819 209.614C57.9647 209.446 48.0781 209.362 39.159 209.362C30.2402 209.362 20.5638 209.446 10.1302 209.614ZM63.8967 114.891C73.7413 115.228 82.0926 113.797 88.95 110.6C95.8075 107.403 100.961 102.817 104.411 96.8428C107.861 90.8688 109.586 83.9271 109.586 76.0177C109.586 68.1083 107.861 61.335 104.411 55.6975C101.003 50.0599 95.9547 45.8109 89.2655 42.95C82.5762 40.0471 74.4566 38.7219 64.9064 38.9744C62.3822 39.0164 60.3628 39.395 58.8482 40.1103C57.3759 40.8254 56.303 41.9613 55.6299 43.518C54.9568 45.0746 54.5992 47.1782 54.557 49.8287C54.515 53.4888 54.494 58.958 54.494 66.2363C54.4098 80.5824 54.4308 93.9189 54.557 106.246C54.557 108.013 54.9356 109.548 55.6929 110.852C56.4924 112.157 57.5861 113.166 58.9744 113.881C60.3628 114.555 62.0035 114.891 63.8967 114.891Z" fill="#9D9D9D"/>
<path d="M213.216 212.958C199.753 212.958 187.679 209.866 176.993 203.681C166.307 197.455 157.956 188.873 151.94 177.934C145.924 166.954 142.916 154.606 142.916 140.891C142.916 127.134 146.008 114.744 152.192 103.721C158.377 92.6567 166.875 83.99 177.687 77.7215C188.5 71.4529 200.595 68.3186 213.973 68.3186C227.352 68.3186 239.363 71.4529 250.008 77.7215C260.692 83.948 269.022 92.5724 274.998 103.595C281.014 114.576 284.02 126.923 284.02 140.638C284.02 154.48 280.951 166.912 274.808 177.934C268.665 188.915 260.21 197.497 249.438 203.681C238.669 209.866 226.595 212.958 213.216 212.958ZM216.245 195.73C222.471 195.73 228.172 193.648 233.348 189.483C238.521 185.276 242.56 179.07 245.464 170.867C248.408 162.663 249.65 152.818 249.186 141.333C248.723 129.637 246.621 119.582 242.875 111.168C239.174 102.754 234.462 96.3798 228.739 92.0466C223.018 87.7134 217.003 85.5467 210.692 85.5467C204.506 85.5467 198.828 87.6081 193.653 91.7312C188.478 95.854 184.418 101.954 181.474 110.032C178.529 118.11 177.288 127.849 177.75 139.25C178.255 151.072 180.359 161.253 184.061 169.794C187.805 178.334 192.517 184.792 198.197 189.167C203.919 193.543 209.935 195.73 216.245 195.73Z" fill="#9D9D9D"/>
<path d="M291.351 209.109C287.987 209.024 285.378 207.784 283.526 205.385C281.718 202.988 281.109 200.358 281.696 197.497C282.328 194.636 284.158 192.575 287.187 191.313C291.941 189.672 295.222 188.115 297.032 186.643C298.883 185.171 300.123 182.751 300.755 179.386C301.428 176.02 301.848 170.256 302.018 162.095C302.228 145.477 302.312 130.058 302.27 115.838C302.228 101.576 302.08 82.5806 301.828 58.8527C301.828 56.7913 301.807 54.7508 301.765 52.7314C301.765 48.8189 301.365 45.6845 300.566 43.3285C299.808 40.9725 298.461 38.8901 296.527 37.0811C294.592 35.2719 291.668 33.2735 287.754 31.0859C285.44 29.6975 283.948 27.9306 283.273 25.7849C282.601 23.5973 282.769 21.4727 283.778 19.4112C284.83 17.3077 286.577 15.6879 289.017 14.552C292.003 13.2899 296.254 11.3336 301.765 8.68313C307.906 5.69609 312.367 3.48737 315.144 2.05696C318.256 0.500343 321.117 -0.172791 323.726 0.0375633C326.333 0.205848 328.395 1.29969 329.909 3.31909C331.424 5.33849 332.181 8.19932 332.181 11.9016C332.099 29.5713 332.034 47.9354 331.992 66.9935C331.992 86.0094 332.034 102.733 332.119 117.163C332.119 119.687 332.644 121.622 333.696 122.969C334.79 124.273 336.2 124.862 337.925 124.736C339.691 124.567 341.521 123.684 343.415 122.085L346.444 119.561C347.496 118.677 348.274 118.025 348.779 117.605C349.284 117.142 350.041 116.469 351.051 115.585C353.912 113.019 356.037 111.126 357.424 109.906C358.856 108.686 360.958 106.834 363.734 104.352C365.586 102.796 366.869 101.239 367.583 99.6826C368.3 98.0838 368.488 96.5482 368.153 95.0757C367.858 93.8556 367.163 92.7197 366.069 91.668C365.019 90.6162 363.587 89.6275 361.778 88.7021C359.338 87.1033 357.909 84.9787 357.486 82.3282C357.066 79.6777 357.761 77.3429 359.57 75.3235C361.42 73.2619 364.134 72.2102 367.711 72.1682C375.621 72.126 383.803 72.105 392.259 72.105C400.758 72.105 408.351 72.126 415.039 72.1682C419.205 72.2102 422.255 73.4933 424.191 76.0176C426.126 78.4998 426.546 81.2555 425.453 84.2846C424.359 87.2715 421.962 89.4171 418.258 90.7215C413.085 92.5724 408.079 94.7603 403.24 97.2845C398.444 99.8088 393.69 103.006 388.977 106.877C386.915 108.644 383.319 111.757 378.185 116.216C375.873 118.236 373.559 120.255 371.245 122.275C370.36 123.074 369.478 123.873 368.593 124.673C367.753 125.43 366.911 126.166 366.069 126.881C364.514 128.27 363.44 129.616 362.852 130.92C362.305 132.182 362.242 133.486 362.662 134.833C363.125 136.179 364.092 137.609 365.564 139.124L376.103 149.789C382.456 156.268 390.282 164.114 399.579 173.328C403.07 176.819 406.122 179.638 408.729 181.784C411.338 183.887 413.884 185.633 416.366 187.022C418.89 188.41 421.75 189.651 424.949 190.745C428.565 192.049 430.859 194.195 431.827 197.182C432.794 200.127 432.269 202.841 430.25 205.323C428.273 207.805 425.201 209.067 421.035 209.109C413.295 209.152 405.322 209.172 397.117 209.172C388.957 209.172 380.794 209.152 372.632 209.109C369.268 209.067 366.681 208.077 364.871 206.143C363.104 204.25 362.305 202.041 362.472 199.517C362.682 196.993 363.777 194.931 365.754 193.332C367.606 192.196 368.846 190.871 369.478 189.357C370.108 187.842 370.067 186.159 369.35 184.308C368.678 182.415 367.311 180.416 365.249 178.313L354.774 167.774C352.585 165.587 350.419 163.42 348.274 161.274C346.127 159.129 343.983 156.983 341.836 154.837C340.196 153.239 338.639 152.418 337.167 152.376C335.737 152.292 334.58 152.881 333.696 154.143C332.856 155.405 332.434 157.046 332.434 159.066V167.269C332.434 170.887 332.496 173.79 332.624 175.978C332.791 178.166 333.108 180.017 333.571 181.531C334.076 183.298 334.811 184.75 335.778 185.886C336.788 186.98 338.114 187.905 339.754 188.662C341.396 189.42 343.668 190.219 346.57 191.061C349.893 192.28 351.913 194.342 352.628 197.245C353.385 200.148 352.818 202.819 350.923 205.26C349.074 207.742 346.36 209.024 342.783 209.109C334.411 209.194 325.913 209.214 317.288 209.172C308.663 209.172 300.018 209.152 291.351 209.109Z" fill="#9D9D9D"/>
<path d="M488.57 213.021C475.654 213.021 464.128 210.014 453.988 203.998C443.849 197.981 435.919 189.546 430.196 178.692C424.517 167.838 421.678 155.405 421.678 141.396C421.678 127.092 424.874 114.386 431.27 103.28C437.706 92.1309 446.205 83.5063 456.765 77.4061C467.324 71.3058 478.621 68.2557 490.652 68.2557C500.959 68.2557 510.384 70.5276 518.924 75.0712C527.464 79.5727 534.195 85.9255 539.118 94.1293C544.039 102.291 546.418 111.589 546.249 122.022C546.249 124.841 545.744 127.155 544.734 128.964C543.724 130.773 542.21 132.119 540.19 133.003C538.213 133.886 535.732 134.328 532.745 134.328H465.41C463.138 134.328 461.286 134.749 459.857 135.59C458.427 136.432 457.395 137.673 456.765 139.313C456.175 140.954 456.008 142.974 456.26 145.372C457.142 155.006 459.457 163.041 463.201 169.478C466.987 175.915 471.741 180.69 477.464 183.803C483.227 186.874 489.6 188.41 496.583 188.41C500.539 188.41 504.409 187.926 508.195 186.959C512.024 185.949 515.748 184.35 519.366 182.163C522.983 179.933 526.434 177.072 529.716 173.58C532.113 171.14 534.722 170.088 537.541 170.425C540.4 170.719 542.462 172.108 543.724 174.59C544.987 177.03 544.797 179.828 543.157 182.983C539.161 190.43 534.112 196.383 528.011 200.842C521.911 205.301 515.495 208.437 508.764 210.244C502.032 212.096 495.301 213.021 488.57 213.021ZM505.418 117.479C506.975 117.479 508.28 117.163 509.332 116.532C510.426 115.901 511.184 114.975 511.604 113.755C512.066 112.535 512.214 111.063 512.046 109.338C511.456 103.995 509.922 99.5565 507.438 96.0225C504.998 92.4464 502.012 89.8169 498.478 88.1341C494.944 86.4514 491.22 85.6099 487.308 85.6099C483.27 85.6099 479.273 86.4934 475.317 88.2603C471.363 90.0273 467.807 92.741 464.653 96.4012C461.539 100.061 459.289 104.563 457.9 109.906C457.48 111.462 457.458 112.809 457.837 113.945C458.215 115.081 458.889 115.964 459.857 116.595C460.824 117.184 461.981 117.479 463.328 117.479H505.418Z" fill="#9D9D9D"/>
<path d="M579.649 213.023C575.796 213.023 572.24 212.074 568.981 210.18C565.72 208.285 563.137 205.717 561.233 202.473C559.326 199.232 558.373 195.674 558.373 191.8C558.373 187.926 559.326 184.41 561.233 181.252C563.137 178.052 565.699 175.546 568.916 173.736C572.178 171.883 575.754 170.957 579.649 170.957C583.502 170.957 587.061 171.883 590.32 173.736C593.581 175.546 596.164 178.052 598.068 181.252C599.975 184.41 600.928 187.926 600.928 191.8C600.928 195.632 599.975 199.19 598.068 202.473C596.164 205.717 593.581 208.285 590.32 210.18C587.061 212.074 583.502 213.023 579.649 213.023Z" fill="#9D9D9D"/>
<path d="M672.388 211.696C658.838 211.696 646.984 208.495 636.821 202.096C626.659 195.652 618.848 187.041 613.385 176.262C607.965 165.483 605.255 153.777 605.255 141.145C605.255 127.712 608.177 115.312 614.02 103.943C619.906 92.574 628.311 83.521 639.236 76.7839C650.201 70.0046 662.988 66.615 677.596 66.615C686.233 66.615 694.024 67.8151 700.969 70.2152C707.914 72.6152 713.651 75.8154 718.18 79.8156C722.754 83.7737 725.951 88.1527 727.77 92.953C730.735 100.743 730.036 107.122 725.676 112.091C721.314 117.017 715.789 118.807 709.099 117.46C702.451 116.112 697.645 111.417 694.681 103.375C692.267 96.6795 689.178 91.8161 685.41 88.7844C681.682 85.7107 676.898 84.1737 671.056 84.1737C664.872 84.1737 659.39 85.7737 654.606 88.9738C649.82 92.174 646.031 97.2479 643.236 104.196C640.441 111.143 639.044 120.007 639.044 130.786C639.044 143.039 640.823 153.398 644.379 161.862C647.935 170.283 652.826 176.62 659.05 180.873C665.318 185.084 672.516 187.189 680.646 187.189C687.588 187.189 693.792 185.863 699.255 183.21C704.759 180.515 709.628 176.957 713.863 172.536C716.361 170.009 719.006 168.893 721.801 169.188C724.638 169.441 726.712 170.788 728.025 173.23C729.38 175.673 729.338 178.389 727.898 181.378C725.273 186.936 721.314 192.01 716.022 196.6C710.771 201.19 704.398 204.852 696.904 207.59C689.41 210.327 681.237 211.696 672.388 211.696Z" fill="#9D9D9D"/>
<path d="M801.774 211.696C788.224 211.696 776.073 208.6 765.318 202.411C754.562 196.179 746.157 187.589 740.103 176.641C734.049 165.651 731.02 153.293 731.02 139.566C731.02 125.797 734.134 113.396 740.358 102.364C746.582 91.2898 755.134 82.6157 766.016 76.3418C776.899 70.0677 789.072 66.9308 802.535 66.9308C816.001 66.9308 828.089 70.0677 838.802 76.3418C849.557 82.5735 857.939 91.2056 863.953 102.238C870.007 113.228 873.035 125.586 873.035 139.313C873.035 153.166 869.945 165.609 863.761 176.641C857.58 187.631 849.07 196.221 838.23 202.411C827.39 208.6 815.239 211.696 801.774 211.696ZM804.823 194.452C811.089 194.452 816.826 192.368 822.034 188.2C827.243 183.989 831.308 177.778 834.23 169.567C837.192 161.356 838.442 151.503 837.976 140.008C837.509 128.302 835.393 118.238 831.625 109.817C827.899 101.396 823.157 95.0162 817.398 90.6792C811.639 86.3421 805.584 84.1737 799.233 84.1737C793.01 84.1737 787.293 86.2369 782.085 90.3633C776.877 94.49 772.791 100.595 769.827 108.68C766.862 116.765 765.614 126.512 766.079 137.923C766.588 149.756 768.704 159.945 772.432 168.493C776.2 177.041 780.942 183.504 786.659 187.884C792.416 192.263 798.472 194.452 804.823 194.452Z" fill="#9D9D9D"/>
<path d="M882.888 207.843C879.629 207.758 877.089 206.559 875.267 204.242C873.446 201.927 872.854 199.4 873.488 196.663C874.124 193.884 876.051 191.863 879.268 190.6C883.799 188.957 886.954 187.336 888.733 185.736C890.552 184.136 891.78 181.631 892.416 178.22C893.05 174.767 893.452 168.957 893.622 160.788C893.834 150.387 893.791 137.545 893.494 122.26C893.409 116.912 892.987 112.891 892.224 110.196C891.505 107.501 890.255 105.354 888.478 103.754C886.741 102.111 883.842 100.195 879.777 98.006C877.279 96.5323 875.649 94.7215 874.886 92.574C874.124 90.4266 874.251 88.3212 875.267 86.2579C876.283 84.1947 877.997 82.5735 880.413 81.3946C882.699 80.3419 884.942 79.2892 887.143 78.2367C889.347 77.1417 891.548 76.047 893.749 74.9523C898.196 72.8047 902.62 70.6785 907.024 68.573C909.775 67.3097 912.105 66.6992 914.009 66.7414C915.916 66.7834 917.418 67.3939 918.519 68.573C919.619 69.71 920.425 71.3099 920.932 73.3731C921.568 75.6892 922.606 77.4366 924.044 78.6155C925.526 79.7946 927.39 80.2999 929.634 80.1315C931.877 79.9631 934.418 79.0578 937.255 77.4156C945.173 72.7837 953.091 69.7099 961.009 68.194C968.927 66.6782 976.274 66.8676 983.047 68.7624C989.822 70.6152 995.412 74.1942 999.816 79.4998C1002.31 82.3631 1005.07 83.8579 1008.07 83.9843C1011.12 84.0685 1014.78 82.7422 1019.06 80.0051C1030.96 72.2574 1043.03 68.173 1055.26 67.7519C1067.5 67.2887 1077.53 70.6152 1085.37 77.7312C1093.24 84.8054 1097.07 94.9953 1096.86 108.301C1096.78 117.186 1096.71 126.091 1096.67 135.018C1096.67 143.945 1096.74 152.324 1096.86 160.156C1096.95 168.788 1097.26 174.809 1097.82 178.22C1098.36 181.631 1099.55 184.115 1101.37 185.673C1103.19 187.231 1106.47 188.726 1111.22 190.157C1114.52 191.294 1116.53 193.273 1117.25 196.095C1117.97 198.916 1117.38 201.547 1115.47 203.99C1113.57 206.431 1110.83 207.716 1107.28 207.843C1099.28 208.011 1090.89 208.095 1082.13 208.095C1073.36 208.095 1064.49 208.011 1055.52 207.843C1052.3 207.758 1049.78 206.559 1047.96 204.242C1046.14 201.927 1045.54 199.4 1046.18 196.663C1046.86 193.884 1048.8 191.842 1052.02 190.536C1056.6 188.936 1059.77 187.336 1061.55 185.736C1063.33 184.094 1064.51 181.546 1065.11 178.094C1065.7 174.641 1066.08 168.704 1066.25 160.282C1066.38 153.251 1066.44 145.819 1066.44 137.987C1066.44 130.113 1066.38 122.302 1066.25 114.554C1066.08 107.185 1063.81 101.122 1059.45 96.3636C1055.09 91.6057 1049.57 89.037 1042.88 88.6582C1036.23 88.237 1029.56 90.3846 1022.87 95.1005C1018.59 98.048 1015.48 101.964 1013.53 106.848C1011.63 111.691 1010.61 117.628 1010.48 124.66C1010.23 136.492 1010.23 148.45 1010.48 160.535V161.672C1010.65 169.672 1011.04 175.315 1011.63 178.599C1012.26 181.884 1013.49 184.305 1015.31 185.863C1017.17 187.379 1020.44 188.873 1025.09 190.347C1028.31 191.526 1030.26 193.526 1030.94 196.347C1031.61 199.126 1030.98 201.716 1029.03 204.115C1027.13 206.516 1024.39 207.758 1020.84 207.843C1012.45 207.926 1003.9 207.968 995.179 207.968C986.498 207.968 977.798 207.926 969.074 207.843C965.858 207.758 963.337 206.536 961.518 204.18C959.739 201.863 959.21 199.316 959.929 196.537C960.65 193.758 962.681 191.694 966.027 190.347C970.43 188.789 973.479 187.252 975.173 185.736C976.908 184.178 978.073 181.673 978.665 178.22C979.301 174.767 979.703 168.83 979.872 160.409C980 153.461 980.062 146.008 980.062 138.05C980.062 130.049 980 122.049 979.872 114.049C979.703 106.764 977.417 100.806 973.012 96.1742C968.61 91.5425 963.041 89.058 956.31 88.7212C949.62 88.3844 942.992 90.5318 936.429 95.1637C933.382 97.2691 930.968 99.8376 929.189 102.869C927.41 105.901 926.14 109.227 925.379 112.849C924.615 116.428 924.193 120.365 924.108 124.66C923.981 131.186 923.919 137.271 923.919 142.913C923.959 148.513 924.066 154.388 924.236 160.535C924.448 169.167 924.827 175.146 925.379 178.473C925.97 181.799 927.178 184.241 929 185.799C930.819 187.357 934.143 188.936 938.969 190.536C942.103 191.758 943.967 193.758 944.559 196.537C945.153 199.274 944.517 201.821 942.655 204.18C940.791 206.536 938.166 207.758 934.779 207.843C926.31 207.885 917.438 207.906 908.167 207.906C898.937 207.906 890.51 207.885 882.888 207.843Z" fill="#9D9D9D"/>
</g>
<defs>
<clipPath id="clip0_2048_294">
<rect width="1117.74" height="213.047" fill="white"/>
</clipPath>
</defs>
</svg>
