<svg width="113" height="24" viewBox="0 0 113 24" fill="none" xmlns="http://www.w3.org/2000/svg">
<g clip-path="url(#clip0_5622_2630)">
<path d="M16.2113 4.84492H10.8679V23.3657H6.97358V4.8902H0V1.53926H19.4717L16.2113 4.84492ZM77.9774 9.10153C78.566 10.2336 78.8377 11.5468 78.8377 13.1317V23.3657H74.9887V13.6751C74.9887 12.2261 74.6717 11.094 73.9472 10.3242C73.2226 9.55436 72.2717 9.19209 71.0491 9.19209C69.8264 9.19209 68.8755 9.55436 68.1509 10.3242C67.4264 11.0487 67.0642 12.1808 67.0642 13.6298V23.3657H63.1698V4.02983L67.0642 0.0449219V7.51662C67.6076 7.01851 68.2415 6.56568 68.966 6.2487C69.917 5.88643 70.9132 5.66002 72 5.66002C73.2679 5.66002 74.4453 5.93171 75.4868 6.52039L75.5321 6.56568C76.5283 7.10907 77.3434 7.96945 77.9774 9.10153ZM20.1057 4.79964L23.3208 1.53926H33.2377V4.43737L28.3472 9.50907C30.0679 9.73549 31.4717 10.3695 32.4679 11.411L32.5585 11.5015C33.6906 12.6789 34.234 14.2638 34.3245 16.2562C34.3245 18.3845 33.6453 20.1053 32.3321 21.3732C31.0189 22.6411 29.2075 23.2751 26.9434 23.2751C24.8604 23.2751 23.1396 22.6864 21.8264 21.5996C20.4679 20.5128 19.7434 18.9279 19.6528 16.8449V16.6185H23.3208V16.8449C23.4113 17.7959 23.7283 18.5657 24.3623 19.1996C24.9509 19.7883 25.8113 20.1053 26.9434 20.1053C28.0755 20.1053 28.9811 19.7883 29.6151 19.1091C30.2491 18.4298 30.566 17.4789 30.566 16.3015C30.566 15.0789 30.2491 14.1732 29.6151 13.5393C28.9359 12.86 28.0755 12.543 26.9434 12.543H23.7736V9.87134L28.5736 4.79964H20.1057ZM111.758 5.977V9.28266H107.683V19.5619L105.057 22.2789L103.743 23.5921V9.28266H101.796V5.977H103.743V1.76568H107.683V5.977H111.758ZM47.9547 6.83737C49.2226 6.06756 50.6717 5.7053 52.3019 5.7053C54.3849 5.7053 56.1057 6.20341 57.4642 7.19964C58.8226 8.19587 59.7736 9.64492 60.2264 11.5015L60.2717 11.7279H56.1509L56.1057 11.5921C55.7887 10.777 55.3359 10.143 54.7019 9.6902C54.0679 9.23737 53.2981 9.01096 52.3019 9.01096C50.9434 9.01096 49.8566 9.46379 49.0415 10.46C48.2264 11.4562 47.8189 12.8147 47.8189 14.6261C47.8189 16.4374 48.2264 17.8411 49.0415 18.8374C49.8566 19.8336 50.9434 20.3317 52.3019 20.3317C53.2981 20.3317 54.0679 20.1053 54.7019 19.6978C55.3359 19.2449 55.7887 18.611 56.1057 17.7506L56.1509 17.6147H60.2717L60.2264 17.8411C59.7283 19.6072 58.7774 21.011 57.4189 22.0525C56.0151 23.094 54.3396 23.6374 52.3019 23.6374C50.6717 23.6374 49.2226 23.2751 47.9547 22.5053C46.6868 21.7355 45.6906 20.694 44.966 19.3355C44.2415 17.977 43.8792 16.3921 43.8792 14.6261C43.8792 12.86 44.2415 11.2751 44.966 9.91662L45.1019 9.6902C45.7811 8.42228 46.7321 7.42605 47.9547 6.83737ZM89.5698 23.5921C88.1208 23.5921 86.7623 23.1845 85.5396 22.4147C84.317 21.6449 83.366 20.5581 82.6415 19.1996C81.917 17.8411 81.5547 16.2562 81.5547 14.5355C81.5547 12.8147 81.917 11.2751 82.6415 9.91662C83.3208 8.60341 84.317 7.5619 85.5396 6.79209C86.7623 6.02228 88.1208 5.66002 89.6151 5.66002C90.9736 5.66002 92.1509 5.93171 93.1472 6.47511C93.9623 6.88266 94.6868 7.42605 95.2302 8.06002V5.93171H99.0792V23.3204H95.2302V21.1468C94.6868 21.7808 93.9623 22.3242 93.1019 22.777C92.0604 23.3204 90.8377 23.5921 89.5698 23.5921ZM92.6943 9.73549C91.9698 9.32794 91.1547 9.10153 90.2943 9.10153C89.434 9.10153 88.6189 9.28266 87.8943 9.73549C87.1245 10.143 86.5359 10.777 86.083 11.5921C85.6302 12.4072 85.4038 13.4034 85.4038 14.5355C85.4038 15.6676 85.6302 16.6638 86.083 17.5242C86.5359 18.3845 87.1245 19.0185 87.8943 19.4713C88.6642 19.9242 89.434 20.1506 90.2943 20.1506C91.1547 20.1506 91.9698 19.9242 92.6943 19.4713C93.4189 19.0638 94.0528 18.4298 94.5057 17.5695C94.9585 16.7091 95.1849 15.7128 95.1849 14.5808C95.1849 13.5393 95.0038 12.6336 94.6415 11.8638L94.5057 11.6374C94.0528 10.8223 93.4642 10.1883 92.6943 9.73549ZM38.1736 20.0147H41.2981V23.1393H38.1736V20.0147Z" fill="#9D9D9D"/>
</g>
<defs>
<clipPath id="clip0_5622_2630">
<rect width="112.166" height="24" fill="white"/>
</clipPath>
</defs>
</svg>
